<svg width="328" height="108" viewBox="0 0 328 108" fill="none" xmlns="http://www.w3.org/2000/svg">
<g clip-path="url(#clip0_411_11700)">
<path d="M0 8C0 3.58172 3.58172 0 8 0H320C324.418 0 328 3.58172 328 8V100C328 104.418 324.418 108 320 108H7.99999C3.58171 108 0 104.418 0 100V8Z" fill="#F5F5F4"/>
<g opacity="0.4">
<path d="M995.604 285.514L1039.07 310.609L997.976 334.335M995.604 285.514L954.51 309.24M995.604 285.514L952.138 260.419M954.51 309.24L997.976 334.335M954.51 309.24L911.044 284.145M954.51 309.24L913.416 332.966M997.976 334.335L956.882 358.061M952.138 260.419L911.044 284.145M952.138 260.419L908.672 235.324M911.044 284.145L867.577 259.049M911.044 284.145L869.95 307.87M908.672 235.324L867.577 259.049M908.672 235.324L865.205 210.228M867.577 259.049L824.111 233.954M867.577 259.049L826.483 282.775M865.205 210.228L824.111 233.954M865.205 210.228L821.739 185.133M824.111 233.954L780.645 208.859M824.111 233.954L783.017 257.68M821.739 185.133L780.645 208.859M821.739 185.133L778.273 160.038M780.645 208.859L737.179 183.764M780.645 208.859L739.551 232.585M778.273 160.038L737.179 183.764M778.273 160.038L734.807 134.943M737.179 183.764L693.713 158.668M737.179 183.764L696.085 207.489M734.807 134.943L693.713 158.668M734.807 134.943L691.34 109.847M693.713 158.668L650.246 133.573M693.713 158.668L652.618 182.394M691.34 109.847L650.246 133.573M691.34 109.847L647.874 84.7522M650.246 133.573L606.78 108.478M650.246 133.573L609.152 157.299M647.874 84.7522L606.78 108.478M647.874 84.7522L604.408 59.657M606.78 108.478L563.314 83.3827M606.78 108.478L565.686 132.204M604.408 59.657L563.314 83.3827M604.408 59.657L560.942 34.5617M563.314 83.3827L519.848 58.2875M563.314 83.3827L522.22 107.108M560.942 34.5617L519.848 58.2875M560.942 34.5617L517.476 9.46647M519.848 58.2875L476.381 33.1922M519.848 58.2875L478.753 82.0132M517.476 9.46647L476.381 33.1922M517.476 9.46647L474.009 -15.6288M476.381 33.1922L432.915 8.09697M476.381 33.1922L435.287 56.9179M474.009 -15.6288L432.915 8.09697M474.009 -15.6288L430.543 -40.724M432.915 8.09697L389.449 -16.9983M432.915 8.09697L391.821 31.8227M430.543 -40.724L389.449 -16.9983M430.543 -40.724L387.077 -65.8192M389.449 -16.9983L345.983 -42.0935M389.449 -16.9983L348.355 6.72747M387.077 -65.8192L345.983 -42.0935M387.077 -65.8192L343.611 -90.9145M345.983 -42.0935L302.516 -67.1887M345.983 -42.0935L304.889 -18.3678M343.611 -90.9145L302.516 -67.1887M343.611 -90.9145L300.144 -116.01L259.05 -92.284M302.516 -67.1887L259.05 -92.284M302.516 -67.1887L261.422 -43.463M259.05 -92.284L217.956 -68.5582M913.416 332.966L956.882 358.061M913.416 332.966L869.95 307.87M913.416 332.966L872.322 356.691M956.882 358.061L915.788 381.787M869.95 307.87L826.483 282.775M869.95 307.87L828.855 331.596M826.483 282.775L783.017 257.68M826.483 282.775L785.389 306.501M783.017 257.68L739.551 232.585M783.017 257.68L741.923 281.406M739.551 232.585L696.085 207.489M739.551 232.585L698.457 256.31M696.085 207.489L652.618 182.394M696.085 207.489L654.99 231.215M652.618 182.394L609.152 157.299M652.618 182.394L611.524 206.12M609.152 157.299L565.686 132.204M609.152 157.299L568.058 181.025M565.686 132.204L522.22 107.108M565.686 132.204L524.592 155.929M522.22 107.108L478.753 82.0132M522.22 107.108L481.126 130.834M478.753 82.0132L435.287 56.9179M478.753 82.0132L437.659 105.739M435.287 56.9179L391.821 31.8227M435.287 56.9179L394.193 80.6437M391.821 31.8227L348.355 6.72747M391.821 31.8227L350.727 55.5484M348.355 6.72747L304.889 -18.3678M348.355 6.72747L307.261 30.4532M304.889 -18.3678L261.422 -43.463M304.889 -18.3678L263.794 5.35794M261.422 -43.463L217.956 -68.5582M261.422 -43.463L220.328 -19.7373M217.956 -68.5582L176.862 -44.8325M872.322 356.691L915.788 381.787M872.322 356.691L828.855 331.596M872.322 356.691L831.227 380.417M915.788 381.787L874.694 405.512M828.855 331.596L785.389 306.501M828.855 331.596L787.761 355.322M785.389 306.501L741.923 281.406M785.389 306.501L744.295 330.227M741.923 281.406L698.457 256.31M741.923 281.406L700.829 305.131M698.457 256.31L654.99 231.215M698.457 256.31L657.362 280.036M654.99 231.215L611.524 206.12M654.99 231.215L613.896 254.941M611.524 206.12L568.058 181.025M611.524 206.12L570.43 229.846M568.058 181.025L524.592 155.929M568.058 181.025L526.964 204.75M524.592 155.929L481.126 130.834M524.592 155.929L483.498 179.655M481.126 130.834L437.659 105.739M481.126 130.834L440.031 154.56M437.659 105.739L394.193 80.6437M437.659 105.739L396.565 129.465M394.193 80.6437L350.727 55.5484M394.193 80.6437L353.099 104.369M350.727 55.5484L307.261 30.4532M350.727 55.5484L309.633 79.2742M307.261 30.4532L263.794 5.35794M307.261 30.4532L266.166 54.1789M263.794 5.35794L220.328 -19.7373M263.794 5.35794L222.7 29.0837M220.328 -19.7373L176.862 -44.8325M220.328 -19.7373L179.234 3.98844M176.862 -44.8325L135.768 -21.1068M831.227 380.417L874.694 405.512M831.227 380.417L787.761 355.322M831.227 380.417L790.133 404.143M874.694 405.512L833.599 429.238M787.761 355.322L744.295 330.227M787.761 355.322L746.667 379.048M744.295 330.227L700.829 305.131M744.295 330.227L703.201 353.952M700.829 305.131L657.362 280.036M700.829 305.131L659.735 328.857M657.362 280.036L613.896 254.941M657.362 280.036L616.268 303.762M613.896 254.941L570.43 229.846M613.896 254.941L572.802 278.667M570.43 229.846L526.964 204.75M570.43 229.846L529.336 253.571M526.964 204.75L483.498 179.655M526.964 204.75L485.87 228.476M483.498 179.655L440.031 154.56M483.498 179.655L442.403 203.381M440.031 154.56L396.565 129.465M440.031 154.56L398.937 178.286M396.565 129.465L353.099 104.369M396.565 129.465L355.471 153.19M353.099 104.369L309.633 79.2742M353.099 104.369L312.005 128.095M309.633 79.2742L266.166 54.1789M309.633 79.2742L268.538 103M266.166 54.1789L222.7 29.0837M266.166 54.1789L225.072 77.9047M222.7 29.0837L179.234 3.98844M222.7 29.0837L181.606 52.8094M179.234 3.98844L135.768 -21.1068M179.234 3.98844L138.14 27.7142M135.768 -21.1068L94.6736 2.61893M790.133 404.143L833.599 429.238M790.133 404.143L746.667 379.048M790.133 404.143L749.039 427.869M833.599 429.238L792.505 452.964M746.667 379.048L703.201 353.952M746.667 379.048L705.573 402.773M703.201 353.952L659.735 328.857M703.201 353.952L662.107 377.678M659.735 328.857L616.268 303.762M659.735 328.857L618.64 352.583M616.268 303.762L572.802 278.667M616.268 303.762L575.174 327.488M572.802 278.667L529.336 253.571M572.802 278.667L531.708 302.392M529.336 253.571L485.87 228.476M529.336 253.571L488.242 277.297M485.87 228.476L442.403 203.381M485.87 228.476L444.775 252.202M442.403 203.381L398.937 178.286M442.403 203.381L401.309 227.107M398.937 178.286L355.471 153.19M398.937 178.286L357.843 202.011M355.471 153.19L312.005 128.095M355.471 153.19L314.377 176.916M312.005 128.095L268.538 103M312.005 128.095L270.911 151.821M268.538 103L225.072 77.9047M268.538 103L227.444 126.726M225.072 77.9047L181.606 52.8094M225.072 77.9047L183.978 101.63M181.606 52.8094L138.14 27.7142M181.606 52.8094L140.512 76.5351M138.14 27.7142L94.6736 2.61893M138.14 27.7142L97.0456 51.4399M94.6736 2.61893L53.5794 26.3447M749.039 427.869L792.505 452.964M749.039 427.869L705.573 402.773M749.039 427.869L707.945 451.594M792.505 452.964L751.411 476.689M705.573 402.773L662.107 377.678M705.573 402.773L664.479 426.499M662.107 377.678L618.64 352.583M662.107 377.678L621.012 401.404M618.64 352.583L575.174 327.488M618.64 352.583L577.546 376.309M575.174 327.488L531.708 302.392M575.174 327.488L534.08 351.213M531.708 302.392L488.242 277.297M531.708 302.392L490.614 326.118M488.242 277.297L444.775 252.202M488.242 277.297L447.148 301.023M444.775 252.202L401.309 227.107M444.775 252.202L403.681 275.928M401.309 227.107L357.843 202.011M401.309 227.107L360.215 250.832M357.843 202.011L314.377 176.916M357.843 202.011L316.749 225.737M314.377 176.916L270.911 151.821M314.377 176.916L273.283 200.642M270.911 151.821L227.444 126.726M270.911 151.821L229.816 175.547M227.444 126.726L183.978 101.63M227.444 126.726L186.35 150.451M183.978 101.63L140.512 76.5351M183.978 101.63L142.884 125.356M140.512 76.5351L97.0456 51.4399M140.512 76.5351L99.4177 100.261M97.0456 51.4399L53.5794 26.3447M97.0456 51.4399L55.9515 75.1656M53.5794 26.3447L12.4852 50.0704M707.945 451.594L751.411 476.689M707.945 451.594L664.479 426.499M707.945 451.594L666.851 475.32M751.411 476.689L710.317 500.415M664.479 426.499L621.012 401.404M664.479 426.499L623.384 450.225M621.012 401.404L577.546 376.309M621.012 401.404L579.918 425.129M577.546 376.309L534.08 351.213M577.546 376.309L536.452 400.034M534.08 351.213L490.614 326.118M534.08 351.213L492.986 374.939M490.614 326.118L447.148 301.023M490.614 326.118L449.52 349.844M447.148 301.023L403.681 275.928M447.148 301.023L406.053 324.749M403.681 275.928L360.215 250.832M403.681 275.928L362.587 299.653M360.215 250.832L316.749 225.737M360.215 250.832L319.121 274.558M316.749 225.737L273.283 200.642M316.749 225.737L275.655 249.463M273.283 200.642L229.816 175.547M273.283 200.642L232.188 224.368M229.816 175.547L186.35 150.451M229.816 175.547L188.722 199.272M186.35 150.451L142.884 125.356M186.35 150.451L145.256 174.177M142.884 125.356L99.4177 100.261M142.884 125.356L101.79 149.082M99.4177 100.261L55.9515 75.1656M99.4177 100.261L58.3235 123.987M55.9515 75.1656L12.4852 50.0704M55.9515 75.1656L14.8573 98.8914M12.4852 50.0704L-28.6089 73.7961M666.851 475.32L710.317 500.415M666.851 475.32L623.384 450.225M666.851 475.32L625.757 499.046M710.317 500.415L669.223 524.141M623.384 450.225L579.918 425.129M623.384 450.225L582.29 473.95M579.918 425.129L536.452 400.034M579.918 425.129L538.824 448.855M536.452 400.034L492.986 374.939M536.452 400.034L495.358 423.76M492.986 374.939L449.52 349.844M492.986 374.939L451.892 398.665M449.52 349.844L406.053 324.749M449.52 349.844L408.425 373.569M406.053 324.749L362.587 299.653M406.053 324.749L364.959 348.474M362.587 299.653L319.121 274.558M362.587 299.653L321.493 323.379M319.121 274.558L275.655 249.463M319.121 274.558L278.027 298.284M275.655 249.463L232.188 224.368M275.655 249.463L234.56 273.189M232.188 224.368L188.722 199.272M232.188 224.368L191.094 248.093M188.722 199.272L145.256 174.177M188.722 199.272L147.628 222.998M145.256 174.177L101.79 149.082M145.256 174.177L104.162 197.903M101.79 149.082L58.3235 123.987M101.79 149.082L60.6956 172.808M58.3235 123.987L14.8573 98.8914M58.3235 123.987L17.2293 147.712M14.8573 98.8914L-28.6089 73.7961M14.8573 98.8914L-26.2369 122.617M-28.6089 73.7961L-69.7031 97.5219M625.757 499.046L669.223 524.141M625.757 499.046L582.29 473.95M625.757 499.046L584.662 522.771M669.223 524.141L628.129 547.867M582.29 473.95L538.824 448.855M582.29 473.95L541.196 497.676M538.824 448.855L495.358 423.76M538.824 448.855L497.73 472.581M495.358 423.76L451.892 398.665M495.358 423.76L454.264 447.486M451.892 398.665L408.425 373.569M451.892 398.665L410.797 422.39M408.425 373.569L364.959 348.474M408.425 373.569L367.331 397.295M364.959 348.474L321.493 323.379M364.959 348.474L323.865 372.2M321.493 323.379L278.027 298.284M321.493 323.379L280.399 347.105M278.027 298.284L234.56 273.189M278.027 298.284L236.933 322.009M234.56 273.189L191.094 248.093M234.56 273.189L193.466 296.914M191.094 248.093L147.628 222.998M191.094 248.093L150 271.819M147.628 222.998L104.162 197.903M147.628 222.998L106.534 246.724M104.162 197.903L60.6956 172.808M104.162 197.903L63.0676 221.629M60.6956 172.808L17.2293 147.712M60.6956 172.808L19.6014 196.533M17.2293 147.712L-26.2369 122.617M17.2293 147.712L-23.8648 171.438M-26.2369 122.617L-69.7031 97.5219M-26.2369 122.617L-67.331 146.343M-69.7031 97.5219L-110.797 121.248M584.662 522.771L628.129 547.867M584.662 522.771L541.196 497.676M584.662 522.771L543.568 546.497M628.129 547.867L587.034 571.592M541.196 497.676L497.73 472.581M541.196 497.676L500.102 521.402M497.73 472.581L454.264 447.486M497.73 472.581L456.636 496.307M454.264 447.486L410.797 422.39M454.264 447.486L413.169 471.211M410.797 422.39L367.331 397.295M410.797 422.39L369.703 446.116M367.331 397.295L323.865 372.2M367.331 397.295L326.237 421.021M323.865 372.2L280.399 347.105M323.865 372.2L282.771 395.926M280.399 347.105L236.933 322.009M280.399 347.105L239.305 370.83M236.933 322.009L193.466 296.914M236.933 322.009L195.838 345.735M193.466 296.914L150 271.819M193.466 296.914L152.372 320.64M150 271.819L106.534 246.724M150 271.819L108.906 295.545M106.534 246.724L63.0676 221.629M106.534 246.724L65.4396 270.449M63.0676 221.629L19.6014 196.533M63.0676 221.629L21.9734 245.354M19.6014 196.533L-23.8648 171.438M19.6014 196.533L-21.4928 220.259M-23.8648 171.438L-67.331 146.343M-23.8648 171.438L-64.959 195.164M-67.331 146.343L-110.797 121.248M-67.331 146.343L-108.425 170.069M-110.797 121.248L-151.891 144.973M543.568 546.497L587.034 571.592M543.568 546.497L500.102 521.402M543.568 546.497L502.474 570.223M587.034 571.592L545.94 595.318L502.474 570.223M500.102 521.402L456.636 496.307M500.102 521.402L459.008 545.128M456.636 496.307L413.169 471.211M456.636 496.307L415.542 520.032M413.169 471.211L369.703 446.116M413.169 471.211L372.075 494.937M369.703 446.116L326.237 421.021M369.703 446.116L328.609 469.842M326.237 421.021L282.771 395.926M326.237 421.021L285.143 444.747M282.771 395.926L239.305 370.83M282.771 395.926L241.677 419.651M239.305 370.83L195.838 345.735M239.305 370.83L198.21 394.556M195.838 345.735L152.372 320.64M195.838 345.735L154.744 369.461M152.372 320.64L108.906 295.545M152.372 320.64L111.278 344.366M108.906 295.545L65.4396 270.449M108.906 295.545L67.8117 319.27M65.4396 270.449L21.9734 245.354M65.4396 270.449L24.3455 294.175M21.9734 245.354L-21.4928 220.259M21.9734 245.354L-19.1207 269.08M-21.4928 220.259L-64.959 195.164M-21.4928 220.259L-62.5869 243.985M-64.959 195.164L-108.425 170.069M-64.959 195.164L-106.053 218.889M-108.425 170.069L-151.891 144.973M-108.425 170.069L-149.519 193.794M-151.891 144.973L-192.986 168.699L-149.519 193.794M502.474 570.223L459.008 545.128M459.008 545.128L415.542 520.032M415.542 520.032L372.075 494.937M372.075 494.937L328.609 469.842M328.609 469.842L285.143 444.747M285.143 444.747L241.677 419.651M241.677 419.651L198.21 394.556M198.21 394.556L154.744 369.461M154.744 369.461L111.278 344.366M111.278 344.366L67.8117 319.27M67.8117 319.27L24.3455 294.175M24.3455 294.175L-19.1207 269.08M-19.1207 269.08L-62.5869 243.985M-62.5869 243.985L-106.053 218.889M-106.053 218.889L-149.519 193.794" stroke="url(#paint0_radial_411_11700)" stroke-opacity="0.85"/>
<g filter="url(#filter0_f_411_11700)">
<circle cx="220.782" cy="220.782" r="220.782" transform="matrix(0.866025 -0.5 0.866025 0.5 -158.035 213.781)" fill="white"/>
<circle cx="220.782" cy="220.782" r="220.782" transform="matrix(0.866025 -0.5 0.866025 0.5 -158.035 213.781)" fill="#003323" fill-opacity="0.3"/>
<circle cx="220.782" cy="220.782" r="220.575" transform="matrix(0.866025 -0.5 0.866025 0.5 -158.035 213.781)" stroke="url(#paint1_radial_411_11700)" stroke-opacity="0.85" stroke-width="0.413063"/>
</g>
</g>
<path d="M253.85 38.8921C254.807 38.3398 256.358 38.3398 257.314 38.8921L269.243 45.7793C270.2 46.3316 270.2 47.227 269.243 47.7793L146.676 118.543C145.72 119.096 144.169 119.096 143.212 118.543L131.283 111.656C130.327 111.104 130.327 110.209 131.283 109.656L253.85 38.8921ZM104.582 24.3799C104.858 23.9707 105.448 23.6587 106.178 23.5356L181.815 10.7851C182.674 10.6404 183.602 10.7773 184.234 11.1425L191.318 15.2324C192.253 15.7722 192.271 16.6388 191.379 17.1933L194.966 15.1225L202.663 19.5664L199.78 21.2304L234.413 41.2256L237.298 39.56L244.995 44.0039L141.095 103.99L135.131 100.547C134.175 99.9946 134.175 99.0991 135.131 98.5468L136.282 97.8823L101.649 77.8867L100.495 78.5527C99.5386 79.105 97.9877 79.105 97.0311 78.5527L91.0696 75.1108L81.2574 80.7758C80.3009 81.3281 78.7499 81.328 77.7933 80.7758L70.8144 76.7466C70.1272 76.3498 69.911 75.7562 70.2638 75.2334L104.582 24.3799ZM218.272 50.5464C219.197 50.0229 220.66 50.0089 221.615 50.5029L219.981 49.5595L218.272 50.5464ZM183.709 28.6206C184.571 29.1758 184.542 30.0284 183.618 30.562L185.345 29.5649L183.709 28.6206Z" fill="white"/>
<path d="M253.85 38.8921C254.807 38.3398 256.358 38.3398 257.314 38.8921L269.243 45.7793C270.2 46.3316 270.2 47.227 269.243 47.7793L146.676 118.543C145.72 119.096 144.169 119.096 143.212 118.543L131.283 111.656C130.327 111.104 130.327 110.209 131.283 109.656L253.85 38.8921ZM104.582 24.3799C104.858 23.9707 105.448 23.6587 106.178 23.5356L181.815 10.7851C182.674 10.6404 183.602 10.7773 184.234 11.1425L191.318 15.2324C192.253 15.7722 192.271 16.6388 191.379 17.1933L194.966 15.1225L202.663 19.5664L199.78 21.2304L234.413 41.2256L237.298 39.56L244.995 44.0039L141.095 103.99L135.131 100.547C134.175 99.9946 134.175 99.0991 135.131 98.5468L136.282 97.8823L101.649 77.8867L100.495 78.5527C99.5386 79.105 97.9877 79.105 97.0311 78.5527L91.0696 75.1108L81.2574 80.7758C80.3009 81.3281 78.7499 81.328 77.7933 80.7758L70.8144 76.7466C70.1272 76.3498 69.911 75.7562 70.2638 75.2334L104.582 24.3799ZM218.272 50.5464C219.197 50.0229 220.66 50.0089 221.615 50.5029L219.981 49.5595L218.272 50.5464ZM183.709 28.6206C184.571 29.1758 184.542 30.0284 183.618 30.562L185.345 29.5649L183.709 28.6206Z" fill="#003323" fill-opacity="0.3"/>
<rect width="145.529" height="17.7745" rx="2" transform="matrix(0.866025 -0.5 0.866025 0.5 129.098 104)" fill="white"/>
<path d="M70.357 70.0867C69.6698 69.6899 69.4538 69.0961 69.8067 68.5732L104.172 17.6497C104.421 17.2808 104.926 16.9891 105.565 16.8454L193.767 -2.99554C194.673 -3.19924 195.702 -3.07458 196.389 -2.67781L203.367 1.35137C204.324 1.90365 204.324 2.79908 203.367 3.35137L80.7998 74.1158C79.8432 74.6681 78.2923 74.6681 77.3357 74.1158L70.357 70.0867Z" fill="white"/>
<rect width="113.295" height="57.7699" transform="matrix(0.866025 -0.5 0.866025 0.5 93.5 66.7812)" fill="white"/>
<rect width="13.3309" height="39.9927" transform="matrix(0.866025 -0.5 0.866025 0.5 116 62.6641)" fill="white"/>
<rect width="13.3309" height="39.9927" transform="matrix(0.866025 -0.5 0.866025 0.5 116 62.6641)" fill="#003323" fill-opacity="0.2"/>
<path d="M90.6133 68.4453L195.891 7.66339L201.855 11.107C202.812 11.6593 202.812 12.5547 201.855 13.107L100.042 71.8889C99.0853 72.4412 97.5344 72.4412 96.5778 71.8889L90.6133 68.4453Z" fill="white"/>
<path d="M90.6133 68.4453L195.891 7.66339L201.855 11.107C202.812 11.6593 202.812 12.5547 201.855 13.107L100.042 71.8889C99.0853 72.4412 97.5344 72.4412 96.5778 71.8889L90.6133 68.4453Z" fill="#003323" fill-opacity="0.1"/>
<path d="M134.673 93.8906C133.717 93.3383 133.717 92.4429 134.673 91.8906L236.489 33.1073C237.446 32.555 238.997 32.555 239.953 33.1073L245.918 36.551L140.638 97.3343L134.673 93.8906Z" fill="white"/>
<path d="M134.673 93.8906C133.717 93.3383 133.717 92.4429 134.673 91.8906L236.489 33.1073C237.446 32.555 238.997 32.555 239.953 33.1073L245.918 36.551L140.638 97.3343L134.673 93.8906Z" fill="#003323" fill-opacity="0.1"/>
<rect width="13.3309" height="39.9927" transform="matrix(0.866025 -0.5 0.866025 0.5 135.062 51.5625)" fill="white"/>
<rect width="13.3309" height="39.9927" transform="matrix(0.866025 -0.5 0.866025 0.5 135.062 51.5625)" fill="#003323" fill-opacity="0.2"/>
<rect width="13.3309" height="39.9927" transform="matrix(0.866025 -0.5 0.866025 0.5 154 40.6641)" fill="white"/>
<rect width="13.3309" height="39.9927" transform="matrix(0.866025 -0.5 0.866025 0.5 154 40.6641)" fill="#003323" fill-opacity="0.2"/>
<rect width="13.3309" height="39.9927" transform="matrix(0.866025 -0.5 0.866025 0.5 173 29.6641)" fill="white"/>
<rect width="13.3309" height="39.9927" transform="matrix(0.866025 -0.5 0.866025 0.5 173 29.6641)" fill="#003323" fill-opacity="0.2"/>
<circle cx="8.83859" cy="8.83859" r="8.83859" transform="matrix(0.866025 -0.5 0.866025 0.5 108.973 28.4531)" fill="white"/>
<circle cx="8.83859" cy="8.83859" r="8.83859" transform="matrix(0.866025 -0.5 0.866025 0.5 108.973 28.4531)" fill="#003323" fill-opacity="0.1"/>
<path d="M125.297 25.6872L125.91 26.3345L121.066 29.1309L120.454 28.4835L125.297 25.6872ZM128.87 30.3737L122.786 30.0198L122.143 29.666L123.503 28.8806C123.857 28.6763 124.109 28.4735 124.258 28.2721C124.405 28.0693 124.444 27.8715 124.374 27.6787C124.302 27.4845 124.111 27.2982 123.802 27.1199C123.346 26.8566 122.852 26.7293 122.318 26.738C121.783 26.7452 121.231 26.9127 120.663 27.2407L119.228 28.0693L118.645 27.4392L119.826 26.7574C120.434 26.4064 121.033 26.177 121.623 26.0691C122.214 25.9583 122.777 25.9497 123.313 26.0432C123.848 26.1338 124.335 26.3057 124.774 26.5589C125.17 26.7876 125.448 27.0487 125.607 27.3421C125.767 27.6327 125.757 27.9463 125.577 28.2829C125.4 28.618 125.001 28.9654 124.378 29.325L124.355 29.338L129.976 29.666L130.036 29.7005L128.87 30.3737ZM123.488 24.6428L124.101 25.2901L120.259 27.4737L119.676 26.8437L123.488 24.6428Z" fill="white"/>
<path d="M125.297 25.6872L125.91 26.3345L121.066 29.1309L120.454 28.4835L125.297 25.6872ZM128.87 30.3737L122.786 30.0198L122.143 29.666L123.503 28.8806C123.857 28.6763 124.109 28.4735 124.258 28.2721C124.405 28.0693 124.444 27.8715 124.374 27.6787C124.302 27.4845 124.111 27.2982 123.802 27.1199C123.346 26.8566 122.852 26.7293 122.318 26.738C121.783 26.7452 121.231 26.9127 120.663 27.2407L119.228 28.0693L118.645 27.4392L119.826 26.7574C120.434 26.4064 121.033 26.177 121.623 26.0691C122.214 25.9583 122.777 25.9497 123.313 26.0432C123.848 26.1338 124.335 26.3057 124.774 26.5589C125.17 26.7876 125.448 27.0487 125.607 27.3421C125.767 27.6327 125.757 27.9463 125.577 28.2829C125.4 28.618 125.001 28.9654 124.378 29.325L124.355 29.338L129.976 29.666L130.036 29.7005L128.87 30.3737ZM123.488 24.6428L124.101 25.2901L120.259 27.4737L119.676 26.8437L123.488 24.6428Z" fill="#003323" fill-opacity="0.5"/>
<circle cx="11.3616" cy="11.3616" r="11.3616" transform="matrix(0.866025 0.5 0 1 291.371 16.7969)" fill="white"/>
<circle cx="11.3616" cy="11.3616" r="11.3616" transform="matrix(0.866025 0.5 0 1 291.371 16.7969)" fill="#003323" fill-opacity="0.3"/>
<circle cx="11.3616" cy="11.3616" r="11.3616" transform="matrix(0.866025 0.5 0 1 290 17.2812)" fill="#FAFAF9"/>
<path d="M303.271 33.4493L302.944 34.5366L296.711 30.9382L297.038 29.8509L303.271 33.4493ZM300.347 40.3636L296.826 33.4029L296.807 32.4678L298.558 33.4784C299.013 33.7413 299.401 33.8919 299.721 33.9303C300.042 33.9651 300.287 33.883 300.457 33.6841C300.627 33.4816 300.712 33.1529 300.712 32.6982C300.712 32.0272 300.536 31.3992 300.183 30.8142C299.83 30.2256 299.289 29.7203 298.558 29.2982L296.711 28.2321L297.038 27.1888L298.558 28.0662C299.34 28.5178 299.981 29.0366 300.481 29.6223C300.985 30.2063 301.357 30.8244 301.597 31.4765C301.841 32.1269 301.962 32.7748 301.962 33.4201C301.962 34.0032 301.85 34.4756 301.626 34.8374C301.405 35.1973 301.049 35.3842 300.558 35.398C300.071 35.4137 299.426 35.1901 298.625 34.7274L298.596 34.7107L301.847 41.1419V41.2299L300.347 40.3636ZM303.271 30.7872L302.944 31.8745L298.038 28.9984L298.365 27.9551L303.271 30.7872Z" fill="white"/>
<path d="M303.271 33.4493L302.944 34.5366L296.711 30.9382L297.038 29.8509L303.271 33.4493ZM300.347 40.3636L296.826 33.4029L296.807 32.4678L298.558 33.4784C299.013 33.7413 299.401 33.8919 299.721 33.9303C300.042 33.9651 300.287 33.883 300.457 33.6841C300.627 33.4816 300.712 33.1529 300.712 32.6982C300.712 32.0272 300.536 31.3992 300.183 30.8142C299.83 30.2256 299.289 29.7203 298.558 29.2982L296.711 28.2321L297.038 27.1888L298.558 28.0662C299.34 28.5178 299.981 29.0366 300.481 29.6223C300.985 30.2063 301.357 30.8244 301.597 31.4765C301.841 32.1269 301.962 32.7748 301.962 33.4201C301.962 34.0032 301.85 34.4756 301.626 34.8374C301.405 35.1973 301.049 35.3842 300.558 35.398C300.071 35.4137 299.426 35.1901 298.625 34.7274L298.596 34.7107L301.847 41.1419V41.2299L300.347 40.3636ZM303.271 30.7872L302.944 31.8745L298.038 28.9984L298.365 27.9551L303.271 30.7872Z" fill="#003323" fill-opacity="0.5"/>
<circle cx="11.3616" cy="11.3616" r="11.3616" transform="matrix(0.866025 0.5 0 1 53.3711 84.7891)" fill="white"/>
<circle cx="11.3616" cy="11.3616" r="11.3616" transform="matrix(0.866025 0.5 0 1 53.3711 84.7891)" fill="#003323" fill-opacity="0.3"/>
<circle cx="11.3616" cy="11.3616" r="11.3616" transform="matrix(0.866025 0.5 0 1 52 85.2734)" fill="#FAFAF9"/>
<path d="M65.2706 101.442L64.9435 102.529L58.7109 98.9304L59.038 97.8431L65.2706 101.442ZM62.3466 108.356L58.8264 101.395L58.8071 100.46L60.5576 101.471C61.0129 101.733 61.4008 101.884 61.7214 101.923C62.042 101.957 62.2873 101.875 62.4572 101.676C62.6272 101.474 62.7121 101.145 62.7121 100.69C62.7121 100.019 62.5358 99.3914 62.1831 98.8064C61.8304 98.2178 61.2886 97.7125 60.5576 97.2904L58.7109 96.2242L59.038 95.181L60.5576 96.0584C61.3399 96.51 61.9811 97.0287 62.4813 97.6145C62.9846 98.1985 63.3565 98.8165 63.597 99.4687C63.8407 100.119 63.9625 100.767 63.9625 101.412C63.9625 101.995 63.8503 102.468 63.6259 102.83C63.4046 103.19 63.0488 103.376 62.5582 103.39C62.0709 103.406 61.4265 103.182 60.625 102.72L60.5961 102.703L63.8471 109.134V109.222L62.3466 108.356ZM65.2706 98.7794L64.9435 99.8666L60.0383 96.9906L60.3653 95.9473L65.2706 98.7794Z" fill="white"/>
<path d="M65.2706 101.442L64.9435 102.529L58.7109 98.9304L59.038 97.8431L65.2706 101.442ZM62.3466 108.356L58.8264 101.395L58.8071 100.46L60.5576 101.471C61.0129 101.733 61.4008 101.884 61.7214 101.923C62.042 101.957 62.2873 101.875 62.4572 101.676C62.6272 101.474 62.7121 101.145 62.7121 100.69C62.7121 100.019 62.5358 99.3914 62.1831 98.8064C61.8304 98.2178 61.2886 97.7125 60.5576 97.2904L58.7109 96.2242L59.038 95.181L60.5576 96.0584C61.3399 96.51 61.9811 97.0287 62.4813 97.6145C62.9846 98.1985 63.3565 98.8165 63.597 99.4687C63.8407 100.119 63.9625 100.767 63.9625 101.412C63.9625 101.995 63.8503 102.468 63.6259 102.83C63.4046 103.19 63.0488 103.376 62.5582 103.39C62.0709 103.406 61.4265 103.182 60.625 102.72L60.5961 102.703L63.8471 109.134V109.222L62.3466 108.356ZM65.2706 98.7794L64.9435 99.8666L60.0383 96.9906L60.3653 95.9473L65.2706 98.7794Z" fill="#003323" fill-opacity="0.5"/>
<circle cx="11.3616" cy="11.3616" r="11.3616" transform="matrix(0.866025 0.5 0 1 39.3711 5.78906)" fill="white"/>
<circle cx="11.3616" cy="11.3616" r="11.3616" transform="matrix(0.866025 0.5 0 1 39.3711 5.78906)" fill="#003323" fill-opacity="0.3"/>
<circle cx="11.3616" cy="11.3616" r="11.3616" transform="matrix(0.866025 0.5 0 1 38 6.27344)" fill="#FAFAF9"/>
<path d="M51.2706 22.4415L50.9435 23.5288L44.7109 19.9304L45.038 18.8431L51.2706 22.4415ZM48.3466 29.3558L44.8264 22.3951L44.8071 21.46L46.5576 22.4706C47.0129 22.7335 47.4008 22.8841 47.7214 22.9225C48.042 22.9573 48.2873 22.8752 48.4572 22.6763C48.6272 22.4737 48.7121 22.1451 48.7121 21.6904C48.7121 21.0194 48.5358 20.3914 48.1831 19.8064C47.8304 19.2178 47.2886 18.7125 46.5576 18.2904L44.7109 17.2242L45.038 16.181L46.5576 17.0584C47.3399 17.51 47.9811 18.0287 48.4813 18.6145C48.9846 19.1985 49.3565 19.8165 49.597 20.4687C49.8407 21.1191 49.9625 21.767 49.9625 22.4123C49.9625 22.9954 49.8503 23.4678 49.6259 23.8295C49.4046 24.1895 49.0488 24.3764 48.5582 24.3902C48.0709 24.4059 47.4265 24.1823 46.625 23.7195L46.5961 23.7029L49.8471 30.134V30.222L48.3466 29.3558ZM51.2706 19.7794L50.9435 20.8666L46.0383 17.9906L46.3653 16.9473L51.2706 19.7794Z" fill="white"/>
<path d="M51.2706 22.4415L50.9435 23.5288L44.7109 19.9304L45.038 18.8431L51.2706 22.4415ZM48.3466 29.3558L44.8264 22.3951L44.8071 21.46L46.5576 22.4706C47.0129 22.7335 47.4008 22.8841 47.7214 22.9225C48.042 22.9573 48.2873 22.8752 48.4572 22.6763C48.6272 22.4737 48.7121 22.1451 48.7121 21.6904C48.7121 21.0194 48.5358 20.3914 48.1831 19.8064C47.8304 19.2178 47.2886 18.7125 46.5576 18.2904L44.7109 17.2242L45.038 16.181L46.5576 17.0584C47.3399 17.51 47.9811 18.0287 48.4813 18.6145C48.9846 19.1985 49.3565 19.8165 49.597 20.4687C49.8407 21.1191 49.9625 21.767 49.9625 22.4123C49.9625 22.9954 49.8503 23.4678 49.6259 23.8295C49.4046 24.1895 49.0488 24.3764 48.5582 24.3902C48.0709 24.4059 47.4265 24.1823 46.625 23.7195L46.5961 23.7029L49.8471 30.134V30.222L48.3466 29.3558ZM51.2706 19.7794L50.9435 20.8666L46.0383 17.9906L46.3653 16.9473L51.2706 19.7794Z" fill="#003323" fill-opacity="0.5"/>
<rect width="29.125" height="14" rx="2" transform="matrix(0.866025 0.5 0 1 30 -27)" fill="#FAFAF9"/>
</g>
<defs>
<filter id="filter0_f_411_11700" x="-189.777" y="-86.0817" width="828.295" height="599.726" filterUnits="userSpaceOnUse" color-interpolation-filters="sRGB">
<feFlood flood-opacity="0" result="BackgroundImageFix"/>
<feBlend mode="normal" in="SourceGraphic" in2="BackgroundImageFix" result="shape"/>
<feGaussianBlur stdDeviation="71.8729" result="effect1_foregroundBlur_411_11700"/>
</filter>
<radialGradient id="paint0_radial_411_11700" cx="0" cy="0" r="1" gradientTransform="matrix(-396.354 15.6045 336.372 533.023 211.486 152.66)" gradientUnits="userSpaceOnUse">
<stop stop-color="#003323" stop-opacity="0.4"/>
<stop offset="0.424906" stop-color="#003323" stop-opacity="0.1"/>
</radialGradient>
<radialGradient id="paint1_radial_411_11700" cx="0" cy="0" r="1" gradientTransform="matrix(110.35 189.555 -376.351 262.742 329.013 248.038)" gradientUnits="userSpaceOnUse">
<stop stop-color="#003323" stop-opacity="0.4"/>
<stop offset="0.424906" stop-color="#003323" stop-opacity="0.1"/>
</radialGradient>
<clipPath id="clip0_411_11700">
<path d="M0 8C0 3.58172 3.58172 0 8 0H320C324.418 0 328 3.58172 328 8V100C328 104.418 324.418 108 320 108H7.99999C3.58171 108 0 104.418 0 100V8Z" fill="white"/>
</clipPath>
</defs>
</svg>
