<svg width="328" height="108" viewBox="0 0 328 108" fill="none" xmlns="http://www.w3.org/2000/svg">
<g clip-path="url(#clip0_411_11609)">
<path d="M0 8C0 3.58172 3.58172 0 8 0H320C324.418 0 328 3.58172 328 8V100C328 104.418 324.418 108 320 108H7.99999C3.58171 108 0 104.418 0 100V8Z" fill="#F5F5F4"/>
<g opacity="0.4">
<path d="M1019.61 277.506L1063.08 302.602L1021.98 326.327M1019.61 277.506L978.518 301.232M1019.61 277.506L976.146 252.411M978.518 301.232L1021.98 326.327M978.518 301.232L935.052 276.137M978.518 301.232L937.424 324.958M1021.98 326.327L980.89 350.053M976.146 252.411L935.052 276.137M976.146 252.411L932.68 227.316M935.052 276.137L891.585 251.042M935.052 276.137L893.957 299.863M932.68 227.316L891.585 251.042M932.68 227.316L889.213 202.221M891.585 251.042L848.119 225.946M891.585 251.042L850.491 274.767M889.213 202.221L848.119 225.946M889.213 202.221L845.747 177.125M848.119 225.946L804.653 200.851M848.119 225.946L807.025 249.672M845.747 177.125L804.653 200.851M845.747 177.125L802.281 152.03M804.653 200.851L761.187 175.756M804.653 200.851L763.559 224.577M802.281 152.03L761.187 175.756M802.281 152.03L758.815 126.935M761.187 175.756L717.72 150.661M761.187 175.756L720.093 199.482M758.815 126.935L717.72 150.661M758.815 126.935L715.348 101.84M717.72 150.661L674.254 125.565M717.72 150.661L676.626 174.386M715.348 101.84L674.254 125.565M715.348 101.84L671.882 76.7444M674.254 125.565L630.788 100.47M674.254 125.565L633.16 149.291M671.882 76.7444L630.788 100.47M671.882 76.7444L628.416 51.6491M630.788 100.47L587.322 75.3749M630.788 100.47L589.694 124.196M628.416 51.6491L587.322 75.3749M628.416 51.6491L584.95 26.5539M587.322 75.3749L543.856 50.2796M587.322 75.3749L546.228 99.1006M584.95 26.5539L543.856 50.2796M584.95 26.5539L541.483 1.45866M543.856 50.2796L500.389 25.1844M543.856 50.2796L502.761 74.0054M541.483 1.45866L500.389 25.1844M541.483 1.45866L498.017 -23.6366M500.389 25.1844L456.923 0.0891607M500.389 25.1844L459.295 48.9101M498.017 -23.6366L456.923 0.0891607M498.017 -23.6366L454.551 -48.7318M456.923 0.0891607L413.457 -25.0061M456.923 0.0891607L415.829 23.8149M454.551 -48.7318L413.457 -25.0061M454.551 -48.7318L411.085 -73.8271M413.457 -25.0061L369.991 -50.1013M413.457 -25.0061L372.363 -1.28034M411.085 -73.8271L369.991 -50.1013M411.085 -73.8271L367.619 -98.9223M369.991 -50.1013L326.524 -75.1966M369.991 -50.1013L328.896 -26.3756M367.619 -98.9223L326.524 -75.1966M367.619 -98.9223L324.152 -124.018L283.058 -100.292M326.524 -75.1966L283.058 -100.292M326.524 -75.1966L285.43 -51.4708M283.058 -100.292L241.964 -76.5661M937.424 324.958L980.89 350.053M937.424 324.958L893.957 299.863M937.424 324.958L896.33 348.684M980.89 350.053L939.796 373.779M893.957 299.863L850.491 274.767M893.957 299.863L852.863 323.588M850.491 274.767L807.025 249.672M850.491 274.767L809.397 298.493M807.025 249.672L763.559 224.577M807.025 249.672L765.931 273.398M763.559 224.577L720.093 199.482M763.559 224.577L722.465 248.303M720.093 199.482L676.626 174.386M720.093 199.482L678.998 223.207M676.626 174.386L633.16 149.291M676.626 174.386L635.532 198.112M633.16 149.291L589.694 124.196M633.16 149.291L592.066 173.017M589.694 124.196L546.228 99.1006M589.694 124.196L548.6 147.922M546.228 99.1006L502.761 74.0054M546.228 99.1006L505.133 122.826M502.761 74.0054L459.295 48.9101M502.761 74.0054L461.667 97.7311M459.295 48.9101L415.829 23.8149M459.295 48.9101L418.201 72.6358M415.829 23.8149L372.363 -1.28034M415.829 23.8149L374.735 47.5406M372.363 -1.28034L328.896 -26.3756M372.363 -1.28034L331.269 22.4454M328.896 -26.3756L285.43 -51.4708M328.896 -26.3756L287.802 -2.64987M285.43 -51.4708L241.964 -76.5661M285.43 -51.4708L244.336 -27.7451M241.964 -76.5661L200.87 -52.8403M896.33 348.684L939.796 373.779M896.33 348.684L852.863 323.588M896.33 348.684L855.235 372.409M939.796 373.779L898.702 397.504M852.863 323.588L809.397 298.493M852.863 323.588L811.769 347.314M809.397 298.493L765.931 273.398M809.397 298.493L768.303 322.219M765.931 273.398L722.465 248.303M765.931 273.398L724.837 297.124M722.465 248.303L678.998 223.207M722.465 248.303L681.37 272.028M678.998 223.207L635.532 198.112M678.998 223.207L637.904 246.933M635.532 198.112L592.066 173.017M635.532 198.112L594.438 221.838M592.066 173.017L548.6 147.922M592.066 173.017L550.972 196.743M548.6 147.922L505.133 122.826M548.6 147.922L507.505 171.647M505.133 122.826L461.667 97.7311M505.133 122.826L464.039 146.552M461.667 97.7311L418.201 72.6358M461.667 97.7311L420.573 121.457M418.201 72.6358L374.735 47.5406M418.201 72.6358L377.107 96.3616M374.735 47.5406L331.269 22.4454M374.735 47.5406L333.641 71.2664M331.269 22.4454L287.802 -2.64987M331.269 22.4454L290.174 46.1711M287.802 -2.64987L244.336 -27.7451M287.802 -2.64987L246.708 21.0759M244.336 -27.7451L200.87 -52.8403M244.336 -27.7451L203.242 -4.01937M200.87 -52.8403L159.776 -29.1146M855.235 372.409L898.702 397.504M855.235 372.409L811.769 347.314M855.235 372.409L814.141 396.135M898.702 397.504L857.607 421.23M811.769 347.314L768.303 322.219M811.769 347.314L770.675 371.04M768.303 322.219L724.837 297.124M768.303 322.219L727.209 345.944M724.837 297.124L681.37 272.028M724.837 297.124L683.742 320.849M681.37 272.028L637.904 246.933M681.37 272.028L640.276 295.754M637.904 246.933L594.438 221.838M637.904 246.933L596.81 270.659M594.438 221.838L550.972 196.743M594.438 221.838L553.344 245.564M550.972 196.743L507.505 171.647M550.972 196.743L509.878 220.468M507.505 171.647L464.039 146.552M507.505 171.647L466.411 195.373M464.039 146.552L420.573 121.457M464.039 146.552L422.945 170.278M420.573 121.457L377.107 96.3616M420.573 121.457L379.479 145.183M377.107 96.3616L333.641 71.2664M377.107 96.3616L336.013 120.087M333.641 71.2664L290.174 46.1711M333.641 71.2664L292.546 94.9921M290.174 46.1711L246.708 21.0759M290.174 46.1711L249.08 69.8968M246.708 21.0759L203.242 -4.01937M246.708 21.0759L205.614 44.8016M203.242 -4.01937L159.776 -29.1146M203.242 -4.01937L162.148 19.7064M159.776 -29.1146L118.682 -5.38888M814.141 396.135L857.607 421.23M814.141 396.135L770.675 371.04M814.141 396.135L773.047 419.861M857.607 421.23L816.513 444.956M770.675 371.04L727.209 345.944M770.675 371.04L729.581 394.765M727.209 345.944L683.742 320.849M727.209 345.944L686.115 369.67M683.742 320.849L640.276 295.754M683.742 320.849L642.648 344.575M640.276 295.754L596.81 270.659M640.276 295.754L599.182 319.48M596.81 270.659L553.344 245.564M596.81 270.659L555.716 294.384M553.344 245.564L509.878 220.468M553.344 245.564L512.25 269.289M509.878 220.468L466.411 195.373M509.878 220.468L468.783 244.194M466.411 195.373L422.945 170.278M466.411 195.373L425.317 219.099M422.945 170.278L379.479 145.183M422.945 170.278L381.851 194.004M379.479 145.183L336.013 120.087M379.479 145.183L338.385 168.908M336.013 120.087L292.546 94.9921M336.013 120.087L294.918 143.813M292.546 94.9921L249.08 69.8968M292.546 94.9921L251.452 118.718M249.08 69.8968L205.614 44.8016M249.08 69.8968L207.986 93.6226M205.614 44.8016L162.148 19.7064M205.614 44.8016L164.52 68.5273M162.148 19.7064L118.682 -5.38888M162.148 19.7064L121.054 43.4321M118.682 -5.38888L77.5874 18.3369M773.047 419.861L816.513 444.956M773.047 419.861L729.581 394.765M773.047 419.861L731.953 443.586M816.513 444.956L775.419 468.682M729.581 394.765L686.115 369.67M729.581 394.765L688.487 418.491M686.115 369.67L642.648 344.575M686.115 369.67L645.02 393.396M642.648 344.575L599.182 319.48M642.648 344.575L601.554 368.301M599.182 319.48L555.716 294.384M599.182 319.48L558.088 343.205M555.716 294.384L512.25 269.289M555.716 294.384L514.622 318.11M512.25 269.289L468.783 244.194M512.25 269.289L471.155 293.015M468.783 244.194L425.317 219.099M468.783 244.194L427.689 267.92M425.317 219.099L381.851 194.004M425.317 219.099L384.223 242.824M381.851 194.004L338.385 168.908M381.851 194.004L340.757 217.729M338.385 168.908L294.918 143.813M338.385 168.908L297.291 192.634M294.918 143.813L251.452 118.718M294.918 143.813L253.824 167.539M251.452 118.718L207.986 93.6226M251.452 118.718L210.358 142.444M207.986 93.6226L164.52 68.5273M207.986 93.6226L166.892 117.348M164.52 68.5273L121.054 43.4321M164.52 68.5273L123.426 92.253M121.054 43.4321L77.5874 18.3369M121.054 43.4321L79.9594 67.1578M77.5874 18.3369L36.4932 42.0626M731.953 443.586L775.419 468.682M731.953 443.586L688.487 418.491M731.953 443.586L690.859 467.312M775.419 468.682L734.325 492.407M688.487 418.491L645.02 393.396M688.487 418.491L647.392 442.217M645.02 393.396L601.554 368.301M645.02 393.396L603.926 417.122M601.554 368.301L558.088 343.205M601.554 368.301L560.46 392.026M558.088 343.205L514.622 318.11M558.088 343.205L516.994 366.931M514.622 318.11L471.155 293.015M514.622 318.11L473.527 341.836M471.155 293.015L427.689 267.92M471.155 293.015L430.061 316.741M427.689 267.92L384.223 242.824M427.689 267.92L386.595 291.645M384.223 242.824L340.757 217.729M384.223 242.824L343.129 266.55M340.757 217.729L297.291 192.634M340.757 217.729L299.663 241.455M297.291 192.634L253.824 167.539M297.291 192.634L256.196 216.36M253.824 167.539L210.358 142.444M253.824 167.539L212.73 191.264M210.358 142.444L166.892 117.348M210.358 142.444L169.264 166.169M166.892 117.348L123.426 92.253M166.892 117.348L125.798 141.074M123.426 92.253L79.9594 67.1578M123.426 92.253L82.3314 115.979M79.9594 67.1578L36.4932 42.0626M79.9594 67.1578L38.8652 90.8836M36.4932 42.0626L-4.601 65.7883M690.859 467.312L734.325 492.407M690.859 467.312L647.392 442.217M690.859 467.312L649.764 491.038M734.325 492.407L693.231 516.133M647.392 442.217L603.926 417.122M647.392 442.217L606.298 465.943M603.926 417.122L560.46 392.026M603.926 417.122L562.832 440.847M560.46 392.026L516.994 366.931M560.46 392.026L519.366 415.752M516.994 366.931L473.527 341.836M516.994 366.931L475.9 390.657M473.527 341.836L430.061 316.741M473.527 341.836L432.433 365.562M430.061 316.741L386.595 291.645M430.061 316.741L388.967 340.466M386.595 291.645L343.129 266.55M386.595 291.645L345.501 315.371M343.129 266.55L299.663 241.455M343.129 266.55L302.035 290.276M299.663 241.455L256.196 216.36M299.663 241.455L258.568 265.181M256.196 216.36L212.73 191.264M256.196 216.36L215.102 240.085M212.73 191.264L169.264 166.169M212.73 191.264L171.636 214.99M169.264 166.169L125.798 141.074M169.264 166.169L128.17 189.895M125.798 141.074L82.3314 115.979M125.798 141.074L84.7035 164.8M82.3314 115.979L38.8652 90.8836M82.3314 115.979L41.2373 139.705M38.8652 90.8836L-4.601 65.7883M38.8652 90.8836L-2.22895 114.609M-4.601 65.7883L-45.6952 89.514M649.764 491.038L693.231 516.133M649.764 491.038L606.298 465.943M649.764 491.038L608.67 514.764M693.231 516.133L652.137 539.859M606.298 465.943L562.832 440.847M606.298 465.943L565.204 489.668M562.832 440.847L519.366 415.752M562.832 440.847L521.738 464.573M519.366 415.752L475.9 390.657M519.366 415.752L478.272 439.478M475.9 390.657L432.433 365.562M475.9 390.657L434.805 414.383M432.433 365.562L388.967 340.466M432.433 365.562L391.339 389.287M388.967 340.466L345.501 315.371M388.967 340.466L347.873 364.192M345.501 315.371L302.035 290.276M345.501 315.371L304.407 339.097M302.035 290.276L258.568 265.181M302.035 290.276L260.94 314.002M258.568 265.181L215.102 240.085M258.568 265.181L217.474 288.906M215.102 240.085L171.636 214.99M215.102 240.085L174.008 263.811M171.636 214.99L128.17 189.895M171.636 214.99L130.542 238.716M128.17 189.895L84.7035 164.8M128.17 189.895L87.0756 213.621M84.7035 164.8L41.2373 139.705M84.7035 164.8L43.6094 188.525M41.2373 139.705L-2.22895 114.609M41.2373 139.705L0.143103 163.43M-2.22895 114.609L-45.6952 89.514M-2.22895 114.609L-43.3231 138.335M-45.6952 89.514L-86.7893 113.24M608.67 514.764L652.137 539.859M608.67 514.764L565.204 489.668M608.67 514.764L567.576 538.489M652.137 539.859L611.042 563.585M565.204 489.668L521.738 464.573M565.204 489.668L524.11 513.394M521.738 464.573L478.272 439.478M521.738 464.573L480.644 488.299M478.272 439.478L434.805 414.383M478.272 439.478L437.177 463.204M434.805 414.383L391.339 389.287M434.805 414.383L393.711 438.108M391.339 389.287L347.873 364.192M391.339 389.287L350.245 413.013M347.873 364.192L304.407 339.097M347.873 364.192L306.779 387.918M304.407 339.097L260.94 314.002M304.407 339.097L263.313 362.823M260.94 314.002L217.474 288.906M260.94 314.002L219.846 337.727M217.474 288.906L174.008 263.811M217.474 288.906L176.38 312.632M174.008 263.811L130.542 238.716M174.008 263.811L132.914 287.537M130.542 238.716L87.0756 213.621M130.542 238.716L89.4476 262.442M87.0756 213.621L43.6094 188.525M87.0756 213.621L45.9814 237.346M43.6094 188.525L0.143103 163.43M43.6094 188.525L2.51516 212.251M0.143103 163.43L-43.3231 138.335M0.143103 163.43L-40.9511 187.156M-43.3231 138.335L-86.7893 113.24M-43.3231 138.335L-84.4173 162.061M-86.7893 113.24L-127.884 136.966M567.576 538.489L611.042 563.585M567.576 538.489L524.11 513.394M567.576 538.489L526.482 562.215M611.042 563.585L569.948 587.31L526.482 562.215M524.11 513.394L480.644 488.299M524.11 513.394L483.016 537.12M480.644 488.299L437.177 463.204M480.644 488.299L439.549 512.025M437.177 463.204L393.711 438.108M437.177 463.204L396.083 486.929M393.711 438.108L350.245 413.013M393.711 438.108L352.617 461.834M350.245 413.013L306.779 387.918M350.245 413.013L309.151 436.739M306.779 387.918L263.313 362.823M306.779 387.918L265.685 411.644M263.313 362.823L219.846 337.727M263.313 362.823L222.218 386.548M219.846 337.727L176.38 312.632M219.846 337.727L178.752 361.453M176.38 312.632L132.914 287.537M176.38 312.632L135.286 336.358M132.914 287.537L89.4476 262.442M132.914 287.537L91.8197 311.263M89.4476 262.442L45.9814 237.346M89.4476 262.442L48.3534 286.167M45.9814 237.346L2.51516 212.251M45.9814 237.346L4.88721 261.072M2.51516 212.251L-40.9511 187.156M2.51516 212.251L-38.579 235.977M-40.9511 187.156L-84.4173 162.061M-40.9511 187.156L-82.0453 210.882M-84.4173 162.061L-127.884 136.966M-84.4173 162.061L-125.511 185.786M-127.884 136.966L-168.978 160.691L-125.511 185.786M526.482 562.215L483.016 537.12M483.016 537.12L439.549 512.025M439.549 512.025L396.083 486.929M396.083 486.929L352.617 461.834M352.617 461.834L309.151 436.739M309.151 436.739L265.685 411.644M265.685 411.644L222.218 386.548M222.218 386.548L178.752 361.453M178.752 361.453L135.286 336.358M135.286 336.358L91.8197 311.263M91.8197 311.263L48.3534 286.167M48.3534 286.167L4.88721 261.072M4.88721 261.072L-38.579 235.977M-38.579 235.977L-82.0453 210.882M-82.0453 210.882L-125.511 185.786" stroke="url(#paint0_radial_411_11609)" stroke-opacity="0.85"/>
<g filter="url(#filter0_f_411_11609)">
<circle cx="220.782" cy="220.782" r="220.782" transform="matrix(0.866025 -0.5 0.866025 0.5 -150.027 229.781)" fill="#003323" fill-opacity="0.3"/>
<circle cx="220.782" cy="220.782" r="220.575" transform="matrix(0.866025 -0.5 0.866025 0.5 -150.027 229.781)" stroke="url(#paint1_radial_411_11609)" stroke-opacity="0.85" stroke-width="0.413063"/>
</g>
</g>
<rect width="111.403" height="162.219" rx="3.12711" transform="matrix(0.866025 -0.5 0.866025 0.5 60.2539 54.7031)" fill="#003323" fill-opacity="0.3"/>
<rect x="0.33852" width="111.012" height="161.828" rx="2.93167" transform="matrix(0.866025 -0.5 0.866025 0.5 60.2993 54.8724)" stroke="url(#paint2_radial_411_11609)" stroke-opacity="0.85" stroke-width="0.390889"/>
<rect width="111.403" height="162.219" rx="3.12711" transform="matrix(0.866025 -0.5 0.866025 0.5 60.1133 48.7031)" fill="#FAFAF9"/>
<path d="M81.8592 51.5256L78.0777 49.3423L79.3997 48.579C79.6632 48.4269 79.926 48.3278 80.1882 48.2816C80.4491 48.2347 80.6978 48.2311 80.9342 48.2709C81.1693 48.31 81.3792 48.3828 81.5638 48.4894C81.7263 48.5833 81.8315 48.6774 81.8795 48.772C81.9288 48.8658 81.9374 48.9574 81.9054 49.047C81.8746 49.1358 81.8198 49.2201 81.7411 49.2997L81.778 49.321C81.9011 49.2584 82.058 49.2147 82.2488 49.1898C82.4396 49.165 82.6434 49.1696 82.86 49.2037C83.0767 49.2378 83.2847 49.3124 83.4841 49.4276C83.6737 49.537 83.8011 49.6603 83.8663 49.7975C83.9316 49.9347 83.9156 50.0825 83.8183 50.241C83.7211 50.3995 83.5235 50.5647 83.2256 50.7367L81.8592 51.5256ZM81.9109 51.0267L82.8194 50.5022C83.1185 50.3295 83.273 50.1735 83.2829 50.0342C83.2927 49.8934 83.2145 49.7751 83.0484 49.6792C82.9203 49.6053 82.7695 49.5559 82.596 49.531C82.4212 49.5054 82.2408 49.5086 82.055 49.5406C81.8679 49.5719 81.6918 49.6351 81.5269 49.7303L80.5962 50.2676L81.9109 51.0267ZM80.1974 50.0374L81.0468 49.547C81.1847 49.4674 81.2819 49.38 81.3385 49.2847C81.3964 49.1888 81.4087 49.0935 81.3755 48.999C81.3435 48.9038 81.261 48.8178 81.128 48.741C80.9618 48.6451 80.763 48.5971 80.5316 48.5971C80.299 48.5964 80.0571 48.6685 79.806 48.8135L78.9418 49.3124L80.1974 50.0374ZM86.083 49.1637C85.9033 49.2675 85.7064 49.3421 85.4922 49.3876C85.2767 49.4324 85.0613 49.4423 84.8459 49.4175C84.6292 49.3919 84.4286 49.3258 84.244 49.2192C84.0815 49.1254 83.9818 49.0308 83.9448 48.9356C83.9067 48.8396 83.9122 48.7441 83.9614 48.6488C84.0107 48.5536 84.0858 48.4605 84.1867 48.3695C84.2877 48.2771 84.3954 48.1879 84.5098 48.1019C84.66 47.9896 84.7831 47.8994 84.8791 47.8312C84.9752 47.7615 85.0336 47.7043 85.0546 47.6595C85.0767 47.614 85.0527 47.571 84.9825 47.5305L84.9678 47.522C84.7856 47.4168 84.5942 47.3639 84.3935 47.3632C84.1941 47.3617 83.9941 47.4189 83.7934 47.5348C83.5854 47.6549 83.4678 47.7754 83.4407 47.8962C83.4137 48.017 83.4278 48.1211 83.4832 48.2085L82.9219 48.3621C82.8234 48.2199 82.7877 48.0856 82.8148 47.9591C82.8419 47.8312 82.9096 47.7139 83.0179 47.6073C83.1262 47.4993 83.2518 47.404 83.3946 47.3216C83.4857 47.269 83.6014 47.215 83.7417 47.1595C83.882 47.1027 84.0408 47.0615 84.2181 47.0359C84.3966 47.0096 84.5899 47.0138 84.7979 47.0487C85.0059 47.0835 85.2226 47.1659 85.4479 47.296L87.3165 48.3748L86.8807 48.6264L86.4966 48.4047L86.4745 48.4175C86.5065 48.4701 86.5231 48.5365 86.5243 48.6168C86.5256 48.6972 86.4936 48.7846 86.4283 48.8791C86.3631 48.9736 86.248 49.0685 86.083 49.1637ZM85.7581 48.8993C85.9304 48.7998 86.0418 48.6964 86.0923 48.5891C86.144 48.4811 86.1464 48.3788 86.0997 48.2821C86.0541 48.1847 85.9722 48.1019 85.8541 48.0337L85.4552 47.8034C85.4589 47.8269 85.4386 47.8621 85.3943 47.909C85.35 47.9545 85.294 48.0046 85.2263 48.0593C85.1586 48.1126 85.0915 48.1641 85.025 48.2139C84.9585 48.2622 84.905 48.3016 84.8644 48.3322C84.7659 48.4061 84.684 48.4811 84.6188 48.5571C84.5535 48.6318 84.5234 48.7053 84.5283 48.7778C84.5332 48.8489 84.5911 48.9164 84.7019 48.9804C84.8533 49.0678 85.0238 49.1015 85.2133 49.0816C85.4029 49.0603 85.5845 48.9996 85.7581 48.8993ZM86.8415 46.679L88.5476 47.6641L88.1118 47.9156L85.2757 46.2782L85.6967 46.0351L86.1398 46.291L86.1767 46.2696C86.0992 46.1481 86.0844 46.023 86.1324 45.8944C86.1792 45.765 86.3097 45.6385 86.5239 45.5149C86.7159 45.404 86.9233 45.3297 87.1461 45.2921C87.3677 45.2537 87.5979 45.2572 87.8367 45.3027C88.0743 45.3475 88.3137 45.4395 88.555 45.5788L90.3572 46.6193L89.9214 46.8709L88.1488 45.8475C87.926 45.7188 87.6945 45.652 87.4545 45.6471C87.2132 45.6414 86.9917 45.6968 86.7898 45.8134C86.6507 45.8937 86.5565 45.9829 86.5073 46.081C86.4593 46.1783 86.4617 46.2785 86.5146 46.3816C86.5676 46.4846 86.6765 46.5838 86.8415 46.679ZM90.5256 45.328L89.9791 45.021L90.0677 44.9698L90.0456 43.5243L90.5847 43.213L90.5995 44.7481L90.5626 44.7694L90.5256 45.328ZM91.1534 46.1596L87.3719 43.9763L87.8076 43.7247L91.5892 45.908L91.1534 46.1596ZM92.9556 45.1191L90.4444 44.9485L90.4518 44.5946L93.5095 44.7993L92.9556 45.1191Z" fill="#003323"/>
<rect width="18.3718" height="3.518" rx="0.781778" transform="matrix(0.866025 -0.5 0.866025 0.5 88.2109 55.5391)" fill="#003323" fill-opacity="0.3"/>
<rect x="0.33852" width="17.9809" height="3.12711" rx="0.586333" transform="matrix(0.866025 -0.5 0.866025 0.5 88.2563 55.7083)" stroke="url(#paint3_radial_411_11609)" stroke-opacity="0.85" stroke-width="0.390889"/>
<rect width="41.0433" height="3.518" rx="0.781778" transform="matrix(0.866025 -0.5 0.866025 0.5 93.2887 58.4688)" fill="#003323" fill-opacity="0.3"/>
<rect x="0.33852" width="40.6524" height="3.12711" rx="0.586333" transform="matrix(0.866025 -0.5 0.866025 0.5 93.334 58.638)" stroke="url(#paint4_radial_411_11609)" stroke-opacity="0.85" stroke-width="0.390889"/>
<rect width="10.9449" height="3.518" rx="0.781778" transform="matrix(0.866025 -0.5 0.866025 0.5 98.3666 61.4062)" fill="#003323" fill-opacity="0.3"/>
<rect x="0.33852" width="10.554" height="3.12711" rx="0.586333" transform="matrix(0.866025 -0.5 0.866025 0.5 98.4119 61.5755)" stroke="url(#paint5_radial_411_11609)" stroke-opacity="0.85" stroke-width="0.390889"/>
<rect width="18.3718" height="3.518" rx="0.781778" transform="matrix(0.866025 -0.5 0.866025 0.5 132.555 29.9375)" fill="#003323" fill-opacity="0.3"/>
<rect x="0.33852" width="17.9809" height="3.12711" rx="0.586333" transform="matrix(0.866025 -0.5 0.866025 0.5 132.6 30.1068)" stroke="url(#paint6_radial_411_11609)" stroke-opacity="0.85" stroke-width="0.390889"/>
<rect width="41.0433" height="3.518" rx="0.781778" transform="matrix(0.866025 -0.5 0.866025 0.5 137.632 32.8672)" fill="#003323" fill-opacity="0.3"/>
<rect x="0.33852" width="40.6524" height="3.12711" rx="0.586333" transform="matrix(0.866025 -0.5 0.866025 0.5 137.678 33.0364)" stroke="url(#paint7_radial_411_11609)" stroke-opacity="0.85" stroke-width="0.390889"/>
<rect width="10.9449" height="3.518" rx="0.781778" transform="matrix(0.866025 -0.5 0.866025 0.5 142.71 35.8047)" fill="#003323" fill-opacity="0.3"/>
<rect x="0.33852" width="10.554" height="3.12711" rx="0.586333" transform="matrix(0.866025 -0.5 0.866025 0.5 142.756 35.9739)" stroke="url(#paint8_radial_411_11609)" stroke-opacity="0.85" stroke-width="0.390889"/>
<rect width="31.662" height="2.22807" rx="0.781778" transform="matrix(0.866025 -0.5 0.866025 0.5 112.5 69.5703)" fill="#003323" fill-opacity="0.3"/>
<rect x="0.33852" width="31.2711" height="1.83718" rx="0.586333" transform="matrix(0.866025 -0.5 0.866025 0.5 112.545 69.7396)" stroke="url(#paint9_radial_411_11609)" stroke-opacity="0.85" stroke-width="0.390889"/>
<rect width="12.8993" height="3.518" rx="0.781778" transform="matrix(0.866025 -0.5 0.866025 0.5 122.336 72.8984)" fill="#003323" fill-opacity="0.3"/>
<rect x="0.33852" width="12.5084" height="3.12711" rx="0.586333" transform="matrix(0.866025 -0.5 0.866025 0.5 122.381 73.0677)" stroke="url(#paint10_radial_411_11609)" stroke-opacity="0.85" stroke-width="0.390889"/>
<rect width="17.1991" height="3.518" rx="0.781778" transform="matrix(0.866025 -0.5 0.866025 0.5 129.781 77.2031)" fill="#003323" fill-opacity="0.3"/>
<rect x="0.33852" width="16.8082" height="3.12711" rx="0.586333" transform="matrix(0.866025 -0.5 0.866025 0.5 129.827 77.3724)" stroke="url(#paint11_radial_411_11609)" stroke-opacity="0.85" stroke-width="0.390889"/>
<rect width="8.99044" height="3.518" rx="0.781778" transform="matrix(0.866025 -0.5 0.866025 0.5 136.89 81.3047)" fill="#003323" fill-opacity="0.3"/>
<rect x="0.33852" width="8.59955" height="3.12711" rx="0.586333" transform="matrix(0.866025 -0.5 0.866025 0.5 136.935 81.4739)" stroke="url(#paint12_radial_411_11609)" stroke-opacity="0.85" stroke-width="0.390889"/>
<rect width="8.99044" height="3.518" rx="0.781778" transform="matrix(0.866025 -0.5 0.866025 0.5 143.999 85.4141)" fill="#003323" fill-opacity="0.3"/>
<rect x="0.33852" width="8.59955" height="3.12711" rx="0.586333" transform="matrix(0.866025 -0.5 0.866025 0.5 144.044 85.5833)" stroke="url(#paint13_radial_411_11609)" stroke-opacity="0.85" stroke-width="0.390889"/>
<rect width="12.1176" height="3.518" rx="0.781778" transform="matrix(0.866025 -0.5 0.866025 0.5 151.108 89.5156)" fill="#003323" fill-opacity="0.3"/>
<rect x="0.33852" width="11.7267" height="3.12711" rx="0.586333" transform="matrix(0.866025 -0.5 0.866025 0.5 151.153 89.6849)" stroke="url(#paint14_radial_411_11609)" stroke-opacity="0.85" stroke-width="0.390889"/>
<rect width="15.2447" height="3.518" rx="0.781778" transform="matrix(0.866025 -0.5 0.866025 0.5 158.217 93.6172)" fill="#003323" fill-opacity="0.3"/>
<rect x="0.33852" width="14.8538" height="3.12711" rx="0.586333" transform="matrix(0.866025 -0.5 0.866025 0.5 158.262 93.7864)" stroke="url(#paint15_radial_411_11609)" stroke-opacity="0.85" stroke-width="0.390889"/>
<rect width="8.99044" height="3.518" rx="0.781778" transform="matrix(0.866025 -0.5 0.866025 0.5 165.326 97.7266)" fill="#003323" fill-opacity="0.3"/>
<rect x="0.33852" width="8.59955" height="3.12711" rx="0.586333" transform="matrix(0.866025 -0.5 0.866025 0.5 165.371 97.8958)" stroke="url(#paint16_radial_411_11609)" stroke-opacity="0.85" stroke-width="0.390889"/>
<rect width="15.2447" height="3.518" rx="0.781778" transform="matrix(0.866025 -0.5 0.866025 0.5 172.435 101.828)" fill="#003323" fill-opacity="0.3"/>
<rect x="0.33852" width="14.8538" height="3.12711" rx="0.586333" transform="matrix(0.866025 -0.5 0.866025 0.5 172.48 101.997)" stroke="url(#paint17_radial_411_11609)" stroke-opacity="0.85" stroke-width="0.390889"/>
<rect width="8.99044" height="3.518" rx="0.781778" transform="matrix(0.866025 -0.5 0.866025 0.5 179.544 105.93)" fill="#003323" fill-opacity="0.3"/>
<rect x="0.33852" width="8.59955" height="3.12711" rx="0.586333" transform="matrix(0.866025 -0.5 0.866025 0.5 179.589 106.099)" stroke="url(#paint18_radial_411_11609)" stroke-opacity="0.85" stroke-width="0.390889"/>
<rect width="10.9449" height="3.518" rx="0.781778" transform="matrix(0.866025 -0.5 0.866025 0.5 153.477 63.5234)" fill="#003323" fill-opacity="0.3"/>
<rect x="0.33852" width="10.554" height="3.12711" rx="0.586333" transform="matrix(0.866025 -0.5 0.866025 0.5 153.522 63.6927)" stroke="url(#paint19_radial_411_11609)" stroke-opacity="0.85" stroke-width="0.390889"/>
<rect width="6.64511" height="3.518" rx="0.781778" transform="matrix(0.866025 -0.5 0.866025 0.5 160.585 67.625)" fill="#003323" fill-opacity="0.3"/>
<rect x="0.33852" width="6.25422" height="3.12711" rx="0.586333" transform="matrix(0.866025 -0.5 0.866025 0.5 160.631 67.7943)" stroke="url(#paint20_radial_411_11609)" stroke-opacity="0.85" stroke-width="0.390889"/>
<rect width="6.64511" height="3.518" rx="0.781778" transform="matrix(0.866025 -0.5 0.866025 0.5 167.694 71.7344)" fill="#003323" fill-opacity="0.3"/>
<rect x="0.33852" width="6.25422" height="3.12711" rx="0.586333" transform="matrix(0.866025 -0.5 0.866025 0.5 167.74 71.9036)" stroke="url(#paint21_radial_411_11609)" stroke-opacity="0.85" stroke-width="0.390889"/>
<rect width="5.86333" height="3.518" rx="0.781778" transform="matrix(0.866025 -0.5 0.866025 0.5 174.803 75.8359)" fill="#003323" fill-opacity="0.3"/>
<rect x="0.33852" width="5.47244" height="3.12711" rx="0.586333" transform="matrix(0.866025 -0.5 0.866025 0.5 174.849 76.0052)" stroke="url(#paint22_radial_411_11609)" stroke-opacity="0.85" stroke-width="0.390889"/>
<rect width="8.99044" height="3.518" rx="0.781778" transform="matrix(0.866025 -0.5 0.866025 0.5 181.912 79.9375)" fill="#003323" fill-opacity="0.3"/>
<rect x="0.33852" width="8.59955" height="3.12711" rx="0.586333" transform="matrix(0.866025 -0.5 0.866025 0.5 181.958 80.1068)" stroke="url(#paint23_radial_411_11609)" stroke-opacity="0.85" stroke-width="0.390889"/>
<rect width="6.64511" height="3.518" rx="0.781778" transform="matrix(0.866025 -0.5 0.866025 0.5 189.021 84.0469)" fill="#003323" fill-opacity="0.3"/>
<rect x="0.33852" width="6.25422" height="3.12711" rx="0.586333" transform="matrix(0.866025 -0.5 0.866025 0.5 189.066 84.2161)" stroke="url(#paint24_radial_411_11609)" stroke-opacity="0.85" stroke-width="0.390889"/>
<rect width="8.99044" height="3.518" rx="0.781778" transform="matrix(0.866025 -0.5 0.866025 0.5 196.13 88.1484)" fill="#003323" fill-opacity="0.3"/>
<rect x="0.33852" width="8.59955" height="3.12711" rx="0.586333" transform="matrix(0.866025 -0.5 0.866025 0.5 196.175 88.3177)" stroke="url(#paint25_radial_411_11609)" stroke-opacity="0.85" stroke-width="0.390889"/>
<rect width="6.64511" height="3.518" rx="0.781778" transform="matrix(0.866025 -0.5 0.866025 0.5 203.239 92.25)" fill="#003323" fill-opacity="0.3"/>
<rect x="0.33852" width="6.25422" height="3.12711" rx="0.586333" transform="matrix(0.866025 -0.5 0.866025 0.5 203.284 92.4193)" stroke="url(#paint26_radial_411_11609)" stroke-opacity="0.85" stroke-width="0.390889"/>
<rect width="10.9449" height="3.518" rx="0.781778" transform="matrix(0.866025 -0.5 0.866025 0.5 170.402 53.75)" fill="#003323" fill-opacity="0.3"/>
<rect x="0.33852" width="10.554" height="3.12711" rx="0.586333" transform="matrix(0.866025 -0.5 0.866025 0.5 170.448 53.9193)" stroke="url(#paint27_radial_411_11609)" stroke-opacity="0.85" stroke-width="0.390889"/>
<rect width="6.64511" height="3.518" rx="0.781778" transform="matrix(0.866025 -0.5 0.866025 0.5 177.511 57.8516)" fill="#003323" fill-opacity="0.3"/>
<rect x="0.33852" width="6.25422" height="3.12711" rx="0.586333" transform="matrix(0.866025 -0.5 0.866025 0.5 177.557 58.0208)" stroke="url(#paint28_radial_411_11609)" stroke-opacity="0.85" stroke-width="0.390889"/>
<rect width="6.64511" height="3.518" rx="0.781778" transform="matrix(0.866025 -0.5 0.866025 0.5 184.62 61.9609)" fill="#003323" fill-opacity="0.3"/>
<rect x="0.33852" width="6.25422" height="3.12711" rx="0.586333" transform="matrix(0.866025 -0.5 0.866025 0.5 184.665 62.1302)" stroke="url(#paint29_radial_411_11609)" stroke-opacity="0.85" stroke-width="0.390889"/>
<rect width="5.86333" height="3.518" rx="0.781778" transform="matrix(0.866025 -0.5 0.866025 0.5 191.729 66.0625)" fill="#003323" fill-opacity="0.3"/>
<rect x="0.33852" width="5.47244" height="3.12711" rx="0.586333" transform="matrix(0.866025 -0.5 0.866025 0.5 191.774 66.2318)" stroke="url(#paint30_radial_411_11609)" stroke-opacity="0.85" stroke-width="0.390889"/>
<rect width="8.99044" height="3.518" rx="0.781778" transform="matrix(0.866025 -0.5 0.866025 0.5 198.838 70.1641)" fill="#003323" fill-opacity="0.3"/>
<rect x="0.33852" width="8.59955" height="3.12711" rx="0.586333" transform="matrix(0.866025 -0.5 0.866025 0.5 198.883 70.3333)" stroke="url(#paint31_radial_411_11609)" stroke-opacity="0.85" stroke-width="0.390889"/>
<rect width="6.64511" height="3.518" rx="0.781778" transform="matrix(0.866025 -0.5 0.866025 0.5 205.947 74.2734)" fill="#003323" fill-opacity="0.3"/>
<rect x="0.33852" width="6.25422" height="3.12711" rx="0.586333" transform="matrix(0.866025 -0.5 0.866025 0.5 205.992 74.4427)" stroke="url(#paint32_radial_411_11609)" stroke-opacity="0.85" stroke-width="0.390889"/>
<rect width="8.99044" height="3.518" rx="0.781778" transform="matrix(0.866025 -0.5 0.866025 0.5 213.056 78.375)" fill="#003323" fill-opacity="0.3"/>
<rect x="0.33852" width="8.59955" height="3.12711" rx="0.586333" transform="matrix(0.866025 -0.5 0.866025 0.5 213.101 78.5443)" stroke="url(#paint33_radial_411_11609)" stroke-opacity="0.85" stroke-width="0.390889"/>
<rect width="6.64511" height="3.518" rx="0.781778" transform="matrix(0.866025 -0.5 0.866025 0.5 220.165 82.4766)" fill="#003323" fill-opacity="0.3"/>
<rect x="0.33852" width="6.25422" height="3.12711" rx="0.586333" transform="matrix(0.866025 -0.5 0.866025 0.5 220.21 82.6458)" stroke="url(#paint34_radial_411_11609)" stroke-opacity="0.85" stroke-width="0.390889"/>
<rect width="17.1991" height="3.518" rx="0.781778" transform="matrix(0.866025 -0.5 0.866025 0.5 188.344 43.3906)" fill="#003323" fill-opacity="0.3"/>
<rect x="0.33852" width="16.8082" height="3.12711" rx="0.586333" transform="matrix(0.866025 -0.5 0.866025 0.5 188.389 43.5599)" stroke="url(#paint35_radial_411_11609)" stroke-opacity="0.85" stroke-width="0.390889"/>
<rect width="12.8993" height="3.518" rx="0.781778" transform="matrix(0.866025 -0.5 0.866025 0.5 195.453 47.4922)" fill="#003323" fill-opacity="0.3"/>
<rect x="0.33852" width="12.5084" height="3.12711" rx="0.586333" transform="matrix(0.866025 -0.5 0.866025 0.5 195.498 47.6614)" stroke="url(#paint36_radial_411_11609)" stroke-opacity="0.85" stroke-width="0.390889"/>
<rect width="12.8993" height="3.518" rx="0.781778" transform="matrix(0.866025 -0.5 0.866025 0.5 202.562 51.6016)" fill="#003323" fill-opacity="0.3"/>
<rect x="0.33852" width="12.5084" height="3.12711" rx="0.586333" transform="matrix(0.866025 -0.5 0.866025 0.5 202.607 51.7708)" stroke="url(#paint37_radial_411_11609)" stroke-opacity="0.85" stroke-width="0.390889"/>
<rect width="12.1176" height="3.518" rx="0.781778" transform="matrix(0.866025 -0.5 0.866025 0.5 209.671 55.7031)" fill="#003323" fill-opacity="0.3"/>
<rect x="0.33852" width="11.7267" height="3.12711" rx="0.586333" transform="matrix(0.866025 -0.5 0.866025 0.5 209.716 55.8724)" stroke="url(#paint38_radial_411_11609)" stroke-opacity="0.85" stroke-width="0.390889"/>
<rect width="15.2447" height="3.518" rx="0.781778" transform="matrix(0.866025 -0.5 0.866025 0.5 216.779 59.8047)" fill="#003323" fill-opacity="0.3"/>
<rect x="0.33852" width="14.8538" height="3.12711" rx="0.586333" transform="matrix(0.866025 -0.5 0.866025 0.5 216.825 59.9739)" stroke="url(#paint39_radial_411_11609)" stroke-opacity="0.85" stroke-width="0.390889"/>
<rect width="12.8993" height="3.518" rx="0.781778" transform="matrix(0.866025 -0.5 0.866025 0.5 223.888 63.9141)" fill="#003323" fill-opacity="0.3"/>
<rect x="0.33852" width="12.5084" height="3.12711" rx="0.586333" transform="matrix(0.866025 -0.5 0.866025 0.5 223.934 64.0833)" stroke="url(#paint40_radial_411_11609)" stroke-opacity="0.85" stroke-width="0.390889"/>
<rect width="15.2447" height="3.518" rx="0.781778" transform="matrix(0.866025 -0.5 0.866025 0.5 230.997 68.0156)" fill="#003323" fill-opacity="0.3"/>
<rect x="0.33852" width="14.8538" height="3.12711" rx="0.586333" transform="matrix(0.866025 -0.5 0.866025 0.5 231.043 68.1849)" stroke="url(#paint41_radial_411_11609)" stroke-opacity="0.85" stroke-width="0.390889"/>
<rect width="12.8993" height="3.518" rx="0.781778" transform="matrix(0.866025 -0.5 0.866025 0.5 238.106 72.1172)" fill="#003323" fill-opacity="0.3"/>
<rect x="0.33852" width="12.5084" height="3.12711" rx="0.586333" transform="matrix(0.866025 -0.5 0.866025 0.5 238.151 72.2864)" stroke="url(#paint42_radial_411_11609)" stroke-opacity="0.85" stroke-width="0.390889"/>
<rect width="7.81778" height="3.518" rx="0.781778" transform="matrix(0.866025 -0.5 0.866025 0.5 146.031 59.2188)" fill="#003323" fill-opacity="0.3"/>
<rect x="0.33852" width="7.42689" height="3.12711" rx="0.586333" transform="matrix(0.866025 -0.5 0.866025 0.5 146.077 59.388)" stroke="url(#paint43_radial_411_11609)" stroke-opacity="0.85" stroke-width="0.390889"/>
<rect width="7.81778" height="3.518" rx="0.781778" transform="matrix(0.866025 -0.5 0.866025 0.5 162.957 49.4453)" fill="#003323" fill-opacity="0.3"/>
<rect x="0.33852" width="7.42689" height="3.12711" rx="0.586333" transform="matrix(0.866025 -0.5 0.866025 0.5 163.002 49.6146)" stroke="url(#paint44_radial_411_11609)" stroke-opacity="0.85" stroke-width="0.390889"/>
<rect width="18.3913" height="3.518" rx="0.781778" transform="matrix(0.866025 -0.5 0.866025 0.5 180.898 39.0938)" fill="#003323" fill-opacity="0.3"/>
<rect x="0.33852" width="18.0004" height="3.12711" rx="0.586333" transform="matrix(0.866025 -0.5 0.866025 0.5 180.944 39.263)" stroke="url(#paint45_radial_411_11609)" stroke-opacity="0.85" stroke-width="0.390889"/>
<rect x="0.216506" width="92.3906" height="77.5369" rx="3.00211" transform="matrix(0.866025 -0.5 0.866025 0.5 117.623 72.6083)" stroke="#003323" stroke-opacity="0.5" stroke-width="0.25"/>
<line y1="-0.125" x2="77.7869" y2="-0.125" transform="matrix(0.866025 0.5 -0.866025 0.5 139.594 59.7969)" stroke="#003323" stroke-opacity="0.5" stroke-width="0.25"/>
<line y1="-0.125" x2="92.2497" y2="-0.125" transform="matrix(-0.866025 0.5 -0.866025 -0.5 205.101 30.5859)" stroke="#003323" stroke-opacity="0.5" stroke-width="0.25"/>
<line y1="-0.125" x2="77.7869" y2="-0.125" transform="matrix(0.866025 0.5 -0.866025 0.5 157.539 49.4375)" stroke="#003323" stroke-opacity="0.5" stroke-width="0.25"/>
<line y1="-0.125" x2="77.7869" y2="-0.125" transform="matrix(0.866025 0.5 -0.866025 0.5 175.48 39.0859)" stroke="#003323" stroke-opacity="0.5" stroke-width="0.25"/>
<rect width="57.2222" height="13.3333" rx="2" transform="matrix(0.866025 0.5 0 1 263 9)" fill="white"/>
<rect width="57.2222" height="13.3333" rx="2" transform="matrix(0.866025 0.5 0 1 263 9)" fill="#003323" fill-opacity="0.05"/>
<rect width="8.88889" height="8.88889" rx="1.11111" transform="matrix(0.866025 0.5 0 1 264.925 12.3359)" fill="#003323" fill-opacity="0.3"/>
<rect x="0.240563" y="0.416667" width="8.33333" height="8.33333" rx="0.833333" transform="matrix(0.866025 0.5 0 1 264.957 12.2157)" stroke="url(#paint46_radial_411_11609)" stroke-opacity="0.85" stroke-width="0.555556"/>
<rect width="28.8889" height="4.44444" rx="1.11111" transform="matrix(0.866025 0.5 0 1 274.691 18.25)" fill="#003323" fill-opacity="0.3"/>
<rect x="0.240563" y="0.416667" width="28.3333" height="3.88889" rx="0.833333" transform="matrix(0.866025 0.5 0 1 274.724 18.1297)" stroke="url(#paint47_radial_411_11609)" stroke-opacity="0.85" stroke-width="0.555556"/>
<rect width="21.1111" height="2.77778" rx="1.11111" transform="matrix(0.866025 0.5 0 1 274.691 23.8047)" fill="#003323" fill-opacity="0.1"/>
<path d="M302.963 39.0724V37.5089L303.193 37.6416V39.2051L302.963 39.0724ZM302.401 38.0988V37.8335L303.755 38.6152V38.8806L302.401 38.0988Z" fill="#059669"/>
<rect width="6.66667" height="2.77778" rx="1.11111" transform="matrix(0.866025 0.5 0 1 304.858 38.4453)" fill="#003323" fill-opacity="0.2"/>
<rect width="57.2222" height="13.3333" rx="2" transform="matrix(0.866025 0.5 0 1 30 -27)" fill="white"/>
<rect width="57.2222" height="13.3333" rx="2" transform="matrix(0.866025 0.5 0 1 30 -27)" fill="#003323" fill-opacity="0.05"/>
<rect width="28.8889" height="4.44444" rx="1.11111" transform="matrix(0.866025 0.5 0 1 41.6914 -17.75)" fill="#003323" fill-opacity="0.3"/>
<rect x="0.240563" y="0.416667" width="28.3333" height="3.88889" rx="0.833333" transform="matrix(0.866025 0.5 0 1 41.7236 -17.8703)" stroke="url(#paint48_radial_411_11609)" stroke-opacity="0.85" stroke-width="0.555556"/>
<rect width="21.1111" height="2.77778" rx="1.11111" transform="matrix(0.866025 0.5 0 1 41.6914 -12.1953)" fill="#003323" fill-opacity="0.1"/>
<path d="M69.9628 3.07245V1.50889L70.1926 1.64156V3.20511L69.9628 3.07245ZM69.4007 2.09878V1.83345L70.7548 2.61523V2.88056L69.4007 2.09878Z" fill="#059669"/>
<rect width="6.66667" height="2.77778" rx="1.11111" transform="matrix(0.866025 0.5 0 1 71.8579 2.44531)" fill="#003323" fill-opacity="0.2"/>
<rect width="57.2222" height="13.3333" rx="2" transform="matrix(0.866025 0.5 0 1 30 77)" fill="white"/>
<rect width="57.2222" height="13.3333" rx="2" transform="matrix(0.866025 0.5 0 1 30 77)" fill="#003323" fill-opacity="0.05"/>
<rect width="8.88889" height="8.88889" rx="1.11111" transform="matrix(0.866025 0.5 0 1 31.9246 80.3359)" fill="#003323" fill-opacity="0.3"/>
<rect x="0.240563" y="0.416667" width="8.33333" height="8.33333" rx="0.833333" transform="matrix(0.866025 0.5 0 1 31.9568 80.2157)" stroke="url(#paint49_radial_411_11609)" stroke-opacity="0.85" stroke-width="0.555556"/>
<rect width="28.8889" height="4.44444" rx="1.11111" transform="matrix(0.866025 0.5 0 1 41.6914 86.25)" fill="#003323" fill-opacity="0.3"/>
<rect x="0.240563" y="0.416667" width="28.3333" height="3.88889" rx="0.833333" transform="matrix(0.866025 0.5 0 1 41.7236 86.1297)" stroke="url(#paint50_radial_411_11609)" stroke-opacity="0.85" stroke-width="0.555556"/>
<rect width="21.1111" height="2.77778" rx="1.11111" transform="matrix(0.866025 0.5 0 1 41.6914 91.8047)" fill="#003323" fill-opacity="0.1"/>
<path d="M69.9628 107.072V105.509L70.1926 105.642V107.205L69.9628 107.072ZM69.4007 106.099V105.833L70.7548 106.615V106.881L69.4007 106.099Z" fill="#059669"/>
<rect width="6.66667" height="2.77778" rx="1.11111" transform="matrix(0.866025 0.5 0 1 71.8579 106.445)" fill="#003323" fill-opacity="0.2"/>
</g>
<defs>
<filter id="filter0_f_411_11609" x="-181.769" y="-70.0817" width="828.295" height="599.726" filterUnits="userSpaceOnUse" color-interpolation-filters="sRGB">
<feFlood flood-opacity="0" result="BackgroundImageFix"/>
<feBlend mode="normal" in="SourceGraphic" in2="BackgroundImageFix" result="shape"/>
<feGaussianBlur stdDeviation="71.8729" result="effect1_foregroundBlur_411_11609"/>
</filter>
<radialGradient id="paint0_radial_411_11609" cx="0" cy="0" r="1" gradientTransform="matrix(-396.354 15.6045 336.372 533.023 235.494 144.652)" gradientUnits="userSpaceOnUse">
<stop stop-color="#003323" stop-opacity="0.4"/>
<stop offset="0.424906" stop-color="#003323" stop-opacity="0.1"/>
</radialGradient>
<radialGradient id="paint1_radial_411_11609" cx="0" cy="0" r="1" gradientTransform="matrix(110.35 189.555 -376.351 262.742 329.013 248.038)" gradientUnits="userSpaceOnUse">
<stop stop-color="#003323" stop-opacity="0.4"/>
<stop offset="0.424906" stop-color="#003323" stop-opacity="0.1"/>
</radialGradient>
<radialGradient id="paint2_radial_411_11609" cx="0" cy="0" r="1" gradientTransform="matrix(27.8405 69.6373 -94.9507 96.5245 83.0076 91.1226)" gradientUnits="userSpaceOnUse">
<stop stop-color="#003323" stop-opacity="0.4"/>
<stop offset="0.424906" stop-color="#003323" stop-opacity="0.1"/>
</radialGradient>
<radialGradient id="paint3_radial_411_11609" cx="0" cy="0" r="1" gradientTransform="matrix(4.59124 1.51021 -15.6585 2.0933 13.689 1.97615)" gradientUnits="userSpaceOnUse">
<stop stop-color="#003323" stop-opacity="0.4"/>
<stop offset="0.424906" stop-color="#003323" stop-opacity="0.1"/>
</radialGradient>
<radialGradient id="paint4_radial_411_11609" cx="0" cy="0" r="1" gradientTransform="matrix(10.257 1.51021 -34.9818 2.0933 30.5817 1.97615)" gradientUnits="userSpaceOnUse">
<stop stop-color="#003323" stop-opacity="0.4"/>
<stop offset="0.424906" stop-color="#003323" stop-opacity="0.1"/>
</radialGradient>
<radialGradient id="paint5_radial_411_11609" cx="0" cy="0" r="1" gradientTransform="matrix(2.73521 1.51021 -9.32849 2.0933 8.15513 1.97615)" gradientUnits="userSpaceOnUse">
<stop stop-color="#003323" stop-opacity="0.4"/>
<stop offset="0.424906" stop-color="#003323" stop-opacity="0.1"/>
</radialGradient>
<radialGradient id="paint6_radial_411_11609" cx="0" cy="0" r="1" gradientTransform="matrix(4.59124 1.51021 -15.6585 2.0933 13.689 1.97615)" gradientUnits="userSpaceOnUse">
<stop stop-color="#003323" stop-opacity="0.4"/>
<stop offset="0.424906" stop-color="#003323" stop-opacity="0.1"/>
</radialGradient>
<radialGradient id="paint7_radial_411_11609" cx="0" cy="0" r="1" gradientTransform="matrix(10.257 1.51021 -34.9818 2.0933 30.5817 1.97615)" gradientUnits="userSpaceOnUse">
<stop stop-color="#003323" stop-opacity="0.4"/>
<stop offset="0.424906" stop-color="#003323" stop-opacity="0.1"/>
</radialGradient>
<radialGradient id="paint8_radial_411_11609" cx="0" cy="0" r="1" gradientTransform="matrix(2.73521 1.51021 -9.32849 2.0933 8.15513 1.97615)" gradientUnits="userSpaceOnUse">
<stop stop-color="#003323" stop-opacity="0.4"/>
<stop offset="0.424906" stop-color="#003323" stop-opacity="0.1"/>
</radialGradient>
<radialGradient id="paint9_radial_411_11609" cx="0" cy="0" r="1" gradientTransform="matrix(7.91257 0.956467 -26.986 1.32576 23.5916 1.25157)" gradientUnits="userSpaceOnUse">
<stop stop-color="#003323" stop-opacity="0.4"/>
<stop offset="0.424906" stop-color="#003323" stop-opacity="0.1"/>
</radialGradient>
<radialGradient id="paint10_radial_411_11609" cx="0" cy="0" r="1" gradientTransform="matrix(3.22364 1.51021 -10.9943 2.0933 9.6114 1.97615)" gradientUnits="userSpaceOnUse">
<stop stop-color="#003323" stop-opacity="0.4"/>
<stop offset="0.424906" stop-color="#003323" stop-opacity="0.1"/>
</radialGradient>
<radialGradient id="paint11_radial_411_11609" cx="0" cy="0" r="1" gradientTransform="matrix(4.29819 1.51021 -14.6591 2.0933 12.8152 1.97615)" gradientUnits="userSpaceOnUse">
<stop stop-color="#003323" stop-opacity="0.4"/>
<stop offset="0.424906" stop-color="#003323" stop-opacity="0.1"/>
</radialGradient>
<radialGradient id="paint12_radial_411_11609" cx="0" cy="0" r="1" gradientTransform="matrix(2.24678 1.51021 -7.66269 2.0933 6.69886 1.97615)" gradientUnits="userSpaceOnUse">
<stop stop-color="#003323" stop-opacity="0.4"/>
<stop offset="0.424906" stop-color="#003323" stop-opacity="0.1"/>
</radialGradient>
<radialGradient id="paint13_radial_411_11609" cx="0" cy="0" r="1" gradientTransform="matrix(2.24678 1.51021 -7.66269 2.0933 6.69886 1.97615)" gradientUnits="userSpaceOnUse">
<stop stop-color="#003323" stop-opacity="0.4"/>
<stop offset="0.424906" stop-color="#003323" stop-opacity="0.1"/>
</radialGradient>
<radialGradient id="paint14_radial_411_11609" cx="0" cy="0" r="1" gradientTransform="matrix(3.02827 1.51021 -10.328 2.0933 9.02889 1.97615)" gradientUnits="userSpaceOnUse">
<stop stop-color="#003323" stop-opacity="0.4"/>
<stop offset="0.424906" stop-color="#003323" stop-opacity="0.1"/>
</radialGradient>
<radialGradient id="paint15_radial_411_11609" cx="0" cy="0" r="1" gradientTransform="matrix(3.80976 1.51021 -12.9933 2.0933 11.3589 1.97615)" gradientUnits="userSpaceOnUse">
<stop stop-color="#003323" stop-opacity="0.4"/>
<stop offset="0.424906" stop-color="#003323" stop-opacity="0.1"/>
</radialGradient>
<radialGradient id="paint16_radial_411_11609" cx="0" cy="0" r="1" gradientTransform="matrix(2.24678 1.51021 -7.66269 2.0933 6.69886 1.97615)" gradientUnits="userSpaceOnUse">
<stop stop-color="#003323" stop-opacity="0.4"/>
<stop offset="0.424906" stop-color="#003323" stop-opacity="0.1"/>
</radialGradient>
<radialGradient id="paint17_radial_411_11609" cx="0" cy="0" r="1" gradientTransform="matrix(3.80976 1.51021 -12.9933 2.0933 11.3589 1.97615)" gradientUnits="userSpaceOnUse">
<stop stop-color="#003323" stop-opacity="0.4"/>
<stop offset="0.424906" stop-color="#003323" stop-opacity="0.1"/>
</radialGradient>
<radialGradient id="paint18_radial_411_11609" cx="0" cy="0" r="1" gradientTransform="matrix(2.24678 1.51021 -7.66269 2.0933 6.69886 1.97615)" gradientUnits="userSpaceOnUse">
<stop stop-color="#003323" stop-opacity="0.4"/>
<stop offset="0.424906" stop-color="#003323" stop-opacity="0.1"/>
</radialGradient>
<radialGradient id="paint19_radial_411_11609" cx="0" cy="0" r="1" gradientTransform="matrix(2.73521 1.51021 -9.32849 2.0933 8.15513 1.97615)" gradientUnits="userSpaceOnUse">
<stop stop-color="#003323" stop-opacity="0.4"/>
<stop offset="0.424906" stop-color="#003323" stop-opacity="0.1"/>
</radialGradient>
<radialGradient id="paint20_radial_411_11609" cx="0" cy="0" r="1" gradientTransform="matrix(1.66066 1.51021 -5.66372 2.0933 4.95133 1.97615)" gradientUnits="userSpaceOnUse">
<stop stop-color="#003323" stop-opacity="0.4"/>
<stop offset="0.424906" stop-color="#003323" stop-opacity="0.1"/>
</radialGradient>
<radialGradient id="paint21_radial_411_11609" cx="0" cy="0" r="1" gradientTransform="matrix(1.66066 1.51021 -5.66372 2.0933 4.95133 1.97615)" gradientUnits="userSpaceOnUse">
<stop stop-color="#003323" stop-opacity="0.4"/>
<stop offset="0.424906" stop-color="#003323" stop-opacity="0.1"/>
</radialGradient>
<radialGradient id="paint22_radial_411_11609" cx="0" cy="0" r="1" gradientTransform="matrix(1.46529 1.51021 -4.9974 2.0933 4.36882 1.97615)" gradientUnits="userSpaceOnUse">
<stop stop-color="#003323" stop-opacity="0.4"/>
<stop offset="0.424906" stop-color="#003323" stop-opacity="0.1"/>
</radialGradient>
<radialGradient id="paint23_radial_411_11609" cx="0" cy="0" r="1" gradientTransform="matrix(2.24678 1.51021 -7.66269 2.0933 6.69886 1.97615)" gradientUnits="userSpaceOnUse">
<stop stop-color="#003323" stop-opacity="0.4"/>
<stop offset="0.424906" stop-color="#003323" stop-opacity="0.1"/>
</radialGradient>
<radialGradient id="paint24_radial_411_11609" cx="0" cy="0" r="1" gradientTransform="matrix(1.66066 1.51021 -5.66372 2.0933 4.95133 1.97615)" gradientUnits="userSpaceOnUse">
<stop stop-color="#003323" stop-opacity="0.4"/>
<stop offset="0.424906" stop-color="#003323" stop-opacity="0.1"/>
</radialGradient>
<radialGradient id="paint25_radial_411_11609" cx="0" cy="0" r="1" gradientTransform="matrix(2.24678 1.51021 -7.66269 2.0933 6.69886 1.97615)" gradientUnits="userSpaceOnUse">
<stop stop-color="#003323" stop-opacity="0.4"/>
<stop offset="0.424906" stop-color="#003323" stop-opacity="0.1"/>
</radialGradient>
<radialGradient id="paint26_radial_411_11609" cx="0" cy="0" r="1" gradientTransform="matrix(1.66066 1.51021 -5.66372 2.0933 4.95133 1.97615)" gradientUnits="userSpaceOnUse">
<stop stop-color="#003323" stop-opacity="0.4"/>
<stop offset="0.424906" stop-color="#003323" stop-opacity="0.1"/>
</radialGradient>
<radialGradient id="paint27_radial_411_11609" cx="0" cy="0" r="1" gradientTransform="matrix(2.73521 1.51021 -9.32849 2.0933 8.15513 1.97615)" gradientUnits="userSpaceOnUse">
<stop stop-color="#003323" stop-opacity="0.4"/>
<stop offset="0.424906" stop-color="#003323" stop-opacity="0.1"/>
</radialGradient>
<radialGradient id="paint28_radial_411_11609" cx="0" cy="0" r="1" gradientTransform="matrix(1.66066 1.51021 -5.66372 2.0933 4.95133 1.97615)" gradientUnits="userSpaceOnUse">
<stop stop-color="#003323" stop-opacity="0.4"/>
<stop offset="0.424906" stop-color="#003323" stop-opacity="0.1"/>
</radialGradient>
<radialGradient id="paint29_radial_411_11609" cx="0" cy="0" r="1" gradientTransform="matrix(1.66066 1.51021 -5.66372 2.0933 4.95133 1.97615)" gradientUnits="userSpaceOnUse">
<stop stop-color="#003323" stop-opacity="0.4"/>
<stop offset="0.424906" stop-color="#003323" stop-opacity="0.1"/>
</radialGradient>
<radialGradient id="paint30_radial_411_11609" cx="0" cy="0" r="1" gradientTransform="matrix(1.46529 1.51021 -4.9974 2.0933 4.36882 1.97615)" gradientUnits="userSpaceOnUse">
<stop stop-color="#003323" stop-opacity="0.4"/>
<stop offset="0.424906" stop-color="#003323" stop-opacity="0.1"/>
</radialGradient>
<radialGradient id="paint31_radial_411_11609" cx="0" cy="0" r="1" gradientTransform="matrix(2.24678 1.51021 -7.66269 2.0933 6.69886 1.97615)" gradientUnits="userSpaceOnUse">
<stop stop-color="#003323" stop-opacity="0.4"/>
<stop offset="0.424906" stop-color="#003323" stop-opacity="0.1"/>
</radialGradient>
<radialGradient id="paint32_radial_411_11609" cx="0" cy="0" r="1" gradientTransform="matrix(1.66066 1.51021 -5.66372 2.0933 4.95133 1.97615)" gradientUnits="userSpaceOnUse">
<stop stop-color="#003323" stop-opacity="0.4"/>
<stop offset="0.424906" stop-color="#003323" stop-opacity="0.1"/>
</radialGradient>
<radialGradient id="paint33_radial_411_11609" cx="0" cy="0" r="1" gradientTransform="matrix(2.24678 1.51021 -7.66269 2.0933 6.69886 1.97615)" gradientUnits="userSpaceOnUse">
<stop stop-color="#003323" stop-opacity="0.4"/>
<stop offset="0.424906" stop-color="#003323" stop-opacity="0.1"/>
</radialGradient>
<radialGradient id="paint34_radial_411_11609" cx="0" cy="0" r="1" gradientTransform="matrix(1.66066 1.51021 -5.66372 2.0933 4.95133 1.97615)" gradientUnits="userSpaceOnUse">
<stop stop-color="#003323" stop-opacity="0.4"/>
<stop offset="0.424906" stop-color="#003323" stop-opacity="0.1"/>
</radialGradient>
<radialGradient id="paint35_radial_411_11609" cx="0" cy="0" r="1" gradientTransform="matrix(4.29819 1.51021 -14.6591 2.0933 12.8152 1.97615)" gradientUnits="userSpaceOnUse">
<stop stop-color="#003323" stop-opacity="0.4"/>
<stop offset="0.424906" stop-color="#003323" stop-opacity="0.1"/>
</radialGradient>
<radialGradient id="paint36_radial_411_11609" cx="0" cy="0" r="1" gradientTransform="matrix(3.22364 1.51021 -10.9943 2.0933 9.6114 1.97615)" gradientUnits="userSpaceOnUse">
<stop stop-color="#003323" stop-opacity="0.4"/>
<stop offset="0.424906" stop-color="#003323" stop-opacity="0.1"/>
</radialGradient>
<radialGradient id="paint37_radial_411_11609" cx="0" cy="0" r="1" gradientTransform="matrix(3.22364 1.51021 -10.9943 2.0933 9.6114 1.97615)" gradientUnits="userSpaceOnUse">
<stop stop-color="#003323" stop-opacity="0.4"/>
<stop offset="0.424906" stop-color="#003323" stop-opacity="0.1"/>
</radialGradient>
<radialGradient id="paint38_radial_411_11609" cx="0" cy="0" r="1" gradientTransform="matrix(3.02827 1.51021 -10.328 2.0933 9.02889 1.97615)" gradientUnits="userSpaceOnUse">
<stop stop-color="#003323" stop-opacity="0.4"/>
<stop offset="0.424906" stop-color="#003323" stop-opacity="0.1"/>
</radialGradient>
<radialGradient id="paint39_radial_411_11609" cx="0" cy="0" r="1" gradientTransform="matrix(3.80976 1.51021 -12.9933 2.0933 11.3589 1.97615)" gradientUnits="userSpaceOnUse">
<stop stop-color="#003323" stop-opacity="0.4"/>
<stop offset="0.424906" stop-color="#003323" stop-opacity="0.1"/>
</radialGradient>
<radialGradient id="paint40_radial_411_11609" cx="0" cy="0" r="1" gradientTransform="matrix(3.22364 1.51021 -10.9943 2.0933 9.6114 1.97615)" gradientUnits="userSpaceOnUse">
<stop stop-color="#003323" stop-opacity="0.4"/>
<stop offset="0.424906" stop-color="#003323" stop-opacity="0.1"/>
</radialGradient>
<radialGradient id="paint41_radial_411_11609" cx="0" cy="0" r="1" gradientTransform="matrix(3.80976 1.51021 -12.9933 2.0933 11.3589 1.97615)" gradientUnits="userSpaceOnUse">
<stop stop-color="#003323" stop-opacity="0.4"/>
<stop offset="0.424906" stop-color="#003323" stop-opacity="0.1"/>
</radialGradient>
<radialGradient id="paint42_radial_411_11609" cx="0" cy="0" r="1" gradientTransform="matrix(3.22364 1.51021 -10.9943 2.0933 9.6114 1.97615)" gradientUnits="userSpaceOnUse">
<stop stop-color="#003323" stop-opacity="0.4"/>
<stop offset="0.424906" stop-color="#003323" stop-opacity="0.1"/>
</radialGradient>
<radialGradient id="paint43_radial_411_11609" cx="0" cy="0" r="1" gradientTransform="matrix(1.95372 1.51021 -6.66321 2.0933 5.82509 1.97615)" gradientUnits="userSpaceOnUse">
<stop stop-color="#003323" stop-opacity="0.4"/>
<stop offset="0.424906" stop-color="#003323" stop-opacity="0.1"/>
</radialGradient>
<radialGradient id="paint44_radial_411_11609" cx="0" cy="0" r="1" gradientTransform="matrix(1.95372 1.51021 -6.66321 2.0933 5.82509 1.97615)" gradientUnits="userSpaceOnUse">
<stop stop-color="#003323" stop-opacity="0.4"/>
<stop offset="0.424906" stop-color="#003323" stop-opacity="0.1"/>
</radialGradient>
<radialGradient id="paint45_radial_411_11609" cx="0" cy="0" r="1" gradientTransform="matrix(4.59613 1.51021 -15.6752 2.0933 13.7035 1.97615)" gradientUnits="userSpaceOnUse">
<stop stop-color="#003323" stop-opacity="0.4"/>
<stop offset="0.424906" stop-color="#003323" stop-opacity="0.1"/>
</radialGradient>
<radialGradient id="paint46_radial_411_11609" cx="0" cy="0" r="1" gradientTransform="matrix(2.2214 3.81582 -7.57613 5.28912 6.62319 4.99312)" gradientUnits="userSpaceOnUse">
<stop stop-color="#003323" stop-opacity="0.4"/>
<stop offset="0.424906" stop-color="#003323" stop-opacity="0.1"/>
</radialGradient>
<radialGradient id="paint47_radial_411_11609" cx="0" cy="0" r="1" gradientTransform="matrix(7.21955 1.90791 -24.6224 2.64456 21.5254 2.49656)" gradientUnits="userSpaceOnUse">
<stop stop-color="#003323" stop-opacity="0.4"/>
<stop offset="0.424906" stop-color="#003323" stop-opacity="0.1"/>
</radialGradient>
<radialGradient id="paint48_radial_411_11609" cx="0" cy="0" r="1" gradientTransform="matrix(7.21955 1.90791 -24.6224 2.64456 21.5254 2.49656)" gradientUnits="userSpaceOnUse">
<stop stop-color="#003323" stop-opacity="0.4"/>
<stop offset="0.424906" stop-color="#003323" stop-opacity="0.1"/>
</radialGradient>
<radialGradient id="paint49_radial_411_11609" cx="0" cy="0" r="1" gradientTransform="matrix(2.2214 3.81582 -7.57613 5.28912 6.62319 4.99312)" gradientUnits="userSpaceOnUse">
<stop stop-color="#003323" stop-opacity="0.4"/>
<stop offset="0.424906" stop-color="#003323" stop-opacity="0.1"/>
</radialGradient>
<radialGradient id="paint50_radial_411_11609" cx="0" cy="0" r="1" gradientTransform="matrix(7.21955 1.90791 -24.6224 2.64456 21.5254 2.49656)" gradientUnits="userSpaceOnUse">
<stop stop-color="#003323" stop-opacity="0.4"/>
<stop offset="0.424906" stop-color="#003323" stop-opacity="0.1"/>
</radialGradient>
<clipPath id="clip0_411_11609">
<path d="M0 8C0 3.58172 3.58172 0 8 0H320C324.418 0 328 3.58172 328 8V100C328 104.418 324.418 108 320 108H7.99999C3.58171 108 0 104.418 0 100V8Z" fill="white"/>
</clipPath>
</defs>
</svg>
