<svg width="328" height="108" viewBox="0 0 328 108" fill="none" xmlns="http://www.w3.org/2000/svg">
<g clip-path="url(#clip0_411_10893)">
<path d="M0 8C0 3.58172 3.58172 0 8 0H320C324.418 0 328 3.58172 328 8V100C328 104.418 324.418 108 320 108H7.99999C3.58171 108 0 104.418 0 100V8Z" fill="#F5F5F4"/>
<g opacity="0.4">
<path d="M1011.61 285.506L1055.07 310.602L1013.98 334.327M1011.61 285.506L970.514 309.232M1011.61 285.506L968.142 260.411M970.514 309.232L1013.98 334.327M970.514 309.232L927.047 284.137M970.514 309.232L929.42 332.958M1013.98 334.327L972.886 358.053M968.142 260.411L927.047 284.137M968.142 260.411L924.675 235.316M927.047 284.137L883.581 259.042M927.047 284.137L885.953 307.863M924.675 235.316L883.581 259.042M924.675 235.316L881.209 210.221M883.581 259.042L840.115 233.946M883.581 259.042L842.487 282.767M881.209 210.221L840.115 233.946M881.209 210.221L837.743 185.125M840.115 233.946L796.649 208.851M840.115 233.946L799.021 257.672M837.743 185.125L796.649 208.851M837.743 185.125L794.277 160.03M796.649 208.851L753.183 183.756M796.649 208.851L755.555 232.577M794.277 160.03L753.183 183.756M794.277 160.03L750.811 134.935M753.183 183.756L709.716 158.661M753.183 183.756L712.088 207.482M750.811 134.935L709.716 158.661M750.811 134.935L707.344 109.84M709.716 158.661L666.25 133.565M709.716 158.661L668.622 182.386M707.344 109.84L666.25 133.565M707.344 109.84L663.878 84.7444M666.25 133.565L622.784 108.47M666.25 133.565L625.156 157.291M663.878 84.7444L622.784 108.47M663.878 84.7444L620.412 59.6491M622.784 108.47L579.318 83.3749M622.784 108.47L581.69 132.196M620.412 59.6491L579.318 83.3749M620.412 59.6491L576.946 34.5539M579.318 83.3749L535.851 58.2796M579.318 83.3749L538.223 107.101M576.946 34.5539L535.851 58.2796M576.946 34.5539L533.479 9.45866M535.851 58.2796L492.385 33.1844M535.851 58.2796L494.757 82.0054M533.479 9.45866L492.385 33.1844M533.479 9.45866L490.013 -15.6366M492.385 33.1844L448.919 8.08916M492.385 33.1844L451.291 56.9101M490.013 -15.6366L448.919 8.08916M490.013 -15.6366L446.547 -40.7318M448.919 8.08916L405.453 -17.0061M448.919 8.08916L407.825 31.8149M446.547 -40.7318L405.453 -17.0061M446.547 -40.7318L403.081 -65.8271M405.453 -17.0061L361.986 -42.1013M405.453 -17.0061L364.359 6.71966M403.081 -65.8271L361.986 -42.1013M403.081 -65.8271L359.614 -90.9223M361.986 -42.1013L318.52 -67.1966M361.986 -42.1013L320.892 -18.3756M359.614 -90.9223L318.52 -67.1966M359.614 -90.9223L316.148 -116.018L275.054 -92.2918M318.52 -67.1966L275.054 -92.2918M318.52 -67.1966L277.426 -43.4708M275.054 -92.2918L233.96 -68.5661M929.42 332.958L972.886 358.053M929.42 332.958L885.953 307.863M929.42 332.958L888.325 356.684M972.886 358.053L931.792 381.779M885.953 307.863L842.487 282.767M885.953 307.863L844.859 331.588M842.487 282.767L799.021 257.672M842.487 282.767L801.393 306.493M799.021 257.672L755.555 232.577M799.021 257.672L757.927 281.398M755.555 232.577L712.088 207.482M755.555 232.577L714.46 256.303M712.088 207.482L668.622 182.386M712.088 207.482L670.994 231.207M668.622 182.386L625.156 157.291M668.622 182.386L627.528 206.112M625.156 157.291L581.69 132.196M625.156 157.291L584.062 181.017M581.69 132.196L538.223 107.101M581.69 132.196L540.596 155.922M538.223 107.101L494.757 82.0054M538.223 107.101L497.129 130.826M494.757 82.0054L451.291 56.9101M494.757 82.0054L453.663 105.731M451.291 56.9101L407.825 31.8149M451.291 56.9101L410.197 80.6358M407.825 31.8149L364.359 6.71966M407.825 31.8149L366.731 55.5406M364.359 6.71966L320.892 -18.3756M364.359 6.71966L323.264 30.4454M320.892 -18.3756L277.426 -43.4708M320.892 -18.3756L279.798 5.35013M277.426 -43.4708L233.96 -68.5661M277.426 -43.4708L236.332 -19.7451M233.96 -68.5661L192.866 -44.8403M888.325 356.684L931.792 381.779M888.325 356.684L844.859 331.588M888.325 356.684L847.231 380.409M931.792 381.779L890.697 405.504M844.859 331.588L801.393 306.493M844.859 331.588L803.765 355.314M801.393 306.493L757.927 281.398M801.393 306.493L760.299 330.219M757.927 281.398L714.46 256.303M757.927 281.398L716.832 305.124M714.46 256.303L670.994 231.207M714.46 256.303L673.366 280.028M670.994 231.207L627.528 206.112M670.994 231.207L629.9 254.933M627.528 206.112L584.062 181.017M627.528 206.112L586.434 229.838M584.062 181.017L540.596 155.922M584.062 181.017L542.968 204.743M540.596 155.922L497.129 130.826M540.596 155.922L499.501 179.647M497.129 130.826L453.663 105.731M497.129 130.826L456.035 154.552M453.663 105.731L410.197 80.6358M453.663 105.731L412.569 129.457M410.197 80.6358L366.731 55.5406M410.197 80.6358L369.103 104.362M366.731 55.5406L323.264 30.4454M366.731 55.5406L325.636 79.2664M323.264 30.4454L279.798 5.35013M323.264 30.4454L282.17 54.1711M279.798 5.35013L236.332 -19.7451M279.798 5.35013L238.704 29.0759M236.332 -19.7451L192.866 -44.8403M236.332 -19.7451L195.238 3.98063M192.866 -44.8403L151.772 -21.1146M847.231 380.409L890.697 405.504M847.231 380.409L803.765 355.314M847.231 380.409L806.137 404.135M890.697 405.504L849.603 429.23M803.765 355.314L760.299 330.219M803.765 355.314L762.671 379.04M760.299 330.219L716.832 305.124M760.299 330.219L719.205 353.944M716.832 305.124L673.366 280.028M716.832 305.124L675.738 328.849M673.366 280.028L629.9 254.933M673.366 280.028L632.272 303.754M629.9 254.933L586.434 229.838M629.9 254.933L588.806 278.659M586.434 229.838L542.968 204.743M586.434 229.838L545.34 253.564M542.968 204.743L499.501 179.647M542.968 204.743L501.873 228.468M499.501 179.647L456.035 154.552M499.501 179.647L458.407 203.373M456.035 154.552L412.569 129.457M456.035 154.552L414.941 178.278M412.569 129.457L369.103 104.362M412.569 129.457L371.475 153.183M369.103 104.362L325.636 79.2664M369.103 104.362L328.008 128.087M325.636 79.2664L282.17 54.1711M325.636 79.2664L284.542 102.992M282.17 54.1711L238.704 29.0759M282.17 54.1711L241.076 77.8968M238.704 29.0759L195.238 3.98063M238.704 29.0759L197.61 52.8016M195.238 3.98063L151.772 -21.1146M195.238 3.98063L154.144 27.7064M151.772 -21.1146L110.677 2.61112M806.137 404.135L849.603 429.23M806.137 404.135L762.671 379.04M806.137 404.135L765.043 427.861M849.603 429.23L808.509 452.956M762.671 379.04L719.205 353.944M762.671 379.04L721.577 402.765M719.205 353.944L675.738 328.849M719.205 353.944L678.11 377.67M675.738 328.849L632.272 303.754M675.738 328.849L634.644 352.575M632.272 303.754L588.806 278.659M632.272 303.754L591.178 327.48M588.806 278.659L545.34 253.564M588.806 278.659L547.712 302.384M545.34 253.564L501.873 228.468M545.34 253.564L504.245 277.289M501.873 228.468L458.407 203.373M501.873 228.468L460.779 252.194M458.407 203.373L414.941 178.278M458.407 203.373L417.313 227.099M414.941 178.278L371.475 153.183M414.941 178.278L373.847 202.004M371.475 153.183L328.008 128.087M371.475 153.183L330.381 176.908M328.008 128.087L284.542 102.992M328.008 128.087L286.914 151.813M284.542 102.992L241.076 77.8968M284.542 102.992L243.448 126.718M241.076 77.8968L197.61 52.8016M241.076 77.8968L199.982 101.623M197.61 52.8016L154.144 27.7064M197.61 52.8016L156.516 76.5273M154.144 27.7064L110.677 2.61112M154.144 27.7064L113.049 51.4321M110.677 2.61112L69.5832 26.3369M765.043 427.861L808.509 452.956M765.043 427.861L721.577 402.765M765.043 427.861L723.949 451.586M808.509 452.956L767.415 476.682M721.577 402.765L678.11 377.67M721.577 402.765L680.482 426.491M678.11 377.67L634.644 352.575M678.11 377.67L637.016 401.396M634.644 352.575L591.178 327.48M634.644 352.575L593.55 376.301M591.178 327.48L547.712 302.384M591.178 327.48L550.084 351.205M547.712 302.384L504.245 277.289M547.712 302.384L506.618 326.11M504.245 277.289L460.779 252.194M504.245 277.289L463.151 301.015M460.779 252.194L417.313 227.099M460.779 252.194L419.685 275.92M417.313 227.099L373.847 202.004M417.313 227.099L376.219 250.824M373.847 202.004L330.381 176.908M373.847 202.004L332.753 225.729M330.381 176.908L286.914 151.813M330.381 176.908L289.286 200.634M286.914 151.813L243.448 126.718M286.914 151.813L245.82 175.539M243.448 126.718L199.982 101.623M243.448 126.718L202.354 150.444M199.982 101.623L156.516 76.5273M199.982 101.623L158.888 125.348M156.516 76.5273L113.049 51.4321M156.516 76.5273L115.421 100.253M113.049 51.4321L69.5832 26.3369M113.049 51.4321L71.9552 75.1578M69.5832 26.3369L28.489 50.0626M723.949 451.586L767.415 476.682M723.949 451.586L680.482 426.491M723.949 451.586L682.854 475.312M767.415 476.682L726.321 500.407M680.482 426.491L637.016 401.396M680.482 426.491L639.388 450.217M637.016 401.396L593.55 376.301M637.016 401.396L595.922 425.122M593.55 376.301L550.084 351.205M593.55 376.301L552.456 400.026M550.084 351.205L506.618 326.11M550.084 351.205L508.99 374.931M506.618 326.11L463.151 301.015M506.618 326.11L465.523 349.836M463.151 301.015L419.685 275.92M463.151 301.015L422.057 324.741M419.685 275.92L376.219 250.824M419.685 275.92L378.591 299.645M376.219 250.824L332.753 225.729M376.219 250.824L335.125 274.55M332.753 225.729L289.286 200.634M332.753 225.729L291.658 249.455M289.286 200.634L245.82 175.539M289.286 200.634L248.192 224.36M245.82 175.539L202.354 150.444M245.82 175.539L204.726 199.264M202.354 150.444L158.888 125.348M202.354 150.444L161.26 174.169M158.888 125.348L115.421 100.253M158.888 125.348L117.794 149.074M115.421 100.253L71.9552 75.1578M115.421 100.253L74.3273 123.979M71.9552 75.1578L28.489 50.0626M71.9552 75.1578L30.8611 98.8836M28.489 50.0626L-12.6052 73.7883M682.854 475.312L726.321 500.407M682.854 475.312L639.388 450.217M682.854 475.312L641.76 499.038M726.321 500.407L685.227 524.133M639.388 450.217L595.922 425.122M639.388 450.217L598.294 473.943M595.922 425.122L552.456 400.026M595.922 425.122L554.828 448.847M552.456 400.026L508.99 374.931M552.456 400.026L511.362 423.752M508.99 374.931L465.523 349.836M508.99 374.931L467.895 398.657M465.523 349.836L422.057 324.741M465.523 349.836L424.429 373.562M422.057 324.741L378.591 299.645M422.057 324.741L380.963 348.466M378.591 299.645L335.125 274.55M378.591 299.645L337.497 323.371M335.125 274.55L291.658 249.455M335.125 274.55L294.03 298.276M291.658 249.455L248.192 224.36M291.658 249.455L250.564 273.181M248.192 224.36L204.726 199.264M248.192 224.36L207.098 248.085M204.726 199.264L161.26 174.169M204.726 199.264L163.632 222.99M161.26 174.169L117.794 149.074M161.26 174.169L120.166 197.895M117.794 149.074L74.3273 123.979M117.794 149.074L76.6994 172.8M74.3273 123.979L30.8611 98.8836M74.3273 123.979L33.2331 147.705M30.8611 98.8836L-12.6052 73.7883M30.8611 98.8836L-10.2331 122.609M-12.6052 73.7883L-53.6993 97.514M641.76 499.038L685.227 524.133M641.76 499.038L598.294 473.943M641.76 499.038L600.666 522.764M685.227 524.133L644.132 547.859M598.294 473.943L554.828 448.847M598.294 473.943L557.2 497.668M554.828 448.847L511.362 423.752M554.828 448.847L513.734 472.573M511.362 423.752L467.895 398.657M511.362 423.752L470.267 447.478M467.895 398.657L424.429 373.562M467.895 398.657L426.801 422.383M424.429 373.562L380.963 348.466M424.429 373.562L383.335 397.287M380.963 348.466L337.497 323.371M380.963 348.466L339.869 372.192M337.497 323.371L294.03 298.276M337.497 323.371L296.403 347.097M294.03 298.276L250.564 273.181M294.03 298.276L252.936 322.002M250.564 273.181L207.098 248.085M250.564 273.181L209.47 296.906M207.098 248.085L163.632 222.99M207.098 248.085L166.004 271.811M163.632 222.99L120.166 197.895M163.632 222.99L122.538 246.716M120.166 197.895L76.6994 172.8M120.166 197.895L79.0714 221.621M76.6994 172.8L33.2331 147.705M76.6994 172.8L35.6052 196.525M33.2331 147.705L-10.2331 122.609M33.2331 147.705L-7.86105 171.43M-10.2331 122.609L-53.6993 97.514M-10.2331 122.609L-51.3273 146.335M-53.6993 97.514L-94.7935 121.24M600.666 522.764L644.132 547.859M600.666 522.764L557.2 497.668M600.666 522.764L559.572 546.489M644.132 547.859L603.038 571.585M557.2 497.668L513.734 472.573M557.2 497.668L516.106 521.394M513.734 472.573L470.267 447.478M513.734 472.573L472.639 496.299M470.267 447.478L426.801 422.383M470.267 447.478L429.173 471.204M426.801 422.383L383.335 397.287M426.801 422.383L385.707 446.108M383.335 397.287L339.869 372.192M383.335 397.287L342.241 421.013M339.869 372.192L296.403 347.097M339.869 372.192L298.775 395.918M296.403 347.097L252.936 322.002M296.403 347.097L255.308 370.823M252.936 322.002L209.47 296.906M252.936 322.002L211.842 345.727M209.47 296.906L166.004 271.811M209.47 296.906L168.376 320.632M166.004 271.811L122.538 246.716M166.004 271.811L124.91 295.537M122.538 246.716L79.0714 221.621M122.538 246.716L81.4434 270.442M79.0714 221.621L35.6052 196.525M79.0714 221.621L37.9772 245.346M35.6052 196.525L-7.86105 171.43M35.6052 196.525L-5.48899 220.251M-7.86105 171.43L-51.3273 146.335M-7.86105 171.43L-48.9553 195.156M-51.3273 146.335L-94.7935 121.24M-51.3273 146.335L-92.4215 170.061M-94.7935 121.24L-135.888 144.966M559.572 546.489L603.038 571.585M559.572 546.489L516.106 521.394M559.572 546.489L518.478 570.215M603.038 571.585L561.944 595.31L518.478 570.215M516.106 521.394L472.639 496.299M516.106 521.394L475.012 545.12M472.639 496.299L429.173 471.204M472.639 496.299L431.545 520.025M429.173 471.204L385.707 446.108M429.173 471.204L388.079 494.929M385.707 446.108L342.241 421.013M385.707 446.108L344.613 469.834M342.241 421.013L298.775 395.918M342.241 421.013L301.147 444.739M298.775 395.918L255.308 370.823M298.775 395.918L257.68 419.644M255.308 370.823L211.842 345.727M255.308 370.823L214.214 394.548M211.842 345.727L168.376 320.632M211.842 345.727L170.748 369.453M168.376 320.632L124.91 295.537M168.376 320.632L127.282 344.358M124.91 295.537L81.4434 270.442M124.91 295.537L83.8155 319.263M81.4434 270.442L37.9772 245.346M81.4434 270.442L40.3493 294.167M37.9772 245.346L-5.48899 220.251M37.9772 245.346L-3.11694 269.072M-5.48899 220.251L-48.9553 195.156M-5.48899 220.251L-46.5831 243.977M-48.9553 195.156L-92.4215 170.061M-48.9553 195.156L-90.0494 218.882M-92.4215 170.061L-135.888 144.966M-92.4215 170.061L-133.516 193.786M-135.888 144.966L-176.982 168.691L-133.516 193.786M518.478 570.215L475.012 545.12M475.012 545.12L431.545 520.025M431.545 520.025L388.079 494.929M388.079 494.929L344.613 469.834M344.613 469.834L301.147 444.739M301.147 444.739L257.68 419.644M257.68 419.644L214.214 394.548M214.214 394.548L170.748 369.453M170.748 369.453L127.282 344.358M127.282 344.358L83.8155 319.263M83.8155 319.263L40.3493 294.167M40.3493 294.167L-3.11694 269.072M-3.11694 269.072L-46.5831 243.977M-46.5831 243.977L-90.0494 218.882M-90.0494 218.882L-133.516 193.786" stroke="url(#paint0_radial_411_10893)" stroke-opacity="0.85"/>
<g filter="url(#filter0_f_411_10893)">
<circle cx="220.782" cy="220.782" r="220.782" transform="matrix(0.866025 -0.5 0.866025 0.5 -142.031 213.781)" fill="#003323" fill-opacity="0.3"/>
<circle cx="220.782" cy="220.782" r="220.575" transform="matrix(0.866025 -0.5 0.866025 0.5 -142.031 213.781)" stroke="url(#paint1_radial_411_10893)" stroke-opacity="0.85" stroke-width="0.413063"/>
</g>
</g>
<rect width="78" height="174" rx="4" transform="matrix(0.866025 -0.5 0.866025 0.5 72.2891 42.5)" fill="white"/>
<rect width="78" height="174" rx="4" transform="matrix(0.866025 -0.5 0.866025 0.5 72.2891 42.5)" fill="#003323" fill-opacity="0.3"/>
<rect x="-1.73205" width="80" height="176" rx="5" transform="matrix(0.866025 -0.5 0.866025 0.5 71.057 32.634)" fill="white"/>
<rect x="-1.73205" width="80" height="176" rx="5" transform="matrix(0.866025 -0.5 0.866025 0.5 71.057 32.634)" stroke="white" stroke-width="2"/>
<rect x="-1.73205" width="80" height="176" rx="5" transform="matrix(0.866025 -0.5 0.866025 0.5 71.057 32.634)" stroke="#003323" stroke-opacity="0.2" stroke-width="2"/>
<circle cx="15.4752" cy="15.4752" r="14.9752" transform="matrix(0.866025 -0.5 0.866025 0.5 142.804 49.9531)" stroke="#003323" stroke-opacity="0.7"/>
<circle cx="24.0726" cy="24.0726" r="23.5726" transform="matrix(0.866025 -0.5 0.866025 0.5 127.913 49.9531)" stroke="#003323" stroke-opacity="0.5"/>
<circle cx="30.9505" cy="30.9505" r="30.4505" transform="matrix(0.866025 -0.5 0.866025 0.5 116 49.9531)" stroke="#003323" stroke-opacity="0.3"/>
<g clip-path="url(#clip1_411_10893)">
<path fill-rule="evenodd" clip-rule="evenodd" d="M175.564 53.3921C177.144 52.48 178.032 51.243 178.032 49.9531C178.032 48.6633 177.144 47.4262 175.564 46.5142C173.985 45.6021 171.842 45.0897 169.608 45.0897C167.374 45.0897 165.231 45.6021 163.652 46.5142C162.072 47.4262 161.184 48.6633 161.184 49.9531C161.184 51.243 162.072 52.48 163.652 53.3921C165.231 54.3041 167.374 54.8165 169.608 54.8165C171.842 54.8165 173.985 54.3041 175.564 53.3921ZM171.133 47.5175C171.117 47.4583 171.08 47.4016 171.026 47.3505C170.972 47.2995 170.901 47.255 170.817 47.2198C170.733 47.1846 170.638 47.1593 170.537 47.1453C170.436 47.1314 170.331 47.129 170.229 47.1384C170.127 47.1477 170.028 47.1687 169.94 47.1999C169.851 47.2312 169.774 47.2723 169.713 47.3208C169.652 47.3692 169.609 47.4241 169.584 47.4824C169.56 47.5406 169.556 47.601 169.572 47.6602L170.545 51.2165L167.746 51.2165C167.641 51.2155 167.537 51.2265 167.44 51.249C167.342 51.2715 167.254 51.3049 167.179 51.3473C167.104 51.3898 167.045 51.4404 167.004 51.4963C166.964 51.5521 166.943 51.6121 166.943 51.6726C166.943 51.7331 166.964 51.7931 167.004 51.8489C167.045 51.9047 167.104 51.9553 167.179 51.9977C167.254 52.0401 167.343 52.0735 167.44 52.0959C167.538 52.1184 167.642 52.1293 167.747 52.1283L171.469 52.1283C171.584 52.1283 171.696 52.114 171.8 52.0864C171.904 52.0589 171.996 52.0187 172.07 51.9686C172.144 51.9185 172.199 51.8597 172.23 51.7963C172.261 51.7329 172.268 51.6663 172.25 51.6012L171.133 47.5175Z" fill="#003323"/>
</g>
<rect width="18" height="6" rx="3" transform="matrix(0.866025 -0.5 0.866025 0.5 101.953 19.5)" fill="#003323" fill-opacity="0.2"/>
<rect width="70" height="10" rx="2" transform="matrix(0.866025 -0.5 0.866025 0.5 213.317 111.5)" fill="white"/>
<rect width="70" height="10" rx="2" transform="matrix(0.866025 -0.5 0.866025 0.5 213.317 111.5)" fill="#003323" fill-opacity="0.4"/>
<rect width="70" height="3" rx="1.5" transform="matrix(0.866025 -0.5 0.866025 0.5 202.926 105.5)" fill="#003323" fill-opacity="0.2"/>
<rect width="26" height="3" rx="1.5" transform="matrix(0.866025 -0.5 0.866025 0.5 207.254 108)" fill="#003323" fill-opacity="0.2"/>
<rect width="1.04402" height="16" transform="matrix(0.866025 -0.5 0.866025 0.5 172.573 12.0234)" fill="white"/>
<rect width="1.04402" height="16" transform="matrix(0.866025 -0.5 0.866025 0.5 172.573 12.0234)" fill="#003323" fill-opacity="0.2"/>
<rect width="0.975185" height="16" transform="matrix(0.866025 -0.5 0.866025 0.5 239.32 50.4922)" fill="white"/>
<rect width="0.975185" height="16" transform="matrix(0.866025 -0.5 0.866025 0.5 239.32 50.4922)" fill="#003323" fill-opacity="0.2"/>
<rect width="0.896608" height="16" transform="matrix(0.866025 -0.5 0.866025 0.5 101.601 54.0078)" fill="white"/>
<rect width="0.896608" height="16" transform="matrix(0.866025 -0.5 0.866025 0.5 101.601 54.0078)" fill="#003323" fill-opacity="0.2"/>
<rect width="55.0854" height="19" rx="2" transform="matrix(0.866025 0.5 0 1 263 15)" fill="#FAFAF9"/>
<path d="M267.176 30.4108V23.6254L270.722 25.6729V26.4019L267.887 24.7651V27.0579L270.539 28.5886V29.3175L267.887 27.7868V30.0928L270.768 31.756V32.4849L267.176 30.4108ZM272.59 26.7514V33.5369L271.913 33.1459V26.3604L272.59 26.7514ZM273.83 34.2529V29.1638L274.508 29.5548V34.6439L273.83 34.2529ZM274.175 28.5144C274.043 28.4382 273.929 28.3206 273.833 28.1616C273.74 28.0037 273.693 27.8518 273.693 27.706C273.693 27.5602 273.74 27.4625 273.833 27.4128C273.929 27.3642 274.043 27.378 274.175 27.4542C274.307 27.5304 274.42 27.6475 274.513 27.8054C274.609 27.9644 274.657 28.1169 274.657 28.2626C274.657 28.4084 274.609 28.5056 274.513 28.5542C274.42 28.6039 274.307 28.5906 274.175 28.5144ZM277.527 38.4015C277.2 38.2126 276.918 38.0017 276.683 37.7686C276.448 37.5378 276.252 37.2987 276.095 37.0513C275.94 36.8073 275.817 36.5704 275.725 36.3407L276.264 36.2148C276.326 36.3429 276.403 36.4936 276.497 36.667C276.59 36.8426 276.719 37.0215 276.881 37.2037C277.046 37.3893 277.261 37.5588 277.527 37.7123C277.883 37.9177 278.176 37.9879 278.408 37.9227C278.639 37.8576 278.755 37.6129 278.755 37.1888V36.1551L278.697 36.122C278.648 36.186 278.577 36.26 278.485 36.344C278.395 36.4268 278.265 36.4721 278.095 36.4798C277.927 36.4864 277.699 36.4069 277.412 36.2413C277.056 36.0358 276.737 35.7542 276.454 35.3964C276.172 35.0397 275.95 34.6283 275.785 34.1622C275.623 33.6973 275.541 33.1997 275.541 32.6696C275.541 32.1483 275.621 31.7403 275.779 31.4454C275.938 31.1483 276.159 30.9755 276.442 30.9269C276.725 30.8761 277.052 30.9578 277.423 31.172C277.71 31.3377 277.938 31.5244 278.106 31.732C278.277 31.9385 278.407 32.1373 278.497 32.3284C278.588 32.5183 278.659 32.6718 278.709 32.7889L278.778 32.8287V32.0202L279.432 32.3979V37.6328C279.432 38.0702 279.346 38.3761 279.174 38.5506C279.004 38.7284 278.774 38.798 278.485 38.7593C278.198 38.724 277.879 38.6047 277.527 38.4015ZM277.504 35.5919C277.775 35.7487 278.005 35.8094 278.192 35.7741C278.38 35.7388 278.522 35.6145 278.62 35.4014C278.718 35.1882 278.766 34.8939 278.766 34.5184C278.766 34.1517 278.719 33.8005 278.623 33.4648C278.527 33.1291 278.386 32.8275 278.198 32.5603C278.011 32.293 277.779 32.0799 277.504 31.9208C277.217 31.7552 276.978 31.7011 276.787 31.7585C276.597 31.817 276.455 31.96 276.359 32.1875C276.265 32.4162 276.218 32.7028 276.218 33.0473C276.218 33.4007 276.266 33.7409 276.362 34.0678C276.459 34.3936 276.603 34.6885 276.792 34.9524C276.984 35.2153 277.221 35.4284 277.504 35.5919ZM280.672 38.2027V33.1136L281.349 33.5045V38.5936L280.672 38.2027ZM281.016 32.4642C280.884 32.388 280.77 32.2704 280.674 32.1113C280.581 31.9534 280.534 31.8016 280.534 31.6558C280.534 31.51 280.581 31.4123 280.674 31.3626C280.77 31.314 280.884 31.3278 281.016 31.404C281.148 31.4802 281.261 31.5972 281.354 31.7552C281.45 31.9142 281.498 32.0666 281.498 32.2124C281.498 32.3582 281.45 32.4554 281.354 32.504C281.261 32.5537 281.148 32.5404 281.016 32.4642ZM282.681 39.3627V32.5773L283.358 32.9682V35.473L283.415 35.5061C283.465 35.4465 283.534 35.3736 283.622 35.2875C283.712 35.2002 283.84 35.1505 284.006 35.1384C284.175 35.1251 284.402 35.2013 284.689 35.367C285.06 35.5812 285.388 35.8772 285.671 36.2549C285.954 36.6326 286.175 37.0639 286.333 37.5487C286.492 38.0336 286.572 38.5433 286.572 39.0778C286.572 39.6167 286.492 40.0381 286.333 40.3418C286.175 40.6433 285.955 40.8211 285.674 40.8752C285.392 40.9271 285.068 40.847 284.701 40.635C284.418 40.4715 284.191 40.2866 284.021 40.08C283.851 39.8713 283.72 39.6708 283.628 39.4787C283.536 39.2843 283.465 39.1264 283.415 39.0049L283.335 38.9585V39.7404L282.681 39.3627ZM283.346 37.2025C283.346 37.5868 283.395 37.9541 283.493 38.3041C283.59 38.652 283.733 38.9629 283.92 39.2368C284.108 39.5085 284.337 39.7228 284.609 39.8796C284.892 40.043 285.128 40.0933 285.318 40.0303C285.509 39.9663 285.652 39.815 285.748 39.5764C285.846 39.3368 285.894 39.0358 285.894 38.6736C285.894 38.3157 285.847 37.9656 285.751 37.6233C285.657 37.2798 285.515 36.9689 285.323 36.6906C285.134 36.4112 284.896 36.1887 284.609 36.023C284.334 35.864 284.102 35.811 283.915 35.864C283.727 35.9148 283.586 36.0561 283.49 36.2881C283.394 36.5178 283.346 36.8226 283.346 37.2025ZM288.285 35.8126V42.5981L287.607 42.2071V35.4217L288.285 35.8126ZM291.373 44.487C290.948 44.2418 290.582 43.9221 290.274 43.5278C289.968 43.1325 289.731 42.6913 289.565 42.2042C289.401 41.7161 289.318 41.2114 289.318 40.6901C289.318 40.1688 289.401 39.7569 289.565 39.4542C289.731 39.1505 289.963 38.9727 290.259 38.9208C290.558 38.8678 290.906 38.9562 291.304 39.1859C291.533 39.3184 291.76 39.4935 291.984 39.711C292.208 39.9286 292.411 40.1898 292.595 40.4946C292.779 40.7972 292.925 41.1423 293.034 41.53C293.143 41.9176 293.198 42.3489 293.198 42.8238V43.1551L289.8 41.1937V40.5178L292.509 42.0816C292.509 41.7945 292.459 41.5095 292.36 41.2268C292.262 40.9452 292.123 40.6868 291.941 40.4515C291.761 40.2174 291.549 40.0296 291.304 39.8883C291.034 39.7326 290.801 39.6751 290.604 39.716C290.409 39.7557 290.258 39.8678 290.153 40.0523C290.048 40.2367 289.995 40.4692 289.995 40.7497V41.2003C289.995 41.5846 290.053 41.9436 290.168 42.2771C290.284 42.6095 290.446 42.905 290.653 43.1634C290.859 43.4196 291.099 43.6267 291.373 43.7846C291.551 43.8873 291.711 43.9514 291.855 43.9768C292 44.0011 292.125 43.9851 292.231 43.9287C292.336 43.8702 292.417 43.7691 292.475 43.6256L293.129 44.2153C293.06 44.4318 292.944 44.5903 292.782 44.6908C292.619 44.7891 292.418 44.8233 292.179 44.7935C291.94 44.7615 291.671 44.6593 291.373 44.487Z" fill="#003323" fill-opacity="0.7"/>
<g clip-path="url(#clip2_411_10893)">
<path d="M298.026 44.5392C298.026 41.6008 300.089 40.4098 302.634 41.879V41.879C305.178 43.3482 307.241 46.9213 307.241 49.8597V49.8597C307.241 52.7982 305.178 53.9892 302.634 52.52V52.52C300.089 51.0508 298.026 47.4777 298.026 44.5392V44.5392Z" fill="#003323" fill-opacity="0.7"/>
<g clip-path="url(#clip3_411_10893)">
<path d="M304.938 46.5352L301.77 48.3642L300.33 45.8702" stroke="white" stroke-width="0.665062" stroke-linecap="round" stroke-linejoin="round"/>
</g>
</g>
<rect width="55.0854" height="19" rx="2" transform="matrix(0.866025 0.5 0 1 38 69)" fill="#FAFAF9"/>
<path d="M42.1757 84.4108V77.6254L45.7222 79.6729V80.4019L42.8873 78.7651V81.0579L45.5386 82.5886V83.3175L42.8873 81.7868V84.0928L45.7681 85.756V86.4849L42.1757 84.4108ZM47.5901 80.7514V87.5369L46.913 87.1459V80.3604L47.5901 80.7514ZM48.8304 88.2529V83.1638L49.5075 83.5548V88.6439L48.8304 88.2529ZM49.1747 82.5144C49.0427 82.4382 48.9289 82.3206 48.8333 82.1616C48.7395 82.0037 48.6927 81.8518 48.6927 81.706C48.6927 81.5602 48.7395 81.4625 48.8333 81.4128C48.9289 81.3642 49.0427 81.378 49.1747 81.4542C49.3067 81.5304 49.4196 81.6475 49.5133 81.8054C49.6089 81.9644 49.6567 82.1169 49.6567 82.2626C49.6567 82.4084 49.6089 82.5056 49.5133 82.5542C49.4196 82.6039 49.3067 82.5906 49.1747 82.5144ZM52.5268 92.4015C52.1997 92.2126 51.9185 92.0017 51.6832 91.7686C51.4479 91.5378 51.2519 91.2987 51.095 91.0513C50.9401 90.8073 50.8167 90.5704 50.7249 90.3407L51.2643 90.2148C51.3255 90.3429 51.403 90.4936 51.4967 90.667C51.5904 90.8426 51.7186 91.0215 51.8812 91.2037C52.0457 91.3893 52.2609 91.5588 52.5268 91.7123C52.8826 91.9177 53.1762 91.9879 53.4077 91.9227C53.6391 91.8576 53.7549 91.6129 53.7549 91.1888V90.1551L53.6975 90.122C53.6477 90.186 53.577 90.26 53.4851 90.344C53.3952 90.4268 53.2652 90.4721 53.0949 90.4798C52.9266 90.4864 52.699 90.4069 52.412 90.2413C52.0562 90.0358 51.7368 89.7542 51.4537 89.3964C51.1725 89.0397 50.9496 88.6283 50.7851 88.1622C50.6225 87.6973 50.5412 87.1997 50.5412 86.6696C50.5412 86.1483 50.6206 85.7403 50.7794 85.4454C50.9381 85.1483 51.1591 84.9755 51.4422 84.9269C51.7253 84.8761 52.0524 84.9578 52.4235 85.172C52.7104 85.3377 52.9381 85.5244 53.1064 85.732C53.2766 85.9385 53.4067 86.1373 53.4966 86.3284C53.5884 86.5183 53.6592 86.6718 53.709 86.7889L53.7778 86.8287V86.0202L54.432 86.3979V91.6328C54.432 92.0702 54.3459 92.3761 54.1738 92.5506C54.0035 92.7284 53.774 92.798 53.4851 92.7593C53.1982 92.724 52.8788 92.6047 52.5268 92.4015ZM52.5038 89.5919C52.7755 89.7487 53.005 89.8094 53.1925 89.7741C53.3799 89.7388 53.5224 89.6145 53.62 89.4014C53.7176 89.1882 53.7663 88.8939 53.7663 88.5184C53.7663 88.1517 53.7185 87.8005 53.6229 87.4648C53.5272 87.1291 53.3857 86.8275 53.1982 86.5603C53.0107 86.293 52.7793 86.0799 52.5038 85.9208C52.2169 85.7552 51.9778 85.7011 51.7865 85.7585C51.5971 85.817 51.4546 85.96 51.359 86.1875C51.2652 86.4162 51.2184 86.7028 51.2184 87.0473C51.2184 87.4007 51.2662 87.7409 51.3618 88.0678C51.4594 88.3936 51.6029 88.6885 51.7922 88.9524C51.9835 89.2153 52.2207 89.4284 52.5038 89.5919ZM55.6716 92.2027V87.1136L56.3487 87.5045V92.5936L55.6716 92.2027ZM56.0159 86.4642C55.8839 86.388 55.7701 86.2704 55.6744 86.1113C55.5807 85.9534 55.5338 85.8016 55.5338 85.6558C55.5338 85.51 55.5807 85.4123 55.6744 85.3626C55.7701 85.314 55.8839 85.3278 56.0159 85.404C56.1479 85.4802 56.2607 85.5972 56.3545 85.7552C56.4501 85.9142 56.4979 86.0666 56.4979 86.2124C56.4979 86.3582 56.4501 86.4554 56.3545 86.504C56.2607 86.5537 56.1479 86.5404 56.0159 86.4642ZM57.6808 93.3627V86.5773L58.358 86.9682V89.473L58.4154 89.5061C58.4651 89.4465 58.534 89.3736 58.622 89.2875C58.7119 89.2002 58.84 89.1505 59.0064 89.1384C59.1748 89.1251 59.4024 89.2013 59.6893 89.367C60.0604 89.5812 60.3875 89.8772 60.6706 90.2549C60.9538 90.6326 61.1747 91.0639 61.3335 91.5487C61.4922 92.0336 61.5716 92.5433 61.5716 93.0778C61.5716 93.6167 61.4922 94.0381 61.3335 94.3418C61.1747 94.6433 60.9547 94.8211 60.6735 94.8752C60.3923 94.9271 60.0681 94.847 59.7008 94.635C59.4177 94.4715 59.191 94.2866 59.0208 94.08C58.8505 93.8713 58.7195 93.6708 58.6277 93.4787C58.5359 93.2843 58.4651 93.1264 58.4154 93.0049L58.335 92.9585V93.7404L57.6808 93.3627ZM58.3465 91.2025C58.3465 91.5868 58.3953 91.9541 58.4928 92.3041C58.5904 92.652 58.7329 92.9629 58.9204 93.2368C59.1078 93.5085 59.3374 93.7228 59.609 93.8796C59.8921 94.043 60.1283 94.0933 60.3177 94.0303C60.509 93.9663 60.6525 93.815 60.7481 93.5764C60.8457 93.3368 60.8945 93.0358 60.8945 92.6736C60.8945 92.3157 60.8466 91.9656 60.751 91.6233C60.6573 91.2798 60.5147 90.9689 60.3235 90.6906C60.1341 90.4112 59.8959 90.1887 59.609 90.023C59.3335 89.864 59.1021 89.811 58.9146 89.864C58.7272 89.9148 58.5856 90.0561 58.49 90.2881C58.3943 90.5178 58.3465 90.8226 58.3465 91.2025ZM63.2846 89.8126V96.5981L62.6074 96.2071V89.4217L63.2846 89.8126ZM66.3727 98.487C65.9481 98.2418 65.5817 97.9221 65.2738 97.5278C64.9677 97.1325 64.7315 96.6913 64.565 96.2042C64.4005 95.7161 64.3183 95.2114 64.3183 94.6901C64.3183 94.1688 64.4005 93.7569 64.565 93.4542C64.7315 93.1505 64.9629 92.9727 65.2594 92.9208C65.5578 92.8678 65.906 92.9562 66.3039 93.1859C66.5334 93.3184 66.7601 93.4935 66.9839 93.711C67.2077 93.9286 67.4114 94.1898 67.595 94.4946C67.7787 94.7972 67.925 95.1423 68.0341 95.53C68.1431 95.9176 68.1976 96.3489 68.1976 96.8238V97.1551L64.8003 95.1937V94.5178L67.509 96.0816C67.509 95.7945 67.4592 95.5095 67.3598 95.2268C67.2622 94.9452 67.1226 94.6868 66.9408 94.4515C66.761 94.2174 66.5487 94.0296 66.3039 93.8883C66.0341 93.7326 65.8008 93.6751 65.6037 93.716C65.4086 93.7557 65.2585 93.8678 65.1533 94.0523C65.048 94.2367 64.9954 94.4692 64.9954 94.7497V95.2003C64.9954 95.5846 65.0528 95.9436 65.1676 96.2771C65.2843 96.6095 65.4459 96.905 65.6525 97.1634C65.8591 97.4196 66.0992 97.6267 66.3727 97.7846C66.5506 97.8873 66.7113 97.9514 66.8548 97.9768C67.0001 98.0011 67.1254 97.9851 67.2306 97.9287C67.3359 97.8702 67.4171 97.7691 67.4745 97.6256L68.1287 98.2153C68.0599 98.4318 67.9441 98.5903 67.7816 98.6908C67.619 98.7891 67.4181 98.8233 67.179 98.7935C66.9399 98.7615 66.6711 98.6593 66.3727 98.487Z" fill="#003323" fill-opacity="0.7"/>
<g clip-path="url(#clip4_411_10893)">
<path d="M73.0259 98.5392C73.0259 95.6008 75.0888 94.4098 77.6336 95.879V95.879C80.1783 97.3482 82.2412 100.921 82.2412 103.86V103.86C82.2412 106.798 80.1783 107.989 77.6336 106.52V106.52C75.0888 105.051 73.0259 101.478 73.0259 98.5392V98.5392Z" fill="#003323" fill-opacity="0.7"/>
<g clip-path="url(#clip5_411_10893)">
<path d="M79.9373 100.535L76.7695 102.364L75.3296 99.8702" stroke="white" stroke-width="0.665062" stroke-linecap="round" stroke-linejoin="round"/>
</g>
</g>
<rect width="55.0854" height="19" rx="2" transform="matrix(0.866025 0.5 0 1 13 -25)" fill="#FAFAF9"/>
<path d="M17.1757 -9.58916V-16.3746L20.7222 -14.3271V-13.5981L17.8873 -15.2349V-12.9421L20.5386 -11.4114V-10.6825L17.8873 -12.2132V-9.90723L20.7681 -8.244V-7.51509L17.1757 -9.58916ZM22.5901 -13.2486V-6.46315L21.913 -6.85411V-13.6396L22.5901 -13.2486ZM23.8304 -5.74708V-10.8362L24.5075 -10.4452V-5.35612L23.8304 -5.74708ZM24.1747 -11.4856C24.0427 -11.5618 23.9289 -11.6794 23.8333 -11.8384C23.7395 -11.9963 23.6927 -12.1482 23.6927 -12.294C23.6927 -12.4398 23.7395 -12.5375 23.8333 -12.5872C23.9289 -12.6358 24.0427 -12.622 24.1747 -12.5458C24.3067 -12.4696 24.4196 -12.3525 24.5133 -12.1946C24.6089 -12.0356 24.6567 -11.8831 24.6567 -11.7374C24.6567 -11.5916 24.6089 -11.4944 24.5133 -11.4458C24.4196 -11.3961 24.3067 -11.4094 24.1747 -11.4856ZM27.5268 -1.59853C27.1997 -1.78738 26.9185 -1.99832 26.6832 -2.23135C26.4479 -2.46217 26.2519 -2.70127 26.095 -2.94866C25.9401 -3.19273 25.8167 -3.42963 25.7249 -3.65934L26.2643 -3.78525C26.3255 -3.65714 26.403 -3.50638 26.4967 -3.33299C26.5904 -3.15739 26.7186 -2.97848 26.8812 -2.79625C27.0457 -2.61071 27.2609 -2.44119 27.5268 -2.28768C27.8826 -2.08226 28.1762 -2.01213 28.4077 -2.07729C28.6391 -2.14245 28.7549 -2.38707 28.7549 -2.81116V-3.84488L28.6975 -3.87802C28.6477 -3.81396 28.577 -3.73997 28.4851 -3.65603C28.3952 -3.5732 28.2652 -3.52792 28.0949 -3.52019C27.9266 -3.51356 27.699 -3.59308 27.412 -3.75874C27.0562 -3.96416 26.7368 -4.24578 26.4537 -4.60361C26.1725 -4.96033 25.9496 -5.37172 25.7851 -5.83778C25.6225 -6.30273 25.5412 -6.80027 25.5412 -7.33038C25.5412 -7.85166 25.6206 -8.25974 25.7794 -8.55461C25.9381 -8.8517 26.1591 -9.02454 26.4422 -9.07313C26.7253 -9.12393 27.0524 -9.04221 27.4235 -8.82795C27.7104 -8.66229 27.9381 -8.47565 28.1064 -8.26802C28.2766 -8.0615 28.4067 -7.8627 28.4966 -7.67164C28.5884 -7.48168 28.6592 -7.32817 28.709 -7.21111L28.7778 -7.17135V-7.97977L29.432 -7.60206V-2.36719C29.432 -1.92985 29.3459 -1.62393 29.1738 -1.44943C29.0035 -1.27162 28.774 -1.20205 28.4851 -1.2407C28.1982 -1.27604 27.8788 -1.39532 27.5268 -1.59853ZM27.5038 -4.40813C27.7755 -4.2513 28.005 -4.19056 28.1925 -4.2259C28.3799 -4.26124 28.5224 -4.38549 28.62 -4.59864C28.7176 -4.81179 28.7663 -5.10611 28.7663 -5.48161C28.7663 -5.84827 28.7185 -6.19947 28.6229 -6.53521C28.5272 -6.87095 28.3857 -7.17245 28.1982 -7.43972C28.0107 -7.70698 27.7793 -7.92013 27.5038 -8.07917C27.2169 -8.24483 26.9778 -8.29894 26.7865 -8.24151C26.5971 -8.18298 26.4546 -8.03996 26.359 -7.81245C26.2652 -7.58384 26.2184 -7.29725 26.2184 -6.95268C26.2184 -6.59927 26.2662 -6.25911 26.3618 -5.93221C26.4594 -5.60641 26.6029 -5.31153 26.7922 -5.04758C26.9835 -4.78473 27.2207 -4.57158 27.5038 -4.40813ZM30.6716 -1.79732V-6.88641L31.3487 -6.49545V-1.40636L30.6716 -1.79732ZM31.0159 -7.5358C30.8839 -7.612 30.7701 -7.72962 30.6744 -7.88866C30.5807 -8.04659 30.5338 -8.19844 30.5338 -8.34422C30.5338 -8.49 30.5807 -8.58774 30.6744 -8.63744C30.7701 -8.68604 30.8839 -8.67223 31.0159 -8.59603C31.1479 -8.51982 31.2607 -8.40276 31.3545 -8.24483C31.4501 -8.08579 31.4979 -7.93339 31.4979 -7.7876C31.4979 -7.64182 31.4501 -7.54464 31.3545 -7.49604C31.2607 -7.44634 31.1479 -7.4596 31.0159 -7.5358ZM32.6808 -0.637282V-7.42274L33.358 -7.03178V-4.52699L33.4154 -4.49386C33.4651 -4.5535 33.534 -4.62639 33.622 -4.71253C33.7119 -4.79978 33.84 -4.84948 34.0064 -4.86163C34.1748 -4.87488 34.4024 -4.79867 34.6893 -4.63301C35.0604 -4.41876 35.3875 -4.12278 35.6706 -3.74507C35.9538 -3.36737 36.1747 -2.9361 36.3335 -2.45127C36.4922 -1.96643 36.5716 -1.45675 36.5716 -0.922218C36.5716 -0.383269 36.4922 0.0380604 36.3335 0.341771C36.1747 0.643273 35.9547 0.821082 35.6735 0.875198C35.3923 0.927105 35.0681 0.847036 34.7008 0.63499C34.4177 0.471539 34.191 0.286551 34.0208 0.0800276C33.8505 -0.128705 33.7195 -0.329154 33.6277 -0.52132C33.5359 -0.715695 33.4651 -0.873625 33.4154 -0.995109L33.335 -1.04149V-0.259576L32.6808 -0.637282ZM33.3465 -2.7975C33.3465 -2.41316 33.3953 -2.04595 33.4928 -1.69585C33.5904 -1.34797 33.7329 -1.03708 33.9204 -0.763184C34.1078 -0.491501 34.3374 -0.277247 34.609 -0.120422C34.8921 0.0430301 35.1283 0.0932805 35.3177 0.0303295C35.509 -0.0337259 35.6525 -0.185029 35.7481 -0.42358C35.8457 -0.663236 35.8945 -0.964186 35.8945 -1.32643C35.8945 -1.68426 35.8466 -2.03435 35.751 -2.37672C35.6573 -2.72019 35.5147 -3.03108 35.3235 -3.30939C35.1341 -3.5888 34.8959 -3.81134 34.609 -3.977C34.3335 -4.13603 34.1021 -4.18904 33.9146 -4.13603C33.7272 -4.08523 33.5856 -3.94387 33.49 -3.71194C33.3943 -3.48223 33.3465 -3.17741 33.3465 -2.7975ZM38.2846 -4.18739V2.59807L37.6074 2.20711V-4.57835L38.2846 -4.18739ZM41.3727 4.48701C40.9481 4.24183 40.5817 3.92211 40.2738 3.52784C39.9677 3.13246 39.7315 2.69125 39.565 2.20421C39.4005 1.71606 39.3183 1.21135 39.3183 0.690073C39.3183 0.168794 39.4005 -0.243148 39.565 -0.545755C39.7315 -0.849466 39.9629 -1.02727 40.2594 -1.07918C40.5578 -1.13219 40.906 -1.04384 41.3039 -0.814125C41.5334 -0.681596 41.7601 -0.506549 41.9839 -0.288981C42.2077 -0.0714137 42.4114 0.189778 42.595 0.494593C42.7787 0.7972 42.925 1.14233 43.0341 1.52997C43.1431 1.91762 43.1976 2.34889 43.1976 2.82378V3.1551L39.8003 1.19368V0.517786L42.509 2.08162C42.509 1.79448 42.4592 1.50954 42.3598 1.22681C42.2622 0.94519 42.1226 0.686759 41.9408 0.451521C41.761 0.217388 41.5487 0.0296392 41.3039 -0.111724C41.0341 -0.267445 40.8008 -0.324874 40.6037 -0.284011C40.4086 -0.244253 40.2585 -0.132156 40.1533 0.0522794C40.048 0.236715 39.9954 0.469192 39.9954 0.74971V1.20031C39.9954 1.58464 40.0528 1.94357 40.1676 2.2771C40.2843 2.60953 40.4459 2.90495 40.6525 3.16338C40.8591 3.41961 41.0992 3.62668 41.3727 3.78461C41.5506 3.88732 41.7113 3.95138 41.8548 3.97678C42.0001 4.00107 42.1254 3.98506 42.2306 3.92874C42.3359 3.8702 42.4171 3.76915 42.4745 3.62558L43.1287 4.21533C43.0599 4.43179 42.9441 4.59027 42.7816 4.69077C42.619 4.78907 42.4181 4.8233 42.179 4.79348C41.9399 4.76146 41.6711 4.6593 41.3727 4.48701Z" fill="#003323" fill-opacity="0.7"/>
<g clip-path="url(#clip6_411_10893)">
<path d="M48.0259 4.53925C48.0259 1.60082 50.0888 0.409784 52.6336 1.879V1.879C55.1783 3.34821 57.2412 6.92132 57.2412 9.85974V9.85974C57.2412 12.7982 55.1783 13.9892 52.6336 12.52V12.52C50.0888 11.0508 48.0259 7.47768 48.0259 4.53925V4.53925Z" fill="#003323" fill-opacity="0.7"/>
<g clip-path="url(#clip7_411_10893)">
<path d="M54.9373 6.53525L51.7695 8.36417L50.3296 5.87019" stroke="white" stroke-width="0.665062" stroke-linecap="round" stroke-linejoin="round"/>
</g>
</g>
<rect width="29.125" height="14" rx="2" transform="matrix(0.866025 0.5 0 1 30 -27)" fill="#FAFAF9"/>
</g>
<defs>
<filter id="filter0_f_411_10893" x="-173.773" y="-86.0817" width="828.295" height="599.726" filterUnits="userSpaceOnUse" color-interpolation-filters="sRGB">
<feFlood flood-opacity="0" result="BackgroundImageFix"/>
<feBlend mode="normal" in="SourceGraphic" in2="BackgroundImageFix" result="shape"/>
<feGaussianBlur stdDeviation="71.8729" result="effect1_foregroundBlur_411_10893"/>
</filter>
<radialGradient id="paint0_radial_411_10893" cx="0" cy="0" r="1" gradientTransform="matrix(-396.354 15.6045 336.372 533.023 227.49 152.652)" gradientUnits="userSpaceOnUse">
<stop stop-color="#003323" stop-opacity="0.4"/>
<stop offset="0.424906" stop-color="#003323" stop-opacity="0.1"/>
</radialGradient>
<radialGradient id="paint1_radial_411_10893" cx="0" cy="0" r="1" gradientTransform="matrix(110.35 189.555 -376.351 262.742 329.013 248.038)" gradientUnits="userSpaceOnUse">
<stop stop-color="#003323" stop-opacity="0.4"/>
<stop offset="0.424906" stop-color="#003323" stop-opacity="0.1"/>
</radialGradient>
<clipPath id="clip0_411_10893">
<path d="M0 8C0 3.58172 3.58172 0 8 0H320C324.418 0 328 3.58172 328 8V100C328 104.418 324.418 108 320 108H7.99999C3.58171 108 0 104.418 0 100V8Z" fill="white"/>
</clipPath>
<clipPath id="clip1_411_10893">
<rect width="17.1947" height="17.1947" fill="white" transform="matrix(0.866025 -0.5 0.866025 0.5 154.717 49.9531)"/>
</clipPath>
<clipPath id="clip2_411_10893">
<path d="M298.026 44.5392C298.026 41.6008 300.089 40.4098 302.634 41.879V41.879C305.178 43.3482 307.241 46.9213 307.241 49.8597V49.8597C307.241 52.7982 305.178 53.9892 302.634 52.52V52.52C300.089 51.0508 298.026 47.4777 298.026 44.5392V44.5392Z" fill="white"/>
</clipPath>
<clipPath id="clip3_411_10893">
<rect width="7.98075" height="7.98075" fill="white" transform="matrix(0.866025 0.5 0 1 299.178 41.2109)"/>
</clipPath>
<clipPath id="clip4_411_10893">
<path d="M73.0259 98.5392C73.0259 95.6008 75.0888 94.4098 77.6336 95.879V95.879C80.1783 97.3482 82.2412 100.921 82.2412 103.86V103.86C82.2412 106.798 80.1783 107.989 77.6336 106.52V106.52C75.0888 105.051 73.0259 101.478 73.0259 98.5392V98.5392Z" fill="white"/>
</clipPath>
<clipPath id="clip5_411_10893">
<rect width="7.98075" height="7.98075" fill="white" transform="matrix(0.866025 0.5 0 1 74.1777 95.2109)"/>
</clipPath>
<clipPath id="clip6_411_10893">
<path d="M48.0259 4.53925C48.0259 1.60082 50.0888 0.409784 52.6336 1.879V1.879C55.1783 3.34821 57.2412 6.92132 57.2412 9.85974V9.85974C57.2412 12.7982 55.1783 13.9892 52.6336 12.52V12.52C50.0888 11.0508 48.0259 7.47768 48.0259 4.53925V4.53925Z" fill="white"/>
</clipPath>
<clipPath id="clip7_411_10893">
<rect width="7.98075" height="7.98075" fill="white" transform="matrix(0.866025 0.5 0 1 49.1777 1.21094)"/>
</clipPath>
</defs>
</svg>
