<svg width="328" height="108" viewBox="0 0 328 108" fill="none" xmlns="http://www.w3.org/2000/svg">
<g clip-path="url(#clip0_411_11806)">
<path d="M0 8C0 3.58172 3.58172 0 8 0H320C324.418 0 328 3.58172 328 8V100C328 104.418 324.418 108 320 108H7.99999C3.58171 108 0 104.418 0 100V8Z" fill="#F5F5F4"/>
<g opacity="0.4">
<path d="M1011.61 285.506L1055.07 310.602L1013.98 334.327M1011.61 285.506L970.514 309.232M1011.61 285.506L968.142 260.411M970.514 309.232L1013.98 334.327M970.514 309.232L927.047 284.137M970.514 309.232L929.42 332.958M1013.98 334.327L972.886 358.053M968.142 260.411L927.047 284.137M968.142 260.411L924.675 235.316M927.047 284.137L883.581 259.042M927.047 284.137L885.953 307.863M924.675 235.316L883.581 259.042M924.675 235.316L881.209 210.221M883.581 259.042L840.115 233.946M883.581 259.042L842.487 282.767M881.209 210.221L840.115 233.946M881.209 210.221L837.743 185.125M840.115 233.946L796.649 208.851M840.115 233.946L799.021 257.672M837.743 185.125L796.649 208.851M837.743 185.125L794.277 160.03M796.649 208.851L753.183 183.756M796.649 208.851L755.555 232.577M794.277 160.03L753.183 183.756M794.277 160.03L750.811 134.935M753.183 183.756L709.716 158.661M753.183 183.756L712.088 207.482M750.811 134.935L709.716 158.661M750.811 134.935L707.344 109.84M709.716 158.661L666.25 133.565M709.716 158.661L668.622 182.386M707.344 109.84L666.25 133.565M707.344 109.84L663.878 84.7444M666.25 133.565L622.784 108.47M666.25 133.565L625.156 157.291M663.878 84.7444L622.784 108.47M663.878 84.7444L620.412 59.6491M622.784 108.47L579.318 83.3749M622.784 108.47L581.69 132.196M620.412 59.6491L579.318 83.3749M620.412 59.6491L576.946 34.5539M579.318 83.3749L535.851 58.2796M579.318 83.3749L538.223 107.101M576.946 34.5539L535.851 58.2796M576.946 34.5539L533.479 9.45866M535.851 58.2796L492.385 33.1844M535.851 58.2796L494.757 82.0054M533.479 9.45866L492.385 33.1844M533.479 9.45866L490.013 -15.6366M492.385 33.1844L448.919 8.08916M492.385 33.1844L451.291 56.9101M490.013 -15.6366L448.919 8.08916M490.013 -15.6366L446.547 -40.7318M448.919 8.08916L405.453 -17.0061M448.919 8.08916L407.825 31.8149M446.547 -40.7318L405.453 -17.0061M446.547 -40.7318L403.081 -65.8271M405.453 -17.0061L361.986 -42.1013M405.453 -17.0061L364.359 6.71966M403.081 -65.8271L361.986 -42.1013M403.081 -65.8271L359.614 -90.9223M361.986 -42.1013L318.52 -67.1966M361.986 -42.1013L320.892 -18.3756M359.614 -90.9223L318.52 -67.1966M359.614 -90.9223L316.148 -116.018L275.054 -92.2918M318.52 -67.1966L275.054 -92.2918M318.52 -67.1966L277.426 -43.4708M275.054 -92.2918L233.96 -68.5661M929.42 332.958L972.886 358.053M929.42 332.958L885.953 307.863M929.42 332.958L888.325 356.684M972.886 358.053L931.792 381.779M885.953 307.863L842.487 282.767M885.953 307.863L844.859 331.588M842.487 282.767L799.021 257.672M842.487 282.767L801.393 306.493M799.021 257.672L755.555 232.577M799.021 257.672L757.927 281.398M755.555 232.577L712.088 207.482M755.555 232.577L714.46 256.303M712.088 207.482L668.622 182.386M712.088 207.482L670.994 231.207M668.622 182.386L625.156 157.291M668.622 182.386L627.528 206.112M625.156 157.291L581.69 132.196M625.156 157.291L584.062 181.017M581.69 132.196L538.223 107.101M581.69 132.196L540.596 155.922M538.223 107.101L494.757 82.0054M538.223 107.101L497.129 130.826M494.757 82.0054L451.291 56.9101M494.757 82.0054L453.663 105.731M451.291 56.9101L407.825 31.8149M451.291 56.9101L410.197 80.6358M407.825 31.8149L364.359 6.71966M407.825 31.8149L366.731 55.5406M364.359 6.71966L320.892 -18.3756M364.359 6.71966L323.264 30.4454M320.892 -18.3756L277.426 -43.4708M320.892 -18.3756L279.798 5.35013M277.426 -43.4708L233.96 -68.5661M277.426 -43.4708L236.332 -19.7451M233.96 -68.5661L192.866 -44.8403M888.325 356.684L931.792 381.779M888.325 356.684L844.859 331.588M888.325 356.684L847.231 380.409M931.792 381.779L890.697 405.504M844.859 331.588L801.393 306.493M844.859 331.588L803.765 355.314M801.393 306.493L757.927 281.398M801.393 306.493L760.299 330.219M757.927 281.398L714.46 256.303M757.927 281.398L716.832 305.124M714.46 256.303L670.994 231.207M714.46 256.303L673.366 280.028M670.994 231.207L627.528 206.112M670.994 231.207L629.9 254.933M627.528 206.112L584.062 181.017M627.528 206.112L586.434 229.838M584.062 181.017L540.596 155.922M584.062 181.017L542.968 204.743M540.596 155.922L497.129 130.826M540.596 155.922L499.501 179.647M497.129 130.826L453.663 105.731M497.129 130.826L456.035 154.552M453.663 105.731L410.197 80.6358M453.663 105.731L412.569 129.457M410.197 80.6358L366.731 55.5406M410.197 80.6358L369.103 104.362M366.731 55.5406L323.264 30.4454M366.731 55.5406L325.636 79.2664M323.264 30.4454L279.798 5.35013M323.264 30.4454L282.17 54.1711M279.798 5.35013L236.332 -19.7451M279.798 5.35013L238.704 29.0759M236.332 -19.7451L192.866 -44.8403M236.332 -19.7451L195.238 3.98063M192.866 -44.8403L151.772 -21.1146M847.231 380.409L890.697 405.504M847.231 380.409L803.765 355.314M847.231 380.409L806.137 404.135M890.697 405.504L849.603 429.23M803.765 355.314L760.299 330.219M803.765 355.314L762.671 379.04M760.299 330.219L716.832 305.124M760.299 330.219L719.205 353.944M716.832 305.124L673.366 280.028M716.832 305.124L675.738 328.849M673.366 280.028L629.9 254.933M673.366 280.028L632.272 303.754M629.9 254.933L586.434 229.838M629.9 254.933L588.806 278.659M586.434 229.838L542.968 204.743M586.434 229.838L545.34 253.564M542.968 204.743L499.501 179.647M542.968 204.743L501.873 228.468M499.501 179.647L456.035 154.552M499.501 179.647L458.407 203.373M456.035 154.552L412.569 129.457M456.035 154.552L414.941 178.278M412.569 129.457L369.103 104.362M412.569 129.457L371.475 153.183M369.103 104.362L325.636 79.2664M369.103 104.362L328.008 128.087M325.636 79.2664L282.17 54.1711M325.636 79.2664L284.542 102.992M282.17 54.1711L238.704 29.0759M282.17 54.1711L241.076 77.8968M238.704 29.0759L195.238 3.98063M238.704 29.0759L197.61 52.8016M195.238 3.98063L151.772 -21.1146M195.238 3.98063L154.144 27.7064M151.772 -21.1146L110.677 2.61112M806.137 404.135L849.603 429.23M806.137 404.135L762.671 379.04M806.137 404.135L765.043 427.861M849.603 429.23L808.509 452.956M762.671 379.04L719.205 353.944M762.671 379.04L721.577 402.765M719.205 353.944L675.738 328.849M719.205 353.944L678.11 377.67M675.738 328.849L632.272 303.754M675.738 328.849L634.644 352.575M632.272 303.754L588.806 278.659M632.272 303.754L591.178 327.48M588.806 278.659L545.34 253.564M588.806 278.659L547.712 302.384M545.34 253.564L501.873 228.468M545.34 253.564L504.245 277.289M501.873 228.468L458.407 203.373M501.873 228.468L460.779 252.194M458.407 203.373L414.941 178.278M458.407 203.373L417.313 227.099M414.941 178.278L371.475 153.183M414.941 178.278L373.847 202.004M371.475 153.183L328.008 128.087M371.475 153.183L330.381 176.908M328.008 128.087L284.542 102.992M328.008 128.087L286.914 151.813M284.542 102.992L241.076 77.8968M284.542 102.992L243.448 126.718M241.076 77.8968L197.61 52.8016M241.076 77.8968L199.982 101.623M197.61 52.8016L154.144 27.7064M197.61 52.8016L156.516 76.5273M154.144 27.7064L110.677 2.61112M154.144 27.7064L113.049 51.4321M110.677 2.61112L69.5832 26.3369M765.043 427.861L808.509 452.956M765.043 427.861L721.577 402.765M765.043 427.861L723.949 451.586M808.509 452.956L767.415 476.682M721.577 402.765L678.11 377.67M721.577 402.765L680.482 426.491M678.11 377.67L634.644 352.575M678.11 377.67L637.016 401.396M634.644 352.575L591.178 327.48M634.644 352.575L593.55 376.301M591.178 327.48L547.712 302.384M591.178 327.48L550.084 351.205M547.712 302.384L504.245 277.289M547.712 302.384L506.618 326.11M504.245 277.289L460.779 252.194M504.245 277.289L463.151 301.015M460.779 252.194L417.313 227.099M460.779 252.194L419.685 275.92M417.313 227.099L373.847 202.004M417.313 227.099L376.219 250.824M373.847 202.004L330.381 176.908M373.847 202.004L332.753 225.729M330.381 176.908L286.914 151.813M330.381 176.908L289.286 200.634M286.914 151.813L243.448 126.718M286.914 151.813L245.82 175.539M243.448 126.718L199.982 101.623M243.448 126.718L202.354 150.444M199.982 101.623L156.516 76.5273M199.982 101.623L158.888 125.348M156.516 76.5273L113.049 51.4321M156.516 76.5273L115.421 100.253M113.049 51.4321L69.5832 26.3369M113.049 51.4321L71.9552 75.1578M69.5832 26.3369L28.489 50.0626M723.949 451.586L767.415 476.682M723.949 451.586L680.482 426.491M723.949 451.586L682.854 475.312M767.415 476.682L726.321 500.407M680.482 426.491L637.016 401.396M680.482 426.491L639.388 450.217M637.016 401.396L593.55 376.301M637.016 401.396L595.922 425.122M593.55 376.301L550.084 351.205M593.55 376.301L552.456 400.026M550.084 351.205L506.618 326.11M550.084 351.205L508.99 374.931M506.618 326.11L463.151 301.015M506.618 326.11L465.523 349.836M463.151 301.015L419.685 275.92M463.151 301.015L422.057 324.741M419.685 275.92L376.219 250.824M419.685 275.92L378.591 299.645M376.219 250.824L332.753 225.729M376.219 250.824L335.125 274.55M332.753 225.729L289.286 200.634M332.753 225.729L291.658 249.455M289.286 200.634L245.82 175.539M289.286 200.634L248.192 224.36M245.82 175.539L202.354 150.444M245.82 175.539L204.726 199.264M202.354 150.444L158.888 125.348M202.354 150.444L161.26 174.169M158.888 125.348L115.421 100.253M158.888 125.348L117.794 149.074M115.421 100.253L71.9552 75.1578M115.421 100.253L74.3273 123.979M71.9552 75.1578L28.489 50.0626M71.9552 75.1578L30.8611 98.8836M28.489 50.0626L-12.6052 73.7883M682.854 475.312L726.321 500.407M682.854 475.312L639.388 450.217M682.854 475.312L641.76 499.038M726.321 500.407L685.227 524.133M639.388 450.217L595.922 425.122M639.388 450.217L598.294 473.943M595.922 425.122L552.456 400.026M595.922 425.122L554.828 448.847M552.456 400.026L508.99 374.931M552.456 400.026L511.362 423.752M508.99 374.931L465.523 349.836M508.99 374.931L467.895 398.657M465.523 349.836L422.057 324.741M465.523 349.836L424.429 373.562M422.057 324.741L378.591 299.645M422.057 324.741L380.963 348.466M378.591 299.645L335.125 274.55M378.591 299.645L337.497 323.371M335.125 274.55L291.658 249.455M335.125 274.55L294.03 298.276M291.658 249.455L248.192 224.36M291.658 249.455L250.564 273.181M248.192 224.36L204.726 199.264M248.192 224.36L207.098 248.085M204.726 199.264L161.26 174.169M204.726 199.264L163.632 222.99M161.26 174.169L117.794 149.074M161.26 174.169L120.166 197.895M117.794 149.074L74.3273 123.979M117.794 149.074L76.6994 172.8M74.3273 123.979L30.8611 98.8836M74.3273 123.979L33.2331 147.705M30.8611 98.8836L-12.6052 73.7883M30.8611 98.8836L-10.2331 122.609M-12.6052 73.7883L-53.6993 97.514M641.76 499.038L685.227 524.133M641.76 499.038L598.294 473.943M641.76 499.038L600.666 522.764M685.227 524.133L644.132 547.859M598.294 473.943L554.828 448.847M598.294 473.943L557.2 497.668M554.828 448.847L511.362 423.752M554.828 448.847L513.734 472.573M511.362 423.752L467.895 398.657M511.362 423.752L470.267 447.478M467.895 398.657L424.429 373.562M467.895 398.657L426.801 422.383M424.429 373.562L380.963 348.466M424.429 373.562L383.335 397.287M380.963 348.466L337.497 323.371M380.963 348.466L339.869 372.192M337.497 323.371L294.03 298.276M337.497 323.371L296.403 347.097M294.03 298.276L250.564 273.181M294.03 298.276L252.936 322.002M250.564 273.181L207.098 248.085M250.564 273.181L209.47 296.906M207.098 248.085L163.632 222.99M207.098 248.085L166.004 271.811M163.632 222.99L120.166 197.895M163.632 222.99L122.538 246.716M120.166 197.895L76.6994 172.8M120.166 197.895L79.0714 221.621M76.6994 172.8L33.2331 147.705M76.6994 172.8L35.6052 196.525M33.2331 147.705L-10.2331 122.609M33.2331 147.705L-7.86105 171.43M-10.2331 122.609L-53.6993 97.514M-10.2331 122.609L-51.3273 146.335M-53.6993 97.514L-94.7935 121.24M600.666 522.764L644.132 547.859M600.666 522.764L557.2 497.668M600.666 522.764L559.572 546.489M644.132 547.859L603.038 571.585M557.2 497.668L513.734 472.573M557.2 497.668L516.106 521.394M513.734 472.573L470.267 447.478M513.734 472.573L472.639 496.299M470.267 447.478L426.801 422.383M470.267 447.478L429.173 471.204M426.801 422.383L383.335 397.287M426.801 422.383L385.707 446.108M383.335 397.287L339.869 372.192M383.335 397.287L342.241 421.013M339.869 372.192L296.403 347.097M339.869 372.192L298.775 395.918M296.403 347.097L252.936 322.002M296.403 347.097L255.308 370.823M252.936 322.002L209.47 296.906M252.936 322.002L211.842 345.727M209.47 296.906L166.004 271.811M209.47 296.906L168.376 320.632M166.004 271.811L122.538 246.716M166.004 271.811L124.91 295.537M122.538 246.716L79.0714 221.621M122.538 246.716L81.4434 270.442M79.0714 221.621L35.6052 196.525M79.0714 221.621L37.9772 245.346M35.6052 196.525L-7.86105 171.43M35.6052 196.525L-5.48899 220.251M-7.86105 171.43L-51.3273 146.335M-7.86105 171.43L-48.9553 195.156M-51.3273 146.335L-94.7935 121.24M-51.3273 146.335L-92.4215 170.061M-94.7935 121.24L-135.888 144.966M559.572 546.489L603.038 571.585M559.572 546.489L516.106 521.394M559.572 546.489L518.478 570.215M603.038 571.585L561.944 595.31L518.478 570.215M516.106 521.394L472.639 496.299M516.106 521.394L475.012 545.12M472.639 496.299L429.173 471.204M472.639 496.299L431.545 520.025M429.173 471.204L385.707 446.108M429.173 471.204L388.079 494.929M385.707 446.108L342.241 421.013M385.707 446.108L344.613 469.834M342.241 421.013L298.775 395.918M342.241 421.013L301.147 444.739M298.775 395.918L255.308 370.823M298.775 395.918L257.68 419.644M255.308 370.823L211.842 345.727M255.308 370.823L214.214 394.548M211.842 345.727L168.376 320.632M211.842 345.727L170.748 369.453M168.376 320.632L124.91 295.537M168.376 320.632L127.282 344.358M124.91 295.537L81.4434 270.442M124.91 295.537L83.8155 319.263M81.4434 270.442L37.9772 245.346M81.4434 270.442L40.3493 294.167M37.9772 245.346L-5.48899 220.251M37.9772 245.346L-3.11694 269.072M-5.48899 220.251L-48.9553 195.156M-5.48899 220.251L-46.5831 243.977M-48.9553 195.156L-92.4215 170.061M-48.9553 195.156L-90.0494 218.882M-92.4215 170.061L-135.888 144.966M-92.4215 170.061L-133.516 193.786M-135.888 144.966L-176.982 168.691L-133.516 193.786M518.478 570.215L475.012 545.12M475.012 545.12L431.545 520.025M431.545 520.025L388.079 494.929M388.079 494.929L344.613 469.834M344.613 469.834L301.147 444.739M301.147 444.739L257.68 419.644M257.68 419.644L214.214 394.548M214.214 394.548L170.748 369.453M170.748 369.453L127.282 344.358M127.282 344.358L83.8155 319.263M83.8155 319.263L40.3493 294.167M40.3493 294.167L-3.11694 269.072M-3.11694 269.072L-46.5831 243.977M-46.5831 243.977L-90.0494 218.882M-90.0494 218.882L-133.516 193.786" stroke="url(#paint0_radial_411_11806)" stroke-opacity="0.85"/>
<g filter="url(#filter0_f_411_11806)">
<circle cx="220.782" cy="220.782" r="220.782" transform="matrix(0.866025 -0.5 0.866025 0.5 -142.031 213.781)" fill="#003323" fill-opacity="0.3"/>
<circle cx="220.782" cy="220.782" r="220.575" transform="matrix(0.866025 -0.5 0.866025 0.5 -142.031 213.781)" stroke="url(#paint1_radial_411_11806)" stroke-opacity="0.85" stroke-width="0.413063"/>
</g>
</g>
<path d="M103.182 67.857L147.792 42.1016L169.918 54.8762L169.918 57.3958L125.308 83.1512L103.182 70.3766L103.182 67.857Z" fill="white"/>
<path d="M103.182 67.857L147.792 42.1016L169.918 54.8762L169.918 57.3958L125.308 83.1512L103.182 70.3766L103.182 67.857Z" fill="#003323" fill-opacity="0.6"/>
<rect width="25.5493" height="51.5109" transform="matrix(0.866025 0.5 -0.866025 0.5 147.814 42.1016)" fill="white"/>
<rect width="25.5493" height="51.5109" transform="matrix(0.866025 0.5 -0.866025 0.5 147.814 42.1016)" fill="#003323" fill-opacity="0.3"/>
<path d="M103.182 63.8726L147.792 38.1172L169.918 50.8918L169.918 53.4114L125.308 79.1668L103.182 66.3922L103.182 63.8726Z" fill="white"/>
<path d="M103.182 63.8726L147.792 38.1172L169.918 50.8918L169.918 53.4114L125.308 79.1668L103.182 66.3922L103.182 63.8726Z" fill="#003323" fill-opacity="0.6"/>
<rect width="25.5493" height="51.5109" transform="matrix(0.866025 0.5 -0.866025 0.5 147.814 38.1172)" fill="white"/>
<rect width="25.5493" height="51.5109" transform="matrix(0.866025 0.5 -0.866025 0.5 147.814 38.1172)" fill="#003323" fill-opacity="0.3"/>
<path d="M103.182 59.8726L147.792 34.1172L169.918 46.8918L169.918 49.4114L125.308 75.1668L103.182 62.3922L103.182 59.8726Z" fill="white"/>
<path d="M103.182 59.8726L147.792 34.1172L169.918 46.8918L169.918 49.4114L125.308 75.1668L103.182 62.3922L103.182 59.8726Z" fill="#003323" fill-opacity="0.6"/>
<rect width="25.5493" height="51.5109" transform="matrix(0.866025 0.5 -0.866025 0.5 147.814 34.1172)" fill="white"/>
<rect width="25.5493" height="51.5109" transform="matrix(0.866025 0.5 -0.866025 0.5 147.814 34.1172)" fill="#003323" fill-opacity="0.3"/>
<path d="M103.182 55.8961L147.792 30.1406L169.918 42.9153L169.918 45.4348L125.308 71.1903L103.182 58.4156L103.182 55.8961Z" fill="white"/>
<path d="M103.182 55.8961L147.792 30.1406L169.918 42.9153L169.918 45.4348L125.308 71.1903L103.182 58.4156L103.182 55.8961Z" fill="#003323" fill-opacity="0.6"/>
<rect width="25.5493" height="51.5109" transform="matrix(0.866025 0.5 -0.866025 0.5 147.814 30.1406)" fill="white"/>
<rect width="25.5493" height="51.5109" transform="matrix(0.866025 0.5 -0.866025 0.5 147.814 30.1406)" fill="#003323" fill-opacity="0.3"/>
<path d="M103.182 51.9117L147.792 26.1562L169.918 38.9309L169.918 41.4505L125.308 67.2059L103.182 54.4313L103.182 51.9117Z" fill="white"/>
<path d="M103.182 51.9117L147.792 26.1562L169.918 38.9309L169.918 41.4505L125.308 67.2059L103.182 54.4313L103.182 51.9117Z" fill="#003323" fill-opacity="0.6"/>
<rect width="25.5493" height="51.5109" transform="matrix(0.866025 0.5 -0.866025 0.5 147.814 26.1562)" fill="white"/>
<rect width="25.5493" height="51.5109" transform="matrix(0.866025 0.5 -0.866025 0.5 147.814 26.1562)" fill="#003323" fill-opacity="0.3"/>
<path d="M103.182 47.9351L147.792 22.1797L169.918 34.9543L169.918 37.4739L125.308 63.2293L103.182 50.4547L103.182 47.9351Z" fill="white"/>
<path d="M103.182 47.9351L147.792 22.1797L169.918 34.9543L169.918 37.4739L125.308 63.2293L103.182 50.4547L103.182 47.9351Z" fill="#003323" fill-opacity="0.6"/>
<rect width="25.5493" height="51.5109" transform="matrix(0.866025 0.5 -0.866025 0.5 147.814 22.1797)" fill="white"/>
<rect width="25.5493" height="51.5109" transform="matrix(0.866025 0.5 -0.866025 0.5 147.814 22.1797)" fill="#003323" fill-opacity="0.3"/>
<path d="M103.182 43.9351L147.792 18.1797L169.918 30.9543L169.918 33.4739L125.308 59.2293L103.182 46.4547L103.182 43.9351Z" fill="white"/>
<path d="M103.182 43.9351L147.792 18.1797L169.918 30.9543L169.918 33.4739L125.308 59.2293L103.182 46.4547L103.182 43.9351Z" fill="#003323" fill-opacity="0.6"/>
<rect width="25.5493" height="51.5109" transform="matrix(0.866025 0.5 -0.866025 0.5 147.814 18.1797)" fill="white"/>
<rect width="25.5493" height="51.5109" transform="matrix(0.866025 0.5 -0.866025 0.5 147.814 18.1797)" fill="#003323" fill-opacity="0.3"/>
<path d="M103.182 39.9586L147.792 14.2031L169.918 26.9778L169.918 29.4973L125.308 55.2528L103.182 42.4781L103.182 39.9586Z" fill="white"/>
<path d="M103.182 39.9586L147.792 14.2031L169.918 26.9778L169.918 29.4973L125.308 55.2528L103.182 42.4781L103.182 39.9586Z" fill="#003323" fill-opacity="0.6"/>
<rect width="25.5493" height="51.5109" transform="matrix(0.866025 0.5 -0.866025 0.5 147.814 14.2031)" fill="white"/>
<rect width="25.5493" height="51.5109" transform="matrix(0.866025 0.5 -0.866025 0.5 147.814 14.2031)" fill="#003323" fill-opacity="0.3"/>
<rect width="25.674" height="51.2342" transform="matrix(0.866025 0.5 -0.866025 0.5 147.575 14.1875)" fill="white"/>
<rect width="25.674" height="51.2342" transform="matrix(0.866025 0.5 -0.866025 0.5 147.575 14.1875)" fill="#003323" fill-opacity="0.3"/>
<path fill-rule="evenodd" clip-rule="evenodd" d="M160.353 29.8229C158.348 28.6654 158.348 26.7889 160.353 25.6315L149.615 19.4316C147.61 20.5891 144.36 20.5891 142.355 19.4316L114.223 35.6734C116.228 36.8308 116.228 38.7073 114.223 39.8648L124.962 46.0646C126.967 44.9071 130.217 44.9072 132.222 46.0646L160.353 29.8229ZM140.893 34.8293C138.888 35.9867 135.638 35.9867 133.633 34.8293C131.628 33.6718 131.628 31.7953 133.633 30.6379C135.638 29.4804 138.888 29.4804 140.893 30.6379C142.898 31.7953 142.898 33.6718 140.893 34.8293Z" fill="white"/>
<path fill-rule="evenodd" clip-rule="evenodd" d="M160.353 29.8229C158.348 28.6654 158.348 26.7889 160.353 25.6315L149.615 19.4316C147.61 20.5891 144.36 20.5891 142.355 19.4316L114.223 35.6734C116.228 36.8308 116.228 38.7073 114.223 39.8648L124.962 46.0646C126.967 44.9071 130.217 44.9072 132.222 46.0646L160.353 29.8229ZM140.893 34.8293C138.888 35.9867 135.638 35.9867 133.633 34.8293C131.628 33.6718 131.628 31.7953 133.633 30.6379C135.638 29.4804 138.888 29.4804 140.893 30.6379C142.898 31.7953 142.898 33.6718 140.893 34.8293Z" fill="#003323" fill-opacity="0.6"/>
<path d="M151 55.6695L195.609 29.9141L217.736 42.6887L217.736 45.2083L173.126 70.9637L151 58.1891L151 55.6695Z" fill="white"/>
<path d="M151 55.6695L195.609 29.9141L217.736 42.6887L217.736 45.2083L173.126 70.9637L151 58.1891L151 55.6695Z" fill="#003323" fill-opacity="0.6"/>
<rect width="25.5493" height="51.5109" transform="matrix(0.866025 0.5 -0.866025 0.5 195.632 29.9141)" fill="white"/>
<rect width="25.5493" height="51.5109" transform="matrix(0.866025 0.5 -0.866025 0.5 195.632 29.9141)" fill="#003323" fill-opacity="0.3"/>
<path d="M151 51.6929L195.609 25.9375L217.736 38.7121L217.736 41.2317L173.126 66.9871L151 54.2125L151 51.6929Z" fill="white"/>
<path d="M151 51.6929L195.609 25.9375L217.736 38.7121L217.736 41.2317L173.126 66.9871L151 54.2125L151 51.6929Z" fill="#003323" fill-opacity="0.6"/>
<rect width="25.5493" height="51.5109" transform="matrix(0.866025 0.5 -0.866025 0.5 195.632 25.9375)" fill="white"/>
<rect width="25.5493" height="51.5109" transform="matrix(0.866025 0.5 -0.866025 0.5 195.632 25.9375)" fill="#003323" fill-opacity="0.3"/>
<path d="M151 47.6929L195.609 21.9375L217.736 34.7121L217.736 37.2317L173.126 62.9871L151 50.2125L151 47.6929Z" fill="white"/>
<path d="M151 47.6929L195.609 21.9375L217.736 34.7121L217.736 37.2317L173.126 62.9871L151 50.2125L151 47.6929Z" fill="#003323" fill-opacity="0.6"/>
<rect width="25.5493" height="51.5109" transform="matrix(0.866025 0.5 -0.866025 0.5 195.632 21.9375)" fill="white"/>
<rect width="25.5493" height="51.5109" transform="matrix(0.866025 0.5 -0.866025 0.5 195.632 21.9375)" fill="#003323" fill-opacity="0.3"/>
<path d="M151 43.7086L195.609 17.9531L217.736 30.7278L217.736 33.2473L173.126 59.0028L151 46.2281L151 43.7086Z" fill="white"/>
<path d="M151 43.7086L195.609 17.9531L217.736 30.7278L217.736 33.2473L173.126 59.0028L151 46.2281L151 43.7086Z" fill="#003323" fill-opacity="0.6"/>
<rect width="25.5493" height="51.5109" transform="matrix(0.866025 0.5 -0.866025 0.5 195.632 17.9531)" fill="white"/>
<rect width="25.5493" height="51.5109" transform="matrix(0.866025 0.5 -0.866025 0.5 195.632 17.9531)" fill="#003323" fill-opacity="0.3"/>
<path d="M151 39.732L195.609 13.9766L217.736 26.7512L217.736 29.2708L173.126 55.0262L151 42.2516L151 39.732Z" fill="white"/>
<path d="M151 39.732L195.609 13.9766L217.736 26.7512L217.736 29.2708L173.126 55.0262L151 42.2516L151 39.732Z" fill="#003323" fill-opacity="0.6"/>
<rect width="25.5493" height="51.5109" transform="matrix(0.866025 0.5 -0.866025 0.5 195.632 13.9766)" fill="white"/>
<rect width="25.5493" height="51.5109" transform="matrix(0.866025 0.5 -0.866025 0.5 195.632 13.9766)" fill="#003323" fill-opacity="0.3"/>
<path d="M151 35.7476L195.609 9.99219L217.736 22.7668L217.736 25.2864L173.126 51.0418L151 38.2672L151 35.7476Z" fill="white"/>
<path d="M151 35.7476L195.609 9.99219L217.736 22.7668L217.736 25.2864L173.126 51.0418L151 38.2672L151 35.7476Z" fill="#003323" fill-opacity="0.6"/>
<rect width="25.5493" height="51.5109" transform="matrix(0.866025 0.5 -0.866025 0.5 195.632 9.99219)" fill="white"/>
<rect width="25.5493" height="51.5109" transform="matrix(0.866025 0.5 -0.866025 0.5 195.632 9.99219)" fill="#003323" fill-opacity="0.3"/>
<path d="M151 31.7476L195.609 5.99219L217.736 18.7668L217.736 21.2864L173.126 47.0418L151 34.2672L151 31.7476Z" fill="white"/>
<path d="M151 31.7476L195.609 5.99219L217.736 18.7668L217.736 21.2864L173.126 47.0418L151 34.2672L151 31.7476Z" fill="#003323" fill-opacity="0.6"/>
<rect width="25.5493" height="51.5109" transform="matrix(0.866025 0.5 -0.866025 0.5 195.632 5.99219)" fill="white"/>
<rect width="25.5493" height="51.5109" transform="matrix(0.866025 0.5 -0.866025 0.5 195.632 5.99219)" fill="#003323" fill-opacity="0.3"/>
<path d="M151 27.7711L195.609 2.01562L217.736 14.7903L217.736 17.3098L173.126 43.0653L151 30.2906L151 27.7711Z" fill="white"/>
<path d="M151 27.7711L195.609 2.01562L217.736 14.7903L217.736 17.3098L173.126 43.0653L151 30.2906L151 27.7711Z" fill="#003323" fill-opacity="0.6"/>
<rect width="25.5493" height="51.5109" transform="matrix(0.866025 0.5 -0.866025 0.5 195.632 2.01562)" fill="white"/>
<rect width="25.5493" height="51.5109" transform="matrix(0.866025 0.5 -0.866025 0.5 195.632 2.01562)" fill="#003323" fill-opacity="0.3"/>
<rect width="25.674" height="51.2342" transform="matrix(0.866025 0.5 -0.866025 0.5 195.392 2)" fill="white"/>
<rect width="25.674" height="51.2342" transform="matrix(0.866025 0.5 -0.866025 0.5 195.392 2)" fill="#003323" fill-opacity="0.3"/>
<path fill-rule="evenodd" clip-rule="evenodd" d="M208.17 17.6432C206.165 16.4857 206.165 14.6092 208.17 13.4518L197.432 7.25196C195.427 8.40942 192.177 8.40939 190.172 7.25196L162.04 23.4937C164.045 24.6511 164.045 26.5277 162.04 27.6851L172.779 33.8849C174.784 32.7275 178.034 32.7275 180.038 33.8849L208.17 17.6432ZM188.71 22.6496C186.705 23.8071 183.455 23.807 181.45 22.6496C179.445 21.4922 179.445 19.6156 181.45 18.4582C183.455 17.3007 186.705 17.3007 188.71 18.4582C190.715 19.6156 190.715 21.4921 188.71 22.6496Z" fill="white"/>
<path fill-rule="evenodd" clip-rule="evenodd" d="M208.17 17.6432C206.165 16.4857 206.165 14.6092 208.17 13.4518L197.432 7.25196C195.427 8.40942 192.177 8.40939 190.172 7.25196L162.04 23.4937C164.045 24.6511 164.045 26.5277 162.04 27.6851L172.779 33.8849C174.784 32.7275 178.034 32.7275 180.038 33.8849L208.17 17.6432ZM188.71 22.6496C186.705 23.8071 183.455 23.807 181.45 22.6496C179.445 21.4922 179.445 19.6156 181.45 18.4582C183.455 17.3007 186.705 17.3007 188.71 18.4582C190.715 19.6156 190.715 21.4921 188.71 22.6496Z" fill="#003323" fill-opacity="0.6"/>
<path d="M148.456 90.7086L193.066 64.9531L215.192 77.7278L215.192 80.2473L170.583 106.003L148.456 93.2281L148.456 90.7086Z" fill="white"/>
<path d="M148.456 90.7086L193.066 64.9531L215.192 77.7278L215.192 80.2473L170.583 106.003L148.456 93.2281L148.456 90.7086Z" fill="#003323" fill-opacity="0.6"/>
<rect width="25.5493" height="51.5109" transform="matrix(0.866025 0.5 -0.866025 0.5 193.088 64.9531)" fill="white"/>
<rect width="25.5493" height="51.5109" transform="matrix(0.866025 0.5 -0.866025 0.5 193.088 64.9531)" fill="#003323" fill-opacity="0.3"/>
<path d="M148.456 86.732L193.066 60.9766L215.192 73.7512L215.192 76.2708L170.583 102.026L148.456 89.2516L148.456 86.732Z" fill="white"/>
<path d="M148.456 86.732L193.066 60.9766L215.192 73.7512L215.192 76.2708L170.583 102.026L148.456 89.2516L148.456 86.732Z" fill="#003323" fill-opacity="0.6"/>
<rect width="25.5493" height="51.5109" transform="matrix(0.866025 0.5 -0.866025 0.5 193.088 60.9766)" fill="white"/>
<rect width="25.5493" height="51.5109" transform="matrix(0.866025 0.5 -0.866025 0.5 193.088 60.9766)" fill="#003323" fill-opacity="0.3"/>
<path d="M148.456 82.732L193.066 56.9766L215.192 69.7512L215.192 72.2708L170.583 98.0262L148.456 85.2516L148.456 82.732Z" fill="white"/>
<path d="M148.456 82.732L193.066 56.9766L215.192 69.7512L215.192 72.2708L170.583 98.0262L148.456 85.2516L148.456 82.732Z" fill="#003323" fill-opacity="0.6"/>
<rect width="25.5493" height="51.5109" transform="matrix(0.866025 0.5 -0.866025 0.5 193.088 56.9766)" fill="white"/>
<rect width="25.5493" height="51.5109" transform="matrix(0.866025 0.5 -0.866025 0.5 193.088 56.9766)" fill="#003323" fill-opacity="0.3"/>
<path d="M148.456 78.7476L193.066 52.9922L215.192 65.7668L215.192 68.2864L170.583 94.0418L148.456 81.2672L148.456 78.7476Z" fill="white"/>
<path d="M148.456 78.7476L193.066 52.9922L215.192 65.7668L215.192 68.2864L170.583 94.0418L148.456 81.2672L148.456 78.7476Z" fill="#003323" fill-opacity="0.6"/>
<rect width="25.5493" height="51.5109" transform="matrix(0.866025 0.5 -0.866025 0.5 193.088 52.9922)" fill="white"/>
<rect width="25.5493" height="51.5109" transform="matrix(0.866025 0.5 -0.866025 0.5 193.088 52.9922)" fill="#003323" fill-opacity="0.3"/>
<path d="M148.456 74.7711L193.066 49.0156L215.192 61.7903L215.192 64.3098L170.583 90.0653L148.456 77.2906L148.456 74.7711Z" fill="white"/>
<path d="M148.456 74.7711L193.066 49.0156L215.192 61.7903L215.192 64.3098L170.583 90.0653L148.456 77.2906L148.456 74.7711Z" fill="#003323" fill-opacity="0.6"/>
<rect width="25.5493" height="51.5109" transform="matrix(0.866025 0.5 -0.866025 0.5 193.088 49.0156)" fill="white"/>
<rect width="25.5493" height="51.5109" transform="matrix(0.866025 0.5 -0.866025 0.5 193.088 49.0156)" fill="#003323" fill-opacity="0.3"/>
<path d="M148.456 70.7867L193.066 45.0312L215.192 57.8059L215.192 60.3255L170.583 86.0809L148.456 73.3063L148.456 70.7867Z" fill="white"/>
<path d="M148.456 70.7867L193.066 45.0312L215.192 57.8059L215.192 60.3255L170.583 86.0809L148.456 73.3063L148.456 70.7867Z" fill="#003323" fill-opacity="0.6"/>
<rect width="25.5493" height="51.5109" transform="matrix(0.866025 0.5 -0.866025 0.5 193.088 45.0312)" fill="white"/>
<rect width="25.5493" height="51.5109" transform="matrix(0.866025 0.5 -0.866025 0.5 193.088 45.0312)" fill="#003323" fill-opacity="0.3"/>
<path d="M148.456 66.7867L193.066 41.0312L215.192 53.8059L215.192 56.3255L170.583 82.0809L148.456 69.3063L148.456 66.7867Z" fill="white"/>
<path d="M148.456 66.7867L193.066 41.0312L215.192 53.8059L215.192 56.3255L170.583 82.0809L148.456 69.3063L148.456 66.7867Z" fill="#003323" fill-opacity="0.6"/>
<rect width="25.5493" height="51.5109" transform="matrix(0.866025 0.5 -0.866025 0.5 193.088 41.0312)" fill="white"/>
<rect width="25.5493" height="51.5109" transform="matrix(0.866025 0.5 -0.866025 0.5 193.088 41.0312)" fill="#003323" fill-opacity="0.3"/>
<path d="M148.456 62.8023L193.066 37.0469L215.192 49.8215L215.192 52.3411L170.583 78.0965L148.456 65.3219L148.456 62.8023Z" fill="white"/>
<path d="M148.456 62.8023L193.066 37.0469L215.192 49.8215L215.192 52.3411L170.583 78.0965L148.456 65.3219L148.456 62.8023Z" fill="#003323" fill-opacity="0.6"/>
<rect width="25.5493" height="51.5109" transform="matrix(0.866025 0.5 -0.866025 0.5 193.088 37.0469)" fill="white"/>
<rect width="25.5493" height="51.5109" transform="matrix(0.866025 0.5 -0.866025 0.5 193.088 37.0469)" fill="#003323" fill-opacity="0.3"/>
<rect width="25.674" height="51.2342" transform="matrix(0.866025 0.5 -0.866025 0.5 192.849 37.0312)" fill="white"/>
<rect width="25.674" height="51.2342" transform="matrix(0.866025 0.5 -0.866025 0.5 192.849 37.0312)" fill="#003323" fill-opacity="0.3"/>
<path fill-rule="evenodd" clip-rule="evenodd" d="M205.627 52.6744C203.622 51.517 203.622 49.6405 205.627 48.483L194.888 42.2832C192.884 43.4407 189.633 43.4406 187.629 42.2832L159.497 58.5249C161.502 59.6824 161.502 61.5589 159.497 62.7164L170.236 68.9162C172.24 67.7587 175.491 67.7587 177.495 68.9162L205.627 52.6744ZM186.167 57.6808C184.162 58.8383 180.912 58.8383 178.907 57.6808C176.902 56.5234 176.902 54.6469 178.907 53.4894C180.912 52.332 184.162 52.332 186.167 53.4894C188.171 54.6469 188.171 56.5234 186.167 57.6808Z" fill="white"/>
<path fill-rule="evenodd" clip-rule="evenodd" d="M205.627 52.6744C203.622 51.517 203.622 49.6405 205.627 48.483L194.888 42.2832C192.884 43.4407 189.633 43.4406 187.629 42.2832L159.497 58.5249C161.502 59.6824 161.502 61.5589 159.497 62.7164L170.236 68.9162C172.24 67.7587 175.491 67.7587 177.495 68.9162L205.627 52.6744ZM186.167 57.6808C184.162 58.8383 180.912 58.8383 178.907 57.6808C176.902 56.5234 176.902 54.6469 178.907 53.4894C180.912 52.332 184.162 52.332 186.167 53.4894C188.171 54.6469 188.171 56.5234 186.167 57.6808Z" fill="#003323" fill-opacity="0.6"/>
<rect width="62.0854" height="19" rx="2" transform="matrix(0.866025 0.5 0 1 269 22)" fill="#FAFAF9"/>
<path d="M277.904 35.4759L277.193 35.0651C277.151 34.8044 277.077 34.5543 276.972 34.3146C276.869 34.0761 276.742 33.853 276.593 33.6454C276.446 33.4366 276.282 33.2494 276.102 33.0838C275.923 32.9181 275.735 32.779 275.54 32.6663C275.184 32.4609 274.862 32.3786 274.573 32.4195C274.286 32.4615 274.058 32.6354 273.887 32.9413C273.719 33.2483 273.635 33.6956 273.635 34.2832C273.635 34.8707 273.719 35.4152 273.887 35.9166C274.058 36.4191 274.286 36.857 274.573 37.2303C274.862 37.6047 275.184 37.8946 275.54 38.1C275.735 38.2126 275.923 38.2899 276.102 38.3319C276.282 38.3739 276.446 38.3766 276.593 38.3402C276.742 38.3026 276.869 38.2242 276.972 38.105C277.077 37.9846 277.151 37.8195 277.193 37.6096L277.904 38.0205C277.851 38.3363 277.753 38.5903 277.612 38.7825C277.47 38.9747 277.294 39.1061 277.084 39.1768C276.873 39.2453 276.637 39.2535 276.375 39.2016C276.115 39.1508 275.837 39.0398 275.54 38.8687C275.039 38.5793 274.593 38.1806 274.203 37.6726C273.813 37.1646 273.506 36.5853 273.282 35.9348C273.058 35.2843 272.946 34.6012 272.946 33.8856C272.946 33.1699 273.058 32.6161 273.282 32.224C273.506 31.8319 273.813 31.6072 274.203 31.5498C274.593 31.4923 275.039 31.6083 275.54 31.8977C275.837 32.0688 276.115 32.2792 276.375 32.5288C276.637 32.7795 276.873 33.0617 277.084 33.3753C277.294 33.6868 277.47 34.0203 277.612 34.3759C277.753 34.7293 277.851 35.096 277.904 35.4759ZM278.962 40.7518V35.6627L279.617 36.0404V36.8091L279.663 36.8356C279.743 36.6302 279.888 36.5098 280.099 36.4744C280.309 36.4391 280.546 36.4976 280.81 36.65C280.86 36.6788 280.922 36.7158 280.997 36.761C281.071 36.8063 281.128 36.8422 281.166 36.8687V37.6639C281.143 37.644 281.09 37.6037 281.008 37.543C280.928 37.4811 280.843 37.4242 280.753 37.3723C280.539 37.2486 280.347 37.1901 280.179 37.1967C280.013 37.2022 279.881 37.2674 279.783 37.3922C279.687 37.5159 279.64 37.6926 279.64 37.9223V41.1428L278.962 40.7518ZM283.682 43.5829C283.258 43.3378 282.891 43.018 282.584 42.6238C282.277 42.2284 282.041 41.7872 281.875 41.3001C281.71 40.812 281.628 40.3073 281.628 39.786C281.628 39.2647 281.71 38.8528 281.875 38.5502C282.041 38.2465 282.273 38.0686 282.569 38.0167C282.868 37.9637 283.216 38.0521 283.614 38.2818C283.843 38.4143 284.07 38.5894 284.294 38.8069C284.517 39.0245 284.721 39.2857 284.905 39.5905C285.088 39.8931 285.235 40.2382 285.344 40.6259C285.453 41.0135 285.507 41.4448 285.507 41.9197V42.251L282.11 40.2896V39.6137L284.819 41.1775C284.819 40.8904 284.769 40.6055 284.669 40.3227C284.572 40.0411 284.432 39.7827 284.251 39.5474C284.071 39.3133 283.858 39.1256 283.614 38.9842C283.344 38.8285 283.11 38.771 282.913 38.8119C282.718 38.8517 282.568 38.9638 282.463 39.1482C282.358 39.3326 282.305 39.5651 282.305 39.8456V40.2962C282.305 40.6806 282.363 41.0395 282.477 41.373C282.594 41.7054 282.756 42.0009 282.962 42.2593C283.169 42.5155 283.409 42.7226 283.682 42.8805C283.86 42.9832 284.021 43.0473 284.164 43.0727C284.31 43.097 284.435 43.081 284.54 43.0247C284.646 42.9661 284.727 42.8651 284.784 42.7215L285.438 43.3113C285.37 43.5277 285.254 43.6862 285.091 43.7867C284.929 43.885 284.728 43.9192 284.489 43.8894C284.25 43.8574 283.981 43.7552 283.682 43.5829ZM288.202 46.1921C287.834 45.98 287.51 45.6857 287.229 45.3091C286.948 44.9303 286.728 44.4985 286.569 44.0137C286.41 43.5266 286.331 43.0136 286.331 42.4747C286.331 41.9401 286.41 41.5221 286.569 41.2206C286.728 40.9191 286.949 40.743 287.232 40.6922C287.515 40.6414 287.842 40.7231 288.213 40.9373C288.5 41.103 288.727 41.2891 288.893 41.4956C289.061 41.701 289.19 41.8987 289.278 42.0887C289.368 42.2775 289.437 42.4305 289.487 42.5476L289.544 42.5807V40.0759L290.222 40.4669V47.2523L289.567 46.8746V46.0927L289.487 46.0463C289.437 46.1104 289.367 46.1866 289.275 46.2749C289.183 46.3611 289.052 46.4102 288.882 46.4224C288.711 46.4323 288.485 46.3555 288.202 46.1921ZM288.293 45.5427C288.565 45.6995 288.795 45.7503 288.982 45.6951C289.17 45.6377 289.312 45.4913 289.41 45.2561C289.507 45.0187 289.556 44.7078 289.556 44.3234C289.556 43.9435 289.508 43.5835 289.412 43.2433C289.317 42.901 289.175 42.5962 288.988 42.3289C288.8 42.0594 288.569 41.8452 288.293 41.6861C288.007 41.5205 287.767 41.4674 287.576 41.5271C287.387 41.5856 287.244 41.732 287.149 41.9661C287.055 42.1991 287.008 42.4945 287.008 42.8524C287.008 43.2146 287.056 43.5713 287.151 43.9225C287.249 44.2726 287.392 44.5896 287.582 44.8734C287.773 45.1562 288.01 45.3792 288.293 45.5427ZM291.556 48.0226V42.9335L292.233 43.3245V48.4136L291.556 48.0226ZM291.9 42.2842C291.768 42.208 291.654 42.0903 291.559 41.9313C291.465 41.7734 291.418 41.6215 291.418 41.4757C291.418 41.33 291.465 41.2322 291.559 41.1825C291.654 41.1339 291.768 41.1477 291.9 41.2239C292.032 41.3001 292.145 41.4172 292.239 41.5751C292.334 41.7342 292.382 41.8866 292.382 42.0324C292.382 42.1781 292.334 42.2753 292.239 42.3239C292.145 42.3736 292.032 42.3604 291.9 42.2842ZM295.39 45.1472V45.8098L293.106 44.4912V43.8285L295.39 45.1472ZM293.772 42.9936L294.449 43.3846V48.2351C294.449 48.456 294.477 48.6377 294.532 48.7801C294.589 48.9215 294.662 49.0363 294.75 49.1247C294.84 49.2119 294.935 49.2843 295.034 49.3417C295.109 49.3848 295.17 49.4157 295.218 49.4345C295.266 49.451 295.304 49.4643 295.333 49.4742L295.47 50.2562C295.424 50.2495 295.36 50.2324 295.278 50.2048C295.196 50.1794 295.092 50.1303 294.965 50.0574C294.774 49.9469 294.587 49.7912 294.403 49.5902C294.221 49.3903 294.07 49.1584 293.95 48.8944C293.831 48.6316 293.772 48.3522 293.772 48.0562V42.9936ZM298.209 51.9699C297.784 51.7247 297.418 51.405 297.11 51.0107C296.804 50.6154 296.568 50.1742 296.401 49.6871C296.237 49.199 296.155 48.6943 296.155 48.173C296.155 47.6517 296.237 47.2398 296.401 46.9371C296.568 46.6334 296.799 46.4556 297.096 46.4037C297.394 46.3507 297.742 46.4391 298.14 46.6688C298.37 46.8013 298.596 46.9764 298.82 47.1939C299.044 47.4115 299.248 47.6727 299.431 47.9775C299.615 48.2801 299.761 48.6252 299.87 49.0129C299.979 49.4005 300.034 49.8318 300.034 50.3067V50.638L296.637 48.6766V48.0007L299.345 49.5645C299.345 49.2774 299.296 48.9924 299.196 48.7097C299.099 48.4281 298.959 48.1697 298.777 47.9344C298.597 47.7003 298.385 47.5125 298.14 47.3712C297.871 47.2155 297.637 47.158 297.44 47.1989C297.245 47.2386 297.095 47.3507 296.99 47.5352C296.884 47.7196 296.832 47.9521 296.832 48.2326V48.6832C296.832 49.0675 296.889 49.4265 297.004 49.76C297.121 50.0924 297.282 50.3879 297.489 50.6463C297.696 50.9025 297.936 51.1096 298.209 51.2675C298.387 51.3702 298.548 51.4343 298.691 51.4597C298.837 51.484 298.962 51.468 299.067 51.4116C299.172 51.3531 299.254 51.252 299.311 51.1085L299.965 51.6982C299.896 51.9147 299.781 52.0732 299.618 52.1737C299.455 52.272 299.255 52.3062 299.015 52.2764C298.776 52.2444 298.508 52.1422 298.209 51.9699ZM302.728 54.5791C302.361 54.367 302.037 54.0727 301.756 53.6961C301.474 53.3173 301.254 52.8855 301.096 52.4006C300.937 51.9136 300.858 51.4006 300.858 50.8616C300.858 50.3271 300.937 49.9091 301.096 49.6076C301.254 49.3061 301.475 49.1299 301.758 49.0791C302.042 49.0283 302.369 49.1101 302.74 49.3243C303.027 49.49 303.253 49.6761 303.42 49.8826C303.588 50.088 303.716 50.2857 303.804 50.4757C303.894 50.6645 303.964 50.8175 304.014 50.9345L304.071 50.9677V48.4629L304.748 48.8538V55.6393L304.094 55.2616V54.4797L304.014 54.4333C303.964 54.4973 303.893 54.5735 303.801 54.6619C303.71 54.748 303.579 54.7972 303.408 54.8093C303.238 54.8193 303.011 54.7425 302.728 54.5791ZM302.82 53.9297C303.092 54.0865 303.321 54.1373 303.509 54.0821C303.696 54.0247 303.839 53.8783 303.936 53.6431C304.034 53.4056 304.083 53.0947 304.083 52.7104C304.083 52.3305 304.035 51.9705 303.939 51.6303C303.844 51.2879 303.702 50.9831 303.515 50.7159C303.327 50.4464 303.096 50.2321 302.82 50.0731C302.533 49.9074 302.294 49.8544 302.103 49.9141C301.913 49.9726 301.771 50.1189 301.675 50.3531C301.582 50.5861 301.535 50.8815 301.535 51.2393C301.535 51.6016 301.582 51.9583 301.678 52.3095C301.776 52.6596 301.919 52.9766 302.109 53.2604C302.3 53.5431 302.537 53.7662 302.82 53.9297Z" fill="#003323" fill-opacity="0.7"/>
<g clip-path="url(#clip1_411_11806)">
<path d="M310.088 55.0392C310.088 52.1008 312.151 50.9098 314.696 52.379V52.379C317.241 53.8482 319.304 57.4213 319.304 60.3597V60.3597C319.304 63.2982 317.241 64.4892 314.696 63.02V63.02C312.151 61.5508 310.088 57.9777 310.088 55.0392V55.0392Z" fill="#003323" fill-opacity="0.7"/>
<g clip-path="url(#clip2_411_11806)">
<path d="M317 57.0352L313.832 58.8642L312.392 56.3702" stroke="white" stroke-width="0.665062" stroke-linecap="round" stroke-linejoin="round"/>
</g>
</g>
<rect width="54.0854" height="19" rx="2" transform="matrix(0.866025 0.5 0 1 30 69)" fill="#FAFAF9"/>
<path d="M34.8873 78.0362V84.8217L34.1757 84.4108V77.6254L34.8873 78.0362ZM36.8994 82.922V85.9834L36.2222 85.5924V80.5033L36.8765 80.881V81.6762L36.9338 81.7093C37.0371 81.5105 37.194 81.3935 37.4044 81.3581C37.6148 81.3206 37.8865 81.3979 38.2193 81.5901C38.5177 81.7623 38.7788 81.9838 39.0026 82.2544C39.2264 82.5227 39.4005 82.8353 39.5248 83.192C39.6492 83.5465 39.7113 83.9402 39.7113 84.3732V87.6068L39.0342 87.2159V84.0352C39.0342 83.6354 38.9443 83.2721 38.7645 82.9452C38.5847 82.616 38.3379 82.3609 38.0242 82.1798C37.808 82.055 37.6148 81.9976 37.4446 82.0075C37.2762 82.0186 37.1433 82.0997 37.0457 82.251C36.9482 82.4023 36.8994 82.626 36.8994 82.922ZM44.0706 86.1743L43.4623 86.0219C43.424 85.8827 43.3676 85.7364 43.293 85.5829C43.2203 85.4283 43.1208 85.2781 42.9946 85.1323C42.8683 84.9865 42.7067 84.8567 42.5097 84.743C42.2399 84.5873 42.0152 84.5293 41.8354 84.569C41.6575 84.6077 41.5685 84.7364 41.5685 84.955C41.5685 85.1494 41.6297 85.3383 41.7522 85.5216C41.8746 85.7049 42.0659 85.9092 42.326 86.1345L42.9802 86.6978C43.3743 87.0357 43.6679 87.3742 43.8611 87.7133C44.0543 88.0501 44.1509 88.3964 44.1509 88.752C44.1509 89.0435 44.0782 89.2622 43.9328 89.408C43.7894 89.5549 43.5885 89.62 43.3303 89.6035C43.072 89.5869 42.7717 89.4798 42.4293 89.2821C41.9798 89.0226 41.6077 88.6951 41.3131 88.2997C41.0186 87.9043 40.8321 87.4676 40.7536 86.9893L41.3964 87.1749C41.4576 87.4841 41.5733 87.7564 41.7435 87.9916C41.9157 88.2279 42.1405 88.4262 42.4178 88.5863C42.7335 88.7685 42.9841 88.8359 43.1696 88.7884C43.3571 88.7398 43.4508 88.6062 43.4508 88.3875C43.4508 88.2108 43.3972 88.0319 43.2901 87.8508C43.183 87.6674 43.0185 87.4819 42.7966 87.2942L42.062 86.6713C41.6584 86.3278 41.3619 85.9854 41.1726 85.6442C40.9851 85.3018 40.8914 84.955 40.8914 84.6038C40.8914 84.3167 40.9612 84.103 41.1008 83.9627C41.2424 83.8236 41.4346 83.7612 41.6776 83.7755C41.9224 83.791 42.1998 83.8882 42.5097 84.0671C42.9458 84.3189 43.2882 84.627 43.5369 84.9915C43.7875 85.357 43.9654 85.7513 44.0706 86.1743ZM47.0869 86.7761V87.4387L44.803 86.12V85.4574L47.0869 86.7761ZM45.4686 84.6225L46.1458 85.0134V89.864C46.1458 90.0848 46.1735 90.2665 46.229 90.409C46.2864 90.5504 46.3591 90.6652 46.4471 90.7536C46.537 90.8408 46.6317 90.9132 46.7311 90.9706C46.8058 91.0137 46.867 91.0446 46.9148 91.0633C46.9626 91.0799 47.0009 91.0932 47.0296 91.1031L47.1673 91.885C47.1214 91.8784 47.0573 91.8613 46.975 91.8337C46.8928 91.8083 46.7885 91.7591 46.6623 91.6862C46.471 91.5758 46.2835 91.4201 46.0999 91.2191C45.9182 91.0192 45.7671 90.7872 45.6465 90.5233C45.5279 90.2604 45.4686 89.981 45.4686 89.6851V84.6225ZM49.4025 93.3213C49.1232 93.1601 48.8698 92.953 48.6421 92.7001C48.4145 92.445 48.2337 92.1628 48.0998 91.8536C47.9659 91.5421 47.899 91.2207 47.899 90.8894C47.899 90.5978 47.9487 90.3902 48.0482 90.2665C48.1476 90.1406 48.2806 90.0738 48.447 90.0661C48.6134 90.0583 48.7971 90.0871 48.9979 90.1522C49.2007 90.2163 49.4044 90.2919 49.6091 90.3792C49.8769 90.494 50.094 90.5896 50.2604 90.6658C50.4288 90.7409 50.5512 90.7751 50.6277 90.7685C50.7061 90.763 50.7453 90.6972 50.7453 90.5713V90.5448C50.7453 90.2179 50.6679 89.9192 50.5129 89.6486C50.3599 89.3791 50.1275 89.1544 49.8157 88.9744C49.4924 88.7877 49.2389 88.7231 49.0553 88.7805C48.8717 88.838 48.7425 88.9379 48.6679 89.0804L48.0252 88.4443C48.14 88.2013 48.293 88.0489 48.4843 87.987C48.6775 87.9241 48.8879 87.9241 49.1156 87.987C49.3451 88.0489 49.5708 88.1439 49.7927 88.272C49.9343 88.3537 50.0969 88.4674 50.2805 88.6132C50.4661 88.7579 50.6449 88.9396 50.8171 89.1583C50.9911 89.378 51.1356 89.6414 51.2503 89.9485C51.3651 90.2555 51.4225 90.6111 51.4225 91.0153V94.3683L50.7453 93.9773V93.2882L50.7109 93.2683C50.665 93.3522 50.5885 93.4262 50.4814 93.4903C50.3742 93.5543 50.2317 93.5792 50.0538 93.5648C49.8759 93.5505 49.6588 93.4693 49.4025 93.3213ZM49.5058 92.6785C49.7736 92.8332 49.9993 92.9027 50.1829 92.8873C50.3685 92.8729 50.5081 92.7967 50.6019 92.6587C50.6975 92.5217 50.7453 92.3472 50.7453 92.1352V91.4195C50.7166 91.4427 50.6535 91.4427 50.556 91.4195C50.4603 91.3952 50.3494 91.3588 50.2231 91.3102C50.0988 91.2605 49.9773 91.2102 49.8587 91.1594C49.742 91.1075 49.6473 91.0661 49.5746 91.0352C49.3987 90.9601 49.2342 90.9082 49.0811 90.8795C48.93 90.8496 48.8076 90.8662 48.7139 90.9292C48.622 90.991 48.5761 91.1213 48.5761 91.3201C48.5761 91.5918 48.6632 91.8475 48.8372 92.0871C49.0132 92.3257 49.2361 92.5228 49.5058 92.6785ZM53.3356 92.4114V95.4728L52.6585 95.0819V89.9928L53.3127 90.3705V91.1656L53.37 91.1988C53.4733 91 53.6302 90.8829 53.8406 90.8476C54.051 90.81 54.3227 90.8873 54.6555 91.0795C54.9539 91.2518 55.215 91.4732 55.4388 91.7438C55.6626 92.0122 55.8367 92.3247 55.961 92.6814C56.0854 93.036 56.1476 93.4297 56.1476 93.8626V97.0963L55.4704 96.7053V93.5247C55.4704 93.1249 55.3805 92.7615 55.2007 92.4346C55.0209 92.1055 54.7741 91.8504 54.4604 91.6693C54.2442 91.5445 54.051 91.487 53.8808 91.497C53.7125 91.508 53.5795 91.5892 53.482 91.7405C53.3844 91.8918 53.3356 92.1154 53.3356 92.4114ZM59.3017 93.8282V94.4909L57.0177 93.1722V92.5096L59.3017 93.8282ZM57.6834 91.6746L58.3605 92.0656V96.9161C58.3605 97.137 58.3883 97.3187 58.4437 97.4612C58.5011 97.6025 58.5738 97.7174 58.6618 97.8057C58.7517 97.893 58.8464 97.9653 58.9459 98.0227C59.0205 98.0658 59.0817 98.0967 59.1295 98.1155C59.1773 98.1321 59.2156 98.1453 59.2443 98.1553L59.382 98.9372C59.3361 98.9306 59.272 98.9134 59.1898 98.8858C59.1075 98.8604 59.0032 98.8113 58.877 98.7384C58.6857 98.628 58.4982 98.4722 58.3146 98.2712C58.1329 98.0713 57.9818 97.8394 57.8613 97.5755C57.7427 97.3126 57.6834 97.0332 57.6834 96.7372V91.6746Z" fill="#003323" fill-opacity="0.7"/>
<g clip-path="url(#clip3_411_11806)">
<path d="M64.1599 98.0392C64.1599 95.1008 66.2228 93.9098 68.7676 95.379V95.379C71.3124 96.8482 73.3753 100.421 73.3753 103.36V103.36C73.3753 106.298 71.3124 107.489 68.7676 106.02V106.02C66.2228 104.551 64.1599 100.978 64.1599 98.0392V98.0392Z" fill="#003323" fill-opacity="0.7"/>
<g clip-path="url(#clip4_411_11806)">
<path d="M71.0713 100.035L67.9035 101.864L66.4636 99.3702" stroke="white" stroke-width="0.665062" stroke-linecap="round" stroke-linejoin="round"/>
</g>
</g>
<rect width="62.0854" height="19" rx="2" transform="matrix(0.866025 0.5 0 1 45 -33)" fill="#FAFAF9"/>
<path d="M53.9044 -19.5241L53.1928 -19.9349C53.1507 -20.1956 53.077 -20.4457 52.9718 -20.6854C52.8685 -20.9239 52.7423 -21.147 52.5931 -21.3546C52.4458 -21.5634 52.2822 -21.7506 52.1024 -21.9162C51.9226 -22.0819 51.7351 -22.221 51.54 -22.3337C51.1842 -22.5391 50.8619 -22.6214 50.5731 -22.5805C50.2861 -22.5385 50.0575 -22.3646 49.8873 -22.0587C49.719 -21.7517 49.6348 -21.3044 49.6348 -20.7168C49.6348 -20.1293 49.719 -19.5848 49.8873 -19.0834C50.0575 -18.5809 50.2861 -18.143 50.5731 -17.7697C50.8619 -17.3953 51.1842 -17.1054 51.54 -16.9C51.7351 -16.7874 51.9226 -16.7101 52.1024 -16.6681C52.2822 -16.6261 52.4458 -16.6234 52.5931 -16.6598C52.7423 -16.6974 52.8685 -16.7758 52.9718 -16.895C53.077 -17.0154 53.1507 -17.1805 53.1928 -17.3904L53.9044 -16.9795C53.8508 -16.6637 53.7532 -16.4097 53.6117 -16.2175C53.4701 -16.0253 53.2941 -15.8939 53.0837 -15.8232C52.8733 -15.7547 52.6371 -15.7465 52.375 -15.7984C52.1148 -15.8492 51.8365 -15.9602 51.54 -16.1313C51.0389 -16.4207 50.5931 -16.8194 50.2029 -17.3274C49.8127 -17.8354 49.5057 -18.4147 49.2819 -19.0652C49.0581 -19.7157 48.9462 -20.3988 48.9462 -21.1144C48.9462 -21.8301 49.0581 -22.3839 49.2819 -22.776C49.5057 -23.1681 49.8127 -23.3928 50.2029 -23.4502C50.5931 -23.5077 51.0389 -23.3917 51.54 -23.1023C51.8365 -22.9312 52.1148 -22.7208 52.375 -22.4712C52.6371 -22.2205 52.8733 -21.9383 53.0837 -21.6247C53.2941 -21.3132 53.4701 -20.9797 53.6117 -20.6241C53.7532 -20.2707 53.8508 -19.904 53.9044 -19.5241ZM54.9624 -14.2482V-19.3373L55.6166 -18.9596V-18.1909L55.6625 -18.1644C55.7429 -18.3698 55.8882 -18.4902 56.0987 -18.5256C56.3091 -18.5609 56.5463 -18.5024 56.8103 -18.35C56.86 -18.3212 56.9222 -18.2842 56.9968 -18.239C57.0714 -18.1937 57.1278 -18.1578 57.1661 -18.1313V-17.3361C57.1431 -17.356 57.0905 -17.3963 57.0082 -17.457C56.9279 -17.5189 56.8428 -17.5758 56.7529 -17.6277C56.5386 -17.7514 56.3473 -17.8099 56.179 -17.8033C56.0126 -17.7978 55.8806 -17.7326 55.783 -17.6078C55.6874 -17.4841 55.6396 -17.3074 55.6396 -17.0777V-13.8572L54.9624 -14.2482ZM59.6825 -11.4171C59.2578 -11.6622 58.8915 -11.982 58.5835 -12.3762C58.2774 -12.7716 58.0412 -13.2128 57.8748 -13.6999C57.7103 -14.188 57.628 -14.6927 57.628 -15.214C57.628 -15.7353 57.7103 -16.1472 57.8748 -16.4498C58.0412 -16.7535 58.2727 -16.9314 58.5692 -16.9833C58.8676 -17.0363 59.2157 -16.9479 59.6136 -16.7182C59.8431 -16.5857 60.0698 -16.4106 60.2936 -16.1931C60.5174 -15.9755 60.7211 -15.7143 60.9048 -15.4095C61.0884 -15.1069 61.2348 -14.7618 61.3438 -14.3741C61.4528 -13.9865 61.5073 -13.5552 61.5073 -13.0803V-12.749L58.1101 -14.7104V-15.3863L60.8187 -13.8225C60.8187 -14.1096 60.769 -14.3945 60.6695 -14.6773C60.5719 -14.9589 60.4323 -15.2173 60.2506 -15.4526C60.0708 -15.6867 59.8584 -15.8744 59.6136 -16.0158C59.3439 -16.1715 59.1105 -16.229 58.9135 -16.1881C58.7184 -16.1483 58.5682 -16.0362 58.463 -15.8518C58.3578 -15.6674 58.3052 -15.4349 58.3052 -15.1544V-14.7038C58.3052 -14.3194 58.3626 -13.9605 58.4773 -13.627C58.594 -13.2946 58.7557 -12.9991 58.9623 -12.7407C59.1688 -12.4845 59.4089 -12.2774 59.6825 -12.1195C59.8603 -12.0168 60.021 -11.9527 60.1645 -11.9273C60.3099 -11.903 60.4352 -11.919 60.5404 -11.9753C60.6456 -12.0339 60.7269 -12.1349 60.7843 -12.2785L61.4385 -11.6887C61.3696 -11.4723 61.2539 -11.3138 61.0913 -11.2133C60.9287 -11.115 60.7278 -11.0808 60.4887 -11.1106C60.2496 -11.1426 59.9809 -11.2448 59.6825 -11.4171ZM64.2016 -8.80791C63.8344 -9.01996 63.5101 -9.31428 63.2289 -9.69088C62.9477 -10.0697 62.7278 -10.5015 62.569 -10.9863C62.4102 -11.4734 62.3308 -11.9864 62.3308 -12.5253C62.3308 -13.0599 62.4102 -13.4779 62.569 -13.7794C62.7278 -14.0809 62.9487 -14.257 63.2318 -14.3078C63.5149 -14.3586 63.842 -14.2769 64.2131 -14.0627C64.5 -13.897 64.7267 -13.7109 64.8931 -13.5044C65.0615 -13.299 65.1896 -13.1013 65.2776 -12.9113C65.3675 -12.7225 65.4374 -12.5695 65.4871 -12.4524L65.5445 -12.4193V-14.9241L66.2216 -14.5331V-7.74768L65.5674 -8.12539V-8.90731L65.4871 -8.95369C65.4374 -8.88964 65.3666 -8.81343 65.2748 -8.72508C65.1829 -8.63894 65.0519 -8.58979 64.8817 -8.57764C64.7114 -8.5677 64.4847 -8.64446 64.2016 -8.80791ZM64.2935 -9.4573C64.5651 -9.30048 64.7946 -9.24967 64.9821 -9.30489C65.1696 -9.36232 65.3121 -9.50866 65.4096 -9.74389C65.5072 -9.98134 65.556 -10.2922 65.556 -10.6766C65.556 -11.0565 65.5081 -11.4165 65.4125 -11.7567C65.3168 -12.099 65.1753 -12.4038 64.9878 -12.6711C64.8004 -12.9406 64.5689 -13.1548 64.2935 -13.3139C64.0065 -13.4795 63.7674 -13.5326 63.5761 -13.4729C63.3867 -13.4144 63.2442 -13.268 63.1486 -13.0339C63.0549 -12.8009 63.008 -12.5055 63.008 -12.1476C63.008 -11.7854 63.0558 -11.4287 63.1515 -11.0775C63.249 -10.7274 63.3925 -10.4104 63.5819 -10.1266C63.7732 -9.84384 64.0103 -9.62075 64.2935 -9.4573ZM67.5559 -6.97736V-12.0665L68.233 -11.6755V-6.58641L67.5559 -6.97736ZM67.9002 -12.7158C67.7682 -12.792 67.6544 -12.9097 67.5587 -13.0687C67.465 -13.2266 67.4181 -13.3785 67.4181 -13.5243C67.4181 -13.67 67.465 -13.7678 67.5587 -13.8175C67.6544 -13.8661 67.7682 -13.8523 67.9002 -13.7761C68.0322 -13.6999 68.145 -13.5828 68.2388 -13.4249C68.3344 -13.2658 68.3822 -13.1134 68.3822 -12.9676C68.3822 -12.8219 68.3344 -12.7247 68.2388 -12.6761C68.145 -12.6264 68.0322 -12.6396 67.9002 -12.7158ZM71.39 -9.85282V-9.19017L69.106 -10.5088V-11.1715L71.39 -9.85282ZM69.7717 -12.0064L70.4489 -11.6154V-6.7649C70.4489 -6.54402 70.4766 -6.36235 70.5321 -6.21988C70.5895 -6.07852 70.6622 -5.96366 70.7502 -5.87531C70.8401 -5.78806 70.9347 -5.71572 71.0342 -5.65829C71.1088 -5.61522 71.17 -5.5843 71.2179 -5.56552C71.2657 -5.54896 71.3039 -5.5357 71.3326 -5.52576L71.4704 -4.74385C71.4244 -4.75047 71.3604 -4.76759 71.2781 -4.7952C71.1959 -4.8206 71.0916 -4.86975 70.9654 -4.94264C70.7741 -5.05308 70.5866 -5.2088 70.403 -5.4098C70.2212 -5.6097 70.0701 -5.84162 69.9496 -6.10557C69.831 -6.36842 69.7717 -6.64784 69.7717 -6.94382V-12.0064ZM74.2091 -3.03009C73.7845 -3.27527 73.4181 -3.59499 73.1102 -3.98926C72.8041 -4.38464 72.5679 -4.82585 72.4014 -5.31289C72.2369 -5.80104 72.1547 -6.30575 72.1547 -6.82703C72.1547 -7.34831 72.2369 -7.76025 72.4014 -8.06285C72.5679 -8.36657 72.7993 -8.54437 73.0958 -8.59628C73.3942 -8.64929 73.7424 -8.56094 74.1403 -8.33122C74.3698 -8.1987 74.5965 -8.02365 74.8203 -7.80608C75.0441 -7.58851 75.2478 -7.32732 75.4315 -7.02251C75.6151 -6.7199 75.7614 -6.37477 75.8705 -5.98713C75.9795 -5.59948 76.034 -5.16821 76.034 -4.69332V-4.362L72.6367 -6.32342V-6.99931L75.3454 -5.43548C75.3454 -5.72262 75.2956 -6.00756 75.1962 -6.29029C75.0986 -6.57191 74.959 -6.83034 74.7772 -7.06558C74.5974 -7.29971 74.3851 -7.48746 74.1403 -7.62882C73.8705 -7.78454 73.6372 -7.84197 73.4401 -7.80111C73.245 -7.76135 73.0949 -7.64926 72.9897 -7.46482C72.8845 -7.28038 72.8318 -7.04791 72.8318 -6.76739V-6.31679C72.8318 -5.93246 72.8892 -5.57353 73.004 -5.24C73.1207 -4.90757 73.2823 -4.61215 73.4889 -4.35372C73.6955 -4.09749 73.9356 -3.89042 74.2091 -3.73249C74.387 -3.62978 74.5477 -3.56572 74.6912 -3.54032C74.8365 -3.51603 74.9618 -3.53204 75.0671 -3.58836C75.1723 -3.6469 75.2536 -3.74795 75.3109 -3.89152L75.9651 -3.30177C75.8963 -3.08531 75.7806 -2.92683 75.618 -2.82633C75.4554 -2.72803 75.2545 -2.6938 75.0154 -2.72362C74.7763 -2.75564 74.5075 -2.8578 74.2091 -3.03009ZM78.7283 -0.420935C78.361 -0.63298 78.0368 -0.927304 77.7556 -1.30391C77.4744 -1.68272 77.2544 -2.11454 77.0957 -2.59937C76.9369 -3.08641 76.8575 -3.59941 76.8575 -4.13836C76.8575 -4.67289 76.9369 -5.0909 77.0957 -5.39241C77.2544 -5.69391 77.4754 -5.87006 77.7585 -5.92086C78.0416 -5.97167 78.3687 -5.88994 78.7398 -5.67569C79.0267 -5.51003 79.2534 -5.32393 79.4198 -5.11741C79.5881 -4.91199 79.7163 -4.7143 79.8043 -4.52435C79.8942 -4.33549 79.964 -4.18253 80.0138 -4.06547L80.0712 -4.03233V-6.53712L80.7483 -6.14616V0.639292L80.0941 0.261586V-0.520331L80.0138 -0.566716C79.964 -0.502661 79.8933 -0.426457 79.8014 -0.338105C79.7096 -0.251961 79.5786 -0.202815 79.4083 -0.190667C79.2381 -0.180727 79.0114 -0.257483 78.7283 -0.420935ZM78.8201 -1.07032C79.0918 -0.913499 79.3213 -0.862696 79.5088 -0.917917C79.6962 -0.975346 79.8387 -1.12168 79.9363 -1.35692C80.0339 -1.59436 80.0826 -1.90525 80.0826 -2.28959C80.0826 -2.6695 80.0348 -3.02954 79.9392 -3.36969C79.8435 -3.71206 79.702 -4.01687 79.5145 -4.28414C79.327 -4.55361 79.0956 -4.76787 78.8201 -4.9269C78.5332 -5.09256 78.2941 -5.14557 78.1028 -5.08594C77.9134 -5.0274 77.7709 -4.88107 77.6753 -4.64693C77.5815 -4.41391 77.5347 -4.11848 77.5347 -3.76065C77.5347 -3.39841 77.5825 -3.04168 77.6781 -2.69048C77.7757 -2.34039 77.9192 -2.02342 78.1085 -1.73959C78.2998 -1.45687 78.537 -1.23378 78.8201 -1.07032Z" fill="#003323" fill-opacity="0.7"/>
<g clip-path="url(#clip5_411_11806)">
<path d="M86.0881 0.039247C86.0881 -2.89918 88.1511 -4.09022 90.6958 -2.621V-2.621C93.2406 -1.15179 95.3035 2.42132 95.3035 5.35974V5.35974C95.3035 8.29817 93.2406 9.48921 90.6958 8.01999V8.01999C88.1511 6.55078 86.0881 2.97768 86.0881 0.039247V0.039247Z" fill="#003323" fill-opacity="0.7"/>
<g clip-path="url(#clip6_411_11806)">
<path d="M92.9997 2.03525L89.8319 3.86417L88.392 1.37019" stroke="white" stroke-width="0.665062" stroke-linecap="round" stroke-linejoin="round"/>
</g>
</g>
<rect width="29.125" height="14" rx="2" transform="matrix(0.866025 0.5 0 1 30 -27)" fill="#FAFAF9"/>
</g>
<defs>
<filter id="filter0_f_411_11806" x="-173.773" y="-86.0817" width="828.295" height="599.726" filterUnits="userSpaceOnUse" color-interpolation-filters="sRGB">
<feFlood flood-opacity="0" result="BackgroundImageFix"/>
<feBlend mode="normal" in="SourceGraphic" in2="BackgroundImageFix" result="shape"/>
<feGaussianBlur stdDeviation="71.8729" result="effect1_foregroundBlur_411_11806"/>
</filter>
<radialGradient id="paint0_radial_411_11806" cx="0" cy="0" r="1" gradientTransform="matrix(-396.354 15.6045 336.372 533.023 227.49 152.652)" gradientUnits="userSpaceOnUse">
<stop stop-color="#003323" stop-opacity="0.4"/>
<stop offset="0.424906" stop-color="#003323" stop-opacity="0.1"/>
</radialGradient>
<radialGradient id="paint1_radial_411_11806" cx="0" cy="0" r="1" gradientTransform="matrix(110.35 189.555 -376.351 262.742 329.013 248.038)" gradientUnits="userSpaceOnUse">
<stop stop-color="#003323" stop-opacity="0.4"/>
<stop offset="0.424906" stop-color="#003323" stop-opacity="0.1"/>
</radialGradient>
<clipPath id="clip0_411_11806">
<path d="M0 8C0 3.58172 3.58172 0 8 0H320C324.418 0 328 3.58172 328 8V100C328 104.418 324.418 108 320 108H7.99999C3.58171 108 0 104.418 0 100V8Z" fill="white"/>
</clipPath>
<clipPath id="clip1_411_11806">
<path d="M310.088 55.0392C310.088 52.1008 312.151 50.9098 314.696 52.379V52.379C317.241 53.8482 319.304 57.4213 319.304 60.3597V60.3597C319.304 63.2982 317.241 64.4892 314.696 63.02V63.02C312.151 61.5508 310.088 57.9777 310.088 55.0392V55.0392Z" fill="white"/>
</clipPath>
<clipPath id="clip2_411_11806">
<rect width="7.98075" height="7.98075" fill="white" transform="matrix(0.866025 0.5 0 1 311.24 51.7109)"/>
</clipPath>
<clipPath id="clip3_411_11806">
<path d="M64.1599 98.0392C64.1599 95.1008 66.2228 93.9098 68.7676 95.379V95.379C71.3124 96.8482 73.3753 100.421 73.3753 103.36V103.36C73.3753 106.298 71.3124 107.489 68.7676 106.02V106.02C66.2228 104.551 64.1599 100.978 64.1599 98.0392V98.0392Z" fill="white"/>
</clipPath>
<clipPath id="clip4_411_11806">
<rect width="7.98075" height="7.98075" fill="white" transform="matrix(0.866025 0.5 0 1 65.3118 94.7109)"/>
</clipPath>
<clipPath id="clip5_411_11806">
<path d="M86.0881 0.039247C86.0881 -2.89918 88.1511 -4.09022 90.6958 -2.621V-2.621C93.2406 -1.15179 95.3035 2.42132 95.3035 5.35974V5.35974C95.3035 8.29817 93.2406 9.48921 90.6958 8.01999V8.01999C88.1511 6.55078 86.0881 2.97768 86.0881 0.039247V0.039247Z" fill="white"/>
</clipPath>
<clipPath id="clip6_411_11806">
<rect width="7.98075" height="7.98075" fill="white" transform="matrix(0.866025 0.5 0 1 87.24 -3.28906)"/>
</clipPath>
</defs>
</svg>
