<svg width="328" height="132" viewBox="0 0 328 132" fill="none" xmlns="http://www.w3.org/2000/svg">
<g clip-path="url(#clip0_411_11548)">
<path d="M0 8C0 3.58172 3.58172 0 8 0H320C324.418 0 328 3.58172 328 8V124C328 128.418 324.418 132 320 132H7.99999C3.58171 132 0 128.418 0 124V8Z" fill="#F5F5F4"/>
<rect x="73.272" y="31.2734" width="172.728" height="251.516" rx="4.8485" fill="#003323" fill-opacity="0.3"/>
<rect x="65.9995" y="24" width="172.728" height="251.516" rx="4.8485" fill="white"/>
<path d="M81.1074 48V40.7246H81.9863V47.2188H85.4922V48H81.1074ZM88.4805 48.1172C87.0498 48.1172 86.0879 47.0039 86.0879 45.4316C86.0879 43.8496 87.0498 42.7266 88.4805 42.7266C89.9111 42.7266 90.873 43.8496 90.873 45.4316C90.873 47.0039 89.9111 48.1172 88.4805 48.1172ZM88.4805 47.3652C89.457 47.3652 90.0332 46.5986 90.0332 45.4316C90.0332 44.2549 89.4521 43.4785 88.4805 43.4785C87.5088 43.4785 86.9277 44.25 86.9277 45.4316C86.9277 46.6035 87.5039 47.3652 88.4805 47.3652ZM93.4609 48.0781C92.4355 48.0781 91.6641 47.5459 91.6641 46.5156C91.6641 45.334 92.6797 45.1191 93.7148 44.9824C94.6963 44.8506 95.0137 44.8896 95.0137 44.4941V44.4453C95.0137 43.8838 94.5938 43.4785 93.8711 43.4785C93.1533 43.4785 92.6553 43.874 92.6162 44.3867H91.7715C91.8154 43.4443 92.6504 42.7461 93.8711 42.7461C95.0723 42.7461 95.834 43.4248 95.834 44.4453V48H95.0137V47.2676H94.9941C94.8037 47.6387 94.3984 48.0781 93.4609 48.0781ZM93.5781 47.3359C94.5938 47.3359 95.0137 46.7207 95.0137 46.0469V45.4023C94.8867 45.5195 94.2666 45.6123 93.6758 45.6953C93.0801 45.7783 92.5137 45.9834 92.5137 46.5645C92.5137 47.0479 92.9189 47.3359 93.5781 47.3359ZM97.8945 44.9824V48H97.0645V42.8438H97.875V43.6006C98.2314 43.0146 98.7539 42.7461 99.4082 42.7461C100.448 42.7461 101.303 43.4248 101.303 44.7969V48H100.473V44.8555C100.473 43.9619 100.023 43.5078 99.252 43.5078C98.5 43.5078 97.8945 43.9424 97.8945 44.9824ZM106.605 48.0781C105.58 48.0781 104.809 47.5459 104.809 46.5156C104.809 45.334 105.824 45.1191 106.859 44.9824C107.841 44.8506 108.158 44.8896 108.158 44.4941V44.4453C108.158 43.8838 107.738 43.4785 107.016 43.4785C106.298 43.4785 105.8 43.874 105.761 44.3867H104.916C104.96 43.4443 105.795 42.7461 107.016 42.7461C108.217 42.7461 108.979 43.4248 108.979 44.4453V48H108.158V47.2676H108.139C107.948 47.6387 107.543 48.0781 106.605 48.0781ZM106.723 47.3359C107.738 47.3359 108.158 46.7207 108.158 46.0469V45.4023C108.031 45.5195 107.411 45.6123 106.82 45.6953C106.225 45.7783 105.658 45.9834 105.658 46.5645C105.658 47.0479 106.063 47.3359 106.723 47.3359ZM110.209 50.041V42.8438H111.02V43.6055H111.029C111.361 43.0293 111.991 42.7461 112.66 42.7461C114.003 42.7461 114.896 43.8301 114.896 45.4219C114.896 47.0088 114.003 48.0977 112.66 48.0977C111.991 48.0977 111.42 47.8145 111.049 47.2188H111.039V50.041H110.209ZM112.533 47.3506C113.427 47.3506 114.057 46.6865 114.057 45.4219C114.057 44.1572 113.427 43.4883 112.533 43.4883C111.576 43.4883 110.971 44.2549 110.971 45.4219C110.971 46.5889 111.576 47.3506 112.533 47.3506ZM115.863 50.041V42.8438H116.674V43.6055H116.684C117.016 43.0293 117.646 42.7461 118.314 42.7461C119.657 42.7461 120.551 43.8301 120.551 45.4219C120.551 47.0088 119.657 48.0977 118.314 48.0977C117.646 48.0977 117.074 47.8145 116.703 47.2188H116.693V50.041H115.863ZM118.188 47.3506C119.081 47.3506 119.711 46.6865 119.711 45.4219C119.711 44.1572 119.081 43.4883 118.188 43.4883C117.23 43.4883 116.625 44.2549 116.625 45.4219C116.625 46.5889 117.23 47.3506 118.188 47.3506ZM122.348 40.7246V48H121.518V40.7246H122.348ZM123.578 48V42.8438H124.408V48H123.578ZM123.993 41.8379C123.681 41.8379 123.427 41.584 123.427 41.2715C123.427 40.959 123.681 40.7051 123.993 40.7051C124.306 40.7051 124.56 40.959 124.56 41.2715C124.56 41.584 124.306 41.8379 123.993 41.8379ZM127.768 48.1172C126.337 48.1172 125.375 47.0039 125.375 45.4316C125.375 43.8496 126.337 42.7266 127.768 42.7266C128.939 42.7266 129.799 43.4834 129.94 44.5234H129.101C128.979 43.918 128.529 43.4785 127.768 43.4785C126.796 43.4785 126.215 44.25 126.215 45.4316C126.215 46.6035 126.791 47.3652 127.768 47.3652C128.539 47.3652 128.925 46.9502 129.086 46.3203H129.94C129.799 47.3359 128.93 48.1172 127.768 48.1172ZM132.494 48.0781C131.469 48.0781 130.697 47.5459 130.697 46.5156C130.697 45.334 131.713 45.1191 132.748 44.9824C133.729 44.8506 134.047 44.8896 134.047 44.4941V44.4453C134.047 43.8838 133.627 43.4785 132.904 43.4785C132.187 43.4785 131.688 43.874 131.649 44.3867H130.805C130.849 43.4443 131.684 42.7461 132.904 42.7461C134.105 42.7461 134.867 43.4248 134.867 44.4453V48H134.047V47.2676H134.027C133.837 47.6387 133.432 48.0781 132.494 48.0781ZM132.611 47.3359C133.627 47.3359 134.047 46.7207 134.047 46.0469V45.4023C133.92 45.5195 133.3 45.6123 132.709 45.6953C132.113 45.7783 131.547 45.9834 131.547 46.5645C131.547 47.0479 131.952 47.3359 132.611 47.3359ZM138.349 42.8438V43.5566H137.304V46.75C137.304 47.1504 137.445 47.2871 137.87 47.2871H138.349V48H137.792C136.908 48 136.474 47.6143 136.474 46.8379V43.5566H135.556V42.8438H136.474V41.4375H137.304V42.8438H138.349ZM139.213 48V42.8438H140.043V48H139.213ZM139.628 41.8379C139.315 41.8379 139.062 41.584 139.062 41.2715C139.062 40.959 139.315 40.7051 139.628 40.7051C139.94 40.7051 140.194 40.959 140.194 41.2715C140.194 41.584 139.94 41.8379 139.628 41.8379ZM143.402 48.1172C141.972 48.1172 141.01 47.0039 141.01 45.4316C141.01 43.8496 141.972 42.7266 143.402 42.7266C144.833 42.7266 145.795 43.8496 145.795 45.4316C145.795 47.0039 144.833 48.1172 143.402 48.1172ZM143.402 47.3652C144.379 47.3652 144.955 46.5986 144.955 45.4316C144.955 44.2549 144.374 43.4785 143.402 43.4785C142.431 43.4785 141.85 44.25 141.85 45.4316C141.85 46.6035 142.426 47.3652 143.402 47.3652ZM147.592 44.9824V48H146.762V42.8438H147.572V43.6006C147.929 43.0146 148.451 42.7461 149.105 42.7461C150.146 42.7461 151 43.4248 151 44.7969V48H150.17V44.8555C150.17 43.9619 149.721 43.5078 148.949 43.5078C148.197 43.5078 147.592 43.9424 147.592 44.9824Z" fill="#1C1917"/>
<rect x="80.5449" y="59.7578" width="28.485" height="5.45457" rx="1.21213" fill="#003323" fill-opacity="0.3"/>
<rect x="80.5449" y="68.8516" width="63.6366" height="5.45457" rx="1.21213" fill="#003323" fill-opacity="0.3"/>
<rect x="80.5449" y="77.9375" width="16.9698" height="5.45457" rx="1.21213" fill="#003323" fill-opacity="0.3"/>
<rect x="159.939" y="59.7578" width="28.485" height="5.45457" rx="1.21213" fill="#003323" fill-opacity="0.3"/>
<rect x="159.939" y="68.8516" width="63.6366" height="5.45457" rx="1.21213" fill="#003323" fill-opacity="0.3"/>
<rect x="159.939" y="77.9375" width="16.9698" height="5.45457" rx="1.21213" fill="#003323" fill-opacity="0.3"/>
<rect x="80.5452" y="103.242" width="49.0911" height="3.45457" rx="1.21213" fill="#003323" fill-opacity="0.7"/>
<rect x="84.1814" y="117.211" width="20.0001" height="5.45457" rx="1.21213" fill="#003323" fill-opacity="0.3"/>
<rect x="84.1814" y="130.547" width="26.6668" height="5.45457" rx="1.21213" fill="#003323" fill-opacity="0.3"/>
<rect x="126.606" y="130.547" width="16.9698" height="5.45457" rx="1.21213" fill="#003323" fill-opacity="0.3"/>
<rect x="156.908" y="130.547" width="16.9698" height="5.45457" rx="1.21213" fill="#003323" fill-opacity="0.3"/>
<rect x="189.031" y="130.547" width="26.6668" height="5.45457" rx="1.21213" fill="#003323" fill-opacity="0.3"/>
<rect x="126.606" y="117.211" width="12.1213" height="5.45457" rx="1.21213" fill="#003323" fill-opacity="0.3"/>
<rect x="156.908" y="117.211" width="12.1213" height="5.45457" rx="1.21213" fill="#003323" fill-opacity="0.3"/>
<rect x="189.031" y="117.211" width="28.5153" height="5.45457" rx="1.21213" fill="#003323" fill-opacity="0.3"/>
<rect x="80.848" y="112.662" width="143.031" height="120" rx="4.54547" stroke="#003323" stroke-opacity="0.3" stroke-width="0.606063"/>
<line x1="120.241" y1="112.359" x2="120.241" y2="232.966" stroke="#003323" stroke-opacity="0.3" stroke-width="0.606063"/>
<line x1="223.876" y1="125.998" x2="80.845" y2="125.998" stroke="#003323" stroke-opacity="0.3" stroke-width="0.606063"/>
<line x1="152.363" y1="112.359" x2="152.363" y2="232.966" stroke="#003323" stroke-opacity="0.3" stroke-width="0.606063"/>
<line x1="184.485" y1="112.359" x2="184.485" y2="232.966" stroke="#003323" stroke-opacity="0.3" stroke-width="0.606063"/>
</g>
<defs>
<clipPath id="clip0_411_11548">
<path d="M0 8C0 3.58172 3.58172 0 8 0H320C324.418 0 328 3.58172 328 8V124C328 128.418 324.418 132 320 132H7.99999C3.58171 132 0 128.418 0 124V8Z" fill="white"/>
</clipPath>
</defs>
</svg>
