<svg width="328" height="108" viewBox="0 0 328 108" fill="none" xmlns="http://www.w3.org/2000/svg">
<g clip-path="url(#clip0_411_11749)">
<path d="M0 8C0 3.58172 3.58172 0 8 0H320C324.418 0 328 3.58172 328 8V100C328 104.418 324.418 108 320 108H7.99999C3.58171 108 0 104.418 0 100V8Z" fill="#F5F5F4"/>
<g opacity="0.4">
<path d="M1011.61 285.514L1055.07 310.609L1013.98 334.335M1011.61 285.514L970.514 309.24M1011.61 285.514L968.142 260.419M970.514 309.24L1013.98 334.335M970.514 309.24L927.047 284.145M970.514 309.24L929.42 332.966M1013.98 334.335L972.886 358.061M968.142 260.419L927.047 284.145M968.142 260.419L924.675 235.324M927.047 284.145L883.581 259.049M927.047 284.145L885.953 307.87M924.675 235.324L883.581 259.049M924.675 235.324L881.209 210.228M883.581 259.049L840.115 233.954M883.581 259.049L842.487 282.775M881.209 210.228L840.115 233.954M881.209 210.228L837.743 185.133M840.115 233.954L796.649 208.859M840.115 233.954L799.021 257.68M837.743 185.133L796.649 208.859M837.743 185.133L794.277 160.038M796.649 208.859L753.183 183.764M796.649 208.859L755.555 232.585M794.277 160.038L753.183 183.764M794.277 160.038L750.811 134.943M753.183 183.764L709.716 158.668M753.183 183.764L712.088 207.489M750.811 134.943L709.716 158.668M750.811 134.943L707.344 109.847M709.716 158.668L666.25 133.573M709.716 158.668L668.622 182.394M707.344 109.847L666.25 133.573M707.344 109.847L663.878 84.7522M666.25 133.573L622.784 108.478M666.25 133.573L625.156 157.299M663.878 84.7522L622.784 108.478M663.878 84.7522L620.412 59.657M622.784 108.478L579.318 83.3827M622.784 108.478L581.69 132.204M620.412 59.657L579.318 83.3827M620.412 59.657L576.946 34.5617M579.318 83.3827L535.851 58.2875M579.318 83.3827L538.223 107.108M576.946 34.5617L535.851 58.2875M576.946 34.5617L533.479 9.46647M535.851 58.2875L492.385 33.1922M535.851 58.2875L494.757 82.0132M533.479 9.46647L492.385 33.1922M533.479 9.46647L490.013 -15.6288M492.385 33.1922L448.919 8.09697M492.385 33.1922L451.291 56.9179M490.013 -15.6288L448.919 8.09697M490.013 -15.6288L446.547 -40.724M448.919 8.09697L405.453 -16.9983M448.919 8.09697L407.825 31.8227M446.547 -40.724L405.453 -16.9983M446.547 -40.724L403.081 -65.8192M405.453 -16.9983L361.986 -42.0935M405.453 -16.9983L364.359 6.72747M403.081 -65.8192L361.986 -42.0935M403.081 -65.8192L359.614 -90.9145M361.986 -42.0935L318.52 -67.1887M361.986 -42.0935L320.892 -18.3678M359.614 -90.9145L318.52 -67.1887M359.614 -90.9145L316.148 -116.01L275.054 -92.284M318.52 -67.1887L275.054 -92.284M318.52 -67.1887L277.426 -43.463M275.054 -92.284L233.96 -68.5582M929.42 332.966L972.886 358.061M929.42 332.966L885.953 307.87M929.42 332.966L888.325 356.691M972.886 358.061L931.792 381.787M885.953 307.87L842.487 282.775M885.953 307.87L844.859 331.596M842.487 282.775L799.021 257.68M842.487 282.775L801.393 306.501M799.021 257.68L755.555 232.585M799.021 257.68L757.927 281.406M755.555 232.585L712.088 207.489M755.555 232.585L714.46 256.31M712.088 207.489L668.622 182.394M712.088 207.489L670.994 231.215M668.622 182.394L625.156 157.299M668.622 182.394L627.528 206.12M625.156 157.299L581.69 132.204M625.156 157.299L584.062 181.025M581.69 132.204L538.223 107.108M581.69 132.204L540.596 155.929M538.223 107.108L494.757 82.0132M538.223 107.108L497.129 130.834M494.757 82.0132L451.291 56.9179M494.757 82.0132L453.663 105.739M451.291 56.9179L407.825 31.8227M451.291 56.9179L410.197 80.6437M407.825 31.8227L364.359 6.72747M407.825 31.8227L366.731 55.5484M364.359 6.72747L320.892 -18.3678M364.359 6.72747L323.264 30.4532M320.892 -18.3678L277.426 -43.463M320.892 -18.3678L279.798 5.35794M277.426 -43.463L233.96 -68.5582M277.426 -43.463L236.332 -19.7373M233.96 -68.5582L192.866 -44.8325M888.325 356.691L931.792 381.787M888.325 356.691L844.859 331.596M888.325 356.691L847.231 380.417M931.792 381.787L890.697 405.512M844.859 331.596L801.393 306.501M844.859 331.596L803.765 355.322M801.393 306.501L757.927 281.406M801.393 306.501L760.299 330.227M757.927 281.406L714.46 256.31M757.927 281.406L716.832 305.131M714.46 256.31L670.994 231.215M714.46 256.31L673.366 280.036M670.994 231.215L627.528 206.12M670.994 231.215L629.9 254.941M627.528 206.12L584.062 181.025M627.528 206.12L586.434 229.846M584.062 181.025L540.596 155.929M584.062 181.025L542.968 204.75M540.596 155.929L497.129 130.834M540.596 155.929L499.501 179.655M497.129 130.834L453.663 105.739M497.129 130.834L456.035 154.56M453.663 105.739L410.197 80.6437M453.663 105.739L412.569 129.465M410.197 80.6437L366.731 55.5484M410.197 80.6437L369.103 104.369M366.731 55.5484L323.264 30.4532M366.731 55.5484L325.636 79.2742M323.264 30.4532L279.798 5.35794M323.264 30.4532L282.17 54.1789M279.798 5.35794L236.332 -19.7373M279.798 5.35794L238.704 29.0837M236.332 -19.7373L192.866 -44.8325M236.332 -19.7373L195.238 3.98844M192.866 -44.8325L151.772 -21.1068M847.231 380.417L890.697 405.512M847.231 380.417L803.765 355.322M847.231 380.417L806.137 404.143M890.697 405.512L849.603 429.238M803.765 355.322L760.299 330.227M803.765 355.322L762.671 379.048M760.299 330.227L716.832 305.131M760.299 330.227L719.205 353.952M716.832 305.131L673.366 280.036M716.832 305.131L675.738 328.857M673.366 280.036L629.9 254.941M673.366 280.036L632.272 303.762M629.9 254.941L586.434 229.846M629.9 254.941L588.806 278.667M586.434 229.846L542.968 204.75M586.434 229.846L545.34 253.571M542.968 204.75L499.501 179.655M542.968 204.75L501.873 228.476M499.501 179.655L456.035 154.56M499.501 179.655L458.407 203.381M456.035 154.56L412.569 129.465M456.035 154.56L414.941 178.286M412.569 129.465L369.103 104.369M412.569 129.465L371.475 153.19M369.103 104.369L325.636 79.2742M369.103 104.369L328.008 128.095M325.636 79.2742L282.17 54.1789M325.636 79.2742L284.542 103M282.17 54.1789L238.704 29.0837M282.17 54.1789L241.076 77.9047M238.704 29.0837L195.238 3.98844M238.704 29.0837L197.61 52.8094M195.238 3.98844L151.772 -21.1068M195.238 3.98844L154.144 27.7142M151.772 -21.1068L110.677 2.61893M806.137 404.143L849.603 429.238M806.137 404.143L762.671 379.048M806.137 404.143L765.043 427.869M849.603 429.238L808.509 452.964M762.671 379.048L719.205 353.952M762.671 379.048L721.577 402.773M719.205 353.952L675.738 328.857M719.205 353.952L678.11 377.678M675.738 328.857L632.272 303.762M675.738 328.857L634.644 352.583M632.272 303.762L588.806 278.667M632.272 303.762L591.178 327.488M588.806 278.667L545.34 253.571M588.806 278.667L547.712 302.392M545.34 253.571L501.873 228.476M545.34 253.571L504.245 277.297M501.873 228.476L458.407 203.381M501.873 228.476L460.779 252.202M458.407 203.381L414.941 178.286M458.407 203.381L417.313 227.107M414.941 178.286L371.475 153.19M414.941 178.286L373.847 202.011M371.475 153.19L328.008 128.095M371.475 153.19L330.381 176.916M328.008 128.095L284.542 103M328.008 128.095L286.914 151.821M284.542 103L241.076 77.9047M284.542 103L243.448 126.726M241.076 77.9047L197.61 52.8094M241.076 77.9047L199.982 101.63M197.61 52.8094L154.144 27.7142M197.61 52.8094L156.516 76.5351M154.144 27.7142L110.677 2.61893M154.144 27.7142L113.049 51.4399M110.677 2.61893L69.5832 26.3447M765.043 427.869L808.509 452.964M765.043 427.869L721.577 402.773M765.043 427.869L723.949 451.594M808.509 452.964L767.415 476.689M721.577 402.773L678.11 377.678M721.577 402.773L680.482 426.499M678.11 377.678L634.644 352.583M678.11 377.678L637.016 401.404M634.644 352.583L591.178 327.488M634.644 352.583L593.55 376.309M591.178 327.488L547.712 302.392M591.178 327.488L550.084 351.213M547.712 302.392L504.245 277.297M547.712 302.392L506.618 326.118M504.245 277.297L460.779 252.202M504.245 277.297L463.151 301.023M460.779 252.202L417.313 227.107M460.779 252.202L419.685 275.928M417.313 227.107L373.847 202.011M417.313 227.107L376.219 250.832M373.847 202.011L330.381 176.916M373.847 202.011L332.753 225.737M330.381 176.916L286.914 151.821M330.381 176.916L289.286 200.642M286.914 151.821L243.448 126.726M286.914 151.821L245.82 175.547M243.448 126.726L199.982 101.63M243.448 126.726L202.354 150.451M199.982 101.63L156.516 76.5351M199.982 101.63L158.888 125.356M156.516 76.5351L113.049 51.4399M156.516 76.5351L115.421 100.261M113.049 51.4399L69.5832 26.3447M113.049 51.4399L71.9552 75.1656M69.5832 26.3447L28.489 50.0704M723.949 451.594L767.415 476.689M723.949 451.594L680.482 426.499M723.949 451.594L682.854 475.32M767.415 476.689L726.321 500.415M680.482 426.499L637.016 401.404M680.482 426.499L639.388 450.225M637.016 401.404L593.55 376.309M637.016 401.404L595.922 425.129M593.55 376.309L550.084 351.213M593.55 376.309L552.456 400.034M550.084 351.213L506.618 326.118M550.084 351.213L508.99 374.939M506.618 326.118L463.151 301.023M506.618 326.118L465.523 349.844M463.151 301.023L419.685 275.928M463.151 301.023L422.057 324.749M419.685 275.928L376.219 250.832M419.685 275.928L378.591 299.653M376.219 250.832L332.753 225.737M376.219 250.832L335.125 274.558M332.753 225.737L289.286 200.642M332.753 225.737L291.658 249.463M289.286 200.642L245.82 175.547M289.286 200.642L248.192 224.368M245.82 175.547L202.354 150.451M245.82 175.547L204.726 199.272M202.354 150.451L158.888 125.356M202.354 150.451L161.26 174.177M158.888 125.356L115.421 100.261M158.888 125.356L117.794 149.082M115.421 100.261L71.9552 75.1656M115.421 100.261L74.3273 123.987M71.9552 75.1656L28.489 50.0704M71.9552 75.1656L30.8611 98.8914M28.489 50.0704L-12.6052 73.7961M682.854 475.32L726.321 500.415M682.854 475.32L639.388 450.225M682.854 475.32L641.76 499.046M726.321 500.415L685.227 524.141M639.388 450.225L595.922 425.129M639.388 450.225L598.294 473.95M595.922 425.129L552.456 400.034M595.922 425.129L554.828 448.855M552.456 400.034L508.99 374.939M552.456 400.034L511.362 423.76M508.99 374.939L465.523 349.844M508.99 374.939L467.895 398.665M465.523 349.844L422.057 324.749M465.523 349.844L424.429 373.569M422.057 324.749L378.591 299.653M422.057 324.749L380.963 348.474M378.591 299.653L335.125 274.558M378.591 299.653L337.497 323.379M335.125 274.558L291.658 249.463M335.125 274.558L294.03 298.284M291.658 249.463L248.192 224.368M291.658 249.463L250.564 273.189M248.192 224.368L204.726 199.272M248.192 224.368L207.098 248.093M204.726 199.272L161.26 174.177M204.726 199.272L163.632 222.998M161.26 174.177L117.794 149.082M161.26 174.177L120.166 197.903M117.794 149.082L74.3273 123.987M117.794 149.082L76.6994 172.808M74.3273 123.987L30.8611 98.8914M74.3273 123.987L33.2331 147.712M30.8611 98.8914L-12.6052 73.7961M30.8611 98.8914L-10.2331 122.617M-12.6052 73.7961L-53.6993 97.5219M641.76 499.046L685.227 524.141M641.76 499.046L598.294 473.95M641.76 499.046L600.666 522.771M685.227 524.141L644.132 547.867M598.294 473.95L554.828 448.855M598.294 473.95L557.2 497.676M554.828 448.855L511.362 423.76M554.828 448.855L513.734 472.581M511.362 423.76L467.895 398.665M511.362 423.76L470.267 447.486M467.895 398.665L424.429 373.569M467.895 398.665L426.801 422.39M424.429 373.569L380.963 348.474M424.429 373.569L383.335 397.295M380.963 348.474L337.497 323.379M380.963 348.474L339.869 372.2M337.497 323.379L294.03 298.284M337.497 323.379L296.403 347.105M294.03 298.284L250.564 273.189M294.03 298.284L252.936 322.009M250.564 273.189L207.098 248.093M250.564 273.189L209.47 296.914M207.098 248.093L163.632 222.998M207.098 248.093L166.004 271.819M163.632 222.998L120.166 197.903M163.632 222.998L122.538 246.724M120.166 197.903L76.6994 172.808M120.166 197.903L79.0714 221.629M76.6994 172.808L33.2331 147.712M76.6994 172.808L35.6052 196.533M33.2331 147.712L-10.2331 122.617M33.2331 147.712L-7.86105 171.438M-10.2331 122.617L-53.6993 97.5219M-10.2331 122.617L-51.3273 146.343M-53.6993 97.5219L-94.7935 121.248M600.666 522.771L644.132 547.867M600.666 522.771L557.2 497.676M600.666 522.771L559.572 546.497M644.132 547.867L603.038 571.592M557.2 497.676L513.734 472.581M557.2 497.676L516.106 521.402M513.734 472.581L470.267 447.486M513.734 472.581L472.639 496.307M470.267 447.486L426.801 422.39M470.267 447.486L429.173 471.211M426.801 422.39L383.335 397.295M426.801 422.39L385.707 446.116M383.335 397.295L339.869 372.2M383.335 397.295L342.241 421.021M339.869 372.2L296.403 347.105M339.869 372.2L298.775 395.926M296.403 347.105L252.936 322.009M296.403 347.105L255.308 370.83M252.936 322.009L209.47 296.914M252.936 322.009L211.842 345.735M209.47 296.914L166.004 271.819M209.47 296.914L168.376 320.64M166.004 271.819L122.538 246.724M166.004 271.819L124.91 295.545M122.538 246.724L79.0714 221.629M122.538 246.724L81.4434 270.449M79.0714 221.629L35.6052 196.533M79.0714 221.629L37.9772 245.354M35.6052 196.533L-7.86105 171.438M35.6052 196.533L-5.48899 220.259M-7.86105 171.438L-51.3273 146.343M-7.86105 171.438L-48.9553 195.164M-51.3273 146.343L-94.7935 121.248M-51.3273 146.343L-92.4215 170.069M-94.7935 121.248L-135.888 144.973M559.572 546.497L603.038 571.592M559.572 546.497L516.106 521.402M559.572 546.497L518.478 570.223M603.038 571.592L561.944 595.318L518.478 570.223M516.106 521.402L472.639 496.307M516.106 521.402L475.012 545.128M472.639 496.307L429.173 471.211M472.639 496.307L431.545 520.032M429.173 471.211L385.707 446.116M429.173 471.211L388.079 494.937M385.707 446.116L342.241 421.021M385.707 446.116L344.613 469.842M342.241 421.021L298.775 395.926M342.241 421.021L301.147 444.747M298.775 395.926L255.308 370.83M298.775 395.926L257.68 419.651M255.308 370.83L211.842 345.735M255.308 370.83L214.214 394.556M211.842 345.735L168.376 320.64M211.842 345.735L170.748 369.461M168.376 320.64L124.91 295.545M168.376 320.64L127.282 344.366M124.91 295.545L81.4434 270.449M124.91 295.545L83.8155 319.27M81.4434 270.449L37.9772 245.354M81.4434 270.449L40.3493 294.175M37.9772 245.354L-5.48899 220.259M37.9772 245.354L-3.11694 269.08M-5.48899 220.259L-48.9553 195.164M-5.48899 220.259L-46.5831 243.985M-48.9553 195.164L-92.4215 170.069M-48.9553 195.164L-90.0494 218.889M-92.4215 170.069L-135.888 144.973M-92.4215 170.069L-133.516 193.794M-135.888 144.973L-176.982 168.699L-133.516 193.794M518.478 570.223L475.012 545.128M475.012 545.128L431.545 520.032M431.545 520.032L388.079 494.937M388.079 494.937L344.613 469.842M344.613 469.842L301.147 444.747M301.147 444.747L257.68 419.651M257.68 419.651L214.214 394.556M214.214 394.556L170.748 369.461M170.748 369.461L127.282 344.366M127.282 344.366L83.8155 319.27M83.8155 319.27L40.3493 294.175M40.3493 294.175L-3.11694 269.08M-3.11694 269.08L-46.5831 243.985M-46.5831 243.985L-90.0494 218.889M-90.0494 218.889L-133.516 193.794" stroke="url(#paint0_radial_411_11749)" stroke-opacity="0.85"/>
<g filter="url(#filter0_f_411_11749)">
<circle cx="220.782" cy="220.782" r="220.782" transform="matrix(0.866025 -0.5 0.866025 0.5 -142.031 213.781)" fill="#003323" fill-opacity="0.3"/>
<circle cx="220.782" cy="220.782" r="220.575" transform="matrix(0.866025 -0.5 0.866025 0.5 -142.031 213.781)" stroke="url(#paint1_radial_411_11749)" stroke-opacity="0.85" stroke-width="0.413063"/>
</g>
</g>
<rect width="78" height="174" rx="4" transform="matrix(0.866025 -0.5 0.866025 0.5 72.2891 42.5)" fill="white"/>
<rect width="78" height="174" rx="4" transform="matrix(0.866025 -0.5 0.866025 0.5 72.2891 42.5)" fill="#003323" fill-opacity="0.3"/>
<rect x="-1.73205" width="80" height="176" rx="5" transform="matrix(0.866025 -0.5 0.866025 0.5 71.057 32.634)" fill="white"/>
<rect x="-1.73205" width="80" height="176" rx="5" transform="matrix(0.866025 -0.5 0.866025 0.5 71.057 32.634)" stroke="white" stroke-width="2"/>
<rect x="-1.73205" width="80" height="176" rx="5" transform="matrix(0.866025 -0.5 0.866025 0.5 71.057 32.634)" stroke="#003323" stroke-opacity="0.2" stroke-width="2"/>
<rect width="18" height="6" rx="3" transform="matrix(0.866025 -0.5 0.866025 0.5 101.953 19.5)" fill="#003323" fill-opacity="0.2"/>
<rect width="70" height="28" rx="2" transform="matrix(0.866025 -0.5 0.866025 0.5 89.4766 40)" fill="#003323" fill-opacity="0.2"/>
<rect width="70" height="10" rx="2" transform="matrix(0.866025 -0.5 0.866025 0.5 213.316 111.5)" fill="white"/>
<rect width="70" height="10" rx="2" transform="matrix(0.866025 -0.5 0.866025 0.5 213.316 111.5)" fill="#003323" fill-opacity="0.4"/>
<rect width="16" height="3" rx="1.5" transform="matrix(0.866025 -0.5 0.866025 0.5 122.383 59)" fill="#003323" fill-opacity="0.2"/>
<rect width="70" height="3" rx="1.5" transform="matrix(0.866025 -0.5 0.866025 0.5 202.926 105.5)" fill="#003323" fill-opacity="0.2"/>
<rect width="26" height="3" rx="1.5" transform="matrix(0.866025 -0.5 0.866025 0.5 207.254 108)" fill="#003323" fill-opacity="0.2"/>
<rect width="70" height="13" rx="2" transform="matrix(0.866025 -0.5 0.866025 0.5 126.715 61.5)" fill="#003323" fill-opacity="0.2"/>
<path d="M139.577 63.0277L138.09 62.0881L137.621 63.3345L136.518 63.1619L137.201 61.9453L135.093 62.3395L134.794 61.7024L136.953 61.4318L135.326 60.5732L136.127 60.1108L137.614 61.0504L138.083 59.804L139.186 59.9766L138.503 61.1932L140.611 60.799L140.91 61.4361L138.751 61.7067L140.378 62.5653L139.577 63.0277Z" fill="white"/>
<path d="M139.577 63.0277L138.09 62.0881L137.621 63.3345L136.518 63.1619L137.201 61.9453L135.093 62.3395L134.794 61.7024L136.953 61.4318L135.326 60.5732L136.127 60.1108L137.614 61.0504L138.083 59.804L139.186 59.9766L138.503 61.1932L140.611 60.799L140.91 61.4361L138.751 61.7067L140.378 62.5653L139.577 63.0277Z" fill="#003323" fill-opacity="0.4"/>
<path d="M147.134 58.6605L145.647 57.7209L145.178 58.9673L144.075 58.7947L144.758 57.5781L142.65 57.9723L142.351 57.3352L144.51 57.0646L142.883 56.206L143.684 55.7436L145.171 56.6832L145.64 55.4368L146.743 55.6094L146.06 56.826L148.167 56.4318L148.466 57.0689L146.307 57.3395L147.935 58.1982L147.134 58.6605Z" fill="white"/>
<path d="M147.134 58.6605L145.647 57.7209L145.178 58.9673L144.075 58.7947L144.758 57.5781L142.65 57.9723L142.351 57.3352L144.51 57.0646L142.883 56.206L143.684 55.7436L145.171 56.6832L145.64 55.4368L146.743 55.6094L146.06 56.826L148.167 56.4318L148.466 57.0689L146.307 57.3395L147.935 58.1982L147.134 58.6605Z" fill="#003323" fill-opacity="0.4"/>
<path d="M154.691 54.3011L153.204 53.3615L152.735 54.608L151.632 54.4354L152.314 53.2187L150.207 53.6129L149.908 52.9759L152.067 52.7053L150.44 51.8466L151.24 51.3842L152.728 52.3239L153.196 51.0774L154.3 51.25L153.617 52.4666L155.724 52.0724L156.023 52.7095L153.864 52.9801L155.492 53.8388L154.691 54.3011Z" fill="white"/>
<path d="M154.691 54.3011L153.204 53.3615L152.735 54.608L151.632 54.4354L152.314 53.2187L150.207 53.6129L149.908 52.9759L152.067 52.7053L150.44 51.8466L151.24 51.3842L152.728 52.3239L153.196 51.0774L154.3 51.25L153.617 52.4666L155.724 52.0724L156.023 52.7095L153.864 52.9801L155.492 53.8388L154.691 54.3011Z" fill="#003323" fill-opacity="0.4"/>
<path d="M162.248 49.9418L160.761 49.0021L160.292 50.2486L159.188 50.076L159.871 48.8594L157.764 49.2536L157.465 48.6165L159.624 48.3459L157.996 47.4872L158.797 47.0249L160.284 47.9645L160.753 46.718L161.857 46.8906L161.174 48.1072L163.281 47.7131L163.58 48.3501L161.421 48.6207L163.049 49.4794L162.248 49.9418Z" fill="white"/>
<path d="M162.248 49.9418L160.761 49.0021L160.292 50.2486L159.188 50.076L159.871 48.8594L157.764 49.2536L157.465 48.6165L159.624 48.3459L157.996 47.4872L158.797 47.0249L160.284 47.9645L160.753 46.718L161.857 46.8906L161.174 48.1072L163.281 47.7131L163.58 48.3501L161.421 48.6207L163.049 49.4794L162.248 49.9418Z" fill="#003323" fill-opacity="0.4"/>
<path d="M169.805 45.5746L168.317 44.6349L167.849 45.8814L166.745 45.7088L167.428 44.4922L165.321 44.8864L165.022 44.2493L167.181 43.9787L165.553 43.12L166.354 42.6577L167.841 43.5973L168.31 42.3509L169.413 42.5234L168.731 43.7401L170.838 43.3459L171.137 43.983L168.978 44.2536L170.605 45.1122L169.805 45.5746Z" fill="white"/>
<path d="M169.805 45.5746L168.317 44.6349L167.849 45.8814L166.745 45.7088L167.428 44.4922L165.321 44.8864L165.022 44.2493L167.181 43.9787L165.553 43.12L166.354 42.6577L167.841 43.5973L168.31 42.3509L169.413 42.5234L168.731 43.7401L170.838 43.3459L171.137 43.983L168.978 44.2536L170.605 45.1122L169.805 45.5746Z" fill="#003323" fill-opacity="0.4"/>
<path d="M177.361 41.2152L175.874 40.2756L175.405 41.522L174.302 41.3494L174.985 40.1328L172.877 40.527L172.579 39.8899L174.737 39.6193L173.11 38.7607L173.911 38.2983L175.398 39.2379L175.867 37.9915L176.97 38.1641L176.287 39.3807L178.395 38.9865L178.694 39.6236L176.535 39.8942L178.162 40.7528L177.361 41.2152Z" fill="white"/>
<path d="M177.361 41.2152L175.874 40.2756L175.405 41.522L174.302 41.3494L174.985 40.1328L172.877 40.527L172.579 39.8899L174.737 39.6193L173.11 38.7607L173.911 38.2983L175.398 39.2379L175.867 37.9915L176.97 38.1641L176.287 39.3807L178.395 38.9865L178.694 39.6236L176.535 39.8942L178.162 40.7528L177.361 41.2152Z" fill="#003323" fill-opacity="0.4"/>
<rect width="1.04402" height="16" transform="matrix(0.866025 -0.5 0.866025 0.5 172.573 12.0234)" fill="white"/>
<rect width="1.04402" height="16" transform="matrix(0.866025 -0.5 0.866025 0.5 172.573 12.0234)" fill="#003323" fill-opacity="0.2"/>
<rect width="0.975185" height="16" transform="matrix(0.866025 -0.5 0.866025 0.5 239.32 50.4922)" fill="white"/>
<rect width="0.975185" height="16" transform="matrix(0.866025 -0.5 0.866025 0.5 239.32 50.4922)" fill="#003323" fill-opacity="0.2"/>
<rect width="0.896608" height="16" transform="matrix(0.866025 -0.5 0.866025 0.5 101.602 54)" fill="white"/>
<rect width="0.896608" height="16" transform="matrix(0.866025 -0.5 0.866025 0.5 101.602 54)" fill="#003323" fill-opacity="0.2"/>
<rect width="52.25" height="14" rx="2" transform="matrix(0.866025 0.5 0 1 255 15)" fill="#FAFAF9"/>
<path d="M260.503 28.1771L260.575 25.9271L258.897 26.1875L258.464 25.0625L260.232 25.0208L258.464 22.9375L258.897 22.3125L260.575 24.5104L260.503 22.1771L261.369 22.6771L261.297 24.9271L262.975 24.6667L263.408 25.7917L261.64 25.8333L263.408 27.9167L262.975 28.5417L261.297 26.3437L261.369 28.6771L260.503 28.1771Z" fill="white"/>
<path d="M260.503 28.1771L260.575 25.9271L258.897 26.1875L258.464 25.0625L260.232 25.0208L258.464 22.9375L258.897 22.3125L260.575 24.5104L260.503 22.1771L261.369 22.6771L261.297 24.9271L262.975 24.6667L263.408 25.7917L261.64 25.8333L263.408 27.9167L262.975 28.5417L261.297 26.3437L261.369 28.6771L260.503 28.1771Z" fill="#003323" fill-opacity="0.5"/>
<path d="M267.179 32.0286L267.251 29.7786L265.573 30.0391L265.14 28.9141L266.908 28.8724L265.14 26.7891L265.573 26.1641L267.251 28.362L267.179 26.0286L268.045 26.5286L267.972 28.7786L269.65 28.5182L270.083 29.6432L268.315 29.6849L270.083 31.7682L269.65 32.3932L267.972 30.1953L268.045 32.5286L267.179 32.0286Z" fill="white"/>
<path d="M267.179 32.0286L267.251 29.7786L265.573 30.0391L265.14 28.9141L266.908 28.8724L265.14 26.7891L265.573 26.1641L267.251 28.362L267.179 26.0286L268.045 26.5286L267.972 28.7786L269.65 28.5182L270.083 29.6432L268.315 29.6849L270.083 31.7682L269.65 32.3932L267.972 30.1953L268.045 32.5286L267.179 32.0286Z" fill="#003323" fill-opacity="0.5"/>
<path d="M273.854 35.888L273.926 33.638L272.248 33.8984L271.815 32.7734L273.583 32.7318L271.815 30.6484L272.248 30.0234L273.926 32.2214L273.854 29.888L274.72 30.388L274.648 32.638L276.326 32.3776L276.759 33.5026L274.991 33.5443L276.759 35.6276L276.326 36.2526L274.648 34.0547L274.72 36.388L273.854 35.888Z" fill="white"/>
<path d="M273.854 35.888L273.926 33.638L272.248 33.8984L271.815 32.7734L273.583 32.7318L271.815 30.6484L272.248 30.0234L273.926 32.2214L273.854 29.888L274.72 30.388L274.648 32.638L276.326 32.3776L276.759 33.5026L274.991 33.5443L276.759 35.6276L276.326 36.2526L274.648 34.0547L274.72 36.388L273.854 35.888Z" fill="#003323" fill-opacity="0.5"/>
<path d="M280.53 39.7396L280.602 37.4896L278.924 37.75L278.491 36.625L280.259 36.5833L278.491 34.5L278.924 33.875L280.602 36.0729L280.53 33.7396L281.396 34.2396L281.324 36.4896L283.002 36.2292L283.435 37.3542L281.666 37.3958L283.435 39.4792L283.002 40.1042L281.324 37.9062L281.396 40.2396L280.53 39.7396Z" fill="white"/>
<path d="M280.53 39.7396L280.602 37.4896L278.924 37.75L278.491 36.625L280.259 36.5833L278.491 34.5L278.924 33.875L280.602 36.0729L280.53 33.7396L281.396 34.2396L281.324 36.4896L283.002 36.2292L283.435 37.3542L281.666 37.3958L283.435 39.4792L283.002 40.1042L281.324 37.9062L281.396 40.2396L280.53 39.7396Z" fill="#003323" fill-opacity="0.5"/>
<path d="M287.205 43.5911L287.277 41.3411L285.6 41.6016L285.167 40.4766L286.935 40.4349L285.167 38.3516L285.6 37.7266L287.277 39.9245L287.205 37.5911L288.071 38.0911L287.999 40.3411L289.677 40.0807L290.11 41.2057L288.342 41.2474L290.11 43.3307L289.677 43.9557L287.999 41.7578L288.071 44.0911L287.205 43.5911Z" fill="white"/>
<path d="M287.205 43.5911L287.277 41.3411L285.6 41.6016L285.167 40.4766L286.935 40.4349L285.167 38.3516L285.6 37.7266L287.277 39.9245L287.205 37.5911L288.071 38.0911L287.999 40.3411L289.677 40.0807L290.11 41.2057L288.342 41.2474L290.11 43.3307L289.677 43.9557L287.999 41.7578L288.071 44.0911L287.205 43.5911Z" fill="#003323" fill-opacity="0.5"/>
<path d="M293.881 47.4505L293.953 45.2005L292.275 45.4609L291.842 44.3359L293.61 44.2943L291.842 42.2109L292.275 41.5859L293.953 43.7839L293.881 41.4505L294.747 41.9505L294.675 44.2005L296.353 43.9401L296.786 45.0651L295.018 45.1068L296.786 47.1901L296.353 47.8151L294.675 45.6172L294.747 47.9505L293.881 47.4505Z" fill="white"/>
<path d="M293.881 47.4505L293.953 45.2005L292.275 45.4609L291.842 44.3359L293.61 44.2943L291.842 42.2109L292.275 41.5859L293.953 43.7839L293.881 41.4505L294.747 41.9505L294.675 44.2005L296.353 43.9401L296.786 45.0651L295.018 45.1068L296.786 47.1901L296.353 47.8151L294.675 45.6172L294.747 47.9505L293.881 47.4505Z" fill="#003323" fill-opacity="0.5"/>
<rect width="29.125" height="14" rx="2" transform="matrix(0.866025 0.5 0 1 30 -27)" fill="#FAFAF9"/>
<rect width="52.25" height="14" rx="2" transform="matrix(0.866025 0.5 0 1 38 69)" fill="#FAFAF9"/>
<path d="M43.5029 82.1771L43.575 79.9271L41.8971 80.1875L41.4641 79.0625L43.2322 79.0208L41.4641 76.9375L41.8971 76.3125L43.575 78.5104L43.5029 76.1771L44.3689 76.6771L44.2967 78.9271L45.9747 78.6667L46.4077 79.7917L44.6395 79.8333L46.4077 81.9167L45.9747 82.5417L44.2967 80.3437L44.3689 82.6771L43.5029 82.1771Z" fill="white"/>
<path d="M43.5029 82.1771L43.575 79.9271L41.8971 80.1875L41.4641 79.0625L43.2322 79.0208L41.4641 76.9375L41.8971 76.3125L43.575 78.5104L43.5029 76.1771L44.3689 76.6771L44.2967 78.9271L45.9747 78.6667L46.4077 79.7917L44.6395 79.8333L46.4077 81.9167L45.9747 82.5417L44.2967 80.3437L44.3689 82.6771L43.5029 82.1771Z" fill="#003323" fill-opacity="0.5"/>
<path d="M50.1784 86.0286L50.2506 83.7786L48.5727 84.0391L48.1396 82.9141L49.9078 82.8724L48.1396 80.7891L48.5727 80.1641L50.2506 82.362L50.1784 80.0286L51.0444 80.5286L50.9723 82.7786L52.6502 82.5182L53.0832 83.6432L51.3151 83.6849L53.0832 85.7682L52.6502 86.3932L50.9723 84.1953L51.0444 86.5286L50.1784 86.0286Z" fill="white"/>
<path d="M50.1784 86.0286L50.2506 83.7786L48.5727 84.0391L48.1396 82.9141L49.9078 82.8724L48.1396 80.7891L48.5727 80.1641L50.2506 82.362L50.1784 80.0286L51.0444 80.5286L50.9723 82.7786L52.6502 82.5182L53.0832 83.6432L51.3151 83.6849L53.0832 85.7682L52.6502 86.3932L50.9723 84.1953L51.0444 86.5286L50.1784 86.0286Z" fill="#003323" fill-opacity="0.5"/>
<path d="M56.8542 89.888L56.9264 87.638L55.2484 87.8984L54.8154 86.7734L56.5836 86.7318L54.8154 84.6484L55.2484 84.0234L56.9264 86.2214L56.8542 83.888L57.7202 84.388L57.6481 86.638L59.326 86.3776L59.759 87.5026L57.9909 87.5443L59.759 89.6276L59.326 90.2526L57.6481 88.0547L57.7202 90.388L56.8542 89.888Z" fill="white"/>
<path d="M56.8542 89.888L56.9264 87.638L55.2484 87.8984L54.8154 86.7734L56.5836 86.7318L54.8154 84.6484L55.2484 84.0234L56.9264 86.2214L56.8542 83.888L57.7202 84.388L57.6481 86.638L59.326 86.3776L59.759 87.5026L57.9909 87.5443L59.759 89.6276L59.326 90.2526L57.6481 88.0547L57.7202 90.388L56.8542 89.888Z" fill="#003323" fill-opacity="0.5"/>
<path d="M63.5297 93.7396L63.6019 91.4896L61.924 91.75L61.491 90.625L63.2591 90.5833L61.491 88.5L61.924 87.875L63.6019 90.0729L63.5297 87.7396L64.3958 88.2396L64.3236 90.4896L66.0015 90.2292L66.4345 91.3542L64.6664 91.3958L66.4345 93.4792L66.0015 94.1042L64.3236 91.9062L64.3958 94.2396L63.5297 93.7396Z" fill="white"/>
<path d="M63.5297 93.7396L63.6019 91.4896L61.924 91.75L61.491 90.625L63.2591 90.5833L61.491 88.5L61.924 87.875L63.6019 90.0729L63.5297 87.7396L64.3958 88.2396L64.3236 90.4896L66.0015 90.2292L66.4345 91.3542L64.6664 91.3958L66.4345 93.4792L66.0015 94.1042L64.3236 91.9062L64.3958 94.2396L63.5297 93.7396Z" fill="#003323" fill-opacity="0.5"/>
<path d="M70.2053 97.5911L70.2774 95.3411L68.5995 95.6016L68.1665 94.4766L69.9346 94.4349L68.1665 92.3516L68.5995 91.7266L70.2774 93.9245L70.2053 91.5911L71.0713 92.0911L70.9991 94.3411L72.6771 94.0807L73.1101 95.2057L71.3419 95.2474L73.1101 97.3307L72.6771 97.9557L70.9991 95.7578L71.0713 98.0911L70.2053 97.5911Z" fill="white"/>
<path d="M70.2053 97.5911L70.2774 95.3411L68.5995 95.6016L68.1665 94.4766L69.9346 94.4349L68.1665 92.3516L68.5995 91.7266L70.2774 93.9245L70.2053 91.5911L71.0713 92.0911L70.9991 94.3411L72.6771 94.0807L73.1101 95.2057L71.3419 95.2474L73.1101 97.3307L72.6771 97.9557L70.9991 95.7578L71.0713 98.0911L70.2053 97.5911Z" fill="#003323" fill-opacity="0.5"/>
<path d="M76.8811 101.451L76.9532 99.2005L75.2753 99.4609L74.8423 98.3359L76.6104 98.2943L74.8423 96.2109L75.2753 95.5859L76.9532 97.7839L76.8811 95.4505L77.7471 95.9505L77.6749 98.2005L79.3528 97.9401L79.7858 99.0651L78.0177 99.1068L79.7858 101.19L79.3528 101.815L77.6749 99.6172L77.7471 101.951L76.8811 101.451Z" fill="white"/>
<path d="M76.8811 101.451L76.9532 99.2005L75.2753 99.4609L74.8423 98.3359L76.6104 98.2943L74.8423 96.2109L75.2753 95.5859L76.9532 97.7839L76.8811 95.4505L77.7471 95.9505L77.6749 98.2005L79.3528 97.9401L79.7858 99.0651L78.0177 99.1068L79.7858 101.19L79.3528 101.815L77.6749 99.6172L77.7471 101.951L76.8811 101.451Z" fill="#003323" fill-opacity="0.5"/>
<rect width="52.25" height="14" rx="2" transform="matrix(0.866025 0.5 0 1 29 -17)" fill="#FAFAF9"/>
<path d="M41.1784 0.0286455L41.2506 -2.22135L39.5727 -1.96094L39.1396 -3.08594L40.9078 -3.1276L39.1396 -5.21094L39.5727 -5.83594L41.2506 -3.63802L41.1784 -5.97135L42.0444 -5.47135L41.9723 -3.22135L43.6502 -3.48177L44.0832 -2.35677L42.3151 -2.3151L44.0832 -0.231771L43.6502 0.393229L41.9723 -1.80469L42.0444 0.528646L41.1784 0.0286455Z" fill="white"/>
<path d="M41.1784 0.0286455L41.2506 -2.22135L39.5727 -1.96094L39.1396 -3.08594L40.9078 -3.1276L39.1396 -5.21094L39.5727 -5.83594L41.2506 -3.63802L41.1784 -5.97135L42.0444 -5.47135L41.9723 -3.22135L43.6502 -3.48177L44.0832 -2.35677L42.3151 -2.3151L44.0832 -0.231771L43.6502 0.393229L41.9723 -1.80469L42.0444 0.528646L41.1784 0.0286455Z" fill="#003323" fill-opacity="0.5"/>
<path d="M47.8542 3.88802L47.9264 1.63802L46.2484 1.89844L45.8154 0.773437L47.5836 0.73177L45.8154 -1.35156L46.2484 -1.97656L47.9264 0.221354L47.8542 -2.11198L48.7202 -1.61198L48.6481 0.638021L50.326 0.377604L50.759 1.5026L48.9909 1.54427L50.759 3.6276L50.326 4.2526L48.6481 2.05469L48.7202 4.38802L47.8542 3.88802Z" fill="white"/>
<path d="M47.8542 3.88802L47.9264 1.63802L46.2484 1.89844L45.8154 0.773437L47.5836 0.73177L45.8154 -1.35156L46.2484 -1.97656L47.9264 0.221354L47.8542 -2.11198L48.7202 -1.61198L48.6481 0.638021L50.326 0.377604L50.759 1.5026L48.9909 1.54427L50.759 3.6276L50.326 4.2526L48.6481 2.05469L48.7202 4.38802L47.8542 3.88802Z" fill="#003323" fill-opacity="0.5"/>
<path d="M54.5297 7.73958L54.6019 5.48958L52.924 5.75L52.491 4.625L54.2591 4.58333L52.491 2.5L52.924 1.875L54.6019 4.07292L54.5297 1.73958L55.3958 2.23958L55.3236 4.48958L57.0015 4.22917L57.4345 5.35417L55.6664 5.39583L57.4345 7.47917L57.0015 8.10417L55.3236 5.90625L55.3958 8.23958L54.5297 7.73958Z" fill="white"/>
<path d="M54.5297 7.73958L54.6019 5.48958L52.924 5.75L52.491 4.625L54.2591 4.58333L52.491 2.5L52.924 1.875L54.6019 4.07292L54.5297 1.73958L55.3958 2.23958L55.3236 4.48958L57.0015 4.22917L57.4345 5.35417L55.6664 5.39583L57.4345 7.47917L57.0015 8.10417L55.3236 5.90625L55.3958 8.23958L54.5297 7.73958Z" fill="#003323" fill-opacity="0.5"/>
<path d="M61.2053 11.5911L61.2774 9.34115L59.5995 9.60156L59.1665 8.47656L60.9346 8.4349L59.1665 6.35156L59.5995 5.72656L61.2774 7.92448L61.2053 5.59115L62.0713 6.09115L61.9991 8.34115L63.6771 8.08073L64.1101 9.20573L62.3419 9.2474L64.1101 11.3307L63.6771 11.9557L61.9991 9.75781L62.0713 12.0911L61.2053 11.5911Z" fill="white"/>
<path d="M61.2053 11.5911L61.2774 9.34115L59.5995 9.60156L59.1665 8.47656L60.9346 8.4349L59.1665 6.35156L59.5995 5.72656L61.2774 7.92448L61.2053 5.59115L62.0713 6.09115L61.9991 8.34115L63.6771 8.08073L64.1101 9.20573L62.3419 9.2474L64.1101 11.3307L63.6771 11.9557L61.9991 9.75781L62.0713 12.0911L61.2053 11.5911Z" fill="#003323" fill-opacity="0.5"/>
<path d="M67.8811 15.4505L67.9532 13.2005L66.2753 13.4609L65.8423 12.3359L67.6104 12.2943L65.8423 10.2109L66.2753 9.58594L67.9532 11.7839L67.8811 9.45052L68.7471 9.95052L68.6749 12.2005L70.3528 11.9401L70.7858 13.0651L69.0177 13.1068L70.7858 15.1901L70.3528 15.8151L68.6749 13.6172L68.7471 15.9505L67.8811 15.4505Z" fill="white"/>
<path d="M67.8811 15.4505L67.9532 13.2005L66.2753 13.4609L65.8423 12.3359L67.6104 12.2943L65.8423 10.2109L66.2753 9.58594L67.9532 11.7839L67.8811 9.45052L68.7471 9.95052L68.6749 12.2005L70.3528 11.9401L70.7858 13.0651L69.0177 13.1068L70.7858 15.1901L70.3528 15.8151L68.6749 13.6172L68.7471 15.9505L67.8811 15.4505Z" fill="#003323" fill-opacity="0.5"/>
</g>
<defs>
<filter id="filter0_f_411_11749" x="-173.773" y="-86.0817" width="828.295" height="599.726" filterUnits="userSpaceOnUse" color-interpolation-filters="sRGB">
<feFlood flood-opacity="0" result="BackgroundImageFix"/>
<feBlend mode="normal" in="SourceGraphic" in2="BackgroundImageFix" result="shape"/>
<feGaussianBlur stdDeviation="71.8729" result="effect1_foregroundBlur_411_11749"/>
</filter>
<radialGradient id="paint0_radial_411_11749" cx="0" cy="0" r="1" gradientTransform="matrix(-396.354 15.6045 336.372 533.023 227.49 152.66)" gradientUnits="userSpaceOnUse">
<stop stop-color="#003323" stop-opacity="0.4"/>
<stop offset="0.424906" stop-color="#003323" stop-opacity="0.1"/>
</radialGradient>
<radialGradient id="paint1_radial_411_11749" cx="0" cy="0" r="1" gradientTransform="matrix(110.35 189.555 -376.351 262.742 329.013 248.038)" gradientUnits="userSpaceOnUse">
<stop stop-color="#003323" stop-opacity="0.4"/>
<stop offset="0.424906" stop-color="#003323" stop-opacity="0.1"/>
</radialGradient>
<clipPath id="clip0_411_11749">
<path d="M0 8C0 3.58172 3.58172 0 8 0H320C324.418 0 328 3.58172 328 8V100C328 104.418 324.418 108 320 108H7.99999C3.58171 108 0 104.418 0 100V8Z" fill="white"/>
</clipPath>
</defs>
</svg>
