<svg width="328" height="108" viewBox="0 0 328 108" fill="none" xmlns="http://www.w3.org/2000/svg">
<g clip-path="url(#clip0_415_12584)">
<path d="M0 8C0 3.58172 3.58172 0 8 0H320C324.418 0 328 3.58172 328 8V100C328 104.418 324.418 108 320 108H7.99999C3.58171 108 0 104.418 0 100V8Z" fill="#F5F5F4"/>
<g opacity="0.4">
<path d="M995.604 285.506L1039.07 310.602L997.976 334.327M995.604 285.506L954.51 309.232M995.604 285.506L952.138 260.411M954.51 309.232L997.976 334.327M954.51 309.232L911.044 284.137M954.51 309.232L913.416 332.958M997.976 334.327L956.882 358.053M952.138 260.411L911.044 284.137M952.138 260.411L908.672 235.316M911.044 284.137L867.578 259.042M911.044 284.137L869.95 307.863M908.672 235.316L867.578 259.042M908.672 235.316L865.206 210.221M867.578 259.042L824.111 233.946M867.578 259.042L826.484 282.767M865.206 210.221L824.111 233.946M865.206 210.221L821.739 185.125M824.111 233.946L780.645 208.851M824.111 233.946L783.017 257.672M821.739 185.125L780.645 208.851M821.739 185.125L778.273 160.03M780.645 208.851L737.179 183.756M780.645 208.851L739.551 232.577M778.273 160.03L737.179 183.756M778.273 160.03L734.807 134.935M737.179 183.756L693.713 158.661M737.179 183.756L696.085 207.482M734.807 134.935L693.713 158.661M734.807 134.935L691.341 109.84M693.713 158.661L650.247 133.565M693.713 158.661L652.619 182.386M691.341 109.84L650.247 133.565M691.341 109.84L647.874 84.7444M650.247 133.565L606.78 108.47M650.247 133.565L609.152 157.291M647.874 84.7444L606.78 108.47M647.874 84.7444L604.408 59.6491M606.78 108.47L563.314 83.3749M606.78 108.47L565.686 132.196M604.408 59.6491L563.314 83.3749M604.408 59.6491L560.942 34.5539M563.314 83.3749L519.848 58.2796M563.314 83.3749L522.22 107.101M560.942 34.5539L519.848 58.2796M560.942 34.5539L517.476 9.45866M519.848 58.2796L476.382 33.1844M519.848 58.2796L478.754 82.0054M517.476 9.45866L476.382 33.1844M517.476 9.45866L474.01 -15.6366M476.382 33.1844L432.915 8.08916M476.382 33.1844L435.287 56.9101M474.01 -15.6366L432.915 8.08916M474.01 -15.6366L430.543 -40.7318M432.915 8.08916L389.449 -17.0061M432.915 8.08916L391.821 31.8149M430.543 -40.7318L389.449 -17.0061M430.543 -40.7318L387.077 -65.8271M389.449 -17.0061L345.983 -42.1013M389.449 -17.0061L348.355 6.71966M387.077 -65.8271L345.983 -42.1013M387.077 -65.8271L343.611 -90.9223M345.983 -42.1013L302.517 -67.1966M345.983 -42.1013L304.889 -18.3756M343.611 -90.9223L302.517 -67.1966M343.611 -90.9223L300.145 -116.018L259.051 -92.2918M302.517 -67.1966L259.051 -92.2918M302.517 -67.1966L261.423 -43.4708M259.051 -92.2918L217.956 -68.5661M913.416 332.958L956.882 358.053M913.416 332.958L869.95 307.863M913.416 332.958L872.322 356.684M956.882 358.053L915.788 381.779M869.95 307.863L826.484 282.767M869.95 307.863L828.856 331.588M826.484 282.767L783.017 257.672M826.484 282.767L785.389 306.493M783.017 257.672L739.551 232.577M783.017 257.672L741.923 281.398M739.551 232.577L696.085 207.482M739.551 232.577L698.457 256.303M696.085 207.482L652.619 182.386M696.085 207.482L654.991 231.207M652.619 182.386L609.152 157.291M652.619 182.386L611.524 206.112M609.152 157.291L565.686 132.196M609.152 157.291L568.058 181.017M565.686 132.196L522.22 107.101M565.686 132.196L524.592 155.922M522.22 107.101L478.754 82.0054M522.22 107.101L481.126 130.826M478.754 82.0054L435.287 56.9101M478.754 82.0054L437.66 105.731M435.287 56.9101L391.821 31.8149M435.287 56.9101L394.193 80.6358M391.821 31.8149L348.355 6.71966M391.821 31.8149L350.727 55.5406M348.355 6.71966L304.889 -18.3756M348.355 6.71966L307.261 30.4454M304.889 -18.3756L261.423 -43.4708M304.889 -18.3756L263.795 5.35013M261.423 -43.4708L217.956 -68.5661M261.423 -43.4708L220.328 -19.7451M217.956 -68.5661L176.862 -44.8403M872.322 356.684L915.788 381.779M872.322 356.684L828.856 331.588M872.322 356.684L831.228 380.409M915.788 381.779L874.694 405.504M828.856 331.588L785.389 306.493M828.856 331.588L787.761 355.314M785.389 306.493L741.923 281.398M785.389 306.493L744.295 330.219M741.923 281.398L698.457 256.303M741.923 281.398L700.829 305.124M698.457 256.303L654.991 231.207M698.457 256.303L657.363 280.028M654.991 231.207L611.524 206.112M654.991 231.207L613.896 254.933M611.524 206.112L568.058 181.017M611.524 206.112L570.43 229.838M568.058 181.017L524.592 155.922M568.058 181.017L526.964 204.743M524.592 155.922L481.126 130.826M524.592 155.922L483.498 179.647M481.126 130.826L437.66 105.731M481.126 130.826L440.032 154.552M437.66 105.731L394.193 80.6358M437.66 105.731L396.565 129.457M394.193 80.6358L350.727 55.5406M394.193 80.6358L353.099 104.362M350.727 55.5406L307.261 30.4454M350.727 55.5406L309.633 79.2664M307.261 30.4454L263.795 5.35013M307.261 30.4454L266.167 54.1711M263.795 5.35013L220.328 -19.7451M263.795 5.35013L222.7 29.0759M220.328 -19.7451L176.862 -44.8403M220.328 -19.7451L179.234 3.98063M176.862 -44.8403L135.768 -21.1146M831.228 380.409L874.694 405.504M831.228 380.409L787.761 355.314M831.228 380.409L790.133 404.135M874.694 405.504L833.6 429.23M787.761 355.314L744.295 330.219M787.761 355.314L746.667 379.04M744.295 330.219L700.829 305.124M744.295 330.219L703.201 353.944M700.829 305.124L657.363 280.028M700.829 305.124L659.735 328.849M657.363 280.028L613.896 254.933M657.363 280.028L616.269 303.754M613.896 254.933L570.43 229.838M613.896 254.933L572.802 278.659M570.43 229.838L526.964 204.743M570.43 229.838L529.336 253.564M526.964 204.743L483.498 179.647M526.964 204.743L485.87 228.468M483.498 179.647L440.032 154.552M483.498 179.647L442.404 203.373M440.032 154.552L396.565 129.457M440.032 154.552L398.937 178.278M396.565 129.457L353.099 104.362M396.565 129.457L355.471 153.183M353.099 104.362L309.633 79.2664M353.099 104.362L312.005 128.087M309.633 79.2664L266.167 54.1711M309.633 79.2664L268.539 102.992M266.167 54.1711L222.7 29.0759M266.167 54.1711L225.073 77.8968M222.7 29.0759L179.234 3.98063M222.7 29.0759L181.606 52.8016M179.234 3.98063L135.768 -21.1146M179.234 3.98063L138.14 27.7064M135.768 -21.1146L94.6738 2.61112M790.133 404.135L833.6 429.23M790.133 404.135L746.667 379.04M790.133 404.135L749.039 427.861M833.6 429.23L792.506 452.956M746.667 379.04L703.201 353.944M746.667 379.04L705.573 402.765M703.201 353.944L659.735 328.849M703.201 353.944L662.107 377.67M659.735 328.849L616.269 303.754M659.735 328.849L618.641 352.575M616.269 303.754L572.802 278.659M616.269 303.754L575.174 327.48M572.802 278.659L529.336 253.564M572.802 278.659L531.708 302.384M529.336 253.564L485.87 228.468M529.336 253.564L488.242 277.289M485.87 228.468L442.404 203.373M485.87 228.468L444.776 252.194M442.404 203.373L398.937 178.278M442.404 203.373L401.309 227.099M398.937 178.278L355.471 153.183M398.937 178.278L357.843 202.004M355.471 153.183L312.005 128.087M355.471 153.183L314.377 176.908M312.005 128.087L268.539 102.992M312.005 128.087L270.911 151.813M268.539 102.992L225.073 77.8968M268.539 102.992L227.445 126.718M225.073 77.8968L181.606 52.8016M225.073 77.8968L183.978 101.623M181.606 52.8016L138.14 27.7064M181.606 52.8016L140.512 76.5273M138.14 27.7064L94.6738 2.61112M138.14 27.7064L97.0459 51.4321M94.6738 2.61112L53.5797 26.3369M749.039 427.861L792.506 452.956M749.039 427.861L705.573 402.765M749.039 427.861L707.945 451.586M792.506 452.956L751.411 476.682M705.573 402.765L662.107 377.67M705.573 402.765L664.479 426.491M662.107 377.67L618.641 352.575M662.107 377.67L621.013 401.396M618.641 352.575L575.174 327.48M618.641 352.575L577.546 376.301M575.174 327.48L531.708 302.384M575.174 327.48L534.08 351.205M531.708 302.384L488.242 277.289M531.708 302.384L490.614 326.11M488.242 277.289L444.776 252.194M488.242 277.289L447.148 301.015M444.776 252.194L401.309 227.099M444.776 252.194L403.682 275.92M401.309 227.099L357.843 202.004M401.309 227.099L360.215 250.824M357.843 202.004L314.377 176.908M357.843 202.004L316.749 225.729M314.377 176.908L270.911 151.813M314.377 176.908L273.283 200.634M270.911 151.813L227.445 126.718M270.911 151.813L229.817 175.539M227.445 126.718L183.978 101.623M227.445 126.718L186.35 150.444M183.978 101.623L140.512 76.5273M183.978 101.623L142.884 125.348M140.512 76.5273L97.0459 51.4321M140.512 76.5273L99.4179 100.253M97.0459 51.4321L53.5797 26.3369M97.0459 51.4321L55.9517 75.1578M53.5797 26.3369L12.4855 50.0626M707.945 451.586L751.411 476.682M707.945 451.586L664.479 426.491M707.945 451.586L666.851 475.312M751.411 476.682L710.317 500.407M664.479 426.491L621.013 401.396M664.479 426.491L623.385 450.217M621.013 401.396L577.546 376.301M621.013 401.396L579.918 425.122M577.546 376.301L534.08 351.205M577.546 376.301L536.452 400.026M534.08 351.205L490.614 326.11M534.08 351.205L492.986 374.931M490.614 326.11L447.148 301.015M490.614 326.11L449.52 349.836M447.148 301.015L403.682 275.92M447.148 301.015L406.054 324.741M403.682 275.92L360.215 250.824M403.682 275.92L362.587 299.645M360.215 250.824L316.749 225.729M360.215 250.824L319.121 274.55M316.749 225.729L273.283 200.634M316.749 225.729L275.655 249.455M273.283 200.634L229.817 175.539M273.283 200.634L232.189 224.36M229.817 175.539L186.35 150.444M229.817 175.539L188.722 199.264M186.35 150.444L142.884 125.348M186.35 150.444L145.256 174.169M142.884 125.348L99.4179 100.253M142.884 125.348L101.79 149.074M99.4179 100.253L55.9517 75.1578M99.4179 100.253L58.3237 123.979M55.9517 75.1578L12.4855 50.0626M55.9517 75.1578L14.8575 98.8836M12.4855 50.0626L-28.6087 73.7883M666.851 475.312L710.317 500.407M666.851 475.312L623.385 450.217M666.851 475.312L625.757 499.038M710.317 500.407L669.223 524.133M623.385 450.217L579.918 425.122M623.385 450.217L582.291 473.943M579.918 425.122L536.452 400.026M579.918 425.122L538.824 448.847M536.452 400.026L492.986 374.931M536.452 400.026L495.358 423.752M492.986 374.931L449.52 349.836M492.986 374.931L451.892 398.657M449.52 349.836L406.054 324.741M449.52 349.836L408.426 373.562M406.054 324.741L362.587 299.645M406.054 324.741L364.959 348.466M362.587 299.645L319.121 274.55M362.587 299.645L321.493 323.371M319.121 274.55L275.655 249.455M319.121 274.55L278.027 298.276M275.655 249.455L232.189 224.36M275.655 249.455L234.561 273.181M232.189 224.36L188.722 199.264M232.189 224.36L191.095 248.085M188.722 199.264L145.256 174.169M188.722 199.264L147.628 222.99M145.256 174.169L101.79 149.074M145.256 174.169L104.162 197.895M101.79 149.074L58.3237 123.979M101.79 149.074L60.6958 172.8M58.3237 123.979L14.8575 98.8836M58.3237 123.979L17.2296 147.705M14.8575 98.8836L-28.6087 73.7883M14.8575 98.8836L-26.2366 122.609M-28.6087 73.7883L-69.7028 97.514M625.757 499.038L669.223 524.133M625.757 499.038L582.291 473.943M625.757 499.038L584.663 522.764M669.223 524.133L628.129 547.859M582.291 473.943L538.824 448.847M582.291 473.943L541.196 497.668M538.824 448.847L495.358 423.752M538.824 448.847L497.73 472.573M495.358 423.752L451.892 398.657M495.358 423.752L454.264 447.478M451.892 398.657L408.426 373.562M451.892 398.657L410.798 422.383M408.426 373.562L364.959 348.466M408.426 373.562L367.331 397.287M364.959 348.466L321.493 323.371M364.959 348.466L323.865 372.192M321.493 323.371L278.027 298.276M321.493 323.371L280.399 347.097M278.027 298.276L234.561 273.181M278.027 298.276L236.933 322.002M234.561 273.181L191.095 248.085M234.561 273.181L193.467 296.906M191.095 248.085L147.628 222.99M191.095 248.085L150 271.811M147.628 222.99L104.162 197.895M147.628 222.99L106.534 246.716M104.162 197.895L60.6958 172.8M104.162 197.895L63.0679 221.621M60.6958 172.8L17.2296 147.705M60.6958 172.8L19.6017 196.525M17.2296 147.705L-26.2366 122.609M17.2296 147.705L-23.8646 171.43M-26.2366 122.609L-69.7028 97.514M-26.2366 122.609L-67.3308 146.335M-69.7028 97.514L-110.797 121.24M584.663 522.764L628.129 547.859M584.663 522.764L541.196 497.668M584.663 522.764L543.568 546.489M628.129 547.859L587.035 571.585M541.196 497.668L497.73 472.573M541.196 497.668L500.102 521.394M497.73 472.573L454.264 447.478M497.73 472.573L456.636 496.299M454.264 447.478L410.798 422.383M454.264 447.478L413.17 471.204M410.798 422.383L367.331 397.287M410.798 422.383L369.704 446.108M367.331 397.287L323.865 372.192M367.331 397.287L326.237 421.013M323.865 372.192L280.399 347.097M323.865 372.192L282.771 395.918M280.399 347.097L236.933 322.002M280.399 347.097L239.305 370.823M236.933 322.002L193.467 296.906M236.933 322.002L195.839 345.727M193.467 296.906L150 271.811M193.467 296.906L152.372 320.632M150 271.811L106.534 246.716M150 271.811L108.906 295.537M106.534 246.716L63.0679 221.621M106.534 246.716L65.4399 270.442M63.0679 221.621L19.6017 196.525M63.0679 221.621L21.9737 245.346M19.6017 196.525L-23.8646 171.43M19.6017 196.525L-21.4925 220.251M-23.8646 171.43L-67.3308 146.335M-23.8646 171.43L-64.9588 195.156M-67.3308 146.335L-110.797 121.24M-67.3308 146.335L-108.425 170.061M-110.797 121.24L-151.891 144.966M543.568 546.489L587.035 571.585M543.568 546.489L500.102 521.394M543.568 546.489L502.474 570.215M587.035 571.585L545.94 595.31L502.474 570.215M500.102 521.394L456.636 496.299M500.102 521.394L459.008 545.12M456.636 496.299L413.17 471.204M456.636 496.299L415.542 520.025M413.17 471.204L369.704 446.108M413.17 471.204L372.076 494.929M369.704 446.108L326.237 421.013M369.704 446.108L328.609 469.834M326.237 421.013L282.771 395.918M326.237 421.013L285.143 444.739M282.771 395.918L239.305 370.823M282.771 395.918L241.677 419.644M239.305 370.823L195.839 345.727M239.305 370.823L198.211 394.548M195.839 345.727L152.372 320.632M195.839 345.727L154.744 369.453M152.372 320.632L108.906 295.537M152.372 320.632L111.278 344.358M108.906 295.537L65.4399 270.442M108.906 295.537L67.812 319.263M65.4399 270.442L21.9737 245.346M65.4399 270.442L24.3457 294.167M21.9737 245.346L-21.4925 220.251M21.9737 245.346L-19.1205 269.072M-21.4925 220.251L-64.9588 195.156M-21.4925 220.251L-62.5867 243.977M-64.9588 195.156L-108.425 170.061M-64.9588 195.156L-106.053 218.882M-108.425 170.061L-151.891 144.966M-108.425 170.061L-149.519 193.786M-151.891 144.966L-192.985 168.691L-149.519 193.786M502.474 570.215L459.008 545.12M459.008 545.12L415.542 520.025M415.542 520.025L372.076 494.929M372.076 494.929L328.609 469.834M328.609 469.834L285.143 444.739M285.143 444.739L241.677 419.644M241.677 419.644L198.211 394.548M198.211 394.548L154.744 369.453M154.744 369.453L111.278 344.358M111.278 344.358L67.812 319.263M67.812 319.263L24.3457 294.167M24.3457 294.167L-19.1205 269.072M-19.1205 269.072L-62.5867 243.977M-62.5867 243.977L-106.053 218.882M-106.053 218.882L-149.519 193.786" stroke="url(#paint0_radial_415_12584)" stroke-opacity="0.85"/>
<g filter="url(#filter0_f_415_12584)">
<circle cx="220.782" cy="220.782" r="220.782" transform="matrix(0.866025 -0.5 0.866025 0.5 -158.035 213.781)" fill="white"/>
<circle cx="220.782" cy="220.782" r="220.782" transform="matrix(0.866025 -0.5 0.866025 0.5 -158.035 213.781)" fill="#003323" fill-opacity="0.3"/>
<circle cx="220.782" cy="220.782" r="220.575" transform="matrix(0.866025 -0.5 0.866025 0.5 -158.035 213.781)" stroke="url(#paint1_radial_415_12584)" stroke-opacity="0.85" stroke-width="0.413063"/>
</g>
</g>
<rect width="92" height="92" rx="4" transform="matrix(0.866025 -0.5 0.866025 0.5 91 61)" fill="white"/>
<rect width="92" height="92" rx="4" transform="matrix(0.866025 -0.5 0.866025 0.5 91 61)" fill="#003323" fill-opacity="0.3"/>
<rect width="92" height="92" rx="6" transform="matrix(0.866025 -0.5 0.866025 0.5 90 53)" fill="#FAFAF9"/>
<path d="M176.193 47.5633C177.769 48.4731 178.843 49.6324 179.277 50.8944C179.712 52.1564 179.489 53.4645 178.636 54.6532C177.783 55.842 176.339 56.8581 174.486 57.573C172.633 58.2878 170.454 58.6694 168.226 58.6694C165.997 58.6694 163.818 58.2878 161.965 57.573C160.112 56.8581 158.668 55.842 157.815 54.6532C156.962 53.4645 156.739 52.1564 157.174 50.8944C157.608 49.6324 158.682 48.4731 160.258 47.5633C162.372 46.345 165.238 45.6608 168.226 45.6608C171.213 45.6608 174.079 46.345 176.193 47.5633ZM188.508 42.1266C192.232 44.2771 194.769 47.0171 195.797 50C196.825 52.9829 196.297 56.0748 194.281 58.8847C192.265 61.6945 188.852 64.0961 184.472 65.7858C180.092 67.4755 174.942 68.3773 169.674 68.3773C164.406 68.3773 159.257 67.4755 154.877 65.7858C150.497 64.0961 147.083 61.6945 145.067 58.8847C143.051 56.0748 142.524 52.9829 143.552 50C144.579 47.0171 147.116 44.2771 150.841 42.1266C155.839 39.2467 162.613 37.6294 169.674 37.6294C176.736 37.6294 183.509 39.2467 188.508 42.1266ZM185.61 43.7994C183.463 42.5624 180.906 41.588 178.091 40.9347C175.277 40.2813 172.263 39.9624 169.23 39.997C166.197 40.0315 163.208 40.4188 160.44 41.1358C157.672 41.8527 155.184 42.8845 153.123 44.1695C144.923 49.2842 145.225 57.3128 153.784 62.2267C157.677 64.4652 162.857 65.8014 168.343 65.9822C167.869 64.4922 167.897 62.9632 168.425 61.4792C168.47 61.3525 168.585 61.2379 168.753 61.1527C168.922 61.0676 169.134 61.0166 169.357 61.0076C173.029 60.8541 176.482 59.9426 179.085 58.4397C181.688 56.9368 183.267 54.9431 183.533 52.8233C183.549 52.6944 183.637 52.5719 183.784 52.4747C183.932 52.3774 184.13 52.3108 184.35 52.2849C186.922 51.9784 189.572 51.9614 192.155 52.2347C191.844 49.054 189.514 46.0509 185.61 43.7994Z" fill="#003323" fill-opacity="0.5"/>
<path d="M113.218 43.75L100.66 51C98.747 52.1046 98.747 53.8954 100.66 55L112.785 62" stroke="#003323" stroke-opacity="0.5" stroke-width="1.5"/>
<path d="M185.696 85.75L173.138 93C171.225 94.1046 168.123 94.1046 166.21 93L154.086 86" stroke="#003323" stroke-opacity="0.5" stroke-width="1.5"/>
<path d="M226.564 62L239.121 54.75C241.035 53.6454 241.035 51.8546 239.121 50.75L226.997 43.75" stroke="#003323" stroke-opacity="0.5" stroke-width="1.5"/>
<path d="M154.086 20L166.643 12.75C168.556 11.6454 171.658 11.6454 173.571 12.75L185.696 19.75" stroke="#003323" stroke-opacity="0.5" stroke-width="1.5"/>
<line y1="-0.5" x2="86" y2="-0.5" transform="matrix(0.866025 -0.5 0.866025 0.5 123.775 69.5)" stroke="#003323" stroke-opacity="0.5"/>
<rect width="86" height="19" transform="matrix(0.866025 -0.5 0.866025 0.5 123.775 69.5)" fill="url(#paint2_linear_415_12584)"/>
<rect width="77.0854" height="19" rx="2" transform="matrix(0.866025 0.5 0 1 9 53)" fill="#FAFAF9"/>
<path d="M13.1757 68.4108V61.6254L16.6992 63.6597V64.3886L13.8873 62.7651V65.0579L16.4353 66.5289V67.2578L13.8873 65.7868V68.8217L13.1757 68.4108ZM19.1231 71.9638C18.8438 71.8026 18.5904 71.5955 18.3627 71.3426C18.1351 71.0875 17.9543 70.8053 17.8204 70.4961C17.6865 70.1846 17.6196 69.8633 17.6196 69.5319C17.6196 69.2404 17.6693 69.0328 17.7688 68.9091C17.8682 68.7832 18.0012 68.7163 18.1676 68.7086C18.334 68.7009 18.5177 68.7296 18.7185 68.7948C18.9213 68.8588 19.125 68.9345 19.3297 69.0217C19.5975 69.1366 19.8146 69.2321 19.981 69.3083C20.1494 69.3834 20.2718 69.4176 20.3483 69.411C20.4267 69.4055 20.4659 69.3398 20.4659 69.2139V69.1874C20.4659 68.8605 20.3885 68.5617 20.2335 68.2911C20.0805 68.0217 19.8481 67.7969 19.5363 67.6169C19.213 67.4303 18.9595 67.3657 18.7759 67.4231C18.5923 67.4805 18.4632 67.5805 18.3885 67.7229L17.7458 67.0868C17.8606 66.8438 18.0136 66.6914 18.2049 66.6296C18.3981 66.5666 18.6085 66.5666 18.8362 66.6296C19.0657 66.6914 19.2914 66.7864 19.5133 66.9145C19.6549 66.9962 19.8175 67.11 20.0011 67.2558C20.1867 67.4004 20.3655 67.5821 20.5377 67.8008C20.7117 68.0206 20.8562 68.284 20.9709 68.591C21.0857 68.898 21.1431 69.2536 21.1431 69.6578V73.0108L20.4659 72.6199V71.9307L20.4315 71.9108C20.3856 71.9948 20.3091 72.0688 20.202 72.1328C20.0948 72.1969 19.9523 72.2217 19.7744 72.2074C19.5965 72.193 19.3794 72.1118 19.1231 71.9638ZM19.2264 71.3211C19.4942 71.4757 19.7199 71.5453 19.9036 71.5298C20.0891 71.5155 20.2287 71.4393 20.3225 71.3012C20.4181 71.1643 20.4659 70.9898 20.4659 70.7777V70.0621C20.4372 70.0853 20.3741 70.0853 20.2766 70.0621C20.1809 70.0378 20.07 70.0013 19.9437 69.9527C19.8194 69.903 19.6979 69.8528 19.5793 69.802C19.4626 69.7501 19.3679 69.7087 19.2953 69.6777C19.1193 69.6026 18.9548 69.5507 18.8017 69.522C18.6506 69.4922 18.5282 69.5088 18.4345 69.5717C18.3426 69.6336 18.2967 69.7639 18.2967 69.9627C18.2967 70.2343 18.3838 70.49 18.5578 70.7297C18.7338 70.9682 18.9567 71.1654 19.2264 71.3211ZM24.1695 74.8641C23.7563 74.6256 23.4005 74.3075 23.1021 73.9099C22.8037 73.5124 22.5742 73.0695 22.4135 72.5813C22.2528 72.0932 22.1725 71.5951 22.1725 71.0871C22.1725 70.5702 22.2547 70.1616 22.4192 69.8612C22.5857 69.5597 22.8171 69.383 23.1136 69.3311C23.412 69.2781 23.7602 69.3664 24.158 69.5961C24.4679 69.7751 24.7472 70.0026 24.9959 70.2787C25.2446 70.5548 25.4483 70.8579 25.6071 71.1881C25.7658 71.5184 25.8643 71.8535 25.9026 72.1937L25.2254 71.8027C25.1738 71.541 25.059 71.2693 24.8811 70.9877C24.7051 70.705 24.4679 70.4775 24.1695 70.3052C23.9055 70.1528 23.6741 70.0986 23.4751 70.1428C23.2781 70.1859 23.1241 70.319 23.0132 70.5421C22.9041 70.764 22.8496 71.0672 22.8496 71.4515C22.8496 71.8447 22.9032 72.218 23.0103 72.5714C23.1193 72.9259 23.2724 73.2407 23.4694 73.5157C23.6683 73.7918 23.9017 74.0071 24.1695 74.1617C24.3455 74.2633 24.5052 74.3202 24.6487 74.3324C24.7922 74.3445 24.9136 74.313 25.0131 74.2379C25.1126 74.1628 25.1833 74.0447 25.2254 73.8834L25.9026 74.2744C25.8643 74.5527 25.7696 74.7686 25.6185 74.9221C25.4693 75.0745 25.2713 75.1502 25.0246 75.1491C24.7797 75.1469 24.4947 75.0519 24.1695 74.8641ZM28.7404 77.5031C28.3157 77.2579 27.9494 76.9382 27.6414 76.5439C27.3353 76.1486 27.0991 75.7074 26.9327 75.2203C26.7682 74.7322 26.6859 74.2275 26.6859 73.7062C26.6859 73.1849 26.7682 72.773 26.9327 72.4703C27.0991 72.1666 27.3306 71.9888 27.6271 71.9369C27.9255 71.8839 28.2736 71.9723 28.6715 72.202C28.901 72.3345 29.1277 72.5096 29.3515 72.7271C29.5753 72.9447 29.779 73.2059 29.9627 73.5107C30.1463 73.8133 30.2927 74.1584 30.4017 74.5461C30.5107 74.9337 30.5652 75.365 30.5652 75.8399V76.1712L27.168 74.2098V73.5339L29.8766 75.0977C29.8766 74.8106 29.8269 74.5256 29.7274 74.2429C29.6298 73.9613 29.4902 73.7029 29.3085 73.4676C29.1287 73.2335 28.9163 73.0457 28.6715 72.9044C28.4018 72.7487 28.1684 72.6912 27.9714 72.7321C27.7763 72.7719 27.6261 72.8839 27.5209 73.0684C27.4157 73.2528 27.3631 73.4853 27.3631 73.7658V74.2164C27.3631 74.6007 27.4205 74.9597 27.5352 75.2932C27.6519 75.6256 27.8136 75.9211 28.0202 76.1795C28.2267 76.4357 28.4668 76.6428 28.7404 76.8007C28.9183 76.9034 29.0789 76.9675 29.2224 76.9929C29.3678 77.0172 29.4931 77.0012 29.5983 76.9448C29.7035 76.8863 29.7848 76.7853 29.8422 76.6417L30.4964 77.2314C30.4275 77.4479 30.3118 77.6064 30.1492 77.7069C29.9866 77.8052 29.7857 77.8394 29.5466 77.8096C29.3075 77.7776 29.0388 77.6754 28.7404 77.5031ZM33.8678 80.3574V75.2684L34.522 75.6461V76.4412L34.5794 76.4744C34.6712 76.2557 34.8195 76.1303 35.0242 76.0983C35.2289 76.0641 35.4747 76.1298 35.7616 76.2955C36.0523 76.4633 36.2943 76.6792 36.4875 76.9432C36.6826 77.206 36.8347 77.5048 36.9438 77.8394L36.9897 77.8659C37.1025 77.6682 37.2718 77.5572 37.4975 77.5329C37.7233 77.5064 37.9939 77.5843 38.3095 77.7665C38.7036 77.994 39.0259 78.3226 39.2765 78.7522C39.5271 79.1796 39.6524 79.6926 39.6524 80.2912V83.6972L38.9752 83.3062V79.9002C38.9752 79.5247 38.8863 79.205 38.7084 78.941C38.5305 78.6771 38.321 78.4755 38.08 78.3364C37.7701 78.1575 37.53 78.1271 37.3598 78.2453C37.1896 78.3612 37.1044 78.5838 37.1044 78.9129V82.2261L36.4158 81.8285V78.343C36.4158 78.0537 36.3345 77.7737 36.1719 77.5031C36.0093 77.2303 35.7998 77.0199 35.5435 76.8719C35.3675 76.7703 35.203 76.7295 35.05 76.7494C34.8989 76.7703 34.7765 76.8499 34.6827 76.9879C34.5909 77.1249 34.545 77.3181 34.545 77.5677V80.7484L33.8678 80.3574ZM42.1874 85.28C41.9082 85.1188 41.6547 84.9117 41.4271 84.6588C41.1994 84.4037 41.0187 84.1215 40.8848 83.8123C40.7509 83.5009 40.6839 83.1795 40.6839 82.8482C40.6839 82.5566 40.7337 82.349 40.8331 82.2253C40.9326 82.0994 41.0655 82.0326 41.232 82.0248C41.3984 82.0171 41.582 82.0458 41.7829 82.111C41.9856 82.175 42.1894 82.2507 42.394 82.3379C42.6618 82.4528 42.8789 82.5483 43.0454 82.6245C43.2137 82.6996 43.3361 82.7338 43.4126 82.7272C43.4911 82.7217 43.5303 82.656 43.5303 82.5301V82.5036C43.5303 82.1767 43.4528 81.8779 43.2979 81.6074C43.1448 81.3379 42.9124 81.1131 42.6006 80.9331C42.2773 80.7465 42.0239 80.6819 41.8403 80.7393C41.6566 80.7967 41.5275 80.8967 41.4529 81.0391L40.8102 80.403C40.9249 80.16 41.078 80.0076 41.2693 79.9458C41.4625 79.8828 41.6729 79.8828 41.9005 79.9458C42.1301 80.0076 42.3558 80.1026 42.5777 80.2307C42.7192 80.3124 42.8818 80.4262 43.0655 80.572C43.251 80.7167 43.4299 80.8983 43.602 81.117C43.7761 81.3368 43.9205 81.6002 44.0353 81.9072C44.1501 82.2142 44.2074 82.5698 44.2074 82.9741V86.327L43.5303 85.9361V85.2469L43.4959 85.227C43.4499 85.311 43.3734 85.385 43.2663 85.449C43.1592 85.5131 43.0167 85.5379 42.8388 85.5236C42.6609 85.5092 42.4438 85.428 42.1874 85.28ZM42.2907 84.6373C42.5585 84.7919 42.7843 84.8615 42.9679 84.846C43.1534 84.8317 43.2931 84.7555 43.3868 84.6174C43.4825 84.4805 43.5303 84.306 43.5303 84.0939V83.3783C43.5016 83.4015 43.4385 83.4015 43.3409 83.3783C43.2453 83.354 43.1343 83.3175 43.0081 83.2689C42.8837 83.2192 42.7623 83.169 42.6437 83.1182C42.527 83.0663 42.4323 83.0249 42.3596 82.9939C42.1836 82.9188 42.0191 82.8669 41.8661 82.8382C41.715 82.8084 41.5925 82.825 41.4988 82.8879C41.407 82.9498 41.3611 83.0801 41.3611 83.2789C41.3611 83.5506 41.4481 83.8062 41.6222 84.0459C41.7982 84.2844 42.021 84.4816 42.2907 84.6373ZM47.3601 83.0581V83.7208L45.0761 82.4021V81.7395L47.3601 83.0581ZM45.7418 80.9045L46.419 81.2955V86.146C46.419 86.3669 46.4467 86.5486 46.5022 86.6911C46.5596 86.8324 46.6323 86.9473 46.7203 87.0356C46.8102 87.1229 46.9049 87.1952 47.0043 87.2527C47.0789 87.2957 47.1401 87.3266 47.188 87.3454C47.2358 87.362 47.274 87.3752 47.3027 87.3852L47.4405 88.1671C47.3945 88.1605 47.3305 88.1434 47.2482 88.1157C47.166 88.0903 47.0617 88.0412 46.9355 87.9683C46.7442 87.8579 46.5567 87.7021 46.3731 87.5011C46.1913 87.3012 46.0402 87.0693 45.9197 86.8054C45.8011 86.5425 45.7418 86.2631 45.7418 85.9671V80.9045ZM50.1218 89.8477C49.7087 89.6092 49.3529 89.2911 49.0545 88.8935C48.756 88.4959 48.5265 88.0531 48.3658 87.5649C48.2051 87.0768 48.1248 86.5787 48.1248 86.0707C48.1248 85.5538 48.207 85.1452 48.3716 84.8448C48.538 84.5433 48.7694 84.3666 49.0659 84.3147C49.3643 84.2616 49.7125 84.35 50.1104 84.5797C50.4202 84.7586 50.6995 84.9861 50.9482 85.2622C51.1969 85.5383 51.4006 85.8415 51.5594 86.1717C51.7181 86.5019 51.8167 86.8371 51.8549 87.1773L51.1777 86.7863C51.1261 86.5246 51.0113 86.2529 50.8334 85.9713C50.6574 85.6885 50.4202 85.461 50.1218 85.2887C49.8579 85.1363 49.6264 85.0822 49.4275 85.1264C49.2304 85.1695 49.0764 85.3025 48.9655 85.5256C48.8565 85.7476 48.8019 86.0508 48.8019 86.4351C48.8019 86.8283 48.8555 87.2016 48.9626 87.555C49.0717 87.9095 49.2247 88.2242 49.4217 88.4992C49.6207 88.7753 49.854 88.9907 50.1218 89.1453C50.2978 89.2469 50.4575 89.3038 50.601 89.316C50.7445 89.3281 50.866 89.2966 50.9654 89.2215C51.0649 89.1464 51.1357 89.0283 51.1777 88.867L51.8549 89.258C51.8167 89.5363 51.722 89.7522 51.5708 89.9057C51.4216 90.0581 51.2237 90.1338 50.9769 90.1327C50.732 90.1304 50.447 90.0355 50.1218 89.8477ZM53.522 88.6434V91.7048L52.8448 91.3138V84.5284L53.522 84.9193V87.4109L53.5794 87.444C53.6827 87.2408 53.8376 87.1215 54.0442 87.0862C54.2527 87.0497 54.5301 87.1314 54.8763 87.3313C55.1766 87.5047 55.4397 87.7262 55.6654 87.9956C55.8911 88.2629 56.0661 88.5749 56.1905 88.9316C56.3167 89.2872 56.3798 89.6837 56.3798 90.1211V93.3548L55.7027 92.9638V89.7831C55.7027 89.3789 55.6118 89.0139 55.4301 88.6881C55.2503 88.3612 55.0006 88.1055 54.6812 87.9211C54.4593 87.793 54.2604 87.7322 54.0844 87.7389C53.9103 87.7466 53.7726 87.825 53.6712 87.9741C53.5717 88.1243 53.522 88.3474 53.522 88.6434ZM58.1122 94.4079C57.9706 94.3262 57.8492 94.1976 57.7478 94.022C57.6464 93.8464 57.5957 93.6768 57.5957 93.5134C57.5957 93.3499 57.6464 93.2389 57.7478 93.1804C57.8492 93.1219 57.9706 93.1335 58.1122 93.2152C58.2537 93.2969 58.3752 93.4256 58.4766 93.6012C58.578 93.7768 58.6287 93.9463 58.6287 94.1098C58.6287 94.218 58.6048 94.3036 58.5569 94.3665C58.511 94.4306 58.4489 94.4676 58.3704 94.4775C58.2939 94.4864 58.2078 94.4632 58.1122 94.4079ZM58.1122 90.6309C57.9706 90.5492 57.8492 90.4205 57.7478 90.2449C57.6464 90.0693 57.5957 89.8998 57.5957 89.7363C57.5957 89.5729 57.6464 89.4619 57.7478 89.4033C57.8492 89.3448 57.9706 89.3564 58.1122 89.4381C58.2537 89.5199 58.3752 89.6485 58.4766 89.8241C58.578 89.9997 58.6287 90.1692 58.6287 90.3327C58.6287 90.4409 58.6048 90.5265 58.5569 90.5895C58.511 90.6535 58.4489 90.6905 58.3704 90.7005C58.2939 90.7093 58.2078 90.6861 58.1122 90.6309Z" fill="#003323" fill-opacity="0.7"/>
<g clip-path="url(#clip1_415_12584)">
<path d="M63.0784 93.5392C63.0784 90.6008 65.1413 89.4098 67.6861 90.879V90.879C70.2308 92.3482 72.2937 95.9213 72.2937 98.8597V98.8597C72.2937 101.798 70.2308 102.989 67.6861 101.52V101.52C65.1413 100.051 63.0784 96.4777 63.0784 93.5392V93.5392Z" fill="#003323" fill-opacity="0.7"/>
<g clip-path="url(#clip2_415_12584)">
<path d="M69.9898 95.5352L66.822 97.3642L65.3821 94.8702" stroke="white" stroke-width="0.665062" stroke-linecap="round" stroke-linejoin="round"/>
</g>
</g>
<rect width="66.0854" height="19" rx="2" transform="matrix(0.866025 0.5 0 1 265 20)" fill="#FAFAF9"/>
<path d="M269.176 35.4108V28.6254L269.887 29.0362V35.0928L272.619 36.6699V37.3988L269.176 35.4108ZM273.629 37.9819V32.8928L274.306 33.2838V38.3728L273.629 37.9819ZM273.973 32.2434C273.841 32.1672 273.727 32.0496 273.632 31.8906C273.538 31.7326 273.491 31.5808 273.491 31.435C273.491 31.2892 273.538 31.1915 273.632 31.1418C273.727 31.0932 273.841 31.107 273.973 31.1832C274.105 31.2594 274.218 31.3765 274.312 31.5344C274.407 31.6934 274.455 31.8458 274.455 31.9916C274.455 32.1374 274.407 32.2346 274.312 32.2832C274.218 32.3329 274.105 32.3196 273.973 32.2434ZM279.15 36.0805L277.52 40.2287L276.832 39.8311L275.202 33.801L275.937 34.2251L277.153 38.9829L277.199 39.0094L278.416 35.6564L279.15 36.0805ZM281.734 42.7674C281.309 42.5222 280.943 42.2025 280.635 41.8082C280.329 41.4129 280.093 40.9716 279.926 40.4846C279.762 39.9965 279.68 39.4917 279.68 38.9705C279.68 38.4492 279.762 38.0372 279.926 37.7346C280.093 37.4309 280.324 37.2531 280.621 37.2012C280.919 37.1482 281.267 37.2366 281.665 37.4663C281.895 37.5988 282.121 37.7738 282.345 37.9914C282.569 38.209 282.773 38.4702 282.956 38.775C283.14 39.0776 283.286 39.4227 283.395 39.8104C283.504 40.198 283.559 40.6293 283.559 41.1042V41.4355L280.162 39.4741V38.7982L282.87 40.362C282.87 40.0749 282.821 39.7899 282.721 39.5072C282.624 39.2256 282.484 38.9672 282.302 38.7319C282.122 38.4978 281.91 38.31 281.665 38.1687C281.395 38.013 281.162 37.9555 280.965 37.9964C280.77 38.0361 280.62 38.1482 280.515 38.3327C280.409 38.5171 280.357 38.7496 280.357 39.0301V39.4807C280.357 39.865 280.414 40.224 280.529 40.5575C280.646 40.8899 280.807 41.1853 281.014 41.4438C281.22 41.7 281.46 41.9071 281.734 42.065C281.912 42.1677 282.073 42.2318 282.216 42.2572C282.361 42.2815 282.487 42.2655 282.592 42.2091C282.697 42.1506 282.778 42.0495 282.836 41.906L283.49 42.4957C283.421 42.7122 283.305 42.8707 283.143 42.9712C282.98 43.0695 282.779 43.1037 282.54 43.0739C282.301 43.0419 282.032 42.9397 281.734 42.7674ZM285.266 37.9152V44.7007L284.589 44.3097V37.5243L285.266 37.9152ZM286.506 45.4167V40.3276L287.184 40.7186V45.8077L286.506 45.4167ZM286.851 39.6783C286.719 39.602 286.605 39.4844 286.509 39.3254C286.416 39.1675 286.369 39.0156 286.369 38.8698C286.369 38.724 286.416 38.6263 286.509 38.5766C286.605 38.528 286.719 38.5418 286.851 38.618C286.983 38.6942 287.096 38.8113 287.189 38.9692C287.285 39.1283 287.333 39.2807 287.333 39.4264C287.333 39.5722 287.285 39.6694 287.189 39.718C287.096 39.7677 286.983 39.7545 286.851 39.6783ZM289.101 43.8533V46.9147L288.424 46.5238V41.4347L289.078 41.8124V42.6075L289.135 42.6407C289.239 42.4419 289.396 42.3248 289.606 42.2895C289.816 42.2519 290.088 42.3292 290.421 42.5214C290.719 42.6937 290.98 42.9151 291.204 43.1857C291.428 43.4541 291.602 43.7666 291.726 44.1233C291.851 44.4779 291.913 44.8716 291.913 45.3045V48.5382L291.236 48.1472V44.9666C291.236 44.5668 291.146 44.2034 290.966 43.8765C290.786 43.5474 290.539 43.2923 290.226 43.1112C290.01 42.9864 289.816 42.9289 289.646 42.9389C289.478 42.9499 289.345 43.0311 289.247 43.1824C289.15 43.3337 289.101 43.5573 289.101 43.8533ZM294.998 50.4255C294.574 50.1803 294.207 49.8606 293.899 49.4663C293.593 49.0709 293.357 48.6297 293.191 48.1427C293.026 47.6545 292.944 47.1498 292.944 46.6285C292.944 46.1073 293.026 45.6953 293.191 45.3927C293.357 45.089 293.588 44.9112 293.885 44.8593C294.183 44.8063 294.531 44.8946 294.929 45.1243C295.159 45.2569 295.386 45.4319 295.609 45.6495C295.833 45.8671 296.037 46.1282 296.221 46.4331C296.404 46.7357 296.55 47.0808 296.66 47.4684C296.769 47.8561 296.823 48.2874 296.823 48.7622V49.0936L293.426 47.1321V46.4563L296.134 48.0201C296.134 47.7329 296.085 47.448 295.985 47.1653C295.888 46.8837 295.748 46.6252 295.566 46.39C295.387 46.1559 295.174 45.9681 294.929 45.8267C294.66 45.671 294.426 45.6136 294.229 45.6545C294.034 45.6942 293.884 45.8063 293.779 45.9907C293.674 46.1752 293.621 46.4077 293.621 46.6882V47.1388C293.621 47.5231 293.678 47.882 293.793 48.2156C293.91 48.548 294.071 48.8434 294.278 49.1019C294.485 49.3581 294.725 49.5651 294.998 49.7231C295.176 49.8258 295.337 49.8898 295.48 49.9152C295.626 49.9395 295.751 49.9235 295.856 49.8672C295.961 49.8087 296.043 49.7076 296.1 49.564L296.754 50.1538C296.685 50.3703 296.57 50.5287 296.407 50.6292C296.244 50.7275 296.044 50.7618 295.804 50.732C295.565 50.6999 295.297 50.5978 294.998 50.4255ZM300.975 49.8208L300.367 49.6684C300.328 49.5293 300.272 49.3829 300.197 49.2294C300.125 49.0748 300.025 48.9246 299.899 48.7788C299.773 48.633 299.611 48.5033 299.414 48.3895C299.144 48.2338 298.92 48.1758 298.74 48.2156C298.562 48.2542 298.473 48.3829 298.473 48.6016C298.473 48.7959 298.534 48.9848 298.657 49.1681C298.779 49.3514 298.97 49.5558 299.23 49.7811L299.885 50.3443C300.279 50.6823 300.572 51.0208 300.766 51.3598C300.959 51.6966 301.055 52.0429 301.055 52.3985C301.055 52.6901 300.983 52.9087 300.837 53.0545C300.694 53.2014 300.493 53.2666 300.235 53.25C299.976 53.2334 299.676 53.1263 299.334 52.9286C298.884 52.6691 298.512 52.3416 298.218 51.9462C297.923 51.5509 297.736 51.1141 297.658 50.6359L298.301 50.8214C298.362 51.1306 298.478 51.4029 298.648 51.6381C298.82 51.8745 299.045 52.0727 299.322 52.2328C299.638 52.4151 299.888 52.4824 300.074 52.4349C300.261 52.3863 300.355 52.2527 300.355 52.034C300.355 51.8573 300.302 51.6784 300.195 51.4973C300.087 51.314 299.923 51.1284 299.701 50.9407L298.966 50.3178C298.563 49.9743 298.266 49.632 298.077 49.2907C297.89 48.9483 297.796 48.6016 297.796 48.2504C297.796 47.9632 297.866 47.7495 298.005 47.6092C298.147 47.4701 298.339 47.4077 298.582 47.4221C298.827 47.4375 299.104 47.5347 299.414 47.7136C299.85 47.9654 300.193 48.2735 300.441 48.638C300.692 49.0036 300.87 49.3978 300.975 49.8208ZM305.196 52.2581L304.588 52.1057C304.55 51.9665 304.493 51.8202 304.419 51.6667C304.346 51.5121 304.247 51.3619 304.12 51.2161C303.994 51.0703 303.833 50.9405 303.636 50.8268C303.366 50.6711 303.141 50.6131 302.961 50.6528C302.783 50.6915 302.694 50.8202 302.694 51.0388C302.694 51.2332 302.756 51.4221 302.878 51.6054C303 51.7887 303.192 51.993 303.452 52.2183L304.106 52.7816C304.5 53.1195 304.794 53.458 304.987 53.7971C305.18 54.1339 305.277 54.4802 305.277 54.8358C305.277 55.1273 305.204 55.346 305.059 55.4918C304.915 55.6387 304.714 55.7038 304.456 55.6873C304.198 55.6707 303.898 55.5636 303.555 55.3659C303.106 55.1064 302.734 54.7789 302.439 54.3835C302.144 53.9881 301.958 53.5514 301.88 53.0731L302.522 53.2587C302.583 53.5679 302.699 53.8402 302.869 54.0754C303.042 54.3117 303.266 54.51 303.544 54.6701C303.859 54.8523 304.11 54.9197 304.296 54.8722C304.483 54.8236 304.577 54.69 304.577 54.4713C304.577 54.2946 304.523 54.1157 304.416 53.9346C304.309 53.7513 304.144 53.5657 303.923 53.378L303.188 52.7551C302.784 52.4116 302.488 52.0692 302.298 51.728C302.111 51.3856 302.017 51.0388 302.017 50.6876C302.017 50.4005 302.087 50.1868 302.227 50.0465C302.368 49.9074 302.561 49.845 302.803 49.8593C303.048 49.8748 303.326 49.972 303.636 50.1509C304.072 50.4027 304.414 50.7108 304.663 51.0753C304.913 51.4408 305.091 51.8351 305.196 52.2581Z" fill="#003323" fill-opacity="0.7"/>
<g clip-path="url(#clip3_415_12584)">
<path d="M309.552 55.0392C309.552 52.1008 311.615 50.9098 314.16 52.379V52.379C316.705 53.8482 318.768 57.4213 318.768 60.3597V60.3597C318.768 63.2982 316.705 64.4892 314.16 63.02V63.02C311.615 61.5508 309.552 57.9777 309.552 55.0392V55.0392Z" fill="#003323" fill-opacity="0.7"/>
<g clip-path="url(#clip4_415_12584)">
<path d="M316.464 57.0352L313.296 58.8642L311.856 56.3702" stroke="white" stroke-width="0.665062" stroke-linecap="round" stroke-linejoin="round"/>
</g>
</g>
<rect width="52.25" height="14" rx="2" transform="matrix(0.866025 0.5 0 1 87 -25)" fill="#FAFAF9"/>
<path d="M112.53 -0.260417L112.602 -2.51042L110.924 -2.25L110.491 -3.375L112.259 -3.41667L110.491 -5.5L110.924 -6.125L112.602 -3.92708L112.53 -6.26042L113.396 -5.76042L113.324 -3.51042L115.002 -3.77083L115.435 -2.64583L113.666 -2.60417L115.435 -0.520833L115.002 0.104166L113.324 -2.09375L113.396 0.239583L112.53 -0.260417Z" fill="white"/>
<path d="M112.53 -0.260417L112.602 -2.51042L110.924 -2.25L110.491 -3.375L112.259 -3.41667L110.491 -5.5L110.924 -6.125L112.602 -3.92708L112.53 -6.26042L113.396 -5.76042L113.324 -3.51042L115.002 -3.77083L115.435 -2.64583L113.666 -2.60417L115.435 -0.520833L115.002 0.104166L113.324 -2.09375L113.396 0.239583L112.53 -0.260417Z" fill="#003323" fill-opacity="0.5"/>
<path d="M119.205 3.59115L119.277 1.34115L117.6 1.60156L117.167 0.476562L118.935 0.434895L117.167 -1.64844L117.6 -2.27344L119.277 -0.0755209L119.205 -2.40885L120.071 -1.90885L119.999 0.341146L121.677 0.080729L122.11 1.20573L120.342 1.2474L122.11 3.33073L121.677 3.95573L119.999 1.75781L120.071 4.09115L119.205 3.59115Z" fill="white"/>
<path d="M119.205 3.59115L119.277 1.34115L117.6 1.60156L117.167 0.476562L118.935 0.434895L117.167 -1.64844L117.6 -2.27344L119.277 -0.0755209L119.205 -2.40885L120.071 -1.90885L119.999 0.341146L121.677 0.080729L122.11 1.20573L120.342 1.2474L122.11 3.33073L121.677 3.95573L119.999 1.75781L120.071 4.09115L119.205 3.59115Z" fill="#003323" fill-opacity="0.5"/>
<path d="M125.881 7.45052L125.953 5.20052L124.275 5.46094L123.842 4.33594L125.61 4.29427L123.842 2.21094L124.275 1.58594L125.953 3.78385L125.881 1.45052L126.747 1.95052L126.675 4.20052L128.353 3.9401L128.786 5.0651L127.018 5.10677L128.786 7.1901L128.353 7.8151L126.675 5.61719L126.747 7.95052L125.881 7.45052Z" fill="white"/>
<path d="M125.881 7.45052L125.953 5.20052L124.275 5.46094L123.842 4.33594L125.61 4.29427L123.842 2.21094L124.275 1.58594L125.953 3.78385L125.881 1.45052L126.747 1.95052L126.675 4.20052L128.353 3.9401L128.786 5.0651L127.018 5.10677L128.786 7.1901L128.353 7.8151L126.675 5.61719L126.747 7.95052L125.881 7.45052Z" fill="#003323" fill-opacity="0.5"/>
<rect width="29.125" height="14" rx="2" transform="matrix(0.866025 0.5 0 1 30 -27)" fill="#FAFAF9"/>
</g>
<defs>
<filter id="filter0_f_415_12584" x="-189.777" y="-86.0817" width="828.295" height="599.726" filterUnits="userSpaceOnUse" color-interpolation-filters="sRGB">
<feFlood flood-opacity="0" result="BackgroundImageFix"/>
<feBlend mode="normal" in="SourceGraphic" in2="BackgroundImageFix" result="shape"/>
<feGaussianBlur stdDeviation="71.8729" result="effect1_foregroundBlur_415_12584"/>
</filter>
<radialGradient id="paint0_radial_415_12584" cx="0" cy="0" r="1" gradientTransform="matrix(-396.354 15.6045 336.372 533.023 211.486 152.652)" gradientUnits="userSpaceOnUse">
<stop stop-color="#003323" stop-opacity="0.4"/>
<stop offset="0.424906" stop-color="#003323" stop-opacity="0.1"/>
</radialGradient>
<radialGradient id="paint1_radial_415_12584" cx="0" cy="0" r="1" gradientTransform="matrix(110.35 189.555 -376.351 262.742 329.013 248.038)" gradientUnits="userSpaceOnUse">
<stop stop-color="#003323" stop-opacity="0.4"/>
<stop offset="0.424906" stop-color="#003323" stop-opacity="0.1"/>
</radialGradient>
<linearGradient id="paint2_linear_415_12584" x1="43" y1="0" x2="43" y2="19" gradientUnits="userSpaceOnUse">
<stop stop-color="#003323" stop-opacity="0.3"/>
<stop offset="1" stop-color="#003323" stop-opacity="0"/>
</linearGradient>
<clipPath id="clip0_415_12584">
<path d="M0 8C0 3.58172 3.58172 0 8 0H320C324.418 0 328 3.58172 328 8V100C328 104.418 324.418 108 320 108H7.99999C3.58171 108 0 104.418 0 100V8Z" fill="white"/>
</clipPath>
<clipPath id="clip1_415_12584">
<path d="M63.0784 93.5392C63.0784 90.6008 65.1413 89.4098 67.6861 90.879V90.879C70.2308 92.3482 72.2937 95.9213 72.2937 98.8597V98.8597C72.2937 101.798 70.2308 102.989 67.6861 101.52V101.52C65.1413 100.051 63.0784 96.4777 63.0784 93.5392V93.5392Z" fill="white"/>
</clipPath>
<clipPath id="clip2_415_12584">
<rect width="7.98075" height="7.98075" fill="white" transform="matrix(0.866025 0.5 0 1 64.2302 90.2109)"/>
</clipPath>
<clipPath id="clip3_415_12584">
<path d="M309.552 55.0392C309.552 52.1008 311.615 50.9098 314.16 52.379V52.379C316.705 53.8482 318.768 57.4213 318.768 60.3597V60.3597C318.768 63.2982 316.705 64.4892 314.16 63.02V63.02C311.615 61.5508 309.552 57.9777 309.552 55.0392V55.0392Z" fill="white"/>
</clipPath>
<clipPath id="clip4_415_12584">
<rect width="7.98075" height="7.98075" fill="white" transform="matrix(0.866025 0.5 0 1 310.704 51.7109)"/>
</clipPath>
</defs>
</svg>
