<svg width="328" height="108" viewBox="0 0 328 108" fill="none" xmlns="http://www.w3.org/2000/svg">
<g clip-path="url(#clip0_417_12771)">
<path d="M0 8C0 3.58172 3.58172 0 8 0H320C324.418 0 328 3.58172 328 8V100C328 104.418 324.418 108 320 108H7.99999C3.58171 108 0 104.418 0 100V8Z" fill="#F5F5F4"/>
<g opacity="0.4">
<path d="M995.604 285.514L1039.07 310.609L997.976 334.335M995.604 285.514L954.51 309.24M995.604 285.514L952.138 260.419M954.51 309.24L997.976 334.335M954.51 309.24L911.044 284.145M954.51 309.24L913.416 332.966M997.976 334.335L956.882 358.061M952.138 260.419L911.044 284.145M952.138 260.419L908.672 235.324M911.044 284.145L867.577 259.049M911.044 284.145L869.95 307.87M908.672 235.324L867.577 259.049M908.672 235.324L865.205 210.228M867.577 259.049L824.111 233.954M867.577 259.049L826.483 282.775M865.205 210.228L824.111 233.954M865.205 210.228L821.739 185.133M824.111 233.954L780.645 208.859M824.111 233.954L783.017 257.68M821.739 185.133L780.645 208.859M821.739 185.133L778.273 160.038M780.645 208.859L737.179 183.764M780.645 208.859L739.551 232.585M778.273 160.038L737.179 183.764M778.273 160.038L734.807 134.943M737.179 183.764L693.713 158.668M737.179 183.764L696.085 207.489M734.807 134.943L693.713 158.668M734.807 134.943L691.34 109.847M693.713 158.668L650.246 133.573M693.713 158.668L652.618 182.394M691.34 109.847L650.246 133.573M691.34 109.847L647.874 84.7522M650.246 133.573L606.78 108.478M650.246 133.573L609.152 157.299M647.874 84.7522L606.78 108.478M647.874 84.7522L604.408 59.657M606.78 108.478L563.314 83.3827M606.78 108.478L565.686 132.204M604.408 59.657L563.314 83.3827M604.408 59.657L560.942 34.5617M563.314 83.3827L519.848 58.2875M563.314 83.3827L522.22 107.108M560.942 34.5617L519.848 58.2875M560.942 34.5617L517.476 9.46647M519.848 58.2875L476.381 33.1922M519.848 58.2875L478.753 82.0132M517.476 9.46647L476.381 33.1922M517.476 9.46647L474.009 -15.6288M476.381 33.1922L432.915 8.09697M476.381 33.1922L435.287 56.9179M474.009 -15.6288L432.915 8.09697M474.009 -15.6288L430.543 -40.724M432.915 8.09697L389.449 -16.9983M432.915 8.09697L391.821 31.8227M430.543 -40.724L389.449 -16.9983M430.543 -40.724L387.077 -65.8192M389.449 -16.9983L345.983 -42.0935M389.449 -16.9983L348.355 6.72747M387.077 -65.8192L345.983 -42.0935M387.077 -65.8192L343.611 -90.9145M345.983 -42.0935L302.516 -67.1887M345.983 -42.0935L304.889 -18.3678M343.611 -90.9145L302.516 -67.1887M343.611 -90.9145L300.144 -116.01L259.05 -92.284M302.516 -67.1887L259.05 -92.284M302.516 -67.1887L261.422 -43.463M259.05 -92.284L217.956 -68.5582M913.416 332.966L956.882 358.061M913.416 332.966L869.95 307.87M913.416 332.966L872.322 356.691M956.882 358.061L915.788 381.787M869.95 307.87L826.483 282.775M869.95 307.87L828.855 331.596M826.483 282.775L783.017 257.68M826.483 282.775L785.389 306.501M783.017 257.68L739.551 232.585M783.017 257.68L741.923 281.406M739.551 232.585L696.085 207.489M739.551 232.585L698.457 256.31M696.085 207.489L652.618 182.394M696.085 207.489L654.99 231.215M652.618 182.394L609.152 157.299M652.618 182.394L611.524 206.12M609.152 157.299L565.686 132.204M609.152 157.299L568.058 181.025M565.686 132.204L522.22 107.108M565.686 132.204L524.592 155.929M522.22 107.108L478.753 82.0132M522.22 107.108L481.126 130.834M478.753 82.0132L435.287 56.9179M478.753 82.0132L437.659 105.739M435.287 56.9179L391.821 31.8227M435.287 56.9179L394.193 80.6437M391.821 31.8227L348.355 6.72747M391.821 31.8227L350.727 55.5484M348.355 6.72747L304.889 -18.3678M348.355 6.72747L307.261 30.4532M304.889 -18.3678L261.422 -43.463M304.889 -18.3678L263.794 5.35794M261.422 -43.463L217.956 -68.5582M261.422 -43.463L220.328 -19.7373M217.956 -68.5582L176.862 -44.8325M872.322 356.691L915.788 381.787M872.322 356.691L828.855 331.596M872.322 356.691L831.227 380.417M915.788 381.787L874.694 405.512M828.855 331.596L785.389 306.501M828.855 331.596L787.761 355.322M785.389 306.501L741.923 281.406M785.389 306.501L744.295 330.227M741.923 281.406L698.457 256.31M741.923 281.406L700.829 305.131M698.457 256.31L654.99 231.215M698.457 256.31L657.362 280.036M654.99 231.215L611.524 206.12M654.99 231.215L613.896 254.941M611.524 206.12L568.058 181.025M611.524 206.12L570.43 229.846M568.058 181.025L524.592 155.929M568.058 181.025L526.964 204.75M524.592 155.929L481.126 130.834M524.592 155.929L483.498 179.655M481.126 130.834L437.659 105.739M481.126 130.834L440.031 154.56M437.659 105.739L394.193 80.6437M437.659 105.739L396.565 129.465M394.193 80.6437L350.727 55.5484M394.193 80.6437L353.099 104.369M350.727 55.5484L307.261 30.4532M350.727 55.5484L309.633 79.2742M307.261 30.4532L263.794 5.35794M307.261 30.4532L266.166 54.1789M263.794 5.35794L220.328 -19.7373M263.794 5.35794L222.7 29.0837M220.328 -19.7373L176.862 -44.8325M220.328 -19.7373L179.234 3.98844M176.862 -44.8325L135.768 -21.1068M831.227 380.417L874.694 405.512M831.227 380.417L787.761 355.322M831.227 380.417L790.133 404.143M874.694 405.512L833.599 429.238M787.761 355.322L744.295 330.227M787.761 355.322L746.667 379.048M744.295 330.227L700.829 305.131M744.295 330.227L703.201 353.952M700.829 305.131L657.362 280.036M700.829 305.131L659.735 328.857M657.362 280.036L613.896 254.941M657.362 280.036L616.268 303.762M613.896 254.941L570.43 229.846M613.896 254.941L572.802 278.667M570.43 229.846L526.964 204.75M570.43 229.846L529.336 253.571M526.964 204.75L483.498 179.655M526.964 204.75L485.87 228.476M483.498 179.655L440.031 154.56M483.498 179.655L442.403 203.381M440.031 154.56L396.565 129.465M440.031 154.56L398.937 178.286M396.565 129.465L353.099 104.369M396.565 129.465L355.471 153.19M353.099 104.369L309.633 79.2742M353.099 104.369L312.005 128.095M309.633 79.2742L266.166 54.1789M309.633 79.2742L268.538 103M266.166 54.1789L222.7 29.0837M266.166 54.1789L225.072 77.9047M222.7 29.0837L179.234 3.98844M222.7 29.0837L181.606 52.8094M179.234 3.98844L135.768 -21.1068M179.234 3.98844L138.14 27.7142M135.768 -21.1068L94.6736 2.61893M790.133 404.143L833.599 429.238M790.133 404.143L746.667 379.048M790.133 404.143L749.039 427.869M833.599 429.238L792.505 452.964M746.667 379.048L703.201 353.952M746.667 379.048L705.573 402.773M703.201 353.952L659.735 328.857M703.201 353.952L662.107 377.678M659.735 328.857L616.268 303.762M659.735 328.857L618.64 352.583M616.268 303.762L572.802 278.667M616.268 303.762L575.174 327.488M572.802 278.667L529.336 253.571M572.802 278.667L531.708 302.392M529.336 253.571L485.87 228.476M529.336 253.571L488.242 277.297M485.87 228.476L442.403 203.381M485.87 228.476L444.775 252.202M442.403 203.381L398.937 178.286M442.403 203.381L401.309 227.107M398.937 178.286L355.471 153.19M398.937 178.286L357.843 202.011M355.471 153.19L312.005 128.095M355.471 153.19L314.377 176.916M312.005 128.095L268.538 103M312.005 128.095L270.911 151.821M268.538 103L225.072 77.9047M268.538 103L227.444 126.726M225.072 77.9047L181.606 52.8094M225.072 77.9047L183.978 101.63M181.606 52.8094L138.14 27.7142M181.606 52.8094L140.512 76.5351M138.14 27.7142L94.6736 2.61893M138.14 27.7142L97.0456 51.4399M94.6736 2.61893L53.5794 26.3447M749.039 427.869L792.505 452.964M749.039 427.869L705.573 402.773M749.039 427.869L707.945 451.594M792.505 452.964L751.411 476.689M705.573 402.773L662.107 377.678M705.573 402.773L664.479 426.499M662.107 377.678L618.64 352.583M662.107 377.678L621.012 401.404M618.64 352.583L575.174 327.488M618.64 352.583L577.546 376.309M575.174 327.488L531.708 302.392M575.174 327.488L534.08 351.213M531.708 302.392L488.242 277.297M531.708 302.392L490.614 326.118M488.242 277.297L444.775 252.202M488.242 277.297L447.148 301.023M444.775 252.202L401.309 227.107M444.775 252.202L403.681 275.928M401.309 227.107L357.843 202.011M401.309 227.107L360.215 250.832M357.843 202.011L314.377 176.916M357.843 202.011L316.749 225.737M314.377 176.916L270.911 151.821M314.377 176.916L273.283 200.642M270.911 151.821L227.444 126.726M270.911 151.821L229.816 175.547M227.444 126.726L183.978 101.63M227.444 126.726L186.35 150.451M183.978 101.63L140.512 76.5351M183.978 101.63L142.884 125.356M140.512 76.5351L97.0456 51.4399M140.512 76.5351L99.4177 100.261M97.0456 51.4399L53.5794 26.3447M97.0456 51.4399L55.9515 75.1656M53.5794 26.3447L12.4852 50.0704M707.945 451.594L751.411 476.689M707.945 451.594L664.479 426.499M707.945 451.594L666.851 475.32M751.411 476.689L710.317 500.415M664.479 426.499L621.012 401.404M664.479 426.499L623.384 450.225M621.012 401.404L577.546 376.309M621.012 401.404L579.918 425.129M577.546 376.309L534.08 351.213M577.546 376.309L536.452 400.034M534.08 351.213L490.614 326.118M534.08 351.213L492.986 374.939M490.614 326.118L447.148 301.023M490.614 326.118L449.52 349.844M447.148 301.023L403.681 275.928M447.148 301.023L406.053 324.749M403.681 275.928L360.215 250.832M403.681 275.928L362.587 299.653M360.215 250.832L316.749 225.737M360.215 250.832L319.121 274.558M316.749 225.737L273.283 200.642M316.749 225.737L275.655 249.463M273.283 200.642L229.816 175.547M273.283 200.642L232.188 224.368M229.816 175.547L186.35 150.451M229.816 175.547L188.722 199.272M186.35 150.451L142.884 125.356M186.35 150.451L145.256 174.177M142.884 125.356L99.4177 100.261M142.884 125.356L101.79 149.082M99.4177 100.261L55.9515 75.1656M99.4177 100.261L58.3235 123.987M55.9515 75.1656L12.4852 50.0704M55.9515 75.1656L14.8573 98.8914M12.4852 50.0704L-28.6089 73.7961M666.851 475.32L710.317 500.415M666.851 475.32L623.384 450.225M666.851 475.32L625.757 499.046M710.317 500.415L669.223 524.141M623.384 450.225L579.918 425.129M623.384 450.225L582.29 473.95M579.918 425.129L536.452 400.034M579.918 425.129L538.824 448.855M536.452 400.034L492.986 374.939M536.452 400.034L495.358 423.76M492.986 374.939L449.52 349.844M492.986 374.939L451.892 398.665M449.52 349.844L406.053 324.749M449.52 349.844L408.425 373.569M406.053 324.749L362.587 299.653M406.053 324.749L364.959 348.474M362.587 299.653L319.121 274.558M362.587 299.653L321.493 323.379M319.121 274.558L275.655 249.463M319.121 274.558L278.027 298.284M275.655 249.463L232.188 224.368M275.655 249.463L234.56 273.189M232.188 224.368L188.722 199.272M232.188 224.368L191.094 248.093M188.722 199.272L145.256 174.177M188.722 199.272L147.628 222.998M145.256 174.177L101.79 149.082M145.256 174.177L104.162 197.903M101.79 149.082L58.3235 123.987M101.79 149.082L60.6956 172.808M58.3235 123.987L14.8573 98.8914M58.3235 123.987L17.2293 147.712M14.8573 98.8914L-28.6089 73.7961M14.8573 98.8914L-26.2369 122.617M-28.6089 73.7961L-69.7031 97.5219M625.757 499.046L669.223 524.141M625.757 499.046L582.29 473.95M625.757 499.046L584.662 522.771M669.223 524.141L628.129 547.867M582.29 473.95L538.824 448.855M582.29 473.95L541.196 497.676M538.824 448.855L495.358 423.76M538.824 448.855L497.73 472.581M495.358 423.76L451.892 398.665M495.358 423.76L454.264 447.486M451.892 398.665L408.425 373.569M451.892 398.665L410.797 422.39M408.425 373.569L364.959 348.474M408.425 373.569L367.331 397.295M364.959 348.474L321.493 323.379M364.959 348.474L323.865 372.2M321.493 323.379L278.027 298.284M321.493 323.379L280.399 347.105M278.027 298.284L234.56 273.189M278.027 298.284L236.933 322.009M234.56 273.189L191.094 248.093M234.56 273.189L193.466 296.914M191.094 248.093L147.628 222.998M191.094 248.093L150 271.819M147.628 222.998L104.162 197.903M147.628 222.998L106.534 246.724M104.162 197.903L60.6956 172.808M104.162 197.903L63.0676 221.629M60.6956 172.808L17.2293 147.712M60.6956 172.808L19.6014 196.533M17.2293 147.712L-26.2369 122.617M17.2293 147.712L-23.8648 171.438M-26.2369 122.617L-69.7031 97.5219M-26.2369 122.617L-67.331 146.343M-69.7031 97.5219L-110.797 121.248M584.662 522.771L628.129 547.867M584.662 522.771L541.196 497.676M584.662 522.771L543.568 546.497M628.129 547.867L587.034 571.592M541.196 497.676L497.73 472.581M541.196 497.676L500.102 521.402M497.73 472.581L454.264 447.486M497.73 472.581L456.636 496.307M454.264 447.486L410.797 422.39M454.264 447.486L413.169 471.211M410.797 422.39L367.331 397.295M410.797 422.39L369.703 446.116M367.331 397.295L323.865 372.2M367.331 397.295L326.237 421.021M323.865 372.2L280.399 347.105M323.865 372.2L282.771 395.926M280.399 347.105L236.933 322.009M280.399 347.105L239.305 370.83M236.933 322.009L193.466 296.914M236.933 322.009L195.838 345.735M193.466 296.914L150 271.819M193.466 296.914L152.372 320.64M150 271.819L106.534 246.724M150 271.819L108.906 295.545M106.534 246.724L63.0676 221.629M106.534 246.724L65.4396 270.449M63.0676 221.629L19.6014 196.533M63.0676 221.629L21.9734 245.354M19.6014 196.533L-23.8648 171.438M19.6014 196.533L-21.4928 220.259M-23.8648 171.438L-67.331 146.343M-23.8648 171.438L-64.959 195.164M-67.331 146.343L-110.797 121.248M-67.331 146.343L-108.425 170.069M-110.797 121.248L-151.891 144.973M543.568 546.497L587.034 571.592M543.568 546.497L500.102 521.402M543.568 546.497L502.474 570.223M587.034 571.592L545.94 595.318L502.474 570.223M500.102 521.402L456.636 496.307M500.102 521.402L459.008 545.128M456.636 496.307L413.169 471.211M456.636 496.307L415.542 520.032M413.169 471.211L369.703 446.116M413.169 471.211L372.075 494.937M369.703 446.116L326.237 421.021M369.703 446.116L328.609 469.842M326.237 421.021L282.771 395.926M326.237 421.021L285.143 444.747M282.771 395.926L239.305 370.83M282.771 395.926L241.677 419.651M239.305 370.83L195.838 345.735M239.305 370.83L198.21 394.556M195.838 345.735L152.372 320.64M195.838 345.735L154.744 369.461M152.372 320.64L108.906 295.545M152.372 320.64L111.278 344.366M108.906 295.545L65.4396 270.449M108.906 295.545L67.8117 319.27M65.4396 270.449L21.9734 245.354M65.4396 270.449L24.3455 294.175M21.9734 245.354L-21.4928 220.259M21.9734 245.354L-19.1207 269.08M-21.4928 220.259L-64.959 195.164M-21.4928 220.259L-62.5869 243.985M-64.959 195.164L-108.425 170.069M-64.959 195.164L-106.053 218.889M-108.425 170.069L-151.891 144.973M-108.425 170.069L-149.519 193.794M-151.891 144.973L-192.986 168.699L-149.519 193.794M502.474 570.223L459.008 545.128M459.008 545.128L415.542 520.032M415.542 520.032L372.075 494.937M372.075 494.937L328.609 469.842M328.609 469.842L285.143 444.747M285.143 444.747L241.677 419.651M241.677 419.651L198.21 394.556M198.21 394.556L154.744 369.461M154.744 369.461L111.278 344.366M111.278 344.366L67.8117 319.27M67.8117 319.27L24.3455 294.175M24.3455 294.175L-19.1207 269.08M-19.1207 269.08L-62.5869 243.985M-62.5869 243.985L-106.053 218.889M-106.053 218.889L-149.519 193.794" stroke="url(#paint0_radial_417_12771)" stroke-opacity="0.85"/>
<g filter="url(#filter0_f_417_12771)">
<circle cx="220.782" cy="220.782" r="220.782" transform="matrix(0.866025 -0.5 0.866025 0.5 -158.035 213.781)" fill="white"/>
<circle cx="220.782" cy="220.782" r="220.782" transform="matrix(0.866025 -0.5 0.866025 0.5 -158.035 213.781)" fill="#003323" fill-opacity="0.3"/>
<circle cx="220.782" cy="220.782" r="220.575" transform="matrix(0.866025 -0.5 0.866025 0.5 -158.035 213.781)" stroke="url(#paint1_radial_417_12771)" stroke-opacity="0.85" stroke-width="0.413063"/>
</g>
</g>
<rect width="92" height="92" rx="4" transform="matrix(0.866025 -0.5 0.866025 0.5 91 61)" fill="white"/>
<rect width="92" height="92" rx="4" transform="matrix(0.866025 -0.5 0.866025 0.5 91 61)" fill="#003323" fill-opacity="0.3"/>
<rect width="93" height="98" rx="5" transform="matrix(0.866025 -0.5 0.866025 0.5 85.196 48.5)" fill="#FAFAF9"/>
<path d="M95.5885 38.5C94.6319 37.9477 94.6319 37.0523 95.5885 36.5V36.5C96.5451 35.9477 98.096 35.9477 99.0526 36.5L102.517 38.5L99.0526 40.5L95.5885 38.5Z" fill="#FAFAF9"/>
<path d="M144.952 10C143.995 9.44772 143.995 8.55228 144.952 8V8C145.908 7.44772 147.459 7.44772 148.416 8L151.88 10L148.416 12L144.952 10Z" fill="#FAFAF9"/>
<path d="M102.517 50.5C100.604 49.3954 100.604 47.6046 102.517 46.5L162.272 12C164.186 10.8954 167.287 10.8954 169.201 12L175.263 15.5L108.579 54L102.517 50.5Z" fill="white"/>
<path d="M102.517 50.5C100.604 49.3954 100.604 47.6046 102.517 46.5L162.272 12C164.186 10.8954 167.287 10.8954 169.201 12L175.263 15.5L108.579 54L102.517 50.5Z" fill="#003323" fill-opacity="0.5"/>
<rect width="9.33333" height="12" rx="2" transform="matrix(0.866025 -0.5 0.866025 0.5 112.909 56.5)" fill="white"/>
<rect width="9.33333" height="12" rx="2" transform="matrix(0.866025 -0.5 0.866025 0.5 112.909 56.5)" fill="#003323" fill-opacity="0.2"/>
<rect width="9.33333" height="12" rx="2" transform="matrix(0.866025 -0.5 0.866025 0.5 124.456 49.8359)" fill="white"/>
<rect width="9.33333" height="12" rx="2" transform="matrix(0.866025 -0.5 0.866025 0.5 124.456 49.8359)" fill="#003323" fill-opacity="0.2"/>
<rect width="9.33333" height="12" rx="2" transform="matrix(0.866025 -0.5 0.866025 0.5 136.003 43.1641)" fill="white"/>
<rect width="9.33333" height="12" rx="2" transform="matrix(0.866025 -0.5 0.866025 0.5 136.003 43.1641)" fill="#003323" fill-opacity="0.2"/>
<rect width="9.33333" height="12" rx="2" transform="matrix(0.866025 -0.5 0.866025 0.5 147.55 36.5)" fill="white"/>
<rect width="9.33333" height="12" rx="2" transform="matrix(0.866025 -0.5 0.866025 0.5 147.55 36.5)" fill="#003323" fill-opacity="0.2"/>
<rect width="9.33333" height="12" rx="2" transform="matrix(0.866025 -0.5 0.866025 0.5 159.097 29.8359)" fill="white"/>
<rect width="9.33333" height="12" rx="2" transform="matrix(0.866025 -0.5 0.866025 0.5 159.097 29.8359)" fill="#003323" fill-opacity="0.2"/>
<rect width="9.33333" height="12" rx="2" transform="matrix(0.866025 -0.5 0.866025 0.5 170.644 23.1641)" fill="white"/>
<rect width="9.33333" height="12" rx="2" transform="matrix(0.866025 -0.5 0.866025 0.5 170.644 23.1641)" fill="#003323" fill-opacity="0.2"/>
<rect width="9.33333" height="12" rx="2" transform="matrix(0.866025 -0.5 0.866025 0.5 128.497 65.5)" fill="white"/>
<rect width="9.33333" height="12" rx="2" transform="matrix(0.866025 -0.5 0.866025 0.5 128.497 65.5)" fill="#003323" fill-opacity="0.2"/>
<rect width="9.33333" height="12" rx="2" transform="matrix(0.866025 -0.5 0.866025 0.5 140.044 58.8359)" fill="white"/>
<rect width="9.33333" height="12" rx="2" transform="matrix(0.866025 -0.5 0.866025 0.5 140.044 58.8359)" fill="#003323" fill-opacity="0.2"/>
<rect width="9.33333" height="12" rx="2" transform="matrix(0.866025 -0.5 0.866025 0.5 151.591 52.1641)" fill="white"/>
<rect width="9.33333" height="12" rx="2" transform="matrix(0.866025 -0.5 0.866025 0.5 151.591 52.1641)" fill="#003323" fill-opacity="0.2"/>
<rect width="9.33333" height="12" rx="2" transform="matrix(0.866025 -0.5 0.866025 0.5 163.138 45.5)" fill="white"/>
<rect width="9.33333" height="12" rx="2" transform="matrix(0.866025 -0.5 0.866025 0.5 163.138 45.5)" fill="#003323" fill-opacity="0.2"/>
<rect width="9.33333" height="12" rx="2" transform="matrix(0.866025 -0.5 0.866025 0.5 174.685 38.8359)" fill="white"/>
<rect width="9.33333" height="12" rx="2" transform="matrix(0.866025 -0.5 0.866025 0.5 174.685 38.8359)" fill="#003323" fill-opacity="0.2"/>
<rect width="9.33333" height="12" rx="2" transform="matrix(0.866025 -0.5 0.866025 0.5 186.232 32.1641)" fill="white"/>
<rect width="9.33333" height="12" rx="2" transform="matrix(0.866025 -0.5 0.866025 0.5 186.232 32.1641)" fill="#003323" fill-opacity="0.2"/>
<rect width="9.33333" height="12" rx="2" transform="matrix(0.866025 -0.5 0.866025 0.5 144.086 74.5)" fill="white"/>
<rect width="9.33333" height="12" rx="2" transform="matrix(0.866025 -0.5 0.866025 0.5 144.086 74.5)" fill="#003323" fill-opacity="0.2"/>
<rect width="9.33333" height="12" rx="2" transform="matrix(0.866025 -0.5 0.866025 0.5 155.633 67.8359)" fill="white"/>
<rect width="9.33333" height="12" rx="2" transform="matrix(0.866025 -0.5 0.866025 0.5 155.633 67.8359)" fill="#003323" fill-opacity="0.2"/>
<rect width="9.33333" height="12" rx="2" transform="matrix(0.866025 -0.5 0.866025 0.5 167.18 61.1641)" fill="white"/>
<rect width="9.33333" height="12" rx="2" transform="matrix(0.866025 -0.5 0.866025 0.5 167.18 61.1641)" fill="#003323" fill-opacity="0.2"/>
<rect width="9.33333" height="12" rx="2" transform="matrix(0.866025 -0.5 0.866025 0.5 178.727 54.5)" fill="white"/>
<rect width="9.33333" height="12" rx="2" transform="matrix(0.866025 -0.5 0.866025 0.5 178.727 54.5)" fill="#003323" fill-opacity="0.2"/>
<rect width="9.33333" height="12" rx="2" transform="matrix(0.866025 -0.5 0.866025 0.5 190.274 47.8359)" fill="white"/>
<rect width="9.33333" height="12" rx="2" transform="matrix(0.866025 -0.5 0.866025 0.5 190.274 47.8359)" fill="#003323" fill-opacity="0.2"/>
<rect width="9.33333" height="12" rx="2" transform="matrix(0.866025 -0.5 0.866025 0.5 201.821 41.1641)" fill="white"/>
<rect width="9.33333" height="12" rx="2" transform="matrix(0.866025 -0.5 0.866025 0.5 201.821 41.1641)" fill="#003323" fill-opacity="0.2"/>
<rect width="9.33333" height="12" rx="2" transform="matrix(0.866025 -0.5 0.866025 0.5 159.674 83.5)" fill="white"/>
<rect width="9.33333" height="12" rx="2" transform="matrix(0.866025 -0.5 0.866025 0.5 159.674 83.5)" fill="#003323" fill-opacity="0.2"/>
<rect width="9.33333" height="12" rx="2" transform="matrix(0.866025 -0.5 0.866025 0.5 171.221 76.8359)" fill="white"/>
<rect width="9.33333" height="12" rx="2" transform="matrix(0.866025 -0.5 0.866025 0.5 171.221 76.8359)" fill="#003323" fill-opacity="0.2"/>
<rect width="9.33333" height="12" rx="2" transform="matrix(0.866025 -0.5 0.866025 0.5 182.768 70.1641)" fill="white"/>
<rect width="9.33333" height="12" rx="2" transform="matrix(0.866025 -0.5 0.866025 0.5 182.768 70.1641)" fill="#003323" fill-opacity="0.2"/>
<rect width="9.33333" height="12" rx="2" transform="matrix(0.866025 -0.5 0.866025 0.5 194.315 63.5)" fill="white"/>
<rect width="9.33333" height="12" rx="2" transform="matrix(0.866025 -0.5 0.866025 0.5 194.315 63.5)" fill="#003323" fill-opacity="0.2"/>
<rect width="9.33333" height="12" rx="2" transform="matrix(0.866025 -0.5 0.866025 0.5 205.862 56.8359)" fill="white"/>
<rect width="9.33333" height="12" rx="2" transform="matrix(0.866025 -0.5 0.866025 0.5 205.862 56.8359)" fill="#003323" fill-opacity="0.2"/>
<rect width="9.33333" height="12" rx="2" transform="matrix(0.866025 -0.5 0.866025 0.5 217.409 50.1641)" fill="white"/>
<rect width="9.33333" height="12" rx="2" transform="matrix(0.866025 -0.5 0.866025 0.5 217.409 50.1641)" fill="#003323" fill-opacity="0.2"/>
<path d="M131.583 49.2812C131.165 49.5223 130.881 49.8294 130.766 50.1637C130.65 50.4981 130.71 50.8446 130.935 51.1596C131.161 51.4745 131.544 51.7437 132.035 51.9331C132.526 52.1225 133.103 52.2236 133.694 52.2236C134.284 52.2236 134.861 52.1225 135.352 51.9331C135.843 51.7437 136.226 51.4745 136.452 51.1596C136.678 50.8446 136.737 50.4981 136.622 50.1637C136.506 49.8294 136.222 49.5223 135.804 49.2812C135.244 48.9585 134.485 48.7772 133.694 48.7772C132.902 48.7772 132.143 48.9585 131.583 49.2812ZM134.248 49.75V51.0625C134.248 51.0799 134.242 51.0972 134.231 51.1133C134.219 51.1294 134.202 51.144 134.181 51.1563C134.159 51.1686 134.134 51.1784 134.106 51.1851C134.078 51.1917 134.048 51.1952 134.018 51.1952H133.044C132.983 51.1952 132.925 51.1812 132.882 51.1563C132.838 51.1314 132.814 51.0977 132.814 51.0625C132.814 51.0273 132.838 50.9936 132.882 50.9687C132.925 50.9438 132.983 50.9298 133.044 50.9298L133.789 50.93L133.789 49.75C133.789 49.7326 133.794 49.7153 133.806 49.6992C133.818 49.6831 133.835 49.6685 133.856 49.6562C133.877 49.6439 133.903 49.6341 133.93 49.6274C133.958 49.6208 133.988 49.6173 134.018 49.6173C134.048 49.6173 134.078 49.6208 134.106 49.6274C134.134 49.6341 134.159 49.6439 134.181 49.6562C134.202 49.6685 134.219 49.6831 134.231 49.6992C134.242 49.7153 134.248 49.7326 134.248 49.75Z" fill="white"/>
<path d="M131.583 49.2812C131.165 49.5223 130.881 49.8294 130.766 50.1637C130.65 50.4981 130.71 50.8446 130.935 51.1596C131.161 51.4745 131.544 51.7437 132.035 51.9331C132.526 52.1225 133.103 52.2236 133.694 52.2236C134.284 52.2236 134.861 52.1225 135.352 51.9331C135.843 51.7437 136.226 51.4745 136.452 51.1596C136.678 50.8446 136.737 50.4981 136.622 50.1637C136.506 49.8294 136.222 49.5223 135.804 49.2812C135.244 48.9585 134.485 48.7772 133.694 48.7772C132.902 48.7772 132.143 48.9585 131.583 49.2812ZM134.248 49.75V51.0625C134.248 51.0799 134.242 51.0972 134.231 51.1133C134.219 51.1294 134.202 51.144 134.181 51.1563C134.159 51.1686 134.134 51.1784 134.106 51.1851C134.078 51.1917 134.048 51.1952 134.018 51.1952H133.044C132.983 51.1952 132.925 51.1812 132.882 51.1563C132.838 51.1314 132.814 51.0977 132.814 51.0625C132.814 51.0273 132.838 50.9936 132.882 50.9687C132.925 50.9438 132.983 50.9298 133.044 50.9298L133.789 50.93L133.789 49.75C133.789 49.7326 133.794 49.7153 133.806 49.6992C133.818 49.6831 133.835 49.6685 133.856 49.6562C133.877 49.6439 133.903 49.6341 133.93 49.6274C133.958 49.6208 133.988 49.6173 134.018 49.6173C134.048 49.6173 134.078 49.6208 134.106 49.6274C134.134 49.6341 134.159 49.6439 134.181 49.6562C134.202 49.6685 134.219 49.6831 134.231 49.6992C134.242 49.7153 134.248 49.7326 134.248 49.75Z" fill="#003323" fill-opacity="0.7"/>
<path d="M178.348 76.2812C177.93 76.5223 177.646 76.8294 177.531 77.1637C177.416 77.4981 177.475 77.8446 177.701 78.1596C177.927 78.4745 178.309 78.7437 178.8 78.9331C179.291 79.1225 179.868 79.2236 180.459 79.2236C181.049 79.2236 181.627 79.1225 182.117 78.9331C182.608 78.7437 182.991 78.4745 183.217 78.1596C183.443 77.8446 183.502 77.4981 183.387 77.1637C183.272 76.8294 182.987 76.5223 182.57 76.2812C182.01 75.9585 181.25 75.7772 180.459 75.7772C179.667 75.7772 178.908 75.9585 178.348 76.2812ZM181.013 76.75V78.0625C181.013 78.0799 181.008 78.0972 180.996 78.1133C180.984 78.1294 180.968 78.144 180.946 78.1563C180.925 78.1686 180.9 78.1784 180.872 78.1851C180.844 78.1917 180.814 78.1952 180.784 78.1952H179.809C179.748 78.1952 179.69 78.1812 179.647 78.1563C179.604 78.1314 179.58 78.0977 179.58 78.0625C179.58 78.0273 179.604 77.9936 179.647 77.9687C179.69 77.9438 179.748 77.9298 179.809 77.9298L180.554 77.93L180.554 76.75C180.554 76.7326 180.56 76.7153 180.571 76.6992C180.583 76.6831 180.6 76.6685 180.621 76.6562C180.643 76.6439 180.668 76.6341 180.696 76.6274C180.724 76.6208 180.754 76.6173 180.784 76.6173C180.814 76.6173 180.844 76.6208 180.872 76.6274C180.899 76.6341 180.925 76.6439 180.946 76.6562C180.968 76.6685 180.984 76.6831 180.996 76.6992C181.008 76.7153 181.013 76.7326 181.013 76.75Z" fill="white"/>
<path d="M178.348 76.2812C177.93 76.5223 177.646 76.8294 177.531 77.1637C177.416 77.4981 177.475 77.8446 177.701 78.1596C177.927 78.4745 178.309 78.7437 178.8 78.9331C179.291 79.1225 179.868 79.2236 180.459 79.2236C181.049 79.2236 181.627 79.1225 182.117 78.9331C182.608 78.7437 182.991 78.4745 183.217 78.1596C183.443 77.8446 183.502 77.4981 183.387 77.1637C183.272 76.8294 182.987 76.5223 182.57 76.2812C182.01 75.9585 181.25 75.7772 180.459 75.7772C179.667 75.7772 178.908 75.9585 178.348 76.2812ZM181.013 76.75V78.0625C181.013 78.0799 181.008 78.0972 180.996 78.1133C180.984 78.1294 180.968 78.144 180.946 78.1563C180.925 78.1686 180.9 78.1784 180.872 78.1851C180.844 78.1917 180.814 78.1952 180.784 78.1952H179.809C179.748 78.1952 179.69 78.1812 179.647 78.1563C179.604 78.1314 179.58 78.0977 179.58 78.0625C179.58 78.0273 179.604 77.9936 179.647 77.9687C179.69 77.9438 179.748 77.9298 179.809 77.9298L180.554 77.93L180.554 76.75C180.554 76.7326 180.56 76.7153 180.571 76.6992C180.583 76.6831 180.6 76.6685 180.621 76.6562C180.643 76.6439 180.668 76.6341 180.696 76.6274C180.724 76.6208 180.754 76.6173 180.784 76.6173C180.814 76.6173 180.844 76.6208 180.872 76.6274C180.899 76.6341 180.925 76.6439 180.946 76.6562C180.968 76.6685 180.984 76.6831 180.996 76.6992C181.008 76.7153 181.013 76.7326 181.013 76.75Z" fill="#003323" fill-opacity="0.7"/>
<path d="M185.709 54.0312C185.292 54.2723 185.007 54.5794 184.892 54.9137C184.777 55.2481 184.836 55.5946 185.062 55.9096C185.288 56.2245 185.671 56.4937 186.162 56.6831C186.653 56.8725 187.23 56.9736 187.82 56.9736C188.411 56.9736 188.988 56.8725 189.479 56.6831C189.97 56.4937 190.352 56.2245 190.578 55.9096C190.804 55.5946 190.863 55.2481 190.748 54.9137C190.633 54.5794 190.349 54.2723 189.931 54.0312C189.371 53.7085 188.612 53.5272 187.82 53.5272C187.029 53.5272 186.269 53.7085 185.709 54.0312ZM188.375 54.5V55.8125C188.375 55.8299 188.369 55.8472 188.357 55.8633C188.346 55.8794 188.329 55.894 188.307 55.9063C188.286 55.9186 188.261 55.9284 188.233 55.9351C188.205 55.9417 188.175 55.9452 188.145 55.9452H187.171C187.11 55.9452 187.051 55.9312 187.008 55.9063C186.965 55.8814 186.941 55.8477 186.941 55.8125C186.941 55.7773 186.965 55.7436 187.008 55.7187C187.051 55.6938 187.11 55.6798 187.171 55.6798L187.915 55.68L187.915 54.5C187.915 54.4826 187.921 54.4653 187.933 54.4492C187.944 54.4331 187.961 54.4185 187.982 54.4062C188.004 54.3939 188.029 54.3841 188.057 54.3774C188.085 54.3708 188.115 54.3673 188.145 54.3673C188.175 54.3673 188.205 54.3708 188.233 54.3774C188.261 54.3841 188.286 54.3939 188.307 54.4062C188.329 54.4185 188.346 54.4331 188.357 54.4492C188.369 54.4653 188.375 54.4826 188.375 54.5Z" fill="white"/>
<path d="M185.709 54.0312C185.292 54.2723 185.007 54.5794 184.892 54.9137C184.777 55.2481 184.836 55.5946 185.062 55.9096C185.288 56.2245 185.671 56.4937 186.162 56.6831C186.653 56.8725 187.23 56.9736 187.82 56.9736C188.411 56.9736 188.988 56.8725 189.479 56.6831C189.97 56.4937 190.352 56.2245 190.578 55.9096C190.804 55.5946 190.863 55.2481 190.748 54.9137C190.633 54.5794 190.349 54.2723 189.931 54.0312C189.371 53.7085 188.612 53.5272 187.82 53.5272C187.029 53.5272 186.269 53.7085 185.709 54.0312ZM188.375 54.5V55.8125C188.375 55.8299 188.369 55.8472 188.357 55.8633C188.346 55.8794 188.329 55.894 188.307 55.9063C188.286 55.9186 188.261 55.9284 188.233 55.9351C188.205 55.9417 188.175 55.9452 188.145 55.9452H187.171C187.11 55.9452 187.051 55.9312 187.008 55.9063C186.965 55.8814 186.941 55.8477 186.941 55.8125C186.941 55.7773 186.965 55.7436 187.008 55.7187C187.051 55.6938 187.11 55.6798 187.171 55.6798L187.915 55.68L187.915 54.5C187.915 54.4826 187.921 54.4653 187.933 54.4492C187.944 54.4331 187.961 54.4185 187.982 54.4062C188.004 54.3939 188.029 54.3841 188.057 54.3774C188.085 54.3708 188.115 54.3673 188.145 54.3673C188.175 54.3673 188.205 54.3708 188.233 54.3774C188.261 54.3841 188.286 54.3939 188.307 54.4062C188.329 54.4185 188.346 54.4331 188.357 54.4492C188.369 54.4653 188.375 54.4826 188.375 54.5Z" fill="#003323" fill-opacity="0.7"/>
<rect width="60.0854" height="19" rx="2" transform="matrix(0.866025 0.5 0 1 9 53)" fill="#FAFAF9"/>
<path d="M13.4167 68.55L12.6707 68.1193L14.8284 62.5796L15.563 63.0037L17.7207 71.0349L16.9747 70.6042L15.2187 63.8784L15.1728 63.8519L13.4167 68.55ZM13.6922 66.0585L16.6992 67.7946V68.5235L13.6922 66.7874V66.0585ZM21.3217 71.0332V68.0248L21.9989 68.4158V73.5049L21.3217 73.1139V72.2525L21.2758 72.226C21.1725 72.4248 21.0118 72.5518 20.7938 72.607C20.5757 72.66 20.3002 72.5905 19.9674 72.3983C19.6919 72.2393 19.4471 72.0283 19.2328 71.7655C19.0186 71.5004 18.8503 71.1912 18.7278 70.8378C18.6054 70.4821 18.5442 70.0879 18.5442 69.6549V66.4213L19.2214 66.8122V69.9929C19.2214 70.364 19.3113 70.7119 19.4911 71.0366C19.6728 71.3624 19.9043 71.6064 20.1855 71.7688C20.3538 71.866 20.525 71.9151 20.6991 71.9162C20.8751 71.9184 21.0223 71.8511 21.1409 71.7141C21.2615 71.5783 21.3217 71.3513 21.3217 71.0332ZM25.1558 70.2385V70.9011L22.8719 69.5825V68.9198L25.1558 70.2385ZM23.5376 68.0849L24.2147 68.4759V73.3264C24.2147 73.5473 24.2424 73.729 24.2979 73.8714C24.3553 74.0128 24.428 74.1276 24.516 74.216C24.6059 74.3032 24.7006 74.3756 24.8001 74.433C24.8747 74.4761 24.9359 74.507 24.9837 74.5258C25.0315 74.5423 25.0698 74.5556 25.0985 74.5655L25.2362 75.3475C25.1903 75.3408 25.1262 75.3237 25.0439 75.2961C24.9617 75.2707 24.8574 75.2216 24.7312 75.1487C24.5399 75.0382 24.3524 74.8825 24.1688 74.6815C23.9871 74.4816 23.836 74.2497 23.7154 73.9857C23.5968 73.7229 23.5376 73.4435 23.5376 73.1475V68.0849ZM27.9176 77.0281C27.5197 76.7984 27.1706 76.4875 26.8703 76.0954C26.5719 75.7045 26.3385 75.2638 26.1702 74.7734C26.0037 74.2842 25.9205 73.7767 25.9205 73.251C25.9205 72.7209 26.0037 72.3062 26.1702 72.0069C26.3385 71.7087 26.5719 71.5364 26.8703 71.4901C27.1706 71.4448 27.5197 71.537 27.9176 71.7667C28.3155 71.9964 28.6636 72.3068 28.962 72.6977C29.2623 73.0898 29.4957 73.5315 29.6621 74.023C29.8305 74.5156 29.9146 75.0269 29.9146 75.557C29.9146 76.0827 29.8305 76.4936 29.6621 76.7895C29.4957 77.0866 29.2623 77.2578 28.962 77.3031C28.6636 77.3495 28.3155 77.2578 27.9176 77.0281ZM27.9176 76.3257C28.2198 76.5002 28.4685 76.5543 28.6636 76.488C28.8587 76.4218 29.0031 76.2699 29.0969 76.0325C29.1906 75.795 29.2375 75.5062 29.2375 75.1661C29.2375 74.8259 29.1906 74.4819 29.0969 74.134C29.0031 73.7861 28.8587 73.4653 28.6636 73.1715C28.4685 72.8777 28.2198 72.6436 27.9176 72.4691C27.6153 72.2946 27.3667 72.2416 27.1715 72.3101C26.9764 72.3785 26.832 72.5326 26.7383 72.7723C26.6446 73.0119 26.5977 73.3018 26.5977 73.642C26.5977 73.9821 26.6446 74.3251 26.7383 74.6707C26.832 75.0164 26.9764 75.335 27.1715 75.6266C27.3667 75.9182 27.6153 76.1512 27.9176 76.3257ZM30.9483 80.5803V73.5828L31.6025 73.9605V74.7689L31.6828 74.8153C31.7326 74.7556 31.8014 74.6827 31.8894 74.5966C31.9793 74.5094 32.1075 74.4597 32.2739 74.4475C32.4423 74.4343 32.6699 74.5105 32.9568 74.6761C33.3279 74.8904 33.655 75.1864 33.9381 75.5641C34.2212 75.9418 34.4422 76.373 34.6009 76.8579C34.7597 77.3427 34.8391 77.8524 34.8391 78.3869C34.8391 78.9259 34.7597 79.3472 34.6009 79.6509C34.4422 79.9524 34.2222 80.1302 33.941 80.1843C33.6598 80.2362 33.3356 80.1562 32.9683 79.9441C32.6852 79.7807 32.4585 79.5957 32.2883 79.3892C32.118 79.1804 31.987 78.98 31.8952 78.7878C31.8034 78.5934 31.7326 78.4355 31.6828 78.314L31.6255 78.2809V80.9712L30.9483 80.5803ZM31.614 76.5116C31.614 76.896 31.6628 77.2632 31.7603 77.6133C31.8579 77.9612 32.0004 78.2721 32.1878 78.5459C32.3753 78.8176 32.6049 79.0319 32.8765 79.1887C33.1596 79.3522 33.3958 79.4024 33.5852 79.3395C33.7765 79.2754 33.92 79.1241 34.0156 78.8856C34.1132 78.6459 34.1619 78.3449 34.1619 77.9827C34.1619 77.6249 34.1141 77.2748 34.0185 76.9324C33.9247 76.5889 33.7822 76.2781 33.5909 75.9997C33.4016 75.7203 33.1634 75.4978 32.8765 75.3321C32.601 75.1731 32.3696 75.1201 32.1821 75.1731C31.9946 75.2239 31.8531 75.3653 31.7574 75.5972C31.6618 75.8269 31.614 76.1317 31.614 76.5116ZM37.169 82.3826C36.8897 82.2214 36.6363 82.0143 36.4086 81.7614C36.181 81.5063 36.0002 81.2241 35.8663 80.9149C35.7324 80.6035 35.6655 80.2821 35.6655 79.9507C35.6655 79.6592 35.7152 79.4516 35.8147 79.3279C35.9141 79.202 36.0471 79.1351 36.2135 79.1274C36.3799 79.1197 36.5636 79.1484 36.7644 79.2136C36.9672 79.2776 37.1709 79.3533 37.3756 79.4405C37.6434 79.5554 37.8605 79.6509 38.0269 79.7271C38.1953 79.8022 38.3177 79.8364 38.3942 79.8298C38.4726 79.8243 38.5118 79.7586 38.5118 79.6327V79.6062C38.5118 79.2793 38.4344 78.9805 38.2794 78.71C38.1264 78.4405 37.894 78.2157 37.5822 78.0357C37.2589 77.8491 37.0054 77.7845 36.8218 77.8419C36.6382 77.8993 36.509 77.9993 36.4344 78.1417L35.7917 77.5056C35.9065 77.2626 36.0595 77.1102 36.2508 77.0484C36.444 76.9854 36.6544 76.9854 36.8821 77.0484C37.1116 77.1102 37.3373 77.2052 37.5592 77.3333C37.7008 77.415 37.8634 77.5288 38.047 77.6746C38.2326 77.8193 38.4114 78.0009 38.5836 78.2196C38.7576 78.4394 38.9021 78.7028 39.0168 79.0098C39.1316 79.3168 39.189 79.6724 39.189 80.0767V83.4296L38.5118 83.0387V82.3495L38.4774 82.3296C38.4315 82.4136 38.355 82.4876 38.2479 82.5516C38.1407 82.6157 37.9982 82.6405 37.8203 82.6262C37.6424 82.6118 37.4253 82.5306 37.169 82.3826ZM37.2723 81.7399C37.5401 81.8945 37.7658 81.9641 37.9494 81.9486C38.135 81.9343 38.2746 81.8581 38.3684 81.72C38.464 81.5831 38.5118 81.4086 38.5118 81.1965V80.4809C38.4831 80.5041 38.42 80.5041 38.3225 80.4809C38.2268 80.4566 38.1159 80.4201 37.9896 80.3715C37.8653 80.3218 37.7438 80.2716 37.6252 80.2208C37.5085 80.1689 37.4138 80.1275 37.3412 80.0965C37.1652 80.0214 37.0007 79.9695 36.8476 79.9408C36.6965 79.911 36.5741 79.9276 36.4804 79.9905C36.3885 80.0524 36.3426 80.1827 36.3426 80.3815C36.3426 80.6531 36.4297 80.9088 36.6037 81.1485C36.7797 81.387 37.0026 81.5842 37.2723 81.7399ZM40.7033 86.2123C40.5885 86.146 40.4862 86.0759 40.3963 86.0019C40.3064 85.9301 40.2442 85.8744 40.2098 85.8346L40.3819 85.2448C40.5464 85.3884 40.6918 85.49 40.8181 85.5497C40.9443 85.6093 41.0562 85.6087 41.1538 85.548C41.2532 85.4906 41.3441 85.3564 41.4264 85.1454L41.5526 84.8208L39.9228 78.7642L40.6574 79.1883L41.874 83.9461L41.9199 83.9726L43.1365 80.6196L43.871 81.0437L42.0002 85.7948C41.916 86.0091 41.8118 86.1665 41.6875 86.267C41.5631 86.3697 41.4187 86.4155 41.2542 86.4045C41.0916 86.3945 40.908 86.3305 40.7033 86.2123Z" fill="#003323" fill-opacity="0.7"/>
<g clip-path="url(#clip1_417_12771)">
<path d="M48.356 85.0392C48.356 82.1008 50.4189 80.9098 52.9636 82.379V82.379C55.5084 83.8482 57.5713 87.4213 57.5713 90.3597V90.3597C57.5713 93.2982 55.5084 94.4892 52.9636 93.02V93.02C50.4189 91.5508 48.356 87.9777 48.356 85.0392V85.0392Z" fill="#003323" fill-opacity="0.7"/>
<g clip-path="url(#clip2_417_12771)">
<path d="M55.2674 87.0352L52.0996 88.8642L50.6597 86.3702" stroke="white" stroke-width="0.665062" stroke-linecap="round" stroke-linejoin="round"/>
</g>
</g>
<rect width="39.0854" height="19" rx="2" transform="matrix(0.866025 0.5 0 1 265 20)" fill="#FAFAF9"/>
<path d="M273.032 30.8519L273.744 31.2627V35.7554C273.744 36.2193 273.649 36.5787 273.46 36.8339C273.272 37.0879 273.007 37.221 272.665 37.2331C272.322 37.243 271.921 37.1149 271.46 36.8488C270.999 36.5826 270.597 36.2469 270.255 35.8416C269.912 35.434 269.646 34.9945 269.457 34.5229C269.269 34.0502 269.176 33.5819 269.176 33.1181V28.6254L269.887 29.0362V33.4627C269.887 33.794 269.95 34.1253 270.077 34.4566C270.203 34.7857 270.383 35.0917 270.616 35.3744C270.851 35.656 271.133 35.8913 271.46 36.0801C271.787 36.269 272.068 36.3584 272.303 36.3485C272.539 36.3363 272.718 36.238 272.843 36.0536C272.969 35.8681 273.032 35.6096 273.032 35.2783V30.8519ZM275.165 38.8686V32.0831L277.15 33.2295C277.611 33.4957 277.988 33.8093 278.281 34.1705C278.575 34.5305 278.793 34.9137 278.935 35.3201C279.077 35.7266 279.147 36.1297 279.147 36.5295C279.147 36.9293 279.077 37.2517 278.935 37.4969C278.795 37.7432 278.579 37.879 278.287 37.9044C277.994 37.9276 277.619 37.8073 277.162 37.5433L275.739 36.7216V35.9927L277.139 36.8011C277.454 36.9834 277.708 37.0668 277.899 37.0513C278.09 37.0358 278.229 36.9458 278.315 36.7813C278.403 36.6156 278.447 36.3969 278.447 36.1252C278.447 35.8536 278.403 35.5852 278.315 35.3201C278.229 35.0562 278.089 34.8077 277.896 34.5747C277.703 34.3394 277.447 34.1296 277.127 33.9452L275.876 33.2229V39.2794L275.165 38.8686ZM281.005 35.4552V42.2406L280.294 41.8298V35.0443L281.005 35.4552Z" fill="#003323" fill-opacity="0.7"/>
<g clip-path="url(#clip3_417_12771)">
<path d="M286.17 41.5392C286.17 38.6008 288.232 37.4098 290.777 38.879V38.879C293.322 40.3482 295.385 43.9213 295.385 46.8597V46.8597C295.385 49.7982 293.322 50.9892 290.777 49.52V49.52C288.232 48.0508 286.17 44.4777 286.17 41.5392V41.5392Z" fill="#003323" fill-opacity="0.7"/>
<g clip-path="url(#clip4_417_12771)">
<path d="M293.081 43.5352L289.913 45.3642L288.474 42.8702" stroke="white" stroke-width="0.665062" stroke-linecap="round" stroke-linejoin="round"/>
</g>
</g>
<rect width="52.25" height="14" rx="2" transform="matrix(0.866025 0.5 0 1 87 -25)" fill="#FAFAF9"/>
<path d="M112.53 -0.260417L112.602 -2.51042L110.924 -2.25L110.491 -3.375L112.259 -3.41667L110.491 -5.5L110.924 -6.125L112.602 -3.92708L112.53 -6.26042L113.396 -5.76042L113.324 -3.51042L115.002 -3.77083L115.435 -2.64583L113.666 -2.60417L115.435 -0.520833L115.002 0.104166L113.324 -2.09375L113.396 0.239583L112.53 -0.260417Z" fill="white"/>
<path d="M112.53 -0.260417L112.602 -2.51042L110.924 -2.25L110.491 -3.375L112.259 -3.41667L110.491 -5.5L110.924 -6.125L112.602 -3.92708L112.53 -6.26042L113.396 -5.76042L113.324 -3.51042L115.002 -3.77083L115.435 -2.64583L113.666 -2.60417L115.435 -0.520833L115.002 0.104166L113.324 -2.09375L113.396 0.239583L112.53 -0.260417Z" fill="#003323" fill-opacity="0.5"/>
<path d="M119.205 3.59115L119.277 1.34115L117.6 1.60156L117.167 0.476562L118.935 0.434895L117.167 -1.64844L117.6 -2.27344L119.277 -0.0755209L119.205 -2.40885L120.071 -1.90885L119.999 0.341146L121.677 0.080729L122.11 1.20573L120.342 1.2474L122.11 3.33073L121.677 3.95573L119.999 1.75781L120.071 4.09115L119.205 3.59115Z" fill="white"/>
<path d="M119.205 3.59115L119.277 1.34115L117.6 1.60156L117.167 0.476562L118.935 0.434895L117.167 -1.64844L117.6 -2.27344L119.277 -0.0755209L119.205 -2.40885L120.071 -1.90885L119.999 0.341146L121.677 0.080729L122.11 1.20573L120.342 1.2474L122.11 3.33073L121.677 3.95573L119.999 1.75781L120.071 4.09115L119.205 3.59115Z" fill="#003323" fill-opacity="0.5"/>
<path d="M125.881 7.45052L125.953 5.20052L124.275 5.46094L123.842 4.33594L125.61 4.29427L123.842 2.21094L124.275 1.58594L125.953 3.78385L125.881 1.45052L126.747 1.95052L126.675 4.20052L128.353 3.9401L128.786 5.0651L127.018 5.10677L128.786 7.1901L128.353 7.8151L126.675 5.61719L126.747 7.95052L125.881 7.45052Z" fill="white"/>
<path d="M125.881 7.45052L125.953 5.20052L124.275 5.46094L123.842 4.33594L125.61 4.29427L123.842 2.21094L124.275 1.58594L125.953 3.78385L125.881 1.45052L126.747 1.95052L126.675 4.20052L128.353 3.9401L128.786 5.0651L127.018 5.10677L128.786 7.1901L128.353 7.8151L126.675 5.61719L126.747 7.95052L125.881 7.45052Z" fill="#003323" fill-opacity="0.5"/>
<rect width="29.125" height="14" rx="2" transform="matrix(0.866025 0.5 0 1 30 -27)" fill="#FAFAF9"/>
</g>
<defs>
<filter id="filter0_f_417_12771" x="-189.777" y="-86.0817" width="828.295" height="599.726" filterUnits="userSpaceOnUse" color-interpolation-filters="sRGB">
<feFlood flood-opacity="0" result="BackgroundImageFix"/>
<feBlend mode="normal" in="SourceGraphic" in2="BackgroundImageFix" result="shape"/>
<feGaussianBlur stdDeviation="71.8729" result="effect1_foregroundBlur_417_12771"/>
</filter>
<radialGradient id="paint0_radial_417_12771" cx="0" cy="0" r="1" gradientTransform="matrix(-396.354 15.6045 336.372 533.023 211.486 152.66)" gradientUnits="userSpaceOnUse">
<stop stop-color="#003323" stop-opacity="0.4"/>
<stop offset="0.424906" stop-color="#003323" stop-opacity="0.1"/>
</radialGradient>
<radialGradient id="paint1_radial_417_12771" cx="0" cy="0" r="1" gradientTransform="matrix(110.35 189.555 -376.351 262.742 329.013 248.038)" gradientUnits="userSpaceOnUse">
<stop stop-color="#003323" stop-opacity="0.4"/>
<stop offset="0.424906" stop-color="#003323" stop-opacity="0.1"/>
</radialGradient>
<clipPath id="clip0_417_12771">
<path d="M0 8C0 3.58172 3.58172 0 8 0H320C324.418 0 328 3.58172 328 8V100C328 104.418 324.418 108 320 108H7.99999C3.58171 108 0 104.418 0 100V8Z" fill="white"/>
</clipPath>
<clipPath id="clip1_417_12771">
<path d="M48.356 85.0392C48.356 82.1008 50.4189 80.9098 52.9636 82.379V82.379C55.5084 83.8482 57.5713 87.4213 57.5713 90.3597V90.3597C57.5713 93.2982 55.5084 94.4892 52.9636 93.02V93.02C50.4189 91.5508 48.356 87.9777 48.356 85.0392V85.0392Z" fill="white"/>
</clipPath>
<clipPath id="clip2_417_12771">
<rect width="7.98075" height="7.98075" fill="white" transform="matrix(0.866025 0.5 0 1 49.5078 81.7109)"/>
</clipPath>
<clipPath id="clip3_417_12771">
<path d="M286.17 41.5392C286.17 38.6008 288.232 37.4098 290.777 38.879V38.879C293.322 40.3482 295.385 43.9213 295.385 46.8597V46.8597C295.385 49.7982 293.322 50.9892 290.777 49.52V49.52C288.232 48.0508 286.17 44.4777 286.17 41.5392V41.5392Z" fill="white"/>
</clipPath>
<clipPath id="clip4_417_12771">
<rect width="7.98075" height="7.98075" fill="white" transform="matrix(0.866025 0.5 0 1 287.322 38.2109)"/>
</clipPath>
</defs>
</svg>
